<?xml version="1.0" encoding="UTF-8" standalone="no"?>
<!-- Generator: Adobe Illustrator 26.0.3, SVG Export Plug-In . SVG Version: 6.00 Build 0)  -->

<svg
   version="1.1"
   id="svg58670"
   x="0px"
   y="0px"
   viewBox="0 0 1419.4179 223.23777"
   xml:space="preserve"
   sodipodi:docname="BrandBased-Typeface-white.svg"
   inkscape:version="1.1.2 (b8e25be8, 2022-02-05)"
   width="1419.418"
   height="223.23776"
   xmlns:inkscape="http://www.inkscape.org/namespaces/inkscape"
   xmlns:sodipodi="http://sodipodi.sourceforge.net/DTD/sodipodi-0.dtd"
   xmlns="http://www.w3.org/2000/svg"
   xmlns:svg="http://www.w3.org/2000/svg"><defs
   id="defs2542"><clipPath
     clipPathUnits="userSpaceOnUse"
     id="clipPath40878"><rect
       style="display:none;opacity:0.723562;fill:#ffff00;stroke-width:0.755906;stroke-linejoin:round"
       id="rect40880"
       width="46.708874"
       height="4.1435289"
       x="1223.4712"
       y="168.26138"
       d="m 1223.4712,168.26138 h 46.7089 v 4.14353 h -46.7089 z" /><path
       id="lpe_path-effect40882"
       style="opacity:0.723562;fill:#ffff00;stroke-width:0.755906;stroke-linejoin:round"
       class="powerclip"
       d="m 1129.7502,69.99137 h 142.5788 v 158.26838 h -142.5788 z m 93.721,98.27001 v 4.14353 h 46.7089 v -4.14353 z" /></clipPath><inkscape:path-effect
     effect="powerclip"
     id="path-effect40882"
     is_visible="true"
     lpeversion="1"
     inverse="true"
     flatten="false"
     hide_clip="false"
     message="Use fill-rule evenodd on &lt;b&gt;fill and stroke&lt;/b&gt; dialog if no flatten result after convert clip to paths." /></defs>
<style
   type="text/css"
   id="style2516">
	.st0{fill:#102FF5;}
</style>
<sodipodi:namedview
   bordercolor="#666666"
   borderopacity="1.0"
   fit-margin-bottom="0"
   fit-margin-left="0"
   fit-margin-right="0"
   fit-margin-top="0"
   id="namedview58672"
   inkscape:current-layer="g2539"
   inkscape:cx="751.10883"
   inkscape:cy="166.49453"
   inkscape:document-units="mm"
   inkscape:pagecheckerboard="0"
   inkscape:pageopacity="0.0"
   inkscape:pageshadow="2"
   inkscape:window-height="959"
   inkscape:window-maximized="0"
   inkscape:window-width="2284"
   inkscape:window-x="0"
   inkscape:window-y="25"
   inkscape:zoom="0.66368545"
   pagecolor="#ffffff"
   showgrid="false">
	</sodipodi:namedview>
<g
   id="g2539"
   transform="translate(-2.1358335,-0.01519747)">
	<path
   id="path2523-4"
   class="st0"
   d="M 107.70318,73.41736 C 93.87931,66.37253 75.13762,64.51159 58.52228,68.63217 51.34456,70.49304 44.83132,73.41736 38.9832,77.67083 37.9194,78.46834 36.9891,79 36.85621,79 36.72334,79 36.72334,66.10667 36.72334,50.15614 V 21.31221 L 35.52726,19.18548 C 30.0772,9.3493 18.11455,2.30448 5.08807,1.50697 L 2.16369,1.3741 l 0.13287,79.88562 0.13287,79.88563 0.5316,3.85471 c 2.79148,16.88102 9.70341,29.37558 21.7996,39.61051 11.56396,9.70329 29.10958,16.0835 46.5223,16.74811 v 0 c 17.81141,0.79751 30.83788,-2.65845 44.79465,-12.09588 7.31062,-4.78513 11.03237,-8.50694 15.81731,-14.7542 12.89359,-17.27976 18.21011,-40.54098 14.75415,-64.33391 -3.45597,-25.255 -17.54563,-45.85776 -38.94589,-56.7573 z m 5.58295,74.43588 c -0.93092,12.89332 -5.05137,22.7295 -12.89359,30.30598 -5.71585,5.4498 -11.43106,8.37405 -18.74168,9.57032 v 0 c -5.31716,0.79757 -11.56398,0.66461 -16.34955,-0.26579 -10.36789,-2.12674 -19.14038,-9.03867 -24.19174,-19.00775 -7.97512,-15.81764 -6.91194,-38.81299 2.39278,-52.50389 5.71585,-8.50695 13.55806,-13.55793 23.26146,-15.15303 3.72176,-0.66461 11.29819,-0.66461 14.88705,0 7.44351,1.32923 13.29226,4.25348 18.74168,9.43743 3.45598,3.32301 5.84875,6.51311 7.97512,10.76658 3.85466,7.84241 5.71585,17.27976 4.91847,26.85015 z"
   style="fill:#ffffff;fill-opacity:1;stroke:#000000;stroke-width:0.0556161;stroke-miterlimit:1.7861" /><path
   id="path2525-2"
   class="st0"
   d="m 342.04365,76.87325 v 4.9181 4.91809 l -0.66512,-0.53159 c -9.30408,-6.64608 -16.21602,-9.43743 -26.18522,-10.89955 -4.65204,-0.66461 -13.69095,-0.66461 -18.07721,0 -14.08965,1.99384 -25.65361,7.9753 -35.62282,18.21022 -9.83631,10.23494 -17.01403,25.38791 -19.27391,40.93968 -4.51915,30.83776 5.71585,59.94747 26.58454,76.29682 7.70931,6.11436 18.34299,10.36784 28.578,11.4312 1.46187,0.13287 3.19017,0.3987 3.72175,0.3987 v 0 c 2.127,0.2658 12.22845,-0.13286 14.88703,-0.5316 9.30472,-1.32922 17.81142,-5.05104 24.98914,-10.50078 l 1.06382,-0.79752 v 4.91809 5.05099 l 15.81731,-0.13287 15.81732,-0.13287 0.13287,-71.91039 0.13287,-71.91033 h -15.95084 -15.95023 z m 0.66448,73.23963 c -0.13286,6.91185 -0.66448,10.10204 -2.25988,15.41887 -3.72176,12.76044 -12.36137,21.932 -23.26148,24.72335 v 0 c -2.39215,0.53159 -3.58886,0.79751 -7.9751,0.79751 -5.31653,0.13287 -7.17773,-0.13287 -10.63369,-1.06338 -15.68443,-4.25347 -25.91942,-20.86862 -25.91942,-41.47144 0,-22.86241 12.49425,-40.00927 30.5721,-42.2689 6.64549,-0.79757 13.55742,0.13287 18.74168,2.39253 3.85466,1.72799 8.9054,5.98146 12.09557,10.10204 4.12045,5.4498 6.91192,13.15918 8.10864,21.53323 0.53158,2.92426 0.66448,4.9181 0.53158,9.83619 z"
   style="fill:#ffffff;fill-opacity:1;stroke:#000000;stroke-width:0.0556161;stroke-miterlimit:1.7861" /><path
   id="path2527-4"
   class="st0"
   d="m 206.86234,79.53172 c -5.05073,2.39258 -10.5008,6.24731 -13.69097,9.57031 -0.66449,0.53158 -1.19608,1.19627 -1.46187,1.19627 -0.13287,0 -0.13287,-2.92425 -0.13287,-6.64601 v -6.64607 h -15.81795 -15.81732 v 71.91039 72.04328 h 15.81732 15.81795 v -31.50237 c 0,-17.27976 0.13287,-33.62904 0.26579,-36.42039 0.79739,-13.55795 4.91785,-24.85625 12.09557,-33.49616 2.92437,-3.58886 6.91193,-6.77896 10.63368,-8.63985 4.65268,-2.2597 9.30472,-3.05721 17.81142,-3.05721 h 4.65268 V 91.22876 74.61362 h -4.12047 c -11.5646,0 -18.60942,1.19627 -26.05294,4.9181 z"
   style="fill:#ffffff;fill-opacity:1;stroke:#000000;stroke-width:0.0556161;stroke-miterlimit:1.7861" /><path
   id="path2529-0"
   class="st0"
   d="M 813.91346,79.93046 C 804.0772,72.61978 793.84276,68.3663 781.348,66.77128 c -3.58888,-0.53159 -14.48837,-0.53159 -18.21011,0 -10.50089,1.32923 -19.27392,4.51934 -27.24902,9.83618 L 732.3,79 V 50.28903 21.57808 l -0.66449,-1.46212 c -1.06323,-2.25971 -2.92439,-4.78519 -5.31716,-7.31069 C 720.07153,6.29216 711.03263,2.30448 700.00027,1.63987 l -2.12704,-0.13287 0.13316,80.28438 0.13315,80.28444 0.53161,3.58886 c 1.32898,7.44358 2.92368,12.89333 5.98108,19.14064 9.96913,20.60283 31.2365,33.76201 58.75139,36.55336 v 0 c 4.65197,0.53159 16.34952,0.26579 20.20414,-0.53159 11.29824,-1.86088 21.26736,-6.24725 31.50237,-13.6909 13.2917,-9.70322 23.52671,-27.38172 26.8497,-46.78823 1.86116,-10.10203 1.72829,-23.39411 -0.13315,-33.2303 -3.58888,-19.80524 -13.42513,-36.28749 -27.9135,-47.18704 z m -5.18358,70.44827 c -1.32968,11.16534 -5.31716,20.46987 -12.09616,27.24884 -5.84821,5.8485 -12.0956,9.0386 -20.0707,10.23492 v 0 c -2.52564,0.3987 -9.83626,0.53159 -12.09616,0.13287 -8.50672,-1.06336 -14.88712,-4.1205 -20.7359,-9.96907 -6.1138,-6.11436 -10.10199,-14.75426 -11.69684,-24.98919 -2.39277,-16.08343 1.72772,-32.29983 10.63375,-42.00311 5.18359,-5.5827 11.03236,-8.90571 18.47585,-10.50078 3.85475,-0.79752 12.36204,-0.93041 16.34952,-0.13287 7.70937,1.46212 13.29227,4.38642 18.74173,9.70327 6.24752,6.11436 10.10214,13.9567 12.09616,24.05874 0.53162,3.45596 0.7975,12.36167 0.39875,16.21638 z"
   style="fill:#ffffff;fill-opacity:1;stroke:#000000;stroke-width:0.0556161;stroke-miterlimit:1.7861" /><path
   id="path2529-0-2"
   class="st0"
   d="m 1305.4857,78.46834 c 9.8362,-7.31069 20.0712,-11.56422 32.5656,-13.15924 3.5887,-0.53159 14.4882,-0.53159 18.21,0 10.5008,1.32916 19.274,4.5194 27.2491,9.83623 l 3.5887,2.39253 V 48.82685 20.11588 l 0.6645,-1.46212 c 1.0633,-2.25969 2.9244,-4.78519 5.3172,-7.31069 6.2468,-6.51316 15.2859,-10.50078 26.3182,-11.1654 l 2.1269,-0.13287 -0.1332,80.28446 -0.1331,80.28443 -0.5316,3.58886 c -1.329,7.44359 -2.9237,12.89334 -5.9809,19.14065 -9.9693,20.60275 -31.2367,33.76201 -58.7514,36.55336 v 0 c -4.6521,0.53159 -16.349,0.26579 -20.2043,-0.53159 -11.2981,-1.86089 -21.2674,-6.24731 -31.5017,-13.6909 -13.2922,-9.70322 -23.5272,-27.38173 -26.8504,-46.78824 -1.8611,-10.10202 -1.7283,-23.3941 0.1332,-33.23029 3.5888,-19.80525 13.4252,-36.28749 27.9135,-47.18704 z m 5.1836,70.44827 c 1.3296,11.16534 5.3171,20.46987 12.0961,27.24884 5.8482,5.84849 12.0956,9.03859 20.0707,10.23492 v 0 c 2.5258,0.39869 9.8364,0.53159 12.0962,0.13287 8.5067,-1.06336 14.8871,-4.12058 20.7359,-9.96907 6.1138,-6.11436 10.102,-14.75426 11.6968,-24.9892 2.3928,-16.08343 -1.7277,-32.29982 -10.6337,-42.0031 -5.1836,-5.5827 -11.0324,-8.90571 -18.4759,-10.50079 -3.8546,-0.79751 -12.362,-0.93041 -16.3495,-0.13287 -7.7094,1.46213 -13.2923,4.38637 -18.7417,9.70321 -6.2474,6.11443 -10.1022,13.95676 -12.0962,24.0588 -0.5316,3.45589 -0.7973,12.36167 -0.3987,16.21639 z"
   style="fill:#ffffff;fill-opacity:1;stroke:#000000;stroke-width:0.0556161;stroke-miterlimit:1.7861" /><path
   id="path2529-0-2-5"
   class="st0"
   d="m 557.05141,79.93046 c 9.83555,-7.31068 20.07056,-11.56421 32.56547,-13.15923 3.58887,-0.53159 14.48837,-0.53159 18.21011,0 10.50074,1.32922 19.27334,4.51939 27.24901,9.83623 L 638.66488,79 V 50.28898 21.57801 l 0.66448,-1.46213 c 1.06324,-2.25969 2.92439,-4.78518 5.3166,-7.31068 6.24738,-6.51317 15.28629,-10.50079 26.31865,-11.1654 l 2.12646,-0.13287 -0.13315,80.28445 -0.13315,80.28444 -0.53162,3.58886 c -1.32897,7.44358 -2.92439,12.89333 -5.98093,19.14064 -9.96927,20.60283 -31.23664,33.76201 -58.75139,36.55336 v 0 c -4.65211,0.53159 -16.34953,0.26579 -20.20428,-0.53159 -11.2981,-1.86088 -21.26737,-6.24725 -31.50237,-13.6909 -13.29156,-9.70322 -23.52657,-27.38172 -26.8497,-46.78823 -1.86116,-10.10203 -1.72829,-23.39411 0.13315,-33.2303 3.58887,-19.80524 13.42527,-36.28749 27.91364,-47.18704 z m 5.18359,70.44827 c 1.32897,11.16534 5.31716,20.46987 12.09616,27.24884 5.84807,5.8485 12.09559,9.0386 20.0707,10.23492 v 0 c 2.52564,0.3987 9.83625,0.53159 12.09616,0.13287 8.50672,-1.06336 14.88711,-4.1205 20.73518,-9.96907 6.11452,-6.11436 10.10214,-14.75426 11.69756,-24.98919 2.39206,-16.08343 -1.72843,-32.29983 -10.63376,-42.00311 -5.18429,-5.5827 -11.03236,-8.90571 -18.47585,-10.50078 -3.85532,-0.79752 -12.36204,-0.93041 -16.34966,-0.13287 -7.70922,1.46212 -13.29226,4.38642 -18.74158,9.70327 -6.24753,6.11436 -10.10214,13.9567 -12.09631,24.05874 -0.53147,3.45596 -0.79735,12.36167 -0.3986,16.21638 z"
   style="fill:#ffffff;fill-opacity:1;stroke:#000000;stroke-width:0.0556161;stroke-miterlimit:1.7861" /><path
   id="path2531-2"
   sodipodi:nodetypes="ccccccccccccccsscccccccccscsscccccsccssscccc"
   class="st0"
   d="m 1117.6384,154.49925 c -1.8606,-2.6584 -6.5133,-7.31062 -9.5699,-9.43736 -5.9816,-4.25348 -15.2864,-8.10819 -26.0529,-10.5008 -12.0956,-2.92424 -22.1977,-5.31683 -24.5905,-6.24731 -3.456,-1.06336 -7.8422,-3.32301 -9.9692,-4.78513 -1.196,-0.93047 -1.8605,-1.59508 -2.3921,-2.65846 -0.6652,-1.46212 -1.1967,-1.99384 -1.0638,-4.25347 0.1331,-2.52548 0.665,-3.32299 1.3295,-4.51932 0.9304,-1.72799 2.1264,-2.92427 4.5193,-4.12052 7.0447,-3.58894 23.2614,-3.72183 30.3062,-0.2658 2.1264,1.06336 3.8547,2.52549 5.5824,5.05099 1.7283,2.3926 2.3927,4.51933 2.7914,8.37405 0.2658,1.59502 0.3987,3.32301 0.5316,3.72175 l 0.2659,0.93048 h 15.9507 c 14.8871,0 15.9502,0 15.9502,-0.53159 0,-1.32922 -1.1961,-10.89955 -1.5947,-12.76049 -1.8613,-9.17156 -7.8422,-19.27354 -14.6212,-24.85624 -5.9817,-5.05098 -13.1594,-8.77281 -20.47,-10.63368 -15.2857,-3.85473 -36.4202,-2.12674 -48.7823,3.98762 -12.2284,5.98145 -19.8055,15.95053 -22.1976,29.24267 -0.6645,4.12057 -0.6645,13.15918 0,17.01389 1.9935,10.5008 7.3106,17.94439 17.1469,24.05873 5.8481,3.72183 15.4186,7.04483 28.578,10.23494 17.8115,4.25347 23.6596,6.11442 27.9135,8.50695 4.1205,2.52555 5.4494,4.65229 5.4494,8.90578 0,3.45589 -0.6644,5.05098 -2.9243,7.31061 -4.2534,4.12058 -11.2981,6.11442 -21.6662,6.11442 -9.7033,0 -15.0198,-1.72799 -19.9376,-6.64607 -1.7283,-1.72798 -2.3928,-2.65846 -3.3232,-4.65223 -1.3295,-2.92431 -2.3928,-6.91194 -2.9244,-11.29831 l -0.2657,-3.32306 h -16.0838 -16.0831 v 1.32922 c 0,3.32301 0.9303,11.56417 1.4619,14.35552 1.0632,4.65223 1.9941,7.04482 4.5192,12.09582 2.6585,5.31683 4.9184,8.50694 8.773,12.36166 9.4371,9.43742 21.4004,14.75427 36.9519,16.21639 v 0 c 3.8546,0.39869 14.8871,0.13287 18.8751,-0.39869 14.4884,-1.86094 25.6538,-7.04482 33.363,-15.41889 7.7094,-8.24108 11.1654,-18.60898 10.7666,-31.76816 -0.6645,-8.9057 -2.3927,-14.88716 -6.5132,-20.73573 z"
   style="fill:#ffffff;fill-opacity:1;stroke:#000000;stroke-width:0.0556161;stroke-miterlimit:1.7861" /><path
   id="path2533-9"
   class="st0"
   d="m 1217.8542,163.41181 h 49.4467 l -0.1331,-11.69711 c -0.1332,-8.77276 -0.2658,-12.62747 -0.6651,-15.02007 -1.329,-9.96907 -3.7217,-17.41266 -7.7094,-25.65381 -4.6519,-9.57032 -11.1652,-17.545553 -19.1403,-23.527015 -11.6968,-8.772812 -23.2615,-12.494627 -38.6801,-12.494627 -5.8488,0 -9.4377,0.265795 -13.9568,1.19633 -27.3819,5.582643 -46.7881,28.046342 -51.5736,59.548662 -0.6645,3.85471 -0.6645,5.31683 -0.6645,13.29213 0,7.70944 0.1332,9.30446 0.6645,13.02629 2.6585,17.1468 9.1718,30.8377 19.8055,41.87013 10.8995,11.29832 24.0588,17.54563 40.009,19.14072 v 0 c 3.3231,0.2658 13.1594,0.13287 16.4825,-0.26581 12.7607,-1.72797 23.128,-6.24731 31.7681,-13.95675 9.3048,-8.37399 15.5516,-18.07727 20.7358,-32.43278 1.1961,-3.32301 2.2593,-6.24726 2.2593,-6.38021 0,-0.26579 -4.1205,-0.26579 -16.7476,-0.26579 h -16.7482 l -1.5954,3.05714 c -2.2592,4.51934 -3.9877,6.91193 -6.9113,9.96914 -5.9817,6.24724 -11.2989,8.50695 -20.4701,8.9057 -6.9118,0.26581 -11.5645,-0.53159 -16.6152,-2.92431 -6.5133,-3.05714 -12.2285,-8.90571 -15.8174,-15.81758 -1.3296,-2.65845 -3.1902,-7.57654 -3.1902,-8.37405 v -0.53158 z m -48.3836,-34.02785 c 1.7278,-4.65224 4.9179,-10.10199 8.108,-13.6909 6.6462,-7.44359 17.5456,-10.8995 28.9768,-9.17158 9.9692,1.4622 17.2798,6.91194 22.8627,16.34935 1.0633,1.86089 3.5889,7.70945 3.7218,8.374 v 0 c 0,0.13287 -14.4884,0.13287 -32.1669,0.13287 h -32.1668 z"
   style="fill:#ffffff;fill-opacity:1;stroke:#000000;stroke-width:0.0556161;stroke-miterlimit:1.7861"
   clip-path="url(#clipPath40878)"
   inkscape:path-effect="#path-effect40882"
   inkscape:original-d="m 1217.8542,163.41181 h 49.4467 l -0.1331,-11.69711 c -0.1332,-8.77276 -0.2658,-12.62747 -0.6651,-15.02007 -1.329,-9.96907 -3.7217,-17.41266 -7.7094,-25.65381 -4.6519,-9.57032 -11.1652,-17.545553 -19.1403,-23.527015 -11.6968,-8.772812 -23.2615,-12.494627 -38.6801,-12.494627 -5.8488,0 -9.4377,0.265795 -13.9568,1.19633 -27.3819,5.582643 -46.7881,28.046342 -51.5736,59.548662 -0.6645,3.85471 -0.6645,5.31683 -0.6645,13.29213 0,7.70944 0.1332,9.30446 0.6645,13.02629 2.6585,17.1468 9.1718,30.8377 19.8055,41.87013 10.8995,11.29832 24.0588,17.54563 40.009,19.14072 v 0 c 3.3231,0.2658 13.1594,0.13287 16.4825,-0.26581 12.7607,-1.72797 23.128,-6.24731 31.7681,-13.95675 9.3048,-8.37399 15.5516,-18.07727 20.7358,-32.43278 1.1961,-3.32301 2.2593,-6.24726 2.2593,-6.38021 0,-0.26579 -4.1205,-0.26579 -16.7476,-0.26579 h -16.7482 l -1.5954,3.05714 c -2.2592,4.51934 -3.9877,6.91193 -6.9113,9.96914 -5.9817,6.24724 -11.2989,8.50695 -20.4701,8.9057 -6.9118,0.26581 -11.5645,-0.53159 -16.6152,-2.92431 -6.5133,-3.05714 -12.2285,-8.90571 -15.8174,-15.81758 -1.3296,-2.65845 -3.1902,-7.57654 -3.1902,-8.37405 v -0.53158 z m -48.3836,-34.02785 c 1.7278,-4.65224 4.9179,-10.10199 8.108,-13.6909 6.6462,-7.44359 17.5456,-10.8995 28.9768,-9.17158 9.9692,1.4622 17.2798,6.91194 22.8627,16.34935 1.0633,1.86089 3.5889,7.70945 3.7218,8.374 v 0 c 0,0.13287 -14.4884,0.13287 -32.1669,0.13287 h -32.1668 z"
   transform="translate(-1.85986,-0.0068)" /><path
   id="path2535-7"
   class="st0"
   d="m 959.32917,76.87325 v 4.9181 c 0,4.65229 0,4.91809 -0.53161,4.51933 C 948.69556,79 940.32171,75.80989 927.69393,75.01238 c -9.30408,-0.66462 -19.53908,0.93046 -27.64705,4.12057 -13.95675,5.5827 -25.52144,16.61515 -32.69919,30.97066 -4.12035,8.2411 -6.51312,15.68467 -7.84209,25.25499 -0.53162,3.72183 -0.53162,5.18396 -0.53162,13.55801 0,10.23493 0.13315,12.76043 1.99402,20.60276 4.38623,19.67235 16.08308,36.55329 31.36894,45.59197 6.51312,3.85471 14.88754,6.64606 22.59691,7.44358 1.46184,0.2658 3.19012,0.3987 3.72174,0.3987 v 0 c 2.12633,0.26579 12.22847,-0.13287 15.01999,-0.66462 3.72174,-0.66461 8.64015,-1.86088 11.56397,-2.92426 4.51981,-1.72797 10.10214,-4.91808 13.29227,-7.44357 l 1.06309,-0.79751 0.13315,4.91809 0.13315,4.91808 15.81734,0.13287 15.81734,0.13287 V 149.18229 76.87314 h -15.95021 z m -4.25336,95.96912 c -4.91784,9.83619 -13.15939,16.2164 -22.99509,17.94439 v 0 c -3.05725,0.53158 -9.70338,0.53158 -13.02638,0 -6.51326,-1.06338 -13.02653,-4.65224 -17.8115,-9.70322 -11.96259,-12.89339 -14.75411,-37.21798 -6.51313,-54.76354 2.39278,-5.05104 5.45003,-9.17156 9.30465,-12.36166 6.11394,-5.05106 11.82971,-7.31069 20.07069,-7.57656 10.10214,-0.39869 17.6785,2.39261 24.19176,9.03868 6.779,6.77896 10.76662,16.88094 11.69756,29.24262 0.93022,9.57037 -1.06395,20.60282 -4.91856,28.17929 z"
   style="fill:#ffffff;fill-opacity:1;stroke:#000000;stroke-width:0.0556161;stroke-miterlimit:1.7861" /><path
   id="path2537-9"
   class="st0"
   d="m 519.49331,128.8455 -0.53162,-3.85473 c -1.19667,-7.44357 -2.92439,-13.29214 -5.98165,-19.2736 -6.11451,-12.09581 -13.69101,-20.07111 -25.25499,-25.65374 -8.50728,-4.12059 -17.41261,-5.84856 -27.116,-5.18395 -10.89949,0.79751 -18.60886,3.72176 -26.45109,9.70322 -0.93089,0.79757 -1.72827,1.32923 -1.86117,1.32923 -0.13287,0 -0.13287,-2.12674 -0.13287,-4.65224 V 76.87325 H 416.2137 400.26285 v 71.9104 c 0,39.47761 0.13287,71.91039 0.2658,72.04329 v 0 c 0.13287,0.13286 7.31062,0.13286 15.95084,0.13286 h 15.68443 v -42.40192 c 0,-27.38173 0.13287,-43.33226 0.26579,-44.79438 1.72825,-13.6909 10.50071,-23.92584 22.59701,-26.71719 3.18942,-0.66461 9.96856,-0.66461 12.89295,0 4.5191,1.19626 7.84209,3.0572 11.03236,6.24732 4.51981,4.51926 7.17775,9.83611 8.64016,17.27976 0.39874,2.12673 0.53161,6.5131 0.66448,46.38947 l 0.13315,43.99694 h 15.68447 15.68504 l -0.13315,-45.99078 z"
   style="fill:#ffffff;fill-opacity:1;stroke:#000000;stroke-width:0.0556161;stroke-miterlimit:1.7861" />
	
	
	
	
	
	
	
	
	
</g>
</svg>
