<?xml version="1.0" encoding="UTF-8" standalone="no"?>
<!-- Created with Inkscape (http://www.inkscape.org/) -->

<svg
   width="87mm"
   height="13mm"
   viewBox="0 0 87 13"
   version="1.1"
   id="svg5964"
   inkscape:version="1.1.2 (b8e25be8, 2022-02-05)"
   sodipodi:docname="brandbased-text.svg"
   xmlns:inkscape="http://www.inkscape.org/namespaces/inkscape"
   xmlns:sodipodi="http://sodipodi.sourceforge.net/DTD/sodipodi-0.dtd"
   xmlns="http://www.w3.org/2000/svg"
   xmlns:svg="http://www.w3.org/2000/svg">
  <sodipodi:namedview
     id="namedview5966"
     pagecolor="#ffffff"
     bordercolor="#666666"
     borderopacity="1.0"
     inkscape:pageshadow="2"
     inkscape:pageopacity="0.0"
     inkscape:pagecheckerboard="0"
     inkscape:document-units="mm"
     showgrid="false"
     inkscape:zoom="2.6547418"
     inkscape:cx="191.16737"
     inkscape:cy="4.5202136"
     inkscape:window-width="1312"
     inkscape:window-height="960"
     inkscape:window-x="0"
     inkscape:window-y="25"
     inkscape:window-maximized="0"
     inkscape:current-layer="layer1" />
  <defs
     id="defs5961" />
  <g
     inkscape:label="Layer 1"
     inkscape:groupmode="layer"
     id="layer1">
    <path
       style="fill:#ffffff;stroke-width:0.0325678;stroke-linecap:butt;stroke-linejoin:round"
       d="m 48.151644,12.682097 c -1.033585,-0.200138 -1.597846,-0.591055 -1.872656,-1.297361 l -0.09789,-0.251605 0.0083,-5.3011989 0.0083,-5.30121155 0.079,-0.0111314 c 0.125002,-0.0176731 0.518743,0.0885341 0.768812,0.20735396 0.276155,0.13121105 0.638435,0.45130221 0.708237,0.62576951 0.07621,0.1904575 0.08758,0.4140252 0.122441,2.4093486 0.01788,1.0249051 0.04076,1.884766 0.05074,1.9107912 0.01388,0.036159 0.07795,0.00654 0.271361,-0.125084 0.781415,-0.532076 1.847419,-0.5723663 2.954125,-0.1116441 0.322417,0.1342245 0.628568,0.3574092 0.948701,0.6916019 0.430876,0.4498145 0.69819,0.927316 0.786475,1.4048788 0.02215,0.1198644 0.09105,0.511859 0.09215,0.7705271 0.0013,0.2783426 -0.06864,0.6613603 -0.09215,0.829955 -0.1034,0.7434287 -0.620585,1.7759009 -1.200801,2.3971899 -0.541994,0.580367 -1.224438,0.955831 -2.032411,1.118169 -0.340805,0.06848 -1.221118,0.08821 -1.502726,0.03366 z m 1.192417,-1.322891 c 0.25169,-0.04717 0.668373,-0.257567 0.868921,-0.438748 0.352857,-0.318774 0.656656,-0.859079 0.81148,-1.4431686 0.11615,-0.4382188 0.12449,-1.1528146 0.01836,-1.5737265 C 50.942357,7.5050793 50.821686,7.2689927 50.611829,7.0602618 50.268651,6.7189715 49.868895,6.5881815 49.242688,6.6123012 c -0.349056,0.01341 -0.453072,0.031083 -0.72955,0.1237303 -0.177356,0.059434 -0.389853,0.1530908 -0.472239,0.2081538 l -0.149782,0.100098 -0.0084,1.9603602 -0.0084,1.9603695 0.285222,0.155971 c 0.444151,0.242872 0.78933,0.312282 1.184528,0.23822 z m 9.78836,1.346445 c -0.01192,-0.01192 -0.02172,-0.202403 -0.02172,-0.423239 v -0.401536 l -0.265896,0.197148 c -0.305588,0.226573 -0.762414,0.458223 -1.069383,0.54226 -0.265939,0.07281 -0.94718,0.08016 -1.188719,0.01285 -0.635004,-0.176988 -1.10337,-0.662168 -1.323812,-1.371314 -0.106944,-0.34405 -0.107813,-0.974446 -0.0017,-1.3453514 0.322116,-1.1275934 1.359554,-1.9087369 3.320284,-2.5000582 0.292577,-0.088239 0.5387,-0.1604302 0.546943,-0.1604302 0.05904,0 -0.02399,-0.9772026 -0.103422,-1.2175856 C 58.958468,5.8370483 58.787306,5.6465096 58.575579,5.5380857 58.354961,5.4251048 57.94232,5.396982 57.724676,5.4800975 57.394686,5.6061227 57.329178,5.7320888 57.24144,6.4092325 57.214733,6.615219 57.169301,6.8615656 57.140455,6.956674 56.952942,7.5748583 56.176413,7.7269299 55.722411,7.2343888 55.508604,7.0024372 55.449822,6.8380472 55.450686,6.4743643 c 0.0013,-0.5301493 0.157815,-0.9069535 0.520467,-1.2526342 0.768557,-0.7325981 2.292109,-1.0288132 3.496754,-0.679848 0.706233,0.2045897 1.151601,0.5956948 1.362412,1.1963854 0.07418,0.211374 0.08339,0.3000114 0.106932,1.0292046 0.01415,0.4388456 0.0267,1.9593578 0.02787,3.3789059 l 0.0021,2.581001 h -0.906473 c -0.498565,0 -0.916237,-0.0098 -0.928172,-0.02172 z m -0.923086,-1.528966 c 0.180557,-0.06371 0.484171,-0.237592 0.732981,-0.41979 l 0.206142,-0.150954 -0.01076,-1.118647 c -0.0059,-0.6152701 -0.02184,-1.1297427 -0.03538,-1.143286 -0.03181,-0.031769 -0.841146,0.3778488 -1.159358,0.5867464 -0.348638,0.2288823 -0.690248,0.5646006 -0.822327,0.8081659 -0.102641,0.1892873 -0.10618,0.3273777 -0.109912,0.4970127 -0.0034,0.154261 0.01405,0.320701 0.07995,0.455941 0.09676,0.198677 0.309166,0.390519 0.53073,0.477136 0.182533,0.07136 0.404898,0.07225 0.587916,0.0077 z M 2.3073147,12.661925 C 1.8659764,12.611217 1.3415721,12.397362 0.97285642,12.117724 0.78706887,11.976818 0.62290786,11.765135 0.48495993,11.488563 L 0.37995564,11.278097 0.34886162,8.354004 C 0.33174777,6.7457438 0.32869851,4.3239271 0.34200342,2.9721771 L 0.36626032,0.51444235 H 0.4710958 c 0.15839801,0 0.5780998,0.11569043 0.7821195,0.21559223 0.255679,0.12518323 0.548905,0.40095452 0.6533469,0.61445772 l 0.086434,0.1766598 0.031062,1.8496668 c 0.017083,1.0173167 0.041331,1.9553811 0.053878,2.0845707 l 0.022813,0.2349017 0.2707047,-0.1763254 c 0.4538871,-0.295639 0.8368223,-0.4059673 1.4123109,-0.4069054 0.4586041,-8.598e-4 0.792844,0.04767 1.1503728,0.16663 0.6117258,0.2035239 1.1469207,0.5685004 1.5144059,1.0327298 0.5247132,0.6628354 0.625754,1.4275414 0.6414811,2.187127 0.013311,0.6431133 -0.1446382,1.2227399 -0.4659956,1.8726457 -0.3406531,0.688938 -0.8835918,1.331342 -1.4357728,1.698734 -0.3509961,0.233547 -0.9000053,0.479192 -1.214871,0.543547 -0.2962401,0.06055 -1.3187939,0.09335 -1.6661175,0.05345 z m 1.382606,-1.367848 C 4.2073778,11.134254 4.7491398,10.590492 5.0161947,9.962909 5.214377,9.497174 5.2594319,9.2484894 5.2587488,8.6238162 5.2578028,7.9864563 5.2242067,7.804348 5.0314435,7.4009297 4.8352245,6.9902755 4.4413291,6.7004829 3.9472458,6.6032769 3.6543598,6.5456574 3.0732987,6.5791993 2.7847207,6.6704133 2.6593274,6.7100537 2.4431548,6.7995343 2.3043412,6.8693053 l -0.252401,0.1268651 0.00391,1.8967013 c 0.00221,1.0431869 0.013152,1.9399893 0.02448,1.9928903 0.01712,0.07983 0.06516,0.1198 0.2825335,0.235064 0.1440623,0.07639 0.3418831,0.160383 0.4396137,0.186654 0.2612269,0.07021 0.6350932,0.06456 0.8874999,-0.01341 z m 6.5197633,0.399261 c -0.03033,-1.252536 0.01274,-6.6149373 0.05378,-6.6922936 0.01652,-0.031168 0.06989,-0.067769 0.118631,-0.081423 0.136945,-0.038353 1.31251,-0.0224 1.41616,0.019172 0.118891,0.047723 0.148876,0.1273884 0.178428,0.4740535 l 0.02473,0.290085 0.309393,-0.2585004 c 0.683399,-0.5709946 0.960158,-0.7078251 1.517421,-0.7502341 0.31439,-0.023909 0.537198,0.020722 0.80469,0.1611128 0.41168,0.2161124 0.608124,0.5184682 0.608672,0.9368394 8.17e-4,0.4992105 -0.284055,0.8152859 -0.894106,0.9926294 -0.37515,0.1090559 -0.866429,0.00475 -1.244836,-0.2642708 C 12.91239,6.3852431 12.816169,6.3809994 12.65547,6.50082 12.540631,6.5864522 12.247013,6.9308175 12.067162,7.1908276 l -0.07886,0.1139917 -0.01873,2.1983176 c -0.01034,1.2090861 -0.02722,2.4218261 -0.03758,2.6949871 l -0.01887,0.496665 h -0.839583 -0.839598 z m 8.664144,0.968913 c -0.757206,-0.136945 -1.319359,-0.673506 -1.535481,-1.465578 -0.08736,-0.320223 -0.07966,-0.946117 0.01584,-1.2845843 0.324422,-1.1498213 1.412863,-1.95781 3.415894,-2.5357651 l 0.47352,-0.1366281 -0.0193,-0.4233892 C 21.185526,5.9657017 21.058429,5.6973679 20.597491,5.493002 20.406487,5.4083085 20.018681,5.3920387 19.82301,5.4604941 19.513288,5.5688621 19.413459,5.7542076 19.345532,6.346949 19.26811,7.0225481 19.138798,7.2860369 18.809388,7.4394369 18.372121,7.6430505 17.879174,7.4457642 17.647031,6.9741798 17.54916,6.775368 17.541974,6.7380879 17.545328,6.446318 c 0.0088,-0.7550329 0.374268,-1.2782163 1.165022,-1.6673737 0.559473,-0.2753377 1.076896,-0.3890456 1.769157,-0.3888083 0.873613,8.6e-4 1.591327,0.2283866 2.007528,0.6379877 0.203305,0.2000927 0.322173,0.3901851 0.433494,0.6932616 0.112525,0.3063926 0.133687,0.9699497 0.135847,4.2621405 l 0.0018,2.7112692 h -0.92724 -0.927205 l -0.0092,-0.40702 -0.0091,-0.407022 -0.256042,0.191807 c -0.309531,0.231887 -0.701576,0.430917 -1.030778,0.523313 -0.276672,0.07766 -0.781628,0.110355 -1.024864,0.06638 z m 1.61948,-1.588044 c 0.147862,-0.07329 0.375779,-0.210571 0.506506,-0.305081 l 0.237678,-0.171814 -0.0097,-1.1143387 c -0.0054,-0.6128971 -0.02163,-1.1262565 -0.03619,-1.140797 -0.03369,-0.033626 -0.877354,0.3915726 -1.178519,0.5939654 -0.661543,0.44456 -0.958688,0.8844333 -0.92031,1.3623833 0.02724,0.339481 0.227178,0.599633 0.466205,0.790584 0.113023,0.09028 0.268622,0.129921 0.413255,0.132419 0.180473,0.003 0.293412,-0.03448 0.521079,-0.147321 z m 6.201343,0.931409 c -0.03139,-1.008093 -0.02427,-5.5652583 0.0099,-6.3579152 0.01808,-0.4187595 0.04333,-0.6940877 0.06572,-0.7164919 0.02464,-0.024637 0.271968,-0.036422 0.766557,-0.036422 0.909024,0 0.852048,-0.033236 0.886902,0.517105 l 0.02437,0.3849306 0.211691,-0.1506102 c 0.444173,-0.3159931 0.787713,-0.5378801 0.956195,-0.6175745 0.274594,-0.1299081 0.724525,-0.2476316 1.02875,-0.2691844 0.326766,-0.023127 0.665793,0.053821 0.993868,0.2256222 0.114222,0.059814 0.334047,0.2047531 0.473522,0.3400748 0.139446,0.1352774 0.257111,0.3125703 0.354172,0.4629052 0.09535,0.1476866 0.157826,0.26845 0.199315,0.4167464 0.08899,0.3180959 0.07858,0.4805941 0.09843,0.986017 0.03514,0.8951468 0.04112,3.656819 0.01034,4.746762 l -0.02139,0.757199 h -0.825284 -0.825273 v -0.327906 c 0,-0.833451 -0.06988,-4.2805168 -0.09802,-4.8340852 -0.01546,-0.3039374 -0.01381,-0.5017722 -0.01627,-0.6426185 -0.0046,-0.2646748 -0.02376,-0.3280825 -0.198044,-0.5160985 -0.155809,-0.168087 -0.435693,-0.1668061 -0.664704,-0.1758653 -0.189592,-0.00749 -0.383407,0.032466 -0.560066,0.1016913 -0.352241,0.1380249 -0.69725,0.3800718 -0.957157,0.6099038 l -0.165656,0.1464911 -0.02253,2.7221859 c -0.0124,1.4972004 -0.0313,2.7658674 -0.04197,2.8192454 l -0.01941,0.09706 h -0.821227 -0.821223 z m 11.768075,0.655961 c -0.397908,-0.0694 -0.956313,-0.355493 -1.289336,-0.660604 -0.439631,-0.402778 -0.723798,-0.825797 -0.975673,-1.452418 -0.269896,-0.6714463 -0.263062,-1.1017317 -0.291558,-1.6641958 -0.01762,-0.3478436 0.0065,-0.7894969 0.07537,-1.0421678 0.325625,-1.1959073 1.172101,-2.2700237 2.169025,-2.7523281 0.483749,-0.2340281 0.808385,-0.3157483 1.325012,-0.3335099 0.501581,-0.01724 0.810434,0.039598 1.196136,0.2200817 0.114602,0.05362 0.226349,0.097492 0.248318,0.097492 0.05122,0 0.083,-1.217861 0.083,-3.1800223 V 0.48311526 l 0.07891,-0.0197833 c 0.134132,-0.0336685 0.574939,0.0784684 0.857109,0.21804747 0.290231,0.1435632 0.607612,0.41870677 0.708521,0.61424247 0.04871,0.094358 0.06298,0.2400897 0.08455,0.8630516 0.03212,0.9268212 0.0372,6.6151095 0.0079,8.8703475 l -0.02159,1.666836 -0.865855,-0.0087 -0.865867,-0.0087 -0.0095,-0.268682 c -0.0052,-0.147781 -0.02341,-0.268685 -0.0405,-0.268685 -0.01708,0 -0.174034,0.06417 -0.348786,0.142608 -0.784118,0.351906 -1.521839,0.483062 -2.125257,0.377823 z m 1.70811,-1.482105 c 0.220144,-0.05735 0.578617,-0.237731 0.728444,-0.366551 l 0.102904,-0.08849 -0.03264,-1.8670532 c -0.02716,-1.5543652 -0.04086,-1.8829763 -0.08174,-1.9620482 -0.05886,-0.1138028 -0.325877,-0.3307235 -0.541801,-0.4401402 -0.466076,-0.2361858 -1.184312,-0.2357997 -1.65137,8.599e-4 -0.348786,0.1767379 -0.643372,0.5360823 -0.809523,0.9874361 -0.159369,0.4329549 -0.137114,1.5523069 0.04347,2.1863822 0.118087,0.4146354 0.265029,0.7975104 0.547467,1.0899684 0.221122,0.228972 0.581379,0.38911 0.837883,0.458104 0.231887,0.06238 0.62058,0.06306 0.856914,0.0017 z m 33.807076,1.485187 C 73.30481,12.582266 72.54949,12.124884 72.062279,11.504613 71.751661,11.109175 71.452771,10.523872 71.356192,10.121941 71.269346,9.7604814 71.215664,9.0296686 71.24137,8.5586886 71.3318,6.9018533 72.235728,5.4976793 73.493634,5.0599733 c 0.377067,-0.1312027 0.707476,-0.1579497 1.06685,-0.1556875 0.273674,0.00169 0.557064,0.041403 0.810879,0.1287642 0.412622,0.1420449 0.771494,0.3678316 1.100291,0.6922434 0.659748,0.6509549 0.926194,1.3127152 0.993317,2.4669996 l 0.02317,0.3989636 h -2.316932 c -2.311157,0 -2.316926,8.599e-4 -2.316926,0.066504 0,0.1091805 0.09556,0.549328 0.183535,0.8453891 0.243943,0.8208873 0.813346,1.4474263 1.448501,1.5938573 0.750449,0.173005 1.708467,-0.303795 2.146393,-1.068235 l 0.113428,-0.198003 0.44843,-8.599e-4 0.448425,-8.599e-4 -0.02085,0.089557 c -0.07079,0.3036878 -0.416909,1.0206408 -0.656427,1.3597008 -0.431732,0.611164 -1.217724,1.177573 -1.847939,1.331623 -0.128816,0.03148 -0.397928,0.07608 -0.599598,0.08468 -0.180199,0.0077 -0.540279,-0.01471 -0.540279,-0.02976 z m 2.00292,-5.3238356 c 0,-0.1183081 -0.142385,-0.4843038 -0.258002,-0.6631741 -0.329609,-0.5099767 -1.021732,-0.7977996 -1.549508,-0.6443605 -0.312601,0.090866 -0.540678,0.224969 -0.742057,0.4363049 -0.201326,0.2112631 -0.364529,0.5147617 -0.400618,0.7449934 l -0.02159,0.1377507 0.67984,0.0095 c 2.026059,0.02833 2.291942,0.025882 2.291942,-0.021029 z M 65.667965,12.614038 c -0.282888,-0.05134 -0.526641,-0.1291 -0.743902,-0.23737 -0.188497,-0.09392 -0.630115,-0.432482 -0.802155,-0.614934 -0.175228,-0.185856 -0.41914,-0.531731 -0.41914,-0.594382 0,-0.06253 0.751944,-0.687163 0.827228,-0.687163 0.02704,0 0.140485,0.120902 0.252095,0.268687 0.288201,0.381602 0.601473,0.681332 0.82875,0.792924 0.244739,0.120169 0.663485,0.148946 0.921293,0.0633 0.357918,-0.118871 0.590259,-0.410766 0.590259,-0.741549 0,-0.21543 -0.06437,-0.351958 -0.267168,-0.566777 C 66.628093,10.056204 66.400042,9.8975451 65.769505,9.5414252 64.623174,8.8939997 64.11543,8.4016559 63.916382,7.7444917 63.835065,7.4760291 63.813836,6.8094892 63.877174,6.5131443 c 0.112156,-0.5248442 0.419734,-0.9653316 0.88933,-1.2736119 0.773434,-0.5077577 1.996584,-0.5429656 2.679333,-0.077117 0.38561,0.2631047 0.919521,0.8353075 1.033139,1.1072181 l 0.05112,0.122345 -0.162475,0.149398 c -0.191933,0.1764794 -0.555968,0.4540529 -0.595493,0.4540529 -0.01527,0 -0.144879,-0.1446511 -0.288051,-0.3214449 C 67.174571,6.2917922 66.90567,6.0443705 66.682735,5.9366178 66.358387,5.7798552 65.938596,5.7708139 65.616795,5.9136587 65.338556,6.0371654 65.13388,6.3710953 65.186604,6.6154814 c 0.08424,0.3905322 0.359529,0.6076638 1.647488,1.299443 0.795426,0.4272373 0.990157,0.5576053 1.297917,0.8689074 0.374616,0.3789588 0.516722,0.712493 0.590745,1.3865932 0.05886,0.535983 -0.05254,1.077088 -0.293966,1.428014 -0.291014,0.422955 -1.004917,0.872128 -1.61578,1.016607 -0.130265,0.03083 -0.397856,0.04286 -0.59753,0.04205 -0.183062,-8.6e-4 -0.547505,-0.01668 -0.547505,-0.04305 z m 16.810769,-0.01917 C 81.50255,12.431703 80.572878,11.498505 80.166025,10.273408 79.978087,9.7074791 79.94305,9.4843967 79.942754,8.8517743 c -8.6e-4,-0.6237955 0.03929,-0.8886717 0.206865,-1.3844551 0.216192,-0.6396093 0.523398,-1.1295717 1.023459,-1.6323072 0.550228,-0.5531771 1.058634,-0.8538511 1.726805,-1.0212418 0.252555,-0.063265 0.551484,-0.060763 0.828292,-0.05955 0.171281,8.599e-4 0.34378,0.01013 0.512198,0.04136 0.110027,0.020374 0.322073,0.094696 0.322073,0.094696 0.161208,0.068012 0.323675,0.1310813 0.361025,0.1401447 l 0.06792,0.016513 0.02163,-1.6202347 c 0.01192,-0.8911269 0.02167,-1.8972394 0.02167,-2.2358087 0,-0.38225174 0.01345,-0.64072671 0.03551,-0.68194554 0.03172,-0.0593076 0.05514,-0.0640028 0.21984,-0.0440401 0.411321,0.0498643 0.832444,0.24034927 1.127486,0.51000205 0.297122,0.27155403 0.313904,0.33116553 0.345307,1.22676083 0.03311,0.9448488 0.03831,5.9171221 0.0089,8.5174313 l -0.02163,1.910581 H 85.88032 85.010539 l -0.0034,-0.265186 c -0.0017,-0.145855 -0.0078,-0.269525 -0.01307,-0.274817 -0.0054,-0.0054 -0.141213,0.04963 -0.302033,0.122061 -0.427509,0.19253 -0.807017,0.315769 -1.139169,0.3699 -0.314285,0.05124 -0.810323,0.05737 -1.074103,0.01328 z m 1.597357,-1.433756 c 0.217978,-0.04012 0.588569,-0.201521 0.805856,-0.351026 l 0.1453,-0.09996 -0.01225,-1.6212356 c -0.0068,-0.8916776 -0.02111,-1.7568489 -0.0319,-1.9226063 l -0.0196,-0.301362 -0.182035,-0.1622448 C 84.681323,6.6134217 84.491123,6.4769003 84.3243,6.4041369 84.133915,6.3211 84.027202,6.2669065 83.719633,6.2535699 c -0.414903,-0.01801 -0.656438,0.026093 -0.960028,0.175228 -0.291984,0.1434219 -0.571027,0.4120818 -0.696439,0.6705398 -0.328388,0.6767692 -0.323761,1.7727653 0.01173,2.7776486 0.186936,0.5599267 0.424524,0.8550937 0.878311,1.0911847 0.395756,0.205894 0.735349,0.264242 1.122945,0.192944 z"
       id="path49724"
       sodipodi:nodetypes="cscccssssscsssacssccsssssssscccsssscsssscsssssssssssssscssssscssssasasssscsscssscsscssssasssssssssssscssssssssssscsssssssscsscccssssscsssssssscssscccccsssssscssssaasssssscssssasasscccssssaascsscccssssasssssscssssscccsssssscssssssasssssssassscssssscccsssassssssscsssssssssssssssssscsssssssssssasssscsssaasscssssssscccsssssssscsscsassssss" />
  </g>
</svg>
