<?xml version="1.0" encoding="UTF-8" standalone="no"?>
<svg
   version="1.1"
   id="Layer_1"
   x="0px"
   y="0px"
   viewBox="0 0 122.88 83.78"
   style="enable-background:new 0 0 122.88 83.78"
   xml:space="preserve"
   sodipodi:docname="eye-password-icon-open.svg"
   inkscape:version="1.1.2 (b8e25be8, 2022-02-05)"
   xmlns:inkscape="http://www.inkscape.org/namespaces/inkscape"
   xmlns:sodipodi="http://sodipodi.sourceforge.net/DTD/sodipodi-0.dtd"
   xmlns="http://www.w3.org/2000/svg"
   xmlns:svg="http://www.w3.org/2000/svg"><defs
     id="defs142770"><inkscape:path-effect
       effect="powerclip"
       id="path-effect19039"
       is_visible="true"
       lpeversion="1"
       inverse="true"
       flatten="false"
       hide_clip="false"
       message="Use fill-rule evenodd on &lt;b&gt;fill and stroke&lt;/b&gt; dialog if no flatten result after convert clip to paths." /><clipPath
       clipPathUnits="userSpaceOnUse"
       id="clipPath19035"><ellipse
         style="display:none;fill:#ff0000;fill-opacity:1;stroke-width:0.40396;stroke-linejoin:round"
         id="ellipse19037"
         cx="194.77982"
         cy="105.13496"
         rx="22.411213"
         ry="23.298786" /></clipPath><clipPath
       clipPathUnits="userSpaceOnUse"
       id="clipPath19035-3"><ellipse
         style="display:none;fill:#ff0000;fill-opacity:1;stroke-width:0.40396;stroke-linejoin:round"
         id="ellipse19037-3"
         cx="194.77982"
         cy="105.13496"
         rx="22.411213"
         ry="23.298786"
         d="m 217.19103,105.13496 a 22.411213,23.298786 0 0 1 -22.41121,23.29878 22.411213,23.298786 0 0 1 -22.41122,-23.29878 22.411213,23.298786 0 0 1 22.41122,-23.29879 22.411213,23.298786 0 0 1 22.41121,23.29879 z" /><path
         id="lpe_path-effect19039-3"
         style="fill:#ff0000;fill-opacity:1;stroke-width:0.40396;stroke-linejoin:round"
         class="powerclip"
         d="m 156.49257,65.529408 h 76.57449 v 79.211102 h -76.57449 z m 60.69846,39.605552 a 22.411213,23.298786 0 0 0 -22.41121,-23.29879 22.411213,23.298786 0 0 0 -22.41122,23.29879 22.411213,23.298786 0 0 0 22.41122,23.29878 22.411213,23.298786 0 0 0 22.41121,-23.29878 z" /></clipPath><inkscape:path-effect
       effect="powerclip"
       id="path-effect19039-8"
       is_visible="true"
       lpeversion="1"
       inverse="true"
       flatten="false"
       hide_clip="false"
       message="Use fill-rule evenodd on &lt;b&gt;fill and stroke&lt;/b&gt; dialog if no flatten result after convert clip to paths." /><clipPath
       clipPathUnits="userSpaceOnUse"
       id="clipath_lpe_path-effect19039-8"><ellipse
         style="display:none;fill:#ff0000;fill-opacity:1;stroke-width:0.40396;stroke-linejoin:round"
         id="ellipse19230"
         cx="194.77982"
         cy="105.13496"
         rx="22.411213"
         ry="23.298786"
         d="m 217.19103,105.13496 a 22.411213,23.298786 0 0 1 -22.41121,23.29878 22.411213,23.298786 0 0 1 -22.41122,-23.29878 22.411213,23.298786 0 0 1 22.41122,-23.29879 22.411213,23.298786 0 0 1 22.41121,23.29879 z" /><path
         id="lpe_path-effect19039-8"
         style="fill:#ff0000;fill-opacity:1;stroke-width:0.40396;stroke-linejoin:round"
         class="powerclip"
         d="m 156.49257,65.529408 h 76.57449 v 79.211102 h -76.57449 z m 60.69846,39.605552 a 22.411213,23.298786 0 0 0 -22.41121,-23.29879 22.411213,23.298786 0 0 0 -22.41122,23.29879 22.411213,23.298786 0 0 0 22.41122,23.29878 22.411213,23.298786 0 0 0 22.41121,-23.29878 z" /></clipPath></defs><sodipodi:namedview
     id="namedview142768"
     pagecolor="#ffffff"
     bordercolor="#666666"
     borderopacity="1.0"
     inkscape:pageshadow="2"
     inkscape:pageopacity="0.0"
     inkscape:pagecheckerboard="0"
     showgrid="false"
     inkscape:zoom="3.0341954"
     inkscape:cx="107.2772"
     inkscape:cy="67.068851"
     inkscape:window-width="1296"
     inkscape:window-height="961"
     inkscape:window-x="0"
     inkscape:window-y="25"
     inkscape:window-maximized="0"
     inkscape:current-layer="Layer_1" /><g
     id="g142765"
     style="fill:#102ff5;fill-opacity:1"
     transform="matrix(0.88897914,0,0,0.88897914,7.1441317,3.6334835)"><path
       d="m 95.73,10.81 c 10.53,7.09 19.6,17.37 26.48,29.86 l 0.67,1.22 -0.67,1.21 C 115.33,55.59 106.25,65.87 95.73,72.96 85.46,79.88 73.8,83.78 61.44,83.78 49.08,83.78 37.42,79.88 27.16,72.97 16.62,65.87 7.55,55.59 0.67,43.1 L 0,41.89 0.67,40.67 C 7.55,28.18 16.62,17.9 27.15,10.81 37.42,3.9 49.08,0 61.44,0 73.8,0 85.45,3.9 95.73,10.81 Z M 109,41.89 C 103.5,32.23 96.39,24.29 88.21,18.78 80.16,13.36 71.06,10.3 61.44,10.3 c -9.61,0 -18.71,3.06 -26.76,8.48 -8.18,5.51 -15.29,13.45 -20.8,23.11 5.5,9.66 12.62,17.6 20.8,23.1 8.05,5.42 17.15,8.48 26.76,8.48 9.62,0 18.71,-3.06 26.77,-8.48 8.18,-5.5 15.29,-13.44 20.79,-23.1 z"
       id="path142763"
       style="fill:#102ff5;fill-opacity:1"
       sodipodi:nodetypes="cccccscccccscccscccscc" /></g><path
     style="fill:#102ff5;fill-opacity:1;stroke-width:0.6;stroke-linejoin:round"
     id="path18929-9"
     clip-path="url(#clipath_lpe_path-effect19039-8)"
     transform="matrix(0.699741,0,0,0.699741,-71.8926,-32.552185)"
     sodipodi:type="arc"
     sodipodi:ry="34.605549"
     sodipodi:rx="33.287243"
     sodipodi:cy="105.13496"
     sodipodi:cx="194.77982"
     inkscape:path-effect="#path-effect19039-8"
     d="m 228.06706,105.13496 a 33.287243,34.605549 0 0 1 -33.28724,34.60555 33.287243,34.605549 0 0 1 -33.28725,-34.60555 33.287243,34.605549 0 0 1 33.28725,-34.605552 33.287243,34.605549 0 0 1 33.28724,34.605552 z" /></svg>
