<?xml version="1.0" encoding="UTF-8" standalone="no"?>
<!-- Created with Inkscape (http://www.inkscape.org/) -->

<svg
   width="63.491688mm"
   height="47.763336mm"
   viewBox="0 0 63.491688 47.763336"
   version="1.1"
   id="svg4802"
   inkscape:version="1.1.2 (b8e25be8, 2022-02-05)"
   sodipodi:docname="Free-BB-Modal.svg"
   xmlns:inkscape="http://www.inkscape.org/namespaces/inkscape"
   xmlns:sodipodi="http://sodipodi.sourceforge.net/DTD/sodipodi-0.dtd"
   xmlns="http://www.w3.org/2000/svg"
   xmlns:svg="http://www.w3.org/2000/svg">
  <sodipodi:namedview
     id="namedview4804"
     pagecolor="#ffffff"
     bordercolor="#666666"
     borderopacity="1.0"
     inkscape:pageshadow="2"
     inkscape:pageopacity="0.0"
     inkscape:pagecheckerboard="0"
     inkscape:document-units="mm"
     showgrid="false"
     fit-margin-top="0"
     fit-margin-left="0"
     fit-margin-right="0"
     fit-margin-bottom="0"
     inkscape:zoom="0.66368547"
     inkscape:cx="430.17365"
     inkscape:cy="225.25731"
     inkscape:window-width="1312"
     inkscape:window-height="959"
     inkscape:window-x="0"
     inkscape:window-y="25"
     inkscape:window-maximized="0"
     inkscape:current-layer="layer1" />
  <defs
     id="defs4799">
    <filter
       inkscape:collect="always"
       style="color-interpolation-filters:sRGB"
       id="filter119459-4-8-7"
       x="-0.030038581"
       y="-0.041591883"
       width="1.0600772"
       height="1.0831838">
      <feGaussianBlur
         inkscape:collect="always"
         stdDeviation="1.0265385"
         id="feGaussianBlur119461-3-8-3" />
    </filter>
  </defs>
  <g
     inkscape:label="Layer 1"
     inkscape:groupmode="layer"
     id="layer1"
     transform="translate(-0.94409295,0.36088034)">
    <rect
       style="fill:#686565;fill-opacity:1;stroke:none;stroke-width:0.162;stroke-linejoin:round;stroke-miterlimit:4;stroke-dasharray:none;stroke-opacity:1"
       id="rect401221-57-0"
       width="14.631373"
       height="2.3887956"
       x="2.8204818"
       y="45.01366"
       ry="1.1943978" />
    <rect
       style="fill:#686565;fill-opacity:1;stroke:none;stroke-width:0.116754;stroke-linejoin:round;stroke-miterlimit:4;stroke-dasharray:none;stroke-opacity:1"
       id="rect401221-9-9-0"
       width="7.5997481"
       height="2.3887956"
       x="18.662722"
       y="45.01366"
       ry="1.1943978" />
    <rect
       style="fill:#686565;fill-opacity:1;stroke:none;stroke-width:0.0937035;stroke-linejoin:round;stroke-miterlimit:4;stroke-dasharray:none;stroke-opacity:1"
       id="rect401221-9-7-11-5"
       width="4.8951664"
       height="2.3887956"
       x="27.320787"
       y="45.01366"
       ry="1.1943978" />
    <rect
       style="fill:#686565;fill-opacity:1;stroke:none;stroke-width:0.0658104;stroke-linejoin:round;stroke-miterlimit:4;stroke-dasharray:none;stroke-opacity:1"
       id="rect401221-9-7-7-9-4"
       width="2.4146008"
       height="2.3887956"
       x="33.109039"
       y="45.01366"
       ry="1.1943978" />
    <g
       id="g153196-8-4"
       transform="matrix(1.0619849,0,0,1.0619849,-492.27667,-381.58024)">
      <circle
         style="opacity:0.260536;fill:#ffffff;fill-opacity:1;stroke:none;stroke-width:0.218707;stroke-linejoin:round;stroke-miterlimit:4;stroke-dasharray:none;stroke-opacity:1"
         id="path114208-9-5-8-7-5-6"
         cx="518.44202"
         cy="362.91153"
         r="2.725523" />
      <path
         d="m 517.47489,362.01373 c -0.0301,-0.0303 -0.0301,-0.0787 0,-0.10876 0.0301,-0.0303 0.0787,-0.0303 0.10881,0 l 0.83959,0.83955 0.83957,-0.83955 c 0.03,-0.0303 0.0787,-0.0303 0.10883,0 0.03,0.0303 0.03,0.0787 0,0.10876 l -0.8396,0.83955 0.83959,0.83963 c 0.03,0.03 0.03,0.0788 0,0.10881 -0.0301,0.0301 -0.0787,0.0301 -0.10883,0 l -0.83958,-0.83959 -0.83957,0.83959 c -0.03,0.0301 -0.0787,0.0301 -0.10881,0 -0.0301,-0.03 -0.0301,-0.0787 0,-0.10881 l 0.83957,-0.83963 z"
         id="path146300-4-4-6-6"
         style="fill:#ffffff;fill-opacity:1;stroke:#000000;stroke-width:0.110974;stroke-linejoin:round;stroke-miterlimit:4;stroke-dasharray:none;stroke-opacity:1"
         inkscape:transform-center-x="0.45140649"
         inkscape:transform-center-y="-0.12536222" />
      <rect
         style="opacity:0.0426716;fill:#000000;fill-opacity:1;stroke:none;stroke-width:1.0528;stroke-linejoin:round;stroke-miterlimit:4;stroke-dasharray:none;stroke-opacity:1;filter:url(#filter119459-4-8-7)"
         id="rect119439-8-3-2"
         width="82.017601"
         height="59.234932"
         x="-42.97187"
         y="-685.14453"
         ry="8.7590656"
         transform="matrix(0.68762868,0,0,0.68762868,495.67573,832.36005)" />
      <rect
         style="opacity:0.434137;fill:#d0c9c9;fill-opacity:1;stroke:none;stroke-width:0.723935;stroke-linejoin:round;stroke-miterlimit:4;stroke-dasharray:none;stroke-opacity:1"
         id="rect62363-2-8-6"
         width="56.397652"
         height="40.731636"
         x="466.12704"
         y="358.96872"
         ry="3.7076452" />
      <circle
         style="fill:#172ce1;fill-opacity:1;stroke:none;stroke-width:0.762409;stroke-linejoin:round;stroke-miterlimit:4;stroke-dasharray:none;stroke-opacity:1"
         id="path114208-5-6-6"
         cx="494.34592"
         cy="370.66934"
         r="9.5011578" />
      <path
         d="m 494.43976,377.62516 c -0.84766,-0.0444 -1.74213,-0.33963 -2.46018,-0.81107 -1.15544,-0.75909 -1.88787,-1.92608 -2.04116,-3.25215 -0.0231,-0.19787 -0.0261,-0.78396 -0.0261,-5.09023 v -4.86585 h 0.0786 c 0.20425,3.2e-4 0.59365,0.0364 0.75109,0.0677 0.92734,0.18634 1.62407,0.76665 1.80506,1.50426 0.0249,0.10189 0.0284,0.41205 0.0364,3.37315 l 0.009,3.26073 0.0984,0.47915 c 0.0647,0.31697 0.0932,0.48715 0.0828,0.5027 -0.008,0.0127 -0.27831,0.1967 -0.60001,0.4085 -0.32171,0.2118 -0.84588,0.55662 -1.16477,0.76664 -0.32452,0.21344 -0.57098,0.38643 -0.56002,0.3922 0.0109,0.005 0.0607,0.0151 0.11108,0.0209 0.60342,0.0695 2.78174,0.34658 2.79047,0.35517 0.006,0.006 0.20544,0.51958 0.44257,1.14048 0.5381,1.40812 0.50344,1.31911 0.51499,1.31852 0.006,0 0.29742,-0.52299 0.648,-1.1624 0.35059,-0.63927 0.644,-1.16581 0.65141,-1.17041 0.008,-0.005 0.67229,-0.0156 1.47715,-0.0244 0.80426,-0.009 1.46558,-0.0186 1.46958,-0.0226 0.003,-0.003 -0.17122,-0.15865 -0.3888,-0.34438 -0.21758,-0.18574 -0.6948,-0.59349 -1.0605,-0.90601 l -0.66532,-0.56817 0.43619,-1.24045 c 0.2401,-0.68208 0.43502,-1.24446 0.43339,-1.25024 -0.003,-0.009 -0.65378,0.29445 -2.51854,1.17277 l -0.092,0.0434 -0.93727,-0.58788 0.005,-1.24104 c 0.003,-0.68266 0.009,-1.24506 0.014,-1.24965 0.0121,-0.0127 0.30837,-0.0567 0.51144,-0.077 0.25105,-0.0244 0.73065,-0.0203 1.00717,0.009 0.63423,0.0666 1.19543,0.23314 1.77397,0.52759 0.73716,0.37443 1.32666,0.89327 1.77559,1.56275 0.38821,0.57854 0.60697,1.14552 0.71569,1.85839 0.0382,0.25046 0.0388,0.87535 3.3e-4,1.12537 -0.11805,0.78382 -0.41191,1.48396 -0.88514,2.10648 -0.15107,0.19966 -0.58327,0.63882 -0.78515,0.79849 -0.64459,0.51026 -1.41982,0.85623 -2.24837,1.00378 -0.35177,0.0625 -0.80248,0.0868 -1.20624,0.0659 z"
         style="fill:#e6e6e6;fill-opacity:1;fill-rule:nonzero;stroke:none;stroke-width:0.148115;stroke-linecap:butt;stroke-linejoin:round"
         id="path48515-60-4-9-4"
         inkscape:export-filename="/Users/livesigned/Documents/Lach/brandbased/brandbased-poster.png"
         inkscape:export-xdpi="65.450974"
         inkscape:export-ydpi="65.450974" />
      <rect
         style="fill:#1c2fe9;fill-opacity:1;stroke:none;stroke-width:0.678901;stroke-linejoin:round;stroke-miterlimit:4;stroke-dasharray:none;stroke-opacity:1"
         id="rect98242-9-5-9"
         width="47.27758"
         height="8.4077635"
         x="470.6965"
         y="387.51413"
         ry="4.2038817" />
      <text
         xml:space="preserve"
         style="font-weight:bold;font-size:4.7222px;line-height:1.25;font-family:sans-serif;-inkscape-font-specification:'sans-serif Bold';fill:#ffffff;stroke-width:0.118056"
         x="487.22079"
         y="393.05154"
         id="text105116-9-2-6"><tspan
           sodipodi:role="line"
           id="tspan105114-5-1-9"
           style="font-style:normal;font-variant:normal;font-weight:bold;font-stretch:normal;font-family:Roboto;-inkscape-font-specification:'Roboto Bold';fill:#ffffff;stroke-width:0.118056"
           x="487.22079"
           y="393.05154">Explore</tspan></text>
    </g>
  </g>
</svg>
