<?xml version="1.0" encoding="UTF-8" standalone="no"?>
<!-- Created with Inkscape (http://www.inkscape.org/) -->

<svg
   width="15mm"
   height="15mm"
   viewBox="0 0 15 15"
   version="1.1"
   id="svg6035"
   inkscape:version="1.1.2 (b8e25be8, 2022-02-05)"
   sodipodi:docname="globe-icon.svg"
   xmlns:inkscape="http://www.inkscape.org/namespaces/inkscape"
   xmlns:sodipodi="http://sodipodi.sourceforge.net/DTD/sodipodi-0.dtd"
   xmlns="http://www.w3.org/2000/svg"
   xmlns:svg="http://www.w3.org/2000/svg">
  <sodipodi:namedview
     id="namedview6037"
     pagecolor="#ffffff"
     bordercolor="#666666"
     borderopacity="1.0"
     inkscape:pageshadow="2"
     inkscape:pageopacity="0.0"
     inkscape:pagecheckerboard="0"
     inkscape:document-units="mm"
     showgrid="false"
     inkscape:zoom="7.5087439"
     inkscape:cx="23.639107"
     inkscape:cy="28.699874"
     inkscape:window-width="1312"
     inkscape:window-height="961"
     inkscape:window-x="0"
     inkscape:window-y="25"
     inkscape:window-maximized="0"
     inkscape:current-layer="layer1" />
  <defs
     id="defs6032">
    <clipPath
       clipPathUnits="userSpaceOnUse"
       id="clipPath371609-75">
      <g
         id="g371723-5"
         style="fill:#000000;fill-opacity:1"
         transform="matrix(0.66384104,0,0,0.66384104,-540.66866,1173.6579)">
        <g
           id="g371667-6"
           style="fill:#000000;fill-opacity:1">
          <g
             id="g371665-4"
             style="fill:#000000;fill-opacity:1">
            <path
               class="st1"
               d="M 314.8,40.2 H 180.9 C 162.2,40.2 147,55.4 147,74.1 v 351.7 c 0,18.7 15.2,33.9 33.9,33.9 h 133.9 c 18.7,0 33.9,-15.2 33.9,-33.9 V 74.1 c 0,-18.7 -15.2,-33.9 -33.9,-33.9 z"
               id="path371611-1"
               style="fill:#000000;fill-opacity:1" />
            <path
               class="st2"
               d="M 314.8,457.3 H 180.9 c -17.3,0 -31.4,-14.1 -31.4,-31.4 V 74.1 c 0,-17.3 14.1,-31.4 31.4,-31.4 h 133.9 c 17.3,0 31.4,14.1 31.4,31.4 v 351.7 c 0,17.4 -14.1,31.5 -31.4,31.5 z"
               id="path371613-1"
               style="fill:#000000;fill-opacity:1"
               clip-path="url(#SVGID_00000124841012519662667260000017478612865163492267_)" />
            <g
               id="g371663-0"
               style="fill:#000000;fill-opacity:1">
              <g
                 id="g371661-6"
                 style="fill:#000000;fill-opacity:1">
                <g
                   id="g371635-9"
                   style="fill:#000000;fill-opacity:1">
                  <g
                     id="g371633-7"
                     style="fill:#000000;fill-opacity:1">
                    <g
                       id="g371619-79"
                       style="fill:#000000;fill-opacity:1">
                      <g
                         id="g371617-3"
                         style="fill:#000000;fill-opacity:1">
                        <path
                           class="st106"
                           d="M 303.2,58.9 302.3,58 c 2.3,-2.3 6.3,-2.3 8.5,0 l -0.9,0.9 c -1.8,-1.8 -4.9,-1.8 -6.7,0 z"
                           id="path371615-2"
                           style="fill:#000000;fill-opacity:1"
                           clip-path="url(#SVGID_00000067216029800758674830000010237854525184559275_)" />
                      </g>
                    </g>
                    <g
                       id="g371625-5"
                       style="fill:#000000;fill-opacity:1">
                      <g
                         id="g371623-9"
                         style="fill:#000000;fill-opacity:1">
                        <path
                           class="st106"
                           d="m 311.8,57 c -1.4,-1.4 -3.3,-2.2 -5.3,-2.2 -2,0 -3.9,0.8 -5.3,2.2 l -0.9,-0.9 c 1.7,-1.7 3.9,-2.6 6.2,-2.6 2.3,0 4.5,0.9 6.2,2.6 z"
                           id="path371621-9"
                           style="fill:#000000;fill-opacity:1"
                           clip-path="url(#SVGID_00000067216029800758674830000010237854525184559275_)" />
                      </g>
                    </g>
                    <g
                       id="g371631-0"
                       style="fill:#000000;fill-opacity:1">
                      <g
                         id="g371629-2"
                         style="fill:#000000;fill-opacity:1">
                        <path
                           class="st106"
                           d="m 308.5,60.3 c -0.5,-0.5 -1.2,-0.8 -2,-0.8 -0.8,0 -1.5,0.3 -2,0.8 l 2,2 z"
                           id="path371627-8"
                           style="fill:#000000;fill-opacity:1"
                           clip-path="url(#SVGID_00000067216029800758674830000010237854525184559275_)" />
                      </g>
                    </g>
                  </g>
                </g>
                <g
                   id="g371647-3"
                   style="fill:#000000;fill-opacity:1">
                  <g
                     id="g371639-6"
                     style="fill:#000000;fill-opacity:1">
                    <rect
                       x="320"
                       y="55.5"
                       class="st106"
                       width="7.4000001"
                       height="4.6999998"
                       id="rect371637-6"
                       style="fill:#000000;fill-opacity:1"
                       clip-path="url(#SVGID_00000067216029800758674830000010237854525184559275_)" />
                  </g>
                  <g
                     id="g371643-3"
                     style="fill:#000000;fill-opacity:1">
                    <rect
                       x="332.79999"
                       y="56.200001"
                       class="st106"
                       width="1.5"
                       height="3.4000001"
                       id="rect371641-7"
                       style="fill:#000000;fill-opacity:1"
                       clip-path="url(#SVGID_00000067216029800758674830000010237854525184559275_)" />
                  </g>
                  <rect
                     x="318.89999"
                     y="54.400002"
                     class="st107"
                     width="13.8"
                     height="6.9000001"
                     id="rect371645-3"
                     style="fill:#000000;fill-opacity:1"
                     clip-path="url(#SVGID_00000087399550680444365500000015997442983155543691_)" />
                </g>
                <text
                   transform="translate(179.9211,60.7994)"
                   class="st106 st108 st109"
                   id="text371649-3"
                   style="fill:#000000;fill-opacity:1"
                   clip-path="url(#SVGID_00000092436620421458954670000006166330970615475891_)">09:05</text>
                <g
                   id="g371659-8"
                   style="fill:#000000;fill-opacity:1">
                  <rect
                     x="161.3"
                     y="59.799999"
                     class="st106"
                     width="2.3"
                     height="1.9"
                     id="rect371651-4"
                     style="fill:#000000;fill-opacity:1"
                     clip-path="url(#SVGID_00000067216029800758674830000010237854525184559275_)" />
                  <rect
                     x="164.89999"
                     y="57.900002"
                     class="st106"
                     width="2.3"
                     height="3.8"
                     id="rect371653-6"
                     style="fill:#000000;fill-opacity:1"
                     clip-path="url(#SVGID_00000067216029800758674830000010237854525184559275_)" />
                  <rect
                     x="168.5"
                     y="56"
                     class="st106"
                     width="2.3"
                     height="5.6999998"
                     id="rect371655-30"
                     style="fill:#000000;fill-opacity:1"
                     clip-path="url(#SVGID_00000067216029800758674830000010237854525184559275_)" />
                  <rect
                     x="172"
                     y="54.099998"
                     class="st106"
                     width="2.3"
                     height="7.5"
                     id="rect371657-1"
                     style="fill:#000000;fill-opacity:1"
                     clip-path="url(#SVGID_00000067216029800758674830000010237854525184559275_)" />
                </g>
              </g>
            </g>
          </g>
        </g>
        <g
           id="g371721-6"
           style="fill:#000000;fill-opacity:0.870588"
           transform="translate(0.79894242,135.1066)">
          <g
             id="g371719-5"
             style="fill:#000000;fill-opacity:0.870588">
            <g
               id="g371717-9"
               style="fill:#000000;fill-opacity:0.870588"
               transform="translate(-3.1903282,-139.09225)">
              <g
                 id="g371715-5"
                 style="fill:#000000;fill-opacity:0.870588">
                <g
                   id="g371689-8"
                   style="fill:#000000;fill-opacity:0.870588">
                  <g
                     id="g371687-5"
                     style="fill:#000000;fill-opacity:0.870588">
                    <g
                       id="g371673-9"
                       style="fill:#000000;fill-opacity:0.870588">
                      <g
                         id="g371671-1"
                         style="fill:#000000;fill-opacity:0.870588">
                        <path
                           class="st106"
                           d="M 303.2,58.9 302.3,58 c 2.3,-2.3 6.3,-2.3 8.5,0 l -0.9,0.9 c -1.8,-1.8 -4.9,-1.8 -6.7,0 z"
                           id="path371669-4"
                           style="fill:#000000;fill-opacity:0.870588"
                           clip-path="url(#SVGID_00000067216029800758674830000010237854525184559275_)" />
                      </g>
                    </g>
                    <g
                       id="g371679-0"
                       style="fill:#000000;fill-opacity:0.870588">
                      <g
                         id="g371677-6"
                         style="fill:#000000;fill-opacity:0.870588">
                        <path
                           class="st106"
                           d="m 311.8,57 c -1.4,-1.4 -3.3,-2.2 -5.3,-2.2 -2,0 -3.9,0.8 -5.3,2.2 l -0.9,-0.9 c 1.7,-1.7 3.9,-2.6 6.2,-2.6 2.3,0 4.5,0.9 6.2,2.6 z"
                           id="path371675-23"
                           style="fill:#000000;fill-opacity:0.870588"
                           clip-path="url(#SVGID_00000067216029800758674830000010237854525184559275_)" />
                      </g>
                    </g>
                    <g
                       id="g371685-35"
                       style="fill:#000000;fill-opacity:0.870588">
                      <g
                         id="g371683-1"
                         style="fill:#000000;fill-opacity:0.870588">
                        <path
                           class="st106"
                           d="m 308.5,60.3 c -0.5,-0.5 -1.2,-0.8 -2,-0.8 -0.8,0 -1.5,0.3 -2,0.8 l 2,2 z"
                           id="path371681-5"
                           style="fill:#000000;fill-opacity:0.870588"
                           clip-path="url(#SVGID_00000067216029800758674830000010237854525184559275_)" />
                      </g>
                    </g>
                  </g>
                </g>
                <g
                   id="g371701-2"
                   style="fill:#000000;fill-opacity:0.870588">
                  <g
                     id="g371693-8"
                     style="fill:#000000;fill-opacity:0.870588">
                    <rect
                       x="320"
                       y="55.5"
                       class="st106"
                       width="7.4000001"
                       height="4.6999998"
                       id="rect371691-5"
                       style="fill:#000000;fill-opacity:0.870588"
                       clip-path="url(#SVGID_00000067216029800758674830000010237854525184559275_)" />
                  </g>
                  <g
                     id="g371697-2"
                     style="fill:#000000;fill-opacity:0.870588">
                    <rect
                       x="332.79999"
                       y="56.200001"
                       class="st106"
                       width="1.5"
                       height="3.4000001"
                       id="rect371695-0"
                       style="fill:#000000;fill-opacity:0.870588"
                       clip-path="url(#SVGID_00000067216029800758674830000010237854525184559275_)" />
                  </g>
                  <rect
                     x="318.89999"
                     y="54.400002"
                     class="st107"
                     width="13.8"
                     height="6.9000001"
                     id="rect371699-1"
                     style="fill:#000000;fill-opacity:0.870588"
                     clip-path="url(#SVGID_00000087399550680444365500000015997442983155543691_)" />
                </g>
                <text
                   transform="translate(179.9211,60.7994)"
                   class="st106 st108 st109"
                   id="text371703-0"
                   style="fill:#000000;fill-opacity:0.870588"
                   clip-path="url(#SVGID_00000092436620421458954670000006166330970615475891_)">09:05</text>
                <g
                   id="g371713-3"
                   style="fill:#000000;fill-opacity:0.870588">
                  <rect
                     x="161.3"
                     y="59.799999"
                     class="st106"
                     width="2.3"
                     height="1.9"
                     id="rect371705-7"
                     style="fill:#000000;fill-opacity:0.870588"
                     clip-path="url(#SVGID_00000067216029800758674830000010237854525184559275_)" />
                  <rect
                     x="164.89999"
                     y="57.900002"
                     class="st106"
                     width="2.3"
                     height="3.8"
                     id="rect371707-9"
                     style="fill:#000000;fill-opacity:0.870588"
                     clip-path="url(#SVGID_00000067216029800758674830000010237854525184559275_)" />
                  <rect
                     x="168.5"
                     y="56"
                     class="st106"
                     width="2.3"
                     height="5.6999998"
                     id="rect371709-01"
                     style="fill:#000000;fill-opacity:0.870588"
                     clip-path="url(#SVGID_00000067216029800758674830000010237854525184559275_)" />
                  <rect
                     x="172"
                     y="54.099998"
                     class="st106"
                     width="2.3"
                     height="7.5"
                     id="rect371711-9"
                     style="fill:#000000;fill-opacity:0.870588"
                     clip-path="url(#SVGID_00000067216029800758674830000010237854525184559275_)" />
                </g>
              </g>
            </g>
          </g>
        </g>
      </g>
    </clipPath>
    <linearGradient
       id="SVGID_00000029736320646472050120000016445534816330291875_"
       gradientUnits="userSpaceOnUse"
       x1="222.1857"
       y1="224.3593"
       x2="527.81427"
       y2="529.98792"
       gradientTransform="rotate(90,375,250)">
      <stop
         offset="0"
         style="stop-color:#ED7FFF"
         id="stop303111" />
      <stop
         offset="1"
         style="stop-color:#44ADFF"
         id="stop303113" />
    </linearGradient>
    <clipPath
       clipPathUnits="userSpaceOnUse"
       id="clipPath371609-75-4">
      <g
         id="g371723-5-1"
         style="fill:#000000;fill-opacity:1"
         transform="matrix(0.66384104,0,0,0.66384104,-540.66866,1173.6579)">
        <g
           id="g371667-6-8"
           style="fill:#000000;fill-opacity:1">
          <g
             id="g371665-4-8"
             style="fill:#000000;fill-opacity:1">
            <path
               class="st1"
               d="M 314.8,40.2 H 180.9 C 162.2,40.2 147,55.4 147,74.1 v 351.7 c 0,18.7 15.2,33.9 33.9,33.9 h 133.9 c 18.7,0 33.9,-15.2 33.9,-33.9 V 74.1 c 0,-18.7 -15.2,-33.9 -33.9,-33.9 z"
               id="path371611-1-3"
               style="fill:#000000;fill-opacity:1" />
            <path
               class="st2"
               d="M 314.8,457.3 H 180.9 c -17.3,0 -31.4,-14.1 -31.4,-31.4 V 74.1 c 0,-17.3 14.1,-31.4 31.4,-31.4 h 133.9 c 17.3,0 31.4,14.1 31.4,31.4 v 351.7 c 0,17.4 -14.1,31.5 -31.4,31.5 z"
               id="path371613-1-5"
               style="fill:#000000;fill-opacity:1"
               clip-path="url(#SVGID_00000124841012519662667260000017478612865163492267_)" />
            <g
               id="g371663-0-2"
               style="fill:#000000;fill-opacity:1">
              <g
                 id="g371661-6-2"
                 style="fill:#000000;fill-opacity:1">
                <g
                   id="g371635-9-6"
                   style="fill:#000000;fill-opacity:1">
                  <g
                     id="g371633-7-6"
                     style="fill:#000000;fill-opacity:1">
                    <g
                       id="g371619-79-7"
                       style="fill:#000000;fill-opacity:1">
                      <g
                         id="g371617-3-8"
                         style="fill:#000000;fill-opacity:1">
                        <path
                           class="st106"
                           d="M 303.2,58.9 302.3,58 c 2.3,-2.3 6.3,-2.3 8.5,0 l -0.9,0.9 c -1.8,-1.8 -4.9,-1.8 -6.7,0 z"
                           id="path371615-2-4"
                           style="fill:#000000;fill-opacity:1"
                           clip-path="url(#SVGID_00000067216029800758674830000010237854525184559275_)" />
                      </g>
                    </g>
                    <g
                       id="g371625-5-1"
                       style="fill:#000000;fill-opacity:1">
                      <g
                         id="g371623-9-7"
                         style="fill:#000000;fill-opacity:1">
                        <path
                           class="st106"
                           d="m 311.8,57 c -1.4,-1.4 -3.3,-2.2 -5.3,-2.2 -2,0 -3.9,0.8 -5.3,2.2 l -0.9,-0.9 c 1.7,-1.7 3.9,-2.6 6.2,-2.6 2.3,0 4.5,0.9 6.2,2.6 z"
                           id="path371621-9-1"
                           style="fill:#000000;fill-opacity:1"
                           clip-path="url(#SVGID_00000067216029800758674830000010237854525184559275_)" />
                      </g>
                    </g>
                    <g
                       id="g371631-0-8"
                       style="fill:#000000;fill-opacity:1">
                      <g
                         id="g371629-2-7"
                         style="fill:#000000;fill-opacity:1">
                        <path
                           class="st106"
                           d="m 308.5,60.3 c -0.5,-0.5 -1.2,-0.8 -2,-0.8 -0.8,0 -1.5,0.3 -2,0.8 l 2,2 z"
                           id="path371627-8-8"
                           style="fill:#000000;fill-opacity:1"
                           clip-path="url(#SVGID_00000067216029800758674830000010237854525184559275_)" />
                      </g>
                    </g>
                  </g>
                </g>
                <g
                   id="g371647-3-7"
                   style="fill:#000000;fill-opacity:1">
                  <g
                     id="g371639-6-7"
                     style="fill:#000000;fill-opacity:1">
                    <rect
                       x="320"
                       y="55.5"
                       class="st106"
                       width="7.4000001"
                       height="4.6999998"
                       id="rect371637-6-4"
                       style="fill:#000000;fill-opacity:1"
                       clip-path="url(#SVGID_00000067216029800758674830000010237854525184559275_)" />
                  </g>
                  <g
                     id="g371643-3-4"
                     style="fill:#000000;fill-opacity:1">
                    <rect
                       x="332.79999"
                       y="56.200001"
                       class="st106"
                       width="1.5"
                       height="3.4000001"
                       id="rect371641-7-9"
                       style="fill:#000000;fill-opacity:1"
                       clip-path="url(#SVGID_00000067216029800758674830000010237854525184559275_)" />
                  </g>
                  <rect
                     x="318.89999"
                     y="54.400002"
                     class="st107"
                     width="13.8"
                     height="6.9000001"
                     id="rect371645-3-1"
                     style="fill:#000000;fill-opacity:1"
                     clip-path="url(#SVGID_00000087399550680444365500000015997442983155543691_)" />
                </g>
                <text
                   transform="translate(179.9211,60.7994)"
                   class="st106 st108 st109"
                   id="text371649-3-5"
                   style="fill:#000000;fill-opacity:1"
                   clip-path="url(#SVGID_00000092436620421458954670000006166330970615475891_)">09:05</text>
                <g
                   id="g371659-8-5"
                   style="fill:#000000;fill-opacity:1">
                  <rect
                     x="161.3"
                     y="59.799999"
                     class="st106"
                     width="2.3"
                     height="1.9"
                     id="rect371651-4-5"
                     style="fill:#000000;fill-opacity:1"
                     clip-path="url(#SVGID_00000067216029800758674830000010237854525184559275_)" />
                  <rect
                     x="164.89999"
                     y="57.900002"
                     class="st106"
                     width="2.3"
                     height="3.8"
                     id="rect371653-6-8"
                     style="fill:#000000;fill-opacity:1"
                     clip-path="url(#SVGID_00000067216029800758674830000010237854525184559275_)" />
                  <rect
                     x="168.5"
                     y="56"
                     class="st106"
                     width="2.3"
                     height="5.6999998"
                     id="rect371655-30-2"
                     style="fill:#000000;fill-opacity:1"
                     clip-path="url(#SVGID_00000067216029800758674830000010237854525184559275_)" />
                  <rect
                     x="172"
                     y="54.099998"
                     class="st106"
                     width="2.3"
                     height="7.5"
                     id="rect371657-1-9"
                     style="fill:#000000;fill-opacity:1"
                     clip-path="url(#SVGID_00000067216029800758674830000010237854525184559275_)" />
                </g>
              </g>
            </g>
          </g>
        </g>
        <g
           id="g371721-6-8"
           style="fill:#000000;fill-opacity:0.870588"
           transform="translate(0.79894242,135.1066)">
          <g
             id="g371719-5-2"
             style="fill:#000000;fill-opacity:0.870588">
            <g
               id="g371717-9-0"
               style="fill:#000000;fill-opacity:0.870588"
               transform="translate(-3.1903282,-139.09225)">
              <g
                 id="g371715-5-7"
                 style="fill:#000000;fill-opacity:0.870588">
                <g
                   id="g371689-8-4"
                   style="fill:#000000;fill-opacity:0.870588">
                  <g
                     id="g371687-5-8"
                     style="fill:#000000;fill-opacity:0.870588">
                    <g
                       id="g371673-9-5"
                       style="fill:#000000;fill-opacity:0.870588">
                      <g
                         id="g371671-1-8"
                         style="fill:#000000;fill-opacity:0.870588">
                        <path
                           class="st106"
                           d="M 303.2,58.9 302.3,58 c 2.3,-2.3 6.3,-2.3 8.5,0 l -0.9,0.9 c -1.8,-1.8 -4.9,-1.8 -6.7,0 z"
                           id="path371669-4-3"
                           style="fill:#000000;fill-opacity:0.870588"
                           clip-path="url(#SVGID_00000067216029800758674830000010237854525184559275_)" />
                      </g>
                    </g>
                    <g
                       id="g371679-0-0"
                       style="fill:#000000;fill-opacity:0.870588">
                      <g
                         id="g371677-6-6"
                         style="fill:#000000;fill-opacity:0.870588">
                        <path
                           class="st106"
                           d="m 311.8,57 c -1.4,-1.4 -3.3,-2.2 -5.3,-2.2 -2,0 -3.9,0.8 -5.3,2.2 l -0.9,-0.9 c 1.7,-1.7 3.9,-2.6 6.2,-2.6 2.3,0 4.5,0.9 6.2,2.6 z"
                           id="path371675-23-2"
                           style="fill:#000000;fill-opacity:0.870588"
                           clip-path="url(#SVGID_00000067216029800758674830000010237854525184559275_)" />
                      </g>
                    </g>
                    <g
                       id="g371685-35-2"
                       style="fill:#000000;fill-opacity:0.870588">
                      <g
                         id="g371683-1-5"
                         style="fill:#000000;fill-opacity:0.870588">
                        <path
                           class="st106"
                           d="m 308.5,60.3 c -0.5,-0.5 -1.2,-0.8 -2,-0.8 -0.8,0 -1.5,0.3 -2,0.8 l 2,2 z"
                           id="path371681-5-2"
                           style="fill:#000000;fill-opacity:0.870588"
                           clip-path="url(#SVGID_00000067216029800758674830000010237854525184559275_)" />
                      </g>
                    </g>
                  </g>
                </g>
                <g
                   id="g371701-2-2"
                   style="fill:#000000;fill-opacity:0.870588">
                  <g
                     id="g371693-8-7"
                     style="fill:#000000;fill-opacity:0.870588">
                    <rect
                       x="320"
                       y="55.5"
                       class="st106"
                       width="7.4000001"
                       height="4.6999998"
                       id="rect371691-5-1"
                       style="fill:#000000;fill-opacity:0.870588"
                       clip-path="url(#SVGID_00000067216029800758674830000010237854525184559275_)" />
                  </g>
                  <g
                     id="g371697-2-5"
                     style="fill:#000000;fill-opacity:0.870588">
                    <rect
                       x="332.79999"
                       y="56.200001"
                       class="st106"
                       width="1.5"
                       height="3.4000001"
                       id="rect371695-0-2"
                       style="fill:#000000;fill-opacity:0.870588"
                       clip-path="url(#SVGID_00000067216029800758674830000010237854525184559275_)" />
                  </g>
                  <rect
                     x="318.89999"
                     y="54.400002"
                     class="st107"
                     width="13.8"
                     height="6.9000001"
                     id="rect371699-1-1"
                     style="fill:#000000;fill-opacity:0.870588"
                     clip-path="url(#SVGID_00000087399550680444365500000015997442983155543691_)" />
                </g>
                <text
                   transform="translate(179.9211,60.7994)"
                   class="st106 st108 st109"
                   id="text371703-0-1"
                   style="fill:#000000;fill-opacity:0.870588"
                   clip-path="url(#SVGID_00000092436620421458954670000006166330970615475891_)">09:05</text>
                <g
                   id="g371713-3-0"
                   style="fill:#000000;fill-opacity:0.870588">
                  <rect
                     x="161.3"
                     y="59.799999"
                     class="st106"
                     width="2.3"
                     height="1.9"
                     id="rect371705-7-1"
                     style="fill:#000000;fill-opacity:0.870588"
                     clip-path="url(#SVGID_00000067216029800758674830000010237854525184559275_)" />
                  <rect
                     x="164.89999"
                     y="57.900002"
                     class="st106"
                     width="2.3"
                     height="3.8"
                     id="rect371707-9-8"
                     style="fill:#000000;fill-opacity:0.870588"
                     clip-path="url(#SVGID_00000067216029800758674830000010237854525184559275_)" />
                  <rect
                     x="168.5"
                     y="56"
                     class="st106"
                     width="2.3"
                     height="5.6999998"
                     id="rect371709-01-7"
                     style="fill:#000000;fill-opacity:0.870588"
                     clip-path="url(#SVGID_00000067216029800758674830000010237854525184559275_)" />
                  <rect
                     x="172"
                     y="54.099998"
                     class="st106"
                     width="2.3"
                     height="7.5"
                     id="rect371711-9-6"
                     style="fill:#000000;fill-opacity:0.870588"
                     clip-path="url(#SVGID_00000067216029800758674830000010237854525184559275_)" />
                </g>
              </g>
            </g>
          </g>
        </g>
      </g>
    </clipPath>
  </defs>
  <g
     inkscape:label="Layer 1"
     inkscape:groupmode="layer"
     id="layer1">
    <path
       d="m 13.287799,10.93396 c 0.02197,0 0.04332,0 0.06403,0.01366 0.138378,-0.241096 0.264538,-0.49428 0.378503,-0.758924 0.0041,-0.01365 0.0064,-0.01365 0.0084,-0.0147 0.171214,-0.4036433 0.300392,-0.8232686 0.387451,-1.257928 0.0676,-0.337188 0.109075,-0.683001 0.124939,-1.0373345 h -2.039573 c -0.0369,1.0355514 -0.34614,2.0561657 -0.922299,3.0632235 z m -0.355571,0.65009 h -2.054157 c -0.623475,0.903282 -1.4634359,1.795313 -2.5158902,2.676509 0.165073,-0.01999 0.3282861,-0.0473 0.4896055,-0.07886 0.4401895,-0.08727 0.8649226,-0.219437 1.2736337,-0.393967 h -2.64e-4 c 0.41546,-0.17885 0.802395,-0.387976 1.160151,-0.627813 0.358443,-0.240454 0.690723,-0.513724 0.996046,-0.820424 h 6.95e-4 v 0 c 0.236266,-0.235099 0.452734,-0.486493 0.649654,-0.753345 z M 6.6166478,14.260246 C 5.5642986,13.379363 4.7243578,12.487332 4.1007581,11.58405 H 2.0469584 c 0.1968893,0.266956 0.413273,0.518142 0.6494225,0.75324 h 7.044e-4 v 0 c 0.3054806,0.306909 0.63771,0.579971 0.9960456,0.820425 0.357621,0.240045 0.7445667,0.449171 1.1601526,0.627812 0.00634,0 0.00946,0 0.015564,0.0147 0.4038519,0.171387 0.8232862,0.300398 1.2580605,0.387452 0.1613097,0.03365 0.3243117,0.05887 0.4893332,0.07886 z M 1.623287,10.93396 H 3.690492 C 3.1144692,9.9270066 2.8052766,8.9059671 2.7684458,7.8707367 H 0.72899822 c 0.0157727,0.3543335 0.057301,0.6998255 0.12478261,1.0370211 0.088004,0.4402327 0.21951647,0.8651106 0.39407427,1.2736942 l 4.834e-4,-1.05e-4 c 0.1127963,0.262017 0.2377162,0.513202 0.374885,0.752613 z M 0.72899822,7.2206394 H 2.7811363 C 2.8566282,6.2066505 3.1930737,5.1850811 3.7961391,4.1575282 H 1.623287 C 1.4860861,4.3966181 1.3612721,4.6476979 1.2484228,4.910029 1.2442428,4.923682 1.2420828,4.923682 1.2400128,4.924727 1.0686841,5.3285799 0.93963237,5.7479963 0.85258556,6.1828646 0.78498083,6.5199482 0.74351074,6.8657612 0.72778131,7.2196695 Z M 2.0469584,3.5072216 h 2.165724 C 4.8293948,2.6185561 5.6448379,1.7246383 6.662385,0.82566932 6.4817606,0.84566497 6.3034284,0.87506156 6.1273994,0.91188196 5.6870839,0.99915408 5.2624664,1.1311105 4.8537669,1.3059605 l 1.47e-4,3.135e-4 C 4.438349,1.4852277 4.051383,1.6937272 3.6937516,1.9339736 3.3354153,2.1745407 3.0031553,2.4476979 2.6977059,2.7543999 h -6.833e-4 v 0 C 2.4608514,2.9896026 2.2445207,3.2408987 2.0475993,3.5079602 Z M 8.3164332,0.82556485 C 9.3339801,1.7245338 10.149434,2.6183474 10.766272,3.5071171 h 2.165851 C 12.735213,3.240369 12.518734,2.9890802 12.282448,2.7534523 h -7.05e-4 v 0 C 11.976388,2.4469666 11.644138,2.1739139 11.285666,1.9334512 10.927918,1.6934063 10.540973,1.4844891 10.125535,1.3056471 c -0.0064,0 -0.0095,0 -0.01536,-0.013654 C 9.7062396,1.1210306 9.2867956,0.99159599 8.8521467,0.90474916 8.6761177,0.87005519 8.4975437,0.8427477 8.3169196,0.81853652 Z M 13.355647,4.1575282 h -2.172979 c 0.603181,1.0275529 0.939679,2.0491223 1.01512,3.0631112 h 2.052264 C 14.234174,6.8664177 14.192541,6.5207091 14.1251,6.1835138 14.036885,5.7432884 13.905604,5.3186119 13.731036,4.9096111 l -4.61e-4,4.179e-4 C 13.617788,4.6476979 13.493006,4.3966181 13.355731,4.1575282 Z M 6.0003981,0.27230432 c 0.4819721,-0.0967327 0.9784234,-0.14467753 1.4891212,-0.14467753 0.5107191,0 1.0070433,0.0473033 1.4890269,0.14467753 0.4749707,0.0967327 0.9366511,0.23782898 1.3851888,0.42834734 0.0074,0 0.01241,0 0.01808,0.0136538 0.447056,0.19251794 0.868897,0.42088624 1.26418,0.68626894 0.394547,0.264644 0.759526,0.5647206 1.094576,0.9008566 0.336233,0.335196 0.63629,0.7003555 0.900817,1.0946431 0.265243,0.3954365 0.493791,0.816957 0.686253,1.2645464 h -4.72e-4 4.72e-4 c 0.193999,0.4536851 0.339116,0.9208374 0.435237,1.4016509 0.09643,0.4819775 0.14453,0.9784592 0.14453,1.4890279 0,0.510575 -0.04816,1.0073701 -0.14453,1.4893401 -0.09504,0.4748222 -0.237988,0.9365056 -0.428255,1.3850416 -0.0041,0.01365 -0.0064,0.01365 -0.0084,0.01679 -0.192443,0.44738 -0.420865,0.868893 -0.686265,1.264546 -0.264518,0.394495 -0.564531,0.759342 -0.900797,1.094322 -0.335036,0.336247 -0.700164,0.636324 -1.094585,0.900865 -0.395147,0.265479 -0.817126,0.494064 -1.264202,0.686364 h -2.31e-4 -6.94e-4 c -0.4537207,0.193885 -0.9210999,0.339085 -1.4015903,0.435189 -0.4819731,0.09673 -0.9784555,0.144566 -1.4890373,0.144566 -0.5105719,0 -1.0071595,-0.04731 -1.4891222,-0.144566 -0.4748752,-0.09568 -0.9366711,-0.237834 -1.385314,-0.428145 -0.00634,0 -0.012408,0 -0.017661,-0.0147 C 4.1493513,14.188611 3.7277517,13.960138 3.3323637,13.694861 2.9380374,13.430008 2.5729405,13.129932 2.2378834,12.793683 1.9016481,12.458495 1.601614,12.093649 1.3370968,11.699361 1.0717066,11.303923 0.84329504,10.882404 0.65084278,10.434814 l 4.3051e-4,-1.05e-4 H 0.65084278 C 0.4569386,9.9811292 0.31182085,9.5137681 0.21571037,9.0330589 0.11939988,8.5510814 0.07107684,8.0548087 0.07107684,7.5439278 c 0,-0.5104718 0.04825812,-1.0071624 0.14477007,-1.4891324 0.0950488,-0.4747177 0.23784315,-0.9366101 0.42811901,-1.3853561 0.004179,-0.01261 0.006341,-0.01261 0.008409,-0.016787 C 0.8448171,4.205585 1.0731333,3.7836467 1.3386286,3.388419 1.6032719,2.9941314 1.9032859,2.6288675 2.2394151,2.293888 2.5744522,1.95764 2.9395587,1.6576678 3.3338745,1.3929193 3.7292731,1.1276485 4.1509993,0.89916826 4.5982121,0.70686674 h 1.052e-4 6.938e-4 C 5.0528694,0.5132968 5.5202268,0.36799253 6.0008755,0.2716776 Z M 7.814651,1.24666 V 3.5072216 H 9.9668749 C 9.4013446,2.7615476 8.6847891,2.0080991 7.814651,1.24666 Z m 0,2.9108682 v 3.0631112 h 3.733377 C 11.463494,6.2147458 11.090543,5.1937063 10.422983,4.1575282 Z m 0,3.7132085 V 10.93396 h 2.717743 C 11.175686,9.9200678 11.521101,8.8989239 11.56238,7.8707367 Z m 0,3.7133133 v 2.288116 C 8.7376962,13.113874 9.4931031,12.350748 10.077968,11.58405 Z M 7.1643982,13.872479 V 11.58405 H 4.9009866 c 0.5847075,0.766698 1.3401554,1.529824 2.2634116,2.288429 z m 0,-2.938519 V 7.8707367 H 3.4166701 c 0.041005,1.0281872 0.3864824,2.0493311 1.0299958,3.0632233 z m 0,-3.7133206 V 4.1575282 H 4.5560242 C 3.8885177,5.1937063 3.5154403,6.2147458 3.4309378,7.2206394 Z m 0,-3.7134178 V 1.2465555 C 6.2942604,2.0078904 5.5775674,2.7615476 5.0120588,3.5072216 Z"
       id="path379573-4-0"
       style="fill:#ffffff;stroke-width:0.120736;stroke-linecap:butt;stroke-linejoin:round"
       inkscape:export-filename="/Users/livesigned/Documents/Lach/brandbased/brandbased-poster.png"
       inkscape:export-xdpi="65.450974"
       inkscape:export-ydpi="65.450974" />
  </g>
</svg>
