<?xml version="1.0" encoding="UTF-8" standalone="no"?>
<svg
   version="1.1"
   id="Layer_1"
   x="0px"
   y="0px"
   viewBox="0 0 122.88 115"
   xml:space="preserve"
   sodipodi:docname="products-mobile.svg"
   inkscape:version="1.1.2 (b8e25be8, 2022-02-05)"
   width="122.88"
   height="115"
   xmlns:inkscape="http://www.inkscape.org/namespaces/inkscape"
   xmlns:sodipodi="http://sodipodi.sourceforge.net/DTD/sodipodi-0.dtd"
   xmlns="http://www.w3.org/2000/svg"
   xmlns:svg="http://www.w3.org/2000/svg"><defs
     id="defs35109"><inkscape:path-effect
   effect="powerclip"
   id="path-effect66907"
   is_visible="true"
   lpeversion="1"
   inverse="true"
   flatten="false"
   hide_clip="false"
   message="Use fill-rule evenodd on &lt;b&gt;fill and stroke&lt;/b&gt; dialog if no flatten result after convert clip to paths." />
	
	
<clipPath
   clipPathUnits="userSpaceOnUse"
   id="clipPath66901"><g
     id="g66905"
     style="display:none;fill:#000000"><path
       class="st0"
       d="m 33.18,23.77 v 15.33 0.01 h -0.01 c 0,7.44 3.06,14.21 7.96,19.12 4.91,4.91 11.68,7.97 19.11,7.97 v -0.01 h 0.03 v 0 h 0.02 v 0.01 c 7.44,0 14.21,-3.05 19.12,-7.96 4.91,-4.91 7.96,-11.68 7.97,-19.11 H 87.36 V 39.1 23.59 c -3.3,-1.08 -5.68,-4.18 -5.68,-7.84 0,-4.56 3.69,-8.26 8.25,-8.26 4.56,0 8.25,3.7 8.25,8.26 0,2.95 -1.56,5.55 -3.89,7.01 v 16.34 0.03 h -0.01 c -0.01,9.34 -3.83,17.84 -9.97,23.98 -6.16,6.16 -14.67,9.99 -24.02,10 v 0.02 h -0.02 v 0 H 60.24 V 73.11 C 50.9,73.1 42.41,69.28 36.25,63.14 30.09,56.98 26.26,48.47 26.25,39.12 H 26.24 V 39.1 22.33 c -1.99,-1.51 -3.28,-3.89 -3.28,-6.58 0,-4.56 3.7,-8.26 8.26,-8.26 4.56,0 8.25,3.7 8.25,8.26 0.02,3.89 -2.67,7.14 -6.29,8.02 z"
       id="path66903"
       style="fill:#ffffff"
       sodipodi:nodetypes="cccccccccccsccccsssccccscccccccccccsscc" /></g><path
     id="lpe_path-effect66907"
     style="fill:#000000"
     class="powerclip"
     d="M -4.4395872,-2.8897 H 127.73645 V 121.5206 H -4.4395872 Z M 33.18,23.77 c 3.62,-0.88 6.31,-4.13 6.29,-8.02 0,-4.56 -3.69,-8.26 -8.25,-8.26 -4.56,0 -8.26,3.7 -8.26,8.26 0,2.69 1.29,5.07 3.28,6.58 v 16.77 0.02 h 0.01 c 0.01,9.35 3.84,17.86 10,24.02 6.16,6.14 14.65,9.96 23.99,9.97 v 0.02 h 0.03 v 0 h 0.02 v -0.02 c 9.35,-0.01 17.86,-3.84 24.02,-10 6.14,-6.14 9.96,-14.64 9.97,-23.98 h 0.01 V 39.1 22.76 c 2.33,-1.46 3.89,-4.06 3.89,-7.01 0,-4.56 -3.69,-8.26 -8.25,-8.26 -4.56,0 -8.25,3.7 -8.25,8.26 0,3.66 2.38,6.76 5.68,7.84 v 15.51 0.03 h 0.02 c -0.01,7.43 -3.06,14.2 -7.97,19.11 -4.91,4.91 -11.68,7.96 -19.12,7.96 v -0.01 h -0.02 v 0 h -0.03 v 0.01 c -7.43,0 -14.2,-3.06 -19.11,-7.97 -4.9,-4.91 -7.96,-11.68 -7.96,-19.12 h 0.01 V 39.1 Z" /></clipPath></defs><sodipodi:namedview
     id="namedview35107"
     pagecolor="#ffffff"
     bordercolor="#666666"
     borderopacity="1.0"
     inkscape:pageshadow="2"
     inkscape:pageopacity="0.0"
     inkscape:pagecheckerboard="0"
     showgrid="false"
     inkscape:zoom="4.4109064"
     inkscape:cx="88.757268"
     inkscape:cy="54.750652"
     inkscape:window-width="1296"
     inkscape:window-height="959"
     inkscape:window-x="74"
     inkscape:window-y="25"
     inkscape:window-maximized="0"
     inkscape:current-layer="Layer_1" /><style
     type="text/css"
     id="style35100">.st0{fill-rule:evenodd;clip-rule:evenodd;}</style><path
     id="path66104-2"
     d="m 8.1524,2.1103 v 0.015 H 7.7659 L 0.5896,102.5491 c -0.5008,7.5581 5.5071,13.9715 13.089,13.9715 h 47.9711 47.9705 c 7.5819,-0.024 13.5665,-6.4133 13.0896,-13.9952 L 115.5334,2.1253 h -0.238 v -0.015 z"
     style="fill:#ffffff;stroke-width:0.238423"
     clip-path="url(#clipPath66901)"
     inkscape:path-effect="#path-effect66907"
     inkscape:original-d="m 8.1524,2.1103 v 0.015 H 7.7659 L 0.5896,102.5491 c -0.5008,7.5581 5.5071,13.9715 13.089,13.9715 h 47.9711 47.9705 c 7.5819,-0.024 13.5665,-6.4133 13.0896,-13.9952 L 115.5334,2.1253 h -0.238 v -0.015 z"
     transform="matrix(0.64538792,0,0,0.64538792,19.822892,19.49729)" /><rect
     class="st0"
     width="4400"
     height="1200"
     id="rect66110"
     x="-3087.5725"
     y="-513.33203" /><style
     type="text/css"
     id="style66080">
	.st0{fill:none;}
</style></svg>
