<?xml version="1.0" encoding="UTF-8" standalone="no"?>
<svg
   shape-rendering="geometricPrecision"
   text-rendering="geometricPrecision"
   image-rendering="optimizeQuality"
   fill-rule="evenodd"
   clip-rule="evenodd"
   viewBox="0 0 512 305.67"
   version="1.1"
   id="svg19648"
   sodipodi:docname="google-pay-icon.svg"
   inkscape:version="1.1.2 (b8e25be8, 2022-02-05)"
   xmlns:inkscape="http://www.inkscape.org/namespaces/inkscape"
   xmlns:sodipodi="http://sodipodi.sourceforge.net/DTD/sodipodi-0.dtd"
   xmlns="http://www.w3.org/2000/svg"
   xmlns:svg="http://www.w3.org/2000/svg">
  <defs
     id="defs19652" />
  <sodipodi:namedview
     id="namedview19650"
     pagecolor="#ffffff"
     bordercolor="#666666"
     borderopacity="1.0"
     inkscape:pageshadow="2"
     inkscape:pageopacity="0.0"
     inkscape:pagecheckerboard="0"
     showgrid="false"
     inkscape:zoom="0.77958247"
     inkscape:cx="390.5937"
     inkscape:cy="152.64581"
     inkscape:window-width="1296"
     inkscape:window-height="870"
     inkscape:window-x="0"
     inkscape:window-y="38"
     inkscape:window-maximized="0"
     inkscape:current-layer="svg19648" />
  <g
     fill-rule="nonzero"
     id="g19646">
    <path
       fill="gray"
       d="M48.18 0h415.64c13.26 0 25.31 5.42 34.03 14.15C506.58 22.88 512 34.92 512 48.18V257.5c0 13.25-5.42 25.3-14.15 34.03s-20.77 14.15-34.03 14.15H48.18c-13.26 0-25.3-5.42-34.03-14.15S0 270.75 0 257.5V48.18c0-13.26 5.42-25.31 14.15-34.03C22.87 5.42 34.92 0 48.18 0zm415.64 16.6H48.18c-8.68 0-16.57 3.56-22.29 9.29-5.73 5.72-9.28 13.61-9.28 22.29V257.5c0 8.67 3.55 16.56 9.28 22.29 5.72 5.72 13.62 9.28 22.29 9.28h415.64c8.67 0 16.56-3.56 22.29-9.28 5.73-5.73 9.29-13.62 9.29-22.29V48.18c0-8.67-3.56-16.57-9.29-22.29-5.72-5.73-13.62-9.29-22.29-9.29z"
       id="path19642" />
  </g>
  <g
     fill-rule="nonzero"
     id="g21323"
     transform="matrix(0.6782,0,0,0.6782,-6.7175247,5.4764073)">
    <g
       fill="#3c4043"
       id="g21313">
      <path
         d="m 358.6,214.1 v 60.6 H 339.4 V 125.3 h 50.9 c 12.9,0 23.9,4.3 32.9,12.9 9.2,8.6 13.8,19.1 13.8,31.5 0,12.7 -4.6,23.2 -13.8,31.7 -8.9,8.5 -19.9,12.7 -32.9,12.7 z m 0,-70.4 v 52.1 h 32.1 c 7.6,0 14,-2.6 19,-7.7 5.1,-5.1 7.7,-11.3 7.7,-18.3 0,-6.9 -2.6,-13 -7.7,-18.1 -5,-5.3 -11.3,-7.9 -19,-7.9 h -32.1 z m 128.6,25.4 c 14.2,0 25.4,3.8 33.6,11.4 8.2,7.6 12.3,18 12.3,31.2 v 63 H 514.8 V 260.5 H 514 c -7.9,11.7 -18.5,17.5 -31.7,17.5 -11.3,0 -20.7,-3.3 -28.3,-10 -7.6,-6.7 -11.4,-15 -11.4,-25 0,-10.6 4,-19 12,-25.2 8,-6.3 18.7,-9.4 32,-9.4 11.4,0 20.8,2.1 28.1,6.3 v -4.4 c 0,-6.7 -2.6,-12.3 -7.9,-17 -5.3,-4.7 -11.5,-7 -18.6,-7 -10.7,0 -19.2,4.5 -25.4,13.6 l -16.9,-10.6 c 9.3,-13.5 23.1,-20.2 41.3,-20.2 z m -24.8,74.2 c 0,5 2.1,9.2 6.4,12.5 4.2,3.3 9.2,5 14.9,5 8.1,0 15.3,-3 21.6,-9 6.3,-6 9.5,-13 9.5,-21.1 -6,-4.7 -14.3,-7.1 -25,-7.1 -7.8,0 -14.3,1.9 -19.5,5.6 -5.3,3.9 -7.9,8.6 -7.9,14.1 z m 175.1,-70.9 -64,147.2 h -19.8 l 23.8,-51.5 -42.2,-95.7 h 20.9 l 30.4,73.4 h 0.4 l 29.6,-73.4 z"
         id="path21311" />
    </g>
    <path
       d="m 282.23,202 c 0,-6.26 -0.56,-12.25 -1.6,-18.01 h -80.48 v 33 L 246.5,217 c -1.88,10.98 -7.93,20.34 -17.2,26.58 v 21.41 h 27.59 C 273,250.08 282.23,228.04 282.23,202 Z"
       fill="#4285f4"
       id="path21315" />
    <path
       d="m 229.31,243.58 c -7.68,5.18 -17.57,8.21 -29.14,8.21 -22.35,0 -41.31,-15.06 -48.1,-35.36 h -28.46 v 22.08 c 14.1,27.98 43.08,47.18 76.56,47.18 23.14,0 42.58,-7.61 56.73,-20.71 z"
       fill="#34a853"
       id="path21317" />
    <path
       d="m 149.39,200.05 c 0,-5.7 0.95,-11.21 2.68,-16.39 v -22.08 h -28.46 c -5.83,11.57 -9.11,24.63 -9.11,38.47 0,13.84 3.29,26.9 9.11,38.47 l 28.46,-22.08 a 51.657,51.657 0 0 1 -2.68,-16.39 z"
       fill="#fabb05"
       id="path21319" />
    <path
       d="m 200.17,148.3 c 12.63,0 23.94,4.35 32.87,12.85 l 24.45,-24.43 c -14.85,-13.83 -34.21,-22.32 -57.32,-22.32 -33.47,0 -62.46,19.2 -76.56,47.18 l 28.46,22.08 c 6.79,-20.3 25.75,-35.36 48.1,-35.36 z"
       fill="#e94235"
       id="path21321" />
  </g>
</svg>
