<svg xmlns:inkscape="http://www.inkscape.org/namespaces/inkscape" xmlns:sodipodi="http://sodipodi.sourceforge.net/DTD/sodipodi-0.dtd" xmlns="http://www.w3.org/2000/svg" xmlns:svg="http://www.w3.org/2000/svg" height="1364" width="1200" viewBox="-14.755535 -24.41115 52.271494 59.420802" version="1.1" id="svg43622" sodipodi:docname="Gucci-Logo.wine.svg" inkscape:version="1.1.2 (b8e25be8, 2022-02-05)" overflow="hidden">
  <defs id="defs43626"/>
  <sodipodi:namedview id="namedview43624" pagecolor="#ffffff" bordercolor="#666666" borderopacity="1.0" inkscape:pageshadow="2" inkscape:pageopacity="0.0" inkscape:pagecheckerboard="0" showgrid="false" fit-margin-top="0" fit-margin-left="0" fit-margin-right="0" fit-margin-bottom="0" inkscape:zoom="0.65849319" inkscape:cx="348.52297" inkscape:cy="189.06801" inkscape:window-width="1296" inkscape:window-height="961" inkscape:window-x="0" inkscape:window-y="25" inkscape:window-maximized="0" inkscape:current-layer="svg43622"/>
  <path fill-rule="evenodd" clip-rule="evenodd" d="m 60.945627,5.7946152 c 0,18.9023198 -15.334626,34.2369458 -34.236945,34.2369458 -5.445572,0 -10.577703,-1.250997 -15.20925,-3.567693 -4.5697819,2.254008 -9.7646008,3.567693 -15.1465622,3.567693 -18.9032408,0 -34.2378668,-15.334626 -34.2378668,-34.2369458 0,-18.9023182 15.334626,-34.2369442 34.2369449,-34.2369442 5.4455715,0 10.5777022,1.251919 15.1465621,3.505005 4.569781,-2.253086 9.7646,-3.505005 15.210172,-3.505005 18.902319,0 34.236945,15.334626 34.236945,34.2369442 z m -6.759257,0 c 0,-15.1465619 -12.331127,-27.4767652 -27.477688,-27.4767652 -2.879046,0 -5.695403,0.437895 -8.261929,1.251919 5.257507,4.380795 9.075953,10.264261 10.952909,17.0244393 H 22.326965 A 27.367062,27.367062 0 0 0 11.56212,-17.175979 C 6.6171313,-13.921727 2.861374,-9.1011939 0.85904095,-3.4057917 H -6.2136566 A 34.448978,34.448978 0 0 1 4.7392527,-20.492919 28.213352,28.213352 0 0 0 -3.585364,-21.744838 c -15.146561,0 -27.476766,12.3302031 -27.476766,27.476765 0,15.146562 12.330205,27.477689 27.476766,27.477689 2.87904514,0 5.6327141,-0.437895 8.1992404,-1.251919 C -2.2080686,26.262295 -6.6515517,17.87499 -7.3401994,8.4865178 H 8.9329051 V 15.183087 L 0.98349535,15.308464 C 3.0494385,20.816723 6.7425076,25.449193 11.56212,28.640757 16.38081,25.448271 20.073879,20.816723 22.139822,15.308464 L 14.190413,15.183087 V 8.4865178 H 30.464439 C 29.713103,17.87499 25.206932,26.199607 18.384065,31.895009 c 2.629214,0.814024 5.445571,1.314607 8.324617,1.314607 15.209249,0.06269 27.477688,-12.20575 27.477688,-27.4150008 z" id="path43618" style="fill:#a07d4f;fill-opacity:1;stroke-width:0.921884"/>
</svg>