<svg xmlns="http://www.w3.org/2000/svg" id="Layer_1" viewBox="0 0 223.3 208.74" overflow="hidden" width="1200" height="1122"><defs><style>.cls-1{fill:#fff;}.cls-1,.cls-2,.cls-3,.cls-4{fill-rule:evenodd;}.cls-2{fill:#231f20;}.cls-3{fill:#ffc906;}.cls-4{fill:#ec1c24;}</style></defs><path class="cls-2" d="M124.2.74c12.74-3.44,20.4,5.95,23.79,10.2.85,1.7,1.7.85,4.25,0,8.5-4.25,25.49-8.5,32.29-5.95,5.95,3.4,10.2,17.85,10.2,27.2,0,1.7,0,2.55,1.7,4.25,3.4,2.55,8.5,12.75.85,26.35-.85.85-1.7,1.7-.85,3.4,2.55,4.25,5.1,16.15,5.95,20.4,0,3.4.85,2.55,2.55,2.55,2.55,0,11.05.85,14.45.85,3.4.85,6.8,5.1,0,5.1h-12.75c-2.55,0-4.25,0-4.25,2.55,0,1.7-.85,8.5-.85,9.35,0,1.7.85,2.55,3.4,3.4,2.55,0,9.35,1.7,11.05,2.55.85,0,2.55,2.55,0,3.4-2.55.85-8.5,0-12.75-.85-2.55,0-3.4.85-4.25,2.55,0,.85-2.55,6.8-3.4,8.5q-.85,1.7.85,2.55c1.7.85,7.64,4.25,11.05,5.95,5.1,2.55,3.4,6.8-.85,5.1-2.55-.85-9.35-3.4-11.9-5.1-2.55-.85-3.4-.85-5.1,0-5.1,7.65-13.35,13.22-21.25,17-16.39,7.84-62.9,17.5-111.33-1.7-6.75-2.68-12.75-6.8-17.85-11.05-.85-.85-1.7-.85-3.4,0-2.55,1.7-9.35,5.1-13.6,7.65-2.55,2.55-5.95,0-3.4-3.4,2.55-2.55,11.05-7.65,12.75-8.5,1.7,0,2.55-.85.85-2.55-1.7-1.7-4.25-5.95-5.1-8.5-.86-1.7-1.7-1.7-4.25-1.7-2.55.85-5.1.85-8.5,1.7-3.4.85-3.4-3.4,0-4.25,1.7-.85,5.1-2.55,6.8-2.55,1.7-.85,2.55-.85,1.7-2.55-.85-1.7-2.55-8.5-2.55-11.05q-.85-1.7-2.55-1.7c-1.7,0-11.9.85-14.45.85-4.25,1.7-5.1-3.4,0-4.25,2.55-1.7,9.35-1.7,12.75-2.55,1.7,0,3.39,0,3.39-.85-.85-13.6,3.4-25.5,7.65-33.15,1.7-4.25,1.7-3.4.85-6.8-3.4-10.2-4.25-25.5,2.55-39.1,3.41-4.25,5.95-7.65,13.6-7.65,6.8.85,22.59,7.07,27.69,9.62,2.94,2.29,5.88.33,8.82-.33,2.94-.65,18.61-2.29,26.78-1.96,1.63-1.63,7.08-12.41,16.6-14.98h0Z"/><path class="cls-1" d="M111.45,55.14h0c5.1,2.55,11.9,3.4,19.55.85,4.25-1.7,5.1-2.55,6.8,0,1.7,4.25,9.35,8.5,13.6,8.5,2.55,0,2.55.85,3.4,2.55,1.7,2.55,6.8,11.05,16.15,12.75,5.1,0,11.05-1.7,17-6.8,1.7-.85,2.55-2.55,4.25,0,1.7,3.4,3.4,11.9,3.4,14.45,0,1.7-.85,2.55-.85,2.55-2.55.85-6.8.85-8.49,1.7-3.4.85-3.4,4.25-1.7,5.1,2.55.85,5.1,0,7.65-.85,2.55,0,3.4,0,3.4,1.7,0,2.55,0,7.65-.85,9.35,0,1.7-.85,1.7-1.7,1.7-2.55,0-3.4,0-4.25,0-1.7.85-2.55,1.7-1.7,3.4,1.7,1.7,3.4,1.7,5.1,1.7,1.7.85-2.55,8.5-3.4,10.2-.85,2.55-2.55,1.7-4.25,1.7s-4.24-.85-5.1.85q-.85,1.7.85,3.4c.85.85,3.4.85,2.55,2.55-1.7,2.55-9.35,10.2-23.8,15.3-19.55,6.8-48.44,8.5-77.34,2.55-17-3.4-28.9-8.5-35.7-14.45-1.7-.85,0-1.7.85-2.55,1.7,0,3.4-.85,3.4-2.55.85-.85,0-2.55-2.55-2.55-.86,0-4.25.85-5.95,1.7-1.7.85-1.7,0-3.4-.85-2.55-2.55-4.24-6.8-5.1-7.65-.84-1.7,0-1.7,1.7-2.55,1.7,0,4.25-.85,5.1-1.7.85-.85-.85-3.4-3.39-2.55h-5.1c-.85,0-.85-.85-1.7-1.7-.85-2.55-2.55-8.5-2.55-10.2s.85-.85,2.55-.85h7.64c1.7-.85,1.7-3.4.85-4.25-.85-.85-5.95-1.7-9.35-1.7s-2.55-.85-2.55-5.1c0-9.35,4.25-22.95,10.2-33.15,1.7-2.55,4.25-5.1,4.25-6.8,0-2.55-2.55-4.25-4.25-2.55-1.7.85-1.7,1.7-2.55,0-5.1-13.6,2.04-28.4,5.94-31.45,4.84-3.78,24.77,5.37,32.6,9.29,1.31.65,5.95-.65,8.16-1.31,4.16-1.22,23.51-2.29,23.51-2.29,0,0,.49.33-.49,3.02-.98,2.69-6.83,19.88,7.61,29.53h0Z"/><path class="cls-4" d="M108.89,39.84c1.7,9.35,7.65,12.75,18.7,11.05,2.55-.85,5.1-1.7,5.95-2.55.85-.85.85-2.55.85-3.4-.85-.85-8.5-2.55-7.65-11.05.85-7.65,7.65-9.35,9.35-9.35,5.1-.85,8.5,2.55,9.35,3.4.85.85,2.55-.85,2.55-2.55-.85-4.25-5.1-10.2-7.65-13.6-1.7-1.7-5.95-6.8-12.75-5.1-10.2,3.4-18.7,22.1-18.7,33.15h0Z"/><path class="cls-1" d="M187.93,27.94c0,1.7.85,3.4-1.7,2.55-4.25-.85-13.6.85-16.15,1.7q-2.55.85-4.25-.85c-1.7-1.7-4.25-3.4-9.35-4.25-2.55-.85-1.7-1.7-2.55-4.25-.85-2.55-.85-3.4.85-5.1,9.35-4.25,17.85-7.65,23.8-6.8,6.8,0,8.5,11.05,9.35,17h0Z"/><path class="cls-4" d="M140.34,31.34c-.85.85-4.25,5.95-4.25,7.65-.85,1.7-4.25-.85-4.25-4.25.85-1.7.85-3.4,3.4-4.25,2.55-1.7,5.95.85,5.1.85h0Z"/><path class="cls-4" d="M165.84,46.64c-.85,5.95-4.25,9.35-6.8,11.05-8.5,4.25-20.4-2.55-18.7-13.6.85-5.1,3.4-9.35,8.5-10.2,11.05-4.25,18.69,5.1,17,12.75h0Z"/><path class="cls-4" d="M193.88,43.24c3.4,5.95-.85,15.3-5.1,20.4-7.65,8.5-13.6,11.05-20.4,9.35-4.25-1.7-6.8-5.1-8.5-7.65,0-1.7.85-1.7,1.7-2.55,1.7-.85,2.55-1.7,3.4-.85,3.4.85,8.5.85,11.05-1.7,2.55-1.7,3.4-6.8,2.55-10.2-1.7-3.4-4.25-4.25-5.95-5.1-.85-.85-.85-2.55-.85-3.4-.85-1.7-.85-2.55,0-2.55,1.7-.85,5.1-1.7,7.65-1.7,2.55-.85,11.05-.85,14.45,5.95h0Z"/><path class="cls-4" d="M171.79,57.69c-1.7,0-4.25,0-3.4-.85.85-1.7,2.55-4.25,2.55-5.95.85-.85,1.7,0,2.55,1.7.85,1.7,0,4.25-1.7,5.1h0Z"/><path class="cls-2" d="M58.01,108.82c0,3.4,1.7,6.8,5.95,6.8,5.1,0,6.8-4.25,6.8-7.65s-.85-9.35-6.8-9.35c-5.1,0-5.95,5.95-5.95,10.2h0Z"/><path class="cls-2" d="M147.73,106.14c0,5.1,2.55,8.5,7.65,8.5,3.4,0,5.95-3.4,5.95-7.65,0-5.95-2.55-8.5-6.8-8.5-5.1,0-6.8,5.1-6.8,7.65h0Z"/><path class="cls-2" d="M100.71,120.59c0,5.95,5.1,8.5,11.05,8.5,6.79,0,10.19-4.25,10.19-7.65s-4.25-7.65-10.19-7.65c-7.66,0-11.05,3.4-11.05,6.8h0Z"/><path class="cls-3" d="M105.81,121.44c0,2.55,2.55,3.4,5.95,3.4s5.1-.85,5.1-3.4-2.55-3.4-5.95-3.4c-2.55,0-5.1.85-5.1,3.4h0Z"/><path class="cls-4" d="M161.1,169.58c-1.06-.59-2.63-.93-3.77-.51-.08-1.35-.47-2.63-1.61-3.56-1.02-.85-2.71-.8-3.98-.51-1.78.85-2.5,2.71-2.41,4.57-.76-.21-1.65-.42-2.46-.21-1.06.21-1.95,1.14-2.54,2.03-.34,1.02-.68,2.37-.09,3.39.55,1.19,1.91,2.08,3.05,2.41-.97,1.06-1.19,2.79-.64,4.06.72,1.35,2.07,2.46,3.68,2.33,1.23-.04,2.33-.51,3.13-1.61.93,1.06,2.03,1.61,3.35,1.61,1.65.13,3.01-1.19,3.68-2.54.55-1.57-.08-3.13-1.02-4.36.64-.21,1.27-.51,1.82-.89,1.02-.81,1.27-1.91,1.4-3.05-.04-1.27-.51-2.37-1.61-3.18h0ZM155.59,176.1c-.3.68-1.02,1.23-1.69,1.4-.89.13-1.61-.08-2.24-.59-.72-.68-1.02-1.69-.72-2.63.21-.85,1.1-1.61,1.95-1.74.93-.21,1.69.25,2.33.8.51.76.85,1.86.38,2.75h0Z"/><path class="cls-4" d="M123.2,173.09v11.18s9.74-10.97,9.74-10.97h9.95l-13.8,15.45,13.72,15.4-10.37.05c-3.18-3.3-6.15-7.03-9.24-10.37v10.76h-7.83v-31.5h7.83Z"/><path class="cls-4" d="M204.29,172.88c1.82,4.06,3.22,10.63,5.08,14.82l5.5-14.82h8.43l-.13.59-14.4,35.14c-2.75.21-5.72.08-8.34.13,1.19-3.43,2.84-6.65,4.28-9.99l-8.85-25.79.08-.08h8.34Z"/><polygon class="cls-4" points="68.54 204.59 60.7 204.59 60.7 173.09 68.54 173.09 68.54 204.59 68.54 204.59"/><path class="cls-4" d="M173,180.4s2.41-.04,3.64,0l-.03,6.42-3.6-.05v17.41h-7.8l.05-17.41h-3.64l-.08-6.36,3.64.02.04-8h7.8v7.98h0Z"/><path class="cls-4" d="M43.2,198.62c-2.01,0-3.49-2.01-3.54-4.15l17.06-.04c-.08-2.79-.04-5.81-1.19-8.22-1.74-4.06-5.93-6.56-9.99-7.28-5.42-.8-10.29,1.48-13.21,6.1-2.54,4.15-2.33,10.5.64,14.4,2.84,3.81,6.82,5.72,11.56,5.42,4.91-.21,9.1-3.77,11.31-8.05h-9.27c-.61,1.29-1.14,1.82-3.37,1.82h0ZM42.2,185.33c1.14-.38,2.63-.3,3.56.51.8.68,1.06,1.57,1.44,2.41l-.3.21h-6.82c-.13-1.27.97-2.54,2.12-3.13h0Z"/><path class="cls-4" d="M106.65,184.14c-2.2-2.92-5.21-4.66-8.55-5.17-5.59-.72-10.8,1.74-13.51,6.48-2.16,3.94-2.16,9.78.42,13.55,2.54,3.94,6.9,6.01,11.48,5.97,4.66-.13,8.93-3.09,11.18-7.2,2.37-4.06,1.74-9.95-1.02-13.63h0ZM100.21,194.52c-1.19,1.57-2.96,2.03-4.74,1.95-1.4-.25-2.71-1.06-3.47-2.37-1.02-1.48-.72-3.56,0-5.08.85-1.19,2.16-2.07,3.56-2.33,2.07-.3,3.77.72,4.87,2.33,1.02,1.65.8,3.94-.21,5.5h0Z"/><path class="cls-4" d="M191.5,180.46s2.41-.04,3.64,0l-.03,6.41-3.6-.05v17.41h-7.8l.04-17.41h-3.64l-.08-6.36,3.64.02.04-8h7.8v7.98h0Z"/><polygon class="cls-4" points="156.99 204.13 156.99 185.38 149.26 185.38 149.26 204.13 156.99 204.13 156.99 204.13"/><polygon class="cls-4" points="80.3 204.64 72.47 204.64 72.47 173.13 80.3 173.13 80.3 204.64 80.3 204.64"/><polygon class="cls-4" points="18.75 172.94 18.75 183.91 7.83 183.91 7.83 172.9 0 172.9 0 204.4 7.83 204.4 7.83 191.85 18.75 191.85 18.75 204.45 26.58 204.45 26.58 172.94 18.75 172.94 18.75 172.94"/></svg>