<svg xmlns:inkscape="http://www.inkscape.org/namespaces/inkscape" xmlns:sodipodi="http://sodipodi.sourceforge.net/DTD/sodipodi-0.dtd" xmlns="http://www.w3.org/2000/svg" xmlns:svg="http://www.w3.org/2000/svg" clip-rule="evenodd" fill-rule="evenodd" viewBox="2.91 0 285.18 175" version="1.1" id="svg4307" sodipodi:docname="la-logo.svg" width="1200" height="736" inkscape:version="1.1.2 (b8e25be8, 2022-02-05)" overflow="hidden">
  <defs id="defs4311"/>
  <sodipodi:namedview id="namedview4309" pagecolor="#ffffff" bordercolor="#666666" borderopacity="1.0" inkscape:pageshadow="2" inkscape:pageopacity="0.0" inkscape:pagecheckerboard="0" showgrid="false" inkscape:zoom="0.93125" inkscape:cx="439.73154" inkscape:cy="200.26846" inkscape:window-width="1296" inkscape:window-height="961" inkscape:window-x="0" inkscape:window-y="25" inkscape:window-maximized="0" inkscape:current-layer="svg4307"/>
  <path d="m 138.47185,173.03996 c 46.45368,0 84.15769,-38.21807 84.15769,-85.444289 0,-47.09698 -37.70401,-85.316016 -84.15769,-85.316016 -46.453676,0 -84.157686,38.218072 -84.157686,85.316016 0,47.226219 37.70401,85.444289 84.157686,85.444289 z" fill="#fdb927" id="path4301" style="stroke-width:0.96447"/>
  <path d="m 147.73655,87.209883 h -3.60326 c -0.27488,0.01832 -0.4967,0.240153 -0.51503,0.515027 0,0.257513 0.25752,0.385787 0.51503,0.385787 h 3.73153 c 1.2866,0 2.44493,0.128275 2.05914,0.643302 l -9.65144,18.530351 c -0.32021,0.84391 -1.13325,1.4062 -2.036,1.4062 -0.95193,0 -1.7997,-0.62498 -2.08132,-1.53447 l -4.76159,-24.706819 16.72872,-12.997192 c 1.6724,-1.544116 4.88987,-3.860772 6.56322,-3.860772 h 3.73153 c 2.18742,0 2.95996,1.029089 2.44493,2.44493 l -0.6433,1.158328 c -0.38579,0.77254 -1.80163,0.900815 -2.83072,0.900815 h -2.18741 l -0.0482,-0.0029 c -0.18807,0 -0.34142,0.153351 -0.34142,0.341423 l 0.003,0.04822 c 0,0.257514 0.12828,0.515027 0.38579,0.515027 h 2.18742 c 0.90081,0 1.9299,0 1.54412,0.643301 l -7.72058,14.927096 c -0.38579,0.515027 -2.05915,0.643301 -3.47402,0.643301 z M 176.8182,96.3463 c -7.84982,9.65145 -12.22465,12.86796 -20.20275,12.86796 -2.70244,0 -4.11828,-0.6433 -3.47402,-1.92991 l 9.52221,-19.044414 h 3.60326 c 3.98905,0 3.47402,3.345745 2.44493,7.978094 -0.25751,0.6433 0.25752,0.6433 0.77254,0.12827 l 9.00815,-15.827907 c 0.38579,-1.029089 -0.77254,-1.158328 -1.2866,-0.385788 -4.50408,6.048189 -9.2647,5.662401 -11.32384,5.662401 h -1.54412 l 10.03724,-19.30193 h 4.11828 c 5.14738,0.257513 7.46307,4.632347 6.04819,15.184609 h 2.05914 l 7.46307,-14.669582 c 0.6433,-1.286603 -0.6433,-2.444931 -2.05914,-2.444931 l -50.44273,0.128275 c -2.95995,0 -3.08823,2.187417 -0.25751,2.187417 2.31666,0 2.18742,3.21747 0.12827,4.761586 l -21.48934,17.114513 4.37483,20.074467 c 0.22279,1.4062 1.55087,2.3861 2.95996,2.18742 h 41.69305 c 1.20656,0.11381 2.38707,-0.42726 3.08824,-1.41584 l 7.46306,-12.99719 c 1.02909,-1.92991 -1.2866,-1.80163 -2.70244,-0.25752 z M 84.554144,90.941416 H 71.300403 l 16.728725,-22.133613 -3.47402,22.133613 z m -3.088232,13.768764 c -0.385788,2.18742 -2.702444,3.73154 -5.533162,4.50408 l -2.959957,0.77254 2.44493,-4.37484 c 0.643302,-1.2866 -0.77254,-1.9299 -2.316656,-0.12827 -10.294748,11.96714 -13.640493,17.75781 -29.596678,17.75781 h -4.24656 c -1.286602,0 -2.702444,-0.51502 -1.801629,-1.67239 l 5.662401,-10.55226 h 21.361073 c 2.830718,0 2.187417,-2.18742 0.385787,-2.18742 -1.310714,-0.21218 -2.474829,-0.95868 -3.21747,-2.05914 -0.542997,-0.96929 -0.492844,-2.16716 0.128274,-3.08823 L 69.883597,92.74401 H 83.52409 l -2.059142,11.96714 z m 31.655818,4.11829 c -0.9201,-0.0878 -1.71675,-0.68477 -2.05914,-1.54412 -0.41761,-1.26152 -0.37132,-2.63011 0.12828,-3.86077 l 19.43116,-34.486538 c 0.25752,-0.643301 1.15833,-2.059143 2.05915,-2.059143 1.67239,0 2.44493,-2.187417 -0.38579,-2.187417 h -15.69867 c -2.83072,0 -2.83072,2.187417 -0.12828,2.187417 l 0.0897,-0.0029 c 0.71178,0 1.29817,0.586397 1.29817,1.300105 0,0.173604 -0.0347,0.34528 -0.10223,0.505382 l -4.24656,7.849818 c -0.6433,0.77254 -1.80163,0.900815 -3.08823,0.900815 h -3.60326 c -0.25751,0 -0.51503,0.128274 -0.51503,0.385787 0.0183,0.274874 0.24016,0.496702 0.51503,0.515027 h 3.60326 c 1.02909,0 1.80163,0.257514 1.2866,1.415842 L 97.293823,105.99872 c -1.029089,1.41584 -3.088232,1.67239 -2.959957,-1.02909 l 5.018135,-38.347315 c 0.257513,-1.158328 0,-2.059143 -1.286603,-2.059143 h -7.720579 c -0.805332,0.0068 -1.54508,0.451372 -1.929903,1.158328 l -2.830719,3.345745 c -0.257513,0.385788 -1.158328,0.385788 -1.929903,0.385788 h -6.433977 c -0.274874,0.01832 -0.496702,0.240153 -0.515027,0.515027 0,0.257513 0.257514,0.385788 0.515027,0.385788 h 5.275649 c 0.900814,0 1.929903,0.257513 1.544115,0.77254 l -7.334791,9.264695 c -0.424366,0.262336 -0.91721,0.396397 -1.415841,0.385788 h -2.059143 c -0.257513,0 -0.515027,0.128274 -0.515027,0.385787 0.01833,0.274874 0.240153,0.496702 0.515027,0.515027 h 1.672391 c 0.515026,0 0.515026,0.257514 0.385787,0.515027 l -6.949003,8.750633 c -0.558428,0.276802 -1.178582,0.409899 -1.801629,0.385788 h -6.176464 c -0.257513,0 -0.385787,0.257513 -0.385787,0.515026 l -0.0029,0.04822 c 0,0.188071 0.153351,0.341421 0.341422,0.341421 l 0.04822,-0.003 h 5.275649 c 0.900814,0 1.415841,0.12828 1.029089,0.77254 l -9.907997,12.35389 c -1.801629,2.44493 -10.80881,3.60326 -12.610439,3.60326 L 77.734379,46.29226 c 0.546855,-1.067668 1.631883,-1.758228 2.830719,-1.801629 h 7.077277 c 3.345745,0 3.345745,-2.316656 0.385788,-2.316656 H 52.255021 c -2.959957,0 -3.088231,2.316656 0.385788,2.316656 h 6.563216 c 1.929904,0 2.44493,1.029089 1.929904,2.059143 l -0.900815,1.67239 c -0.257513,0.515027 -0.77254,0.77254 -2.573205,0.77254 H 45.950284 c -0.257514,0 -0.385788,0.257513 -0.385788,0.515027 l -0.0029,0.04822 c 0,0.188072 0.153351,0.341423 0.341423,0.341423 l 0.04822,-0.0029 h 11.709626 c 0.643301,0 1.544115,0.257513 1.029089,1.415841 l -1.672391,2.959958 c -0.257513,0.515026 -1.029089,0.643301 -1.801629,0.643301 h -5.404887 c -0.257514,0 -0.385788,0.257513 -0.385788,0.515027 0,0.257513 0.128274,0.515026 0.385788,0.515026 h 5.275648 c 0.77254,0 0.900815,0.515027 0.385788,1.158328 l -3.731533,6.949004 c -0.385788,0.643301 -0.900814,0.77254 -2.187417,0.77254 H 47.4944 c -0.257514,0 -0.515027,0.128274 -0.515027,0.385788 0.01832,0.274874 0.240153,0.496702 0.515027,0.515027 h 2.059142 c 0.77254,0 1.029089,0.385787 0.643301,1.158328 l -3.088231,5.790675 c -0.515027,0.77254 -1.158328,1.158328 -3.217471,1.158328 H 32.181516 l -0.04822,-0.0029 c -0.188071,0 -0.341422,0.15335 -0.341422,0.341422 l 0.0029,0.04822 c 0,0.257514 0.128275,0.515027 0.385788,0.515027 h 11.709626 c 1.286602,0 1.801629,0.643301 1.286602,1.544116 l -6.0482,11.323856 c -0.385788,0.515027 -1.286602,0.643302 -2.959957,0.643302 H 24.459008 c -0.257514,0 -0.515027,0.128274 -0.515027,0.385788 0.01833,0.274873 0.240153,0.496701 0.515027,0.515026 h 11.581351 c 1.415841,0 2.316656,0 1.929903,0.77254 l -3.474019,6.563218 c -0.643301,1.02909 -2.444931,1.02909 -3.217471,1.02909 h -3.731533 l -0.04822,-0.003 c -0.188072,0 -0.341422,0.15335 -0.341422,0.34143 l 0.0029,0.0482 c 0,0.25751 0.128274,0.51503 0.385788,0.51503 h 3.731533 c 1.286602,0 1.929903,0.25751 1.67239,0.90081 l -4.632347,8.75063 c -0.515027,0.77254 -2.316656,0.77254 -3.731533,0.77254 H 6.5709901 c -0.2748739,0.0183 -0.4967019,0.24016 -0.5150268,0.51503 0,0.25751 0.2575134,0.38579 0.5150268,0.38579 H 24.586318 c 1.286602,0 2.702443,0.25751 2.187417,1.15833 l -2.959957,5.53316 c -0.257514,0.51503 -1.286603,0.51503 -2.830719,0.51503 h -3.603258 c -0.274874,0.0183 -0.496702,0.24015 -0.515027,0.51502 0,0.25752 0.257513,0.38579 0.515027,0.38579 h 3.603258 c 0.900815,0 2.059143,0.12827 1.672391,0.90081 l -1.929904,3.47402 c -0.436905,1.02716 -1.457314,1.69168 -2.573205,1.67239 H 9.0159205 c -3.345745,0 -3.2174706,2.31666 -0.2575134,2.31666 H 62.032814 c 1.544116,0 1.672391,-0.25751 2.316656,-1.41584 l 7.978093,-13.76877 h 40.406457 c 2.83071,0 2.18741,-2.18742 0.38578,-2.18742 z M 216.32384,83.47835 c -1.41584,1.286602 -3.73153,2.573205 -4.24656,2.187417 -1.10625,-0.947109 -2.31473,-1.765944 -3.60326,-2.44493 l 8.75063,-15.956185 c 0.36843,-0.548784 1.01559,-0.847769 1.67239,-0.772541 3.47402,0 4.50408,3.603259 2.95996,8.235606 -1.15833,3.217471 -2.95996,6.69149 -5.53316,8.750633 z m 70.25968,14.28379 c -0.25751,-1.02908 -0.6433,-0.38578 -1.2866,0.90082 -0.25752,0.51503 -0.90082,0.51503 -1.67239,0.51503 h -2.05915 c -0.2334,0.0116 -0.43883,0.16492 -0.51502,0.38578 l -0.002,0.0463 c 0,0.25848 0.21218,0.47066 0.47162,0.47066 l 0.0453,-0.002 h 2.05915 c 0.77254,0 0.77254,0.51503 0.38578,1.2866 -1.29046,2.84326 -2.98021,5.48591 -5.01813,7.84982 -0.44269,0.4398 -1.05031,0.6732 -1.67239,0.6433 l -2.18742,0.12828 c -0.25751,0 -0.51503,0.12827 -0.51503,0.38578 0.0183,0.27488 0.24016,0.49671 0.51503,0.51503 h 2.05914 c 1.15833,0 0,0.6433 -0.12827,0.90082 -2.57224,3.51742 -5.60164,6.67509 -9.00815,9.39393 -0.97507,0.18904 -1.97234,0.23147 -2.95995,0.12827 h -2.18742 c -0.25751,0 -0.38579,0.25752 -0.38579,0.51503 l -0.003,0.0482 c 0,0.18808 0.15335,0.34143 0.34142,0.34143 l 0.0482,-0.003 2.18742,0.12828 c 1.54412,0 0.38579,0.90081 0.12828,1.02909 -5.79068,4.88986 -14.54131,6.43397 -18.40112,5.91895 -12.86795,-1.54412 -15.5704,-11.32384 -16.47121,-15.31289 -0.43691,-1.12843 -0.78219,-2.29061 -1.02909,-3.47402 -0.38579,-2.05914 5.40489,-2.5732 6.949,-1.54411 2.44493,1.67239 8.10733,3.34574 12.61044,3.34574 4.11829,0 12.48217,-2.95995 14.9271,-10.03723 2.5732,-7.33479 -3.73153,-15.312886 -6.56322,-18.144569 -3.47402,-3.474019 -6.81976,-9.13642 -5.40488,-13.253741 1.02908,-3.088232 2.83071,-4.504073 6.56321,-4.504073 5.01814,0 8.49312,3.088232 8.49312,7.592305 0,0.385787 -0.12827,0.900814 -0.51503,0.900814 h -1.67239 c -0.27487,0.01833 -0.4967,0.240153 -0.51502,0.515027 0,0.257513 0.25751,0.385788 0.51502,0.385788 h 1.54412 l 0.0444,-9.65e-4 c 0.35589,0 0.65006,0.293199 0.65006,0.650053 0,0.0868 -0.0174,0.17264 -0.0502,0.251726 -0.25751,1.544116 -0.38578,2.573205 -0.77254,4.118286 -0.12827,0.900814 1.15833,1.415841 1.54412,0.77254 l 7.72058,-13.768768 c 0.6433,-1.029089 -0.6433,-1.286603 -1.54412,-1.029089 -2.18741,0.77254 -5.53316,1.286602 -6.81976,0.385788 -2.6928,-2.179702 -6.05783,-3.362141 -9.52221,-3.345745 -6.81976,0 -11.70962,1.67239 -14.79882,7.334791 -0.25751,0.385788 -0.90082,0.385788 -1.41584,0.385788 h -1.41584 c -0.25752,0 -0.38579,0.257513 -0.38579,0.515026 0,0.257514 0.12827,0.515027 0.38579,0.515027 l 1.15832,-0.128274 c 0.51503,0 0.77254,0.257513 0.51503,0.77254 l -0.51503,1.544116 c -0.73203,2.994678 -0.50731,6.146564 0.64331,9.008146 0.12827,0.128274 -0.12828,0.257513 -0.64331,0.257513 h -2.05914 c -0.27487,0.01833 -0.4967,0.240153 -0.51502,0.515027 0,0.257513 0.25751,0.385788 0.51502,0.385788 h 2.05914 c 1.02909,0 1.15833,0.128274 1.54412,0.643301 1.15833,1.544116 2.31666,2.702444 3.60326,4.504073 0.51503,0.515027 -1.41584,0.643301 -2.44493,0.643301 h -8.23561 c -0.28162,0 -0.51502,0.232437 -0.51502,0.515027 0,0.281625 0.23243,0.515027 0.51502,0.515027 h 8.36388 c 1.41584,0 3.73154,-0.128275 3.98905,0.257513 2.05914,2.316653 4.50407,5.918953 4.88986,9.008143 0.12827,0.90082 -0.25751,1.28661 -1.2866,1.28661 h -1.15833 l -0.0482,-0.003 c -0.18808,0 -0.34143,0.15335 -0.34143,0.34142 l 0.003,0.0482 c 0,0.25751 0.12827,0.51502 0.38579,0.51502 h 1.02908 c 0.90082,0 1.28661,0.12828 1.15833,0.77254 -1.15833,3.47402 -2.70244,6.04819 -9.39393,5.91895 -7.07728,0 -8.49312,-6.81976 -6.43398,-14.02628 0.38579,-1.41584 0,-2.05914 -0.6433,-0.90081 l -4.88986,7.72058 c -0.3366,0.34528 -0.80437,0.53335 -1.2866,0.51502 h -0.6433 c -0.28163,0 -0.51503,0.23244 -0.51503,0.51503 0,0.28163 0.23244,0.51503 0.51503,0.51503 0.51502,0 0.77254,0.25751 0.51502,0.6433 l -1.80163,2.70244 c -2.76899,-6.38671 -6.26712,-12.43201 -10.42302,-18.015324 v -0.128275 c 6.56322,-0.385788 16.08542,-6.433976 17.62954,-11.838864 2.70244,-9.522208 -6.43398,-12.997192 -11.45308,-12.997192 h -21.8761 c -2.95995,0 -3.08823,2.316656 -0.38578,2.316656 1.54411,0 2.83071,1.286602 2.18741,2.573204 l -4.88986,8.750633 c -0.38579,0.77254 -1.80163,0.77254 -3.86077,0.77254 h -2.05914 c -0.25752,0 -0.51503,0.128275 -0.51503,0.385788 0.0183,0.274874 0.24015,0.496702 0.51503,0.515027 h 2.05914 c 1.41584,0 2.95996,0 2.44493,1.029089 l -5.79067,10.423023 c -0.25752,0.515027 -1.02909,0.515027 -2.95996,0.515027 h -2.05914 c -0.27488,0.01832 -0.49671,0.240148 -0.51503,0.515028 0,0.25751 0.25751,0.38579 0.51503,0.38579 h 2.05914 c 1.54411,0 2.05914,0.25751 1.67239,1.02909 l -7.72058,13.898 c -0.90081,1.02909 -1.9299,1.15833 -3.86077,1.15833 -2.83072,0 -2.70245,2.18742 0.12827,2.18742 h 18.78787 c 2.95996,0 2.18742,-2.18742 0.51503,-2.18742 -1.02909,0 -2.05915,-1.9299 -1.41584,-2.95996 l 9.5222,-18.272838 h 1.02909 c 4.24656,0 5.27565,7.077278 6.04819,14.669578 0.12828,0.51503 -0.90081,0.64331 -3.08823,0.64331 h -5.27565 c -0.25751,0 -0.51503,0.12827 -0.51503,0.38578 0.0183,0.27488 0.24016,0.49671 0.51503,0.51503 h 5.27565 c 1.41584,0 3.34575,0 3.34575,0.51503 0.2469,2.9831 0.67705,5.94788 1.2866,8.8789 0.25751,0.90082 -1.2866,0.77254 -2.83072,0.77254 h -6.81977 c -0.27487,0.0183 -0.4967,0.24016 -0.51502,0.51503 0,0.25751 0.25751,0.38579 0.51502,0.38579 h 6.81977 c 2.05914,0 3.21747,0 3.34574,0.51503 2.83072,10.68053 15.44213,19.17365 27.53754,18.65862 10.55226,-0.38578 19.30193,-6.04818 23.806,-9.77972 6.04819,-4.76158 14.9271,-14.92709 18.53036,-22.26188 0.6433,-1.28661 1.67239,-3.08824 1.41584,-4.24656 z M 110.54756,50.534962 c -1.6502,1.95498 -4.1395,3.008181 -6.69149,2.830718 h -0.77254 l 4.63235,-9.13642 c 0.24594,-0.481271 0.7465,-0.782185 1.2866,-0.77254 0.6433,0 0.51503,-1.158328 -0.25751,-1.158328 h -7.20652 c -0.6433,0 -0.90081,1.158328 -0.25751,1.158328 0.6433,0 0.6433,0.643301 0.38579,1.286602 l -4.118287,8.107331 c -0.337565,0.362641 -0.794723,0.59122 -1.286603,0.643302 -0.643301,0.257513 -1.029089,1.286602 -0.257513,1.286602 h 11.581353 c 0.90081,0 1.15833,-0.257513 1.2866,-0.643301 l 2.44493,-3.603259 c 0.25751,-0.385787 -0.38579,-0.515026 -0.77254,0 z m 35.00157,-7.978093 c -0.46295,0.322133 -1.08117,0.322133 -1.54412,0 -1.09178,-0.785078 -2.38899,-1.232592 -3.73153,-1.286602 -2.70244,0 -4.63235,0.515027 -5.91895,3.088232 -0.90081,2.187417 0.12828,4.118285 2.44493,5.147374 1.15833,0.515027 2.44493,1.158328 1.92991,2.44493 -0.38579,0.900815 -1.41585,1.029089 -2.44493,1.029089 -1.28661,-0.128274 -3.21748,-1.029089 -3.47402,-2.830718 -0.12828,-0.643301 -0.77254,-0.515027 -1.02909,-0.128274 l -1.67239,3.21747 c -0.25752,0.515027 0.38578,0.900815 0.77254,0.643301 0.60086,-0.624011 1.54604,-0.782184 2.31665,-0.385787 1.25767,0.873809 2.72174,1.406196 4.24656,1.544115 2.43625,0.208326 4.78763,-0.993403 6.04819,-3.088231 1.41584,-2.187417 0.51503,-4.374834 -1.9299,-5.533162 -1.41584,-0.643301 -2.57321,-1.801629 -1.92991,-2.959957 0.38579,-0.772541 1.54412,-0.643302 2.18742,-0.515027 1.22777,0.189036 2.26265,1.026195 2.70244,2.187417 0.0617,0.212183 0.25848,0.360711 0.47935,0.360711 0.17071,0 0.32984,-0.08777 0.42147,-0.231472 l 0.77254,-2.059143 c 0.25751,-0.385788 -0.38579,-0.77254 -0.6433,-0.643301 z m 80.68367,3.345745 1.02909,-1.929903 c 0.51502,-0.77254 -0.25752,-1.67239 -1.41584,-1.67239 h -13.6405 c -0.90081,0 -0.6433,1.029089 -0.25751,1.029089 0.90081,0 1.15833,1.029089 0.6433,1.929903 l -4.11828,7.463066 c -0.64331,0.77254 -1.02909,1.029089 -1.80163,1.029089 -0.77254,0 -1.02909,1.029089 0,1.029089 h 13.76876 c 0.51503,0 0.77254,-0.128274 0.90082,-0.515027 l 1.9299,-2.44493 c 0.51503,-0.515027 -0.51502,-0.515027 -0.77254,-0.257513 -1.84503,1.695537 -4.32371,2.537519 -6.81976,2.316656 h -1.54412 l 1.80163,-4.24656 h 0.38579 c 1.2866,0 2.70244,0 2.95996,0.900814 0.12634,0.153351 0.31538,0.243047 0.51502,0.243047 0.19965,0 0.38772,-0.0897 0.51503,-0.243047 l 1.54412,-3.21747 c 0.25751,-0.515027 -0.38579,-0.515027 -0.64331,-0.257513 -0.6433,1.158328 -3.47402,0.900814 -4.11828,0.900814 h -0.38579 l 2.31666,-4.632347 h 2.5732 c 1.55473,-0.0019 2.95128,0.979901 3.47402,2.44493 0.12828,0.257513 1.02909,0.515027 1.15833,0.128275 z m -67.04318,2.316656 4.50408,-3.603258 v 3.603258 z m 32.29913,-5.918949 h -4.76159 c -1.02909,0 -0.77254,1.029089 -0.25751,1.029089 0.82848,0.01736 1.50168,0.703098 1.50168,1.533506 0,0.275839 -0.0743,0.54589 -0.21412,0.78315 l -1.9299,3.603258 -4.37483,-6.433977 c -0.4562,-0.418579 -1.05417,-0.649088 -1.6724,-0.643301 h -4.76158 c -0.90082,0 -0.77254,1.029089 -0.25751,1.029089 0.90081,0 0.6433,0.77254 0.38578,1.286603 l -3.73153,7.334791 c -0.13985,0.285483 -0.43015,0.466803 -0.74746,0.466803 -0.3665,0 -0.69249,-0.243046 -0.79666,-0.595078 l -2.95995,-9.522208 c -0.12828,-0.385788 -1.80163,-0.385788 -2.31666,0 l -7.33479,6.048189 h -3.73153 c -0.77254,0 -1.15833,0.385788 -1.15833,0.77254 0,0.385788 0.38579,0.77254 1.15833,0.77254 h 1.9299 l -1.9299,1.672391 c -1.15833,0.77254 -2.31666,1.929903 -2.95996,1.929903 h -0.51503 c -0.77254,0 -1.15832,0.128275 -1.15832,0.643301 0,0.643302 0.38578,0.772541 1.02908,0.772541 h 5.91895 c 1.15833,0 0.90082,-1.415842 0.38579,-1.415842 h -0.0164 c -0.61148,0 -1.113,-0.501524 -1.113,-1.112998 0,-0.309594 0.1302,-0.606651 0.35685,-0.816905 l 1.80163,-1.672391 h 3.60326 c 2.05914,0 3.60326,2.444931 2.31666,3.217471 l -1.02909,0.515027 c -0.38579,0.257513 -0.6433,1.286602 0,1.286602 h 11.58135 c 0.90081,0 0.77254,-1.158328 0.38579,-1.158328 -1.28661,0 -0.64331,-1.67239 -0.38579,-2.059143 l 2.95995,-5.790675 4.24656,8.235606 c 0.38579,0.515027 0.64331,0.77254 1.02909,0.77254 h 1.67239 c 0.41473,0.03472 0.79762,-0.239188 0.90082,-0.643301 l 4.88986,-8.878907 c 0.77254,-1.544116 1.41584,-1.929904 2.44493,-1.929904 0.38579,0 0.6433,-1.029089 -0.38579,-1.029089 z m -67.42897,7.205552 c -1.2866,2.573205 -3.47402,4.118285 -4.76158,3.474019 -1.41584,-0.643301 -1.54412,-3.345745 -0.12828,-5.91895 1.2866,-2.573204 3.34575,-4.118285 4.76159,-3.474019 1.41584,0.77254 1.41584,3.345745 0.12827,5.91895 z m -1.15833,-7.849818 c -3.98904,0 -8.2356,2.059142 -9.00814,6.305702 -0.0984,0.443656 -0.14756,0.897921 -0.14756,1.353151 0,3.423867 2.81818,6.242047 6.24204,6.242047 l 0.21122,-0.0029 c 4.37484,0 8.36388,-2.830719 9.13642,-6.949004 0.77254,-4.118285 -2.18742,-6.949003 -6.43398,-6.949003 z m 82.35606,6.305702 h -5.14737 c -1.02909,0 -0.77254,1.029089 -0.38579,1.029089 l 0.0936,-0.0058 c 0.44654,0 0.81304,0.366499 0.81304,0.813048 l -0.006,0.09355 c 0,2.059142 -0.90082,2.830718 -2.83072,2.830718 -1.92991,0 -2.70245,-2.316656 -1.2866,-5.275649 1.03873,-2.259752 3.30427,-3.718994 5.79067,-3.731533 1.67239,0 3.08823,0.385788 3.21747,1.929904 0.12828,0.385788 0.6433,0.385788 0.90082,0 l 1.15832,-2.187417 c 0.12828,-0.257513 0,-0.515027 -0.38578,-0.515027 -0.38579,-0.128274 -1.02909,0.385788 -1.54412,0 -1.5065,-0.950002 -3.23869,-1.483354 -5.01813,-1.544116 -3.89068,-0.244975 -7.57784,1.82767 -9.39394,5.275649 -2.44493,4.118285 1.02909,8.493119 4.24656,8.493119 1.80163,0 3.98905,-1.286602 5.14738,-1.801629 l 1.2866,0.900815 c 0.26716,0.294163 0.63365,0.478377 1.02909,0.515027 h 0.51502 c 0.51503,0 0.6433,-0.643302 0.77254,-1.029089 l 2.05915,-4.889861 c 0.25751,-0.515027 0.12827,-0.900815 -1.02909,-0.900815 z m 71.67553,-5.404888 c -0.46295,0.322133 -1.08117,0.322133 -1.54412,0 -1.09178,-0.785078 -2.38899,-1.232592 -3.73153,-1.286602 -2.70245,0 -4.63235,0.515027 -5.91895,3.088232 -0.90082,2.187417 0.12827,4.118285 2.5732,5.147374 1.02909,0.515027 2.31666,1.158328 1.80163,2.44493 -0.38579,0.900815 -1.41584,1.029089 -2.44493,1.029089 -1.2866,-0.128274 -3.21747,-1.029089 -3.47402,-2.830718 -0.12827,-0.643301 -0.77254,-0.515027 -1.02909,-0.128274 l -1.67239,3.21747 c -0.25751,0.515027 0.38579,0.900815 0.77254,0.643301 0.60087,-0.624011 1.54605,-0.782184 2.31666,-0.385787 1.25767,0.873809 2.72173,1.406196 4.24656,1.544115 2.70244,0 4.63235,-0.77254 6.04819,-3.088231 1.41584,-2.187417 0.6433,-4.374834 -1.92991,-5.533162 -1.41584,-0.643301 -2.44493,-1.801629 -1.9299,-2.959957 0.38579,-0.772541 1.54412,-0.643302 2.18742,-0.515027 1.22777,0.189036 2.26264,1.026195 2.70244,2.187417 0.0617,0.212183 0.25848,0.360711 0.47934,0.360711 0.17071,0 0.32985,-0.08777 0.42148,-0.231472 l 0.77254,-2.059143 c 0.25751,-0.385788 -0.38579,-0.77254 -0.64331,-0.643301 z m -36.28817,7.978093 c -1.80163,2.187417 -4.11829,2.830718 -6.81977,2.830718 h -0.6433 l 4.63235,-9.13642 c 0.19096,-0.527565 0.73107,-0.851627 1.2866,-0.77254 0.51503,0 0.51503,-1.158328 -0.25751,-1.158328 h -7.33479 c -0.6433,0 -0.77254,1.158328 -0.25752,1.158328 0.64331,0 0.77254,0.643301 0.51503,1.286602 l -4.24656,8.107331 c -0.28548,0.358783 -0.70213,0.59122 -1.15833,0.643302 -0.6433,0.257513 -1.02909,1.286602 -0.38578,1.286602 h 11.58135 c 0.90081,0 1.15832,-0.257513 1.41584,-0.643301 l 2.31665,-3.603259 c 0.38579,-0.385787 -0.38578,-0.515026 -0.6433,0 z m 17.5003,-7.205552 c 1.53158,0.0733 2.88859,1.028124 3.47402,2.44493 0.12827,0.257513 0.90081,0.515027 1.15833,0.128274 l 1.02909,-1.929903 c 0.38578,-0.77254 -0.25752,-1.67239 -1.41585,-1.67239 h -13.64049 c -1.02909,0 -0.6433,1.029089 -0.25751,1.029089 0.90081,0 1.15832,1.029089 0.51502,1.929903 l -3.98904,7.463066 c -0.40412,0.671271 -1.14772,1.066703 -1.92991,1.029089 -0.6433,0 -0.90081,1.029089 0,1.029089 h 13.76877 c 0.6433,0 0.90082,-0.128274 1.02909,-0.515027 l 1.9299,-2.44493 c 0.38579,-0.515027 -0.51502,-0.515027 -0.90081,-0.257513 -1.78716,1.705182 -4.23113,2.551022 -6.69149,2.316656 h -1.67239 l 1.9299,-4.24656 h 0.38579 c 1.15833,0 2.57321,0 2.95996,0.900814 0.0993,0.151422 0.26909,0.243047 0.45041,0.243047 0.18132,0 0.35106,-0.09259 0.4504,-0.243047 l 1.67239,-3.21747 c 0.25752,-0.515027 -0.51502,-0.515027 -0.6433,-0.257513 -0.6433,1.158328 -3.47402,0.900814 -4.24656,0.900814 h -0.38579 l 2.44493,-4.632347 h 2.57321 z" fill="#552583" id="path4303" style="stroke-width:0.96447"/>
  <path d="m 153.14143,10.902013 c -6.43397,-0.385788 -11.70962,-0.643301 -16.21369,-0.128275 1.26538,-3.117165 3.35635,-5.831183 6.04819,-7.849818 4.15107,0.204468 8.28093,0.720459 12.35389,1.544116 11.45307,2.187417 29.21089,9.264695 36.93147,19.431169 C 181.96654,17.079441 165.10954,11.802827 153.1424,10.902013 Z m -19.17365,0.257513 c -4.51179,0.512134 -8.98211,1.329039 -13.38298,2.444931 l -2.95996,-8.49312 c 7.07149,-1.966553 14.42654,-2.706301 21.74686,-2.187417 -1.80163,1.415842 -4.76158,6.69149 -5.40489,8.235606 z m -32.29912,9.522209 c -0.77254,-1.286603 -4.504076,-4.761587 -6.563219,-5.404888 4.761587,-3.603258 15.698669,-8.621394 19.945229,-9.522208 0.6433,1.286602 2.57321,6.433976 3.21747,8.493119 -3.73153,0.77254 -13.51125,4.374834 -16.59948,6.433977 z M 204.61421,32.39136 C 203.58512,31.104757 202.16928,28.530588 191.87453,19.523407 176.56165,6.269665 156.35891,0.2214765 137.4418,0.2214765 c -13.89801,0 -26.12266,3.0882315 -39.762189,10.5522615 -17.243752,9.522209 -24.32103,20.460258 -26.122659,22.647675 -1.286603,1.672391 -1.415842,2.573205 -0.643302,3.088232 0.643302,0.385788 1.801629,-0.900815 2.830719,-2.316656 5.147374,-6.819764 11.967138,-13.511254 19.044416,-17.500301 2.187417,0.385788 5.275649,3.47402 6.433977,5.018136 -5.157019,3.20879 -10.139469,6.686667 -14.927096,10.423023 -2.44493,1.929903 -3.217471,2.959957 -2.573205,3.731532 0.515027,0.643302 2.44493,-0.515026 3.989046,-1.801629 4.690216,-3.728639 9.635052,-7.125501 14.798823,-10.165509 2.83072,3.21747 1.9299,9.13642 0.90081,10.294748 -0.51502,0.77254 -0.51502,1.415841 0,1.801629 0.6433,0.385788 1.15833,-0.515026 1.92991,-1.67239 1.9299,-2.702444 1.15833,-9.13642 -0.38579,-11.453076 4.88986,-3.088232 11.83886,-5.147375 16.08542,-6.048189 0.38579,0.643301 5.53317,15.698671 6.56322,18.401115 0.51503,1.544116 1.02909,3.345745 2.18742,2.959957 0.6433,-0.128274 0.25751,-1.801629 -0.38579,-3.474019 -0.77254,-2.059143 -4.63235,-14.669583 -5.91895,-18.401116 1.41584,-0.77254 9.90799,-2.44493 12.09638,-2.44493 -1.02909,5.533162 2.83071,7.849818 7.20651,10.680536 2.31666,1.544116 17.24375,10.037235 20.33199,11.967139 1.80163,1.158328 3.21747,1.801629 3.60325,1.286603 0.38579,-0.515027 -0.77254,-1.80163 -2.44493,-2.702444 -1.2866,-0.77254 -15.18461,-8.878907 -20.97528,-12.482166 -4.11829,-2.702444 -6.3057,-5.404887 -5.40489,-9.13642 1.41584,-0.385788 5.53316,-0.385788 9.908,-0.385788 29.59668,0.257513 53.27441,17.114513 55.84761,19.945231 1.41584,1.286603 3.21747,2.444931 3.98905,1.929904 0.38578,-0.385788 -0.38579,-1.929904 -1.02909,-2.573205 z m 6.43398,101.01469 c 1.15833,-1.92991 1.9299,-3.08823 1.02909,-3.60326 -0.77254,-0.51503 -1.67239,1.41584 -2.70245,3.21747 -3.47401,5.91895 -7.20651,10.93805 -15.69867,18.65863 -7.0657,6.33946 -15.2174,11.35277 -24.06351,14.79882 -3.21747,-9.00815 -15.44213,-47.35449 -15.82791,-48.51282 -0.38579,-1.67239 -0.90082,-2.05914 -1.41585,-1.9299 -0.6433,0.25751 -0.25751,1.15832 0.12828,2.5732 0.25751,1.41584 14.79882,46.96871 15.31288,48.51282 -2.83072,1.41584 -14.66958,4.76159 -22.77691,5.01814 -7.33479,0.25751 -15.95619,0 -20.33198,-1.02909 -5.01814,-4.11829 -16.59949,-20.46026 -20.97529,-29.08165 -5.147374,-10.29475 -8.621393,-19.68869 -9.522208,-23.67773 -0.385788,-1.92991 -0.900814,-3.34575 -1.929904,-3.08823 -1.029089,0.12827 -0.385787,1.67239 0.257514,3.73153 2.366808,8.0919 5.512908,15.93497 9.393938,23.42021 5.79067,11.19557 15.95618,24.44931 18.91614,28.05257 -11.36145,-2.47676 -22.066102,-7.34637 -31.39831,-14.2838 -9.264695,-6.949 -17.243752,-15.69867 -21.232798,-22.13361 -0.643301,-1.15833 -1.415841,-2.70244 -2.44493,-2.05914 -0.515027,0.38578 0.128274,1.54411 0.77254,2.83071 5.790675,10.42303 19.945231,25.22185 38.218068,33.32822 21.10356,9.39393 44.13799,8.8789 64.85576,0.90081 18.01533,-6.949 33.71497,-21.36107 41.43554,-35.64487 z" id="path4305" style="stroke-width:0.96447"/>
</svg>