<svg xmlns="http://www.w3.org/2000/svg" viewBox="0 61.68192 192.756 80.95752" aria-hidden="true" overflow="hidden" width="1200" height="504">
  <g fill="#000" fill-rule="evenodd" clip-rule="evenodd" transform="matrix(1.1638004,0,0,1.1638004,-113.38362,-271.93346)">
    <path d="m 119.99707,293.46284 c -10.55446,12.39489 -20.674167,27.76566 -20.775642,39.25475 -0.03952,4.32283 1.340532,8.09662 4.650752,10.95501 4.76398,4.11668 10.0129,5.5683 15.23618,5.57685 7.63305,0.0107 15.21268,-3.06882 21.14736,-5.44333 9.99474,-3.99704 120.47736,-51.97542 120.47736,-51.97542 1.06602,-0.53408 0.86627,-1.19954 -0.46786,-0.86734 -0.53835,0.13458 -120.27761,32.58411 -120.27761,32.58411 a 26.459301,26.459301 0 0 1 -6.96865,0.99766 c -9.20217,0.0545 -17.39065,-5.05345 -17.32443,-15.81726 0.0256,-4.21174 1.3149,-9.29083 4.30254,-15.26503 z"/>
  </g>
</svg>