<?xml version="1.0" encoding="UTF-8" standalone="no"?>
<svg
   version="1.1"
   id="Layer_1"
   x="0px"
   y="0px"
   viewBox="0 0 237.54 237.54"
   style="enable-background:new 0 0 237.54 237.54"
   xml:space="preserve"
   sodipodi:docname="time-icon.svg"
   inkscape:version="1.1.2 (b8e25be8, 2022-02-05)"
   xmlns:inkscape="http://www.inkscape.org/namespaces/inkscape"
   xmlns:sodipodi="http://sodipodi.sourceforge.net/DTD/sodipodi-0.dtd"
   xmlns="http://www.w3.org/2000/svg"
   xmlns:svg="http://www.w3.org/2000/svg"><defs
     id="defs15770"><clipPath
       clipPathUnits="userSpaceOnUse"
       id="clipPath581536"><rect
         style="opacity:1;fill:#ffffff;fill-opacity:1;stroke:#ffffff;stroke-width:0.581467;stroke-linejoin:round;stroke-miterlimit:4;stroke-dasharray:none;stroke-opacity:1"
         id="rect581538"
         width="330.23248"
         height="186.67874"
         x="-135.30826"
         y="2028.9943"
         ry="3.6972141" /></clipPath></defs><sodipodi:namedview
     id="namedview15768"
     pagecolor="#ffffff"
     bordercolor="#666666"
     borderopacity="1.0"
     inkscape:pageshadow="2"
     inkscape:pageopacity="0.0"
     inkscape:pagecheckerboard="0"
     showgrid="false"
     inkscape:zoom="1.4187085"
     inkscape:cx="223.09023"
     inkscape:cy="119.12243"
     inkscape:window-width="1296"
     inkscape:window-height="870"
     inkscape:window-x="0"
     inkscape:window-y="38"
     inkscape:window-maximized="0"
     inkscape:current-layer="Layer_1" /><path
     d="m -8.4373398,2039.9698 c 1.672851,0 3.187085,0.6778 4.283108,1.7744 1.096024,1.0959 1.774343,2.6108 1.774343,4.2831 0,1.6723 -0.67781,3.1871 -1.774343,4.2831 -1.096023,1.096 -2.610768,1.7742 -4.283108,1.7742 -1.6728502,0 -3.1870872,-0.6778 -4.2831112,-1.7742 -1.096533,-1.096 -1.774343,-2.6108 -1.774343,-4.2831 0,-1.6723 0.67781,-3.1872 1.774343,-4.2831 1.096024,-1.0966 2.610261,-1.7744 4.2831112,-1.7744 z m -0.495225,3.0703 c 0,-0.1832 0.148416,-0.3316 0.33151,-0.3316 0.183094,0 0.33151,0.1484 0.33151,0.3316 v 3.06 l 2.302208,1.3649 c 0.157086,0.093 0.209617,0.2957 0.116794,0.4534 -0.09282,0.1571 -0.295807,0.2095 -0.453404,0.1168 l -2.447561,-1.4511 c -0.107614,-0.055 -0.181057,-0.1667 -0.181057,-0.2953 z m 4.30963,-0.8272 c -0.976169,-0.9763 -2.324651,-1.5801 -3.814405,-1.5801 -1.489756,0 -2.8382362,0.6038 -3.8144052,1.5801 -0.97617,0.9761 -1.580029,2.3246 -1.580029,3.8144 0,1.4897 0.603859,2.8382 1.580029,3.8143 0.976169,0.9762 2.3246492,1.5801 3.8144052,1.5801 1.489754,0 2.838236,-0.6039 3.814405,-1.5801 0.97617,-0.9761 1.580027,-2.3246 1.580027,-3.8143 0,-1.4898 -0.603857,-2.8383 -1.580027,-3.8144 z"
     id="path346140"
     style="fill:#1655fb;fill-opacity:1;stroke-width:0.0510013"
     clip-path="url(#clipPath581536)"
     transform="matrix(19.139511,0,0,19.139511,280.25658,-39041.19)" /></svg>
