<?xml version="1.0" encoding="UTF-8" standalone="no"?>
<svg
   version="1.1"
   id="Layer_1"
   x="0px"
   y="0px"
   viewBox="0 0 122.88 124.09"
   style="enable-background:new 0 0 122.88 124.09"
   xml:space="preserve"
   sodipodi:docname="brand-auth-ai.svg"
   inkscape:version="1.1.2 (b8e25be8, 2022-02-05)"
   xmlns:inkscape="http://www.inkscape.org/namespaces/inkscape"
   xmlns:sodipodi="http://sodipodi.sourceforge.net/DTD/sodipodi-0.dtd"
   xmlns="http://www.w3.org/2000/svg"
   xmlns:svg="http://www.w3.org/2000/svg"><defs
     id="defs240914" /><sodipodi:namedview
     id="namedview240912"
     pagecolor="#ffffff"
     bordercolor="#666666"
     borderopacity="1.0"
     inkscape:pageshadow="2"
     inkscape:pageopacity="0.0"
     inkscape:pagecheckerboard="0"
     showgrid="false"
     inkscape:zoom="6.0037072"
     inkscape:cx="110.84818"
     inkscape:cy="62.044998"
     inkscape:window-width="1296"
     inkscape:window-height="959"
     inkscape:window-x="0"
     inkscape:window-y="25"
     inkscape:window-maximized="0"
     inkscape:current-layer="Layer_1" /><style
     type="text/css"
     id="style240905">.st0{fill-rule:evenodd;clip-rule:evenodd;}</style><g
     id="g240909"
     style="fill:#ffffff"><path
       class="st0"
       d="M105.28,6.06l14.38,14.38c1.93,1.93,1.93,5.09,0,7.03L108.63,38.5L87.22,17.1L98.26,6.06 C100.19,4.13,103.35,4.13,105.28,6.06L105.28,6.06z M30.9,16.9l23.3,33.21l28.83-28.83l21.4,21.41L71.86,75.27l15.23,21.7 l-10.49,7.59L60.56,86.58l-23.5,23.5c-1.93,1.93-5.09,1.93-7.02,0L15.65,95.7c-1.93-1.93-1.93-5.09,0-7.03l24.72-24.72L6.05,25.48 C-9.46,7.88,7.03-17.13,30.9,16.9L30.9,16.9z M8.95,94.84l21.5,21.49l-24.42,4.03L8.95,94.84L8.95,94.84L8.95,94.84z M84.47,104.47 c8.47-6.26,14.43-5.63,17.78,1.55c0.79,1.7,3.2,8.98,8.16,12.96c4.87,3.91,12.48,4.45,12.48,4.69 C110.97,124.78,62.03,125.18,84.47,104.47L84.47,104.47L84.47,104.47z"
       id="path240907"
       style="fill:#ffffff" /></g></svg>
