<?xml version="1.0" encoding="UTF-8" standalone="no"?>
<svg
   version="1.1"
   id="Layer_1"
   x="0px"
   y="0px"
   viewBox="0 0 122.88 83.78"
   style="enable-background:new 0 0 122.88 83.78"
   xml:space="preserve"
   sodipodi:docname="eye-password-icon.svg"
   inkscape:version="1.1.2 (b8e25be8, 2022-02-05)"
   xmlns:inkscape="http://www.inkscape.org/namespaces/inkscape"
   xmlns:sodipodi="http://sodipodi.sourceforge.net/DTD/sodipodi-0.dtd"
   xmlns="http://www.w3.org/2000/svg"
   xmlns:svg="http://www.w3.org/2000/svg"><defs
     id="defs142770"><inkscape:path-effect
       effect="powerclip"
       id="path-effect33067"
       is_visible="true"
       lpeversion="1"
       inverse="true"
       flatten="false"
       hide_clip="false"
       message="Use fill-rule evenodd on &lt;b&gt;fill and stroke&lt;/b&gt; dialog if no flatten result after convert clip to paths." /><inkscape:path-effect
       effect="powerclip"
       id="path-effect33063"
       is_visible="true"
       lpeversion="1"
       inverse="true"
       flatten="false"
       hide_clip="false"
       message="Use fill-rule evenodd on &lt;b&gt;fill and stroke&lt;/b&gt; dialog if no flatten result after convert clip to paths." /><inkscape:path-effect
       effect="powerclip"
       id="path-effect19039"
       is_visible="true"
       lpeversion="1"
       inverse="true"
       flatten="false"
       hide_clip="false"
       message="Use fill-rule evenodd on &lt;b&gt;fill and stroke&lt;/b&gt; dialog if no flatten result after convert clip to paths." /><clipPath
       clipPathUnits="userSpaceOnUse"
       id="clipPath19035"><ellipse
         style="display:none;fill:#ff0000;fill-opacity:1;stroke-width:0.40396;stroke-linejoin:round"
         id="ellipse19037"
         cx="194.77982"
         cy="105.13496"
         rx="22.411213"
         ry="23.298786" /></clipPath><clipPath
       clipPathUnits="userSpaceOnUse"
       id="clipPath19035-3"><ellipse
         style="display:none;fill:#ff0000;fill-opacity:1;stroke-width:0.40396;stroke-linejoin:round"
         id="ellipse19037-3"
         cx="194.77982"
         cy="105.13496"
         rx="22.411213"
         ry="23.298786"
         d="m 217.19103,105.13496 a 22.411213,23.298786 0 0 1 -22.41121,23.29878 22.411213,23.298786 0 0 1 -22.41122,-23.29878 22.411213,23.298786 0 0 1 22.41122,-23.29879 22.411213,23.298786 0 0 1 22.41121,23.29879 z" /><path
         id="lpe_path-effect19039-3"
         style="fill:#ff0000;fill-opacity:1;stroke-width:0.40396;stroke-linejoin:round"
         class="powerclip"
         d="m 156.49257,65.529408 h 76.57449 v 79.211102 h -76.57449 z m 60.69846,39.605552 a 22.411213,23.298786 0 0 0 -22.41121,-23.29879 22.411213,23.298786 0 0 0 -22.41122,23.29879 22.411213,23.298786 0 0 0 22.41122,23.29878 22.411213,23.298786 0 0 0 22.41121,-23.29878 z" /></clipPath><inkscape:path-effect
       effect="powerclip"
       id="path-effect19039-8"
       is_visible="true"
       lpeversion="1"
       inverse="true"
       flatten="false"
       hide_clip="false"
       message="Use fill-rule evenodd on &lt;b&gt;fill and stroke&lt;/b&gt; dialog if no flatten result after convert clip to paths." /><clipPath
       clipPathUnits="userSpaceOnUse"
       id="clipath_lpe_path-effect19039-8"><ellipse
         style="display:none;fill:#ff0000;fill-opacity:1;stroke-width:0.40396;stroke-linejoin:round"
         id="ellipse19230"
         cx="194.77982"
         cy="105.13496"
         rx="22.411213"
         ry="23.298786"
         d="m 217.19103,105.13496 a 22.411213,23.298786 0 0 1 -22.41121,23.29878 22.411213,23.298786 0 0 1 -22.41122,-23.29878 22.411213,23.298786 0 0 1 22.41122,-23.29879 22.411213,23.298786 0 0 1 22.41121,23.29879 z" /><path
         id="lpe_path-effect19039-8"
         style="fill:#ff0000;fill-opacity:1;stroke-width:0.40396;stroke-linejoin:round"
         class="powerclip"
         d="m 156.49257,65.529408 h 76.57449 v 79.211102 h -76.57449 z m 60.69846,39.605552 a 22.411213,23.298786 0 0 0 -22.41121,-23.29879 22.411213,23.298786 0 0 0 -22.41122,23.29879 22.411213,23.298786 0 0 0 22.41122,23.29878 22.411213,23.298786 0 0 0 22.41121,-23.29878 z" /></clipPath><clipPath
       clipPathUnits="userSpaceOnUse"
       id="clipPath33055"><path
         id="path33057"
         style="display:none;fill:#ffffff;stroke-width:0.675158;stroke-linejoin:round"
         d="M 46.763455,6.7181101 105.41787,5.9360188 c -9.647642,7.7631992 -9.388654,6.6143002 -9.647642,7.7631992 l -0.528253,2.343385 C 78.56964,23.914965 102.19821,9.5003762 101.02051,9.5059984 L 50.059269,9.749257 c 0,0 1.163953,0.1795903 0,0 L 39.709428,8.1523446 C 38.545476,7.9727537 45.585833,6.7338123 46.763455,6.7181101 Z"
         sodipodi:nodetypes="scscscsss" /><path
         id="lpe_path-effect33063"
         style="fill:#ffffff;stroke-width:0.675158;stroke-linejoin:round"
         class="powerclip"
         d="M 6.3030443,-12.305806 H 143.30384 V 11.75756 H 6.3030443 Z M 46.763455,6.7181101 c -1.177622,0.015702 -8.217979,1.2546436 -7.054027,1.4342345 L 50.059269,9.749257 c 1.163953,0.1795903 0,0 0,0 L 101.02051,9.5059984 c 1.1777,-0.00562 -22.45087,14.4089666 -5.778535,6.5366046 l 0.528253,-2.343385 c 0.258988,-1.148899 0,0 9.647642,-7.7631992 z" /></clipPath><clipPath
       clipPathUnits="userSpaceOnUse"
       id="clipPath33059"><path
         id="path33061"
         style="display:none;fill:#ffffff;stroke-width:0.675158;stroke-linejoin:round"
         d="M 34.663692,32.099567 83.37395,64.783855 C 71.02394,65.69022 71.88987,64.891967 71.02394,65.69022 l -1.76622,1.628181 C 51.065164,64.323113 78.699249,65.887482 77.726941,65.22293 L 35.65345,36.466559 c 0,0 0.855756,0.809149 0,0 l -7.609357,-7.19493 c -0.855755,-0.809149 5.641629,2.171726 6.619599,2.827938 z"
         sodipodi:nodetypes="scscscsss" /><path
         id="lpe_path-effect33067"
         style="fill:#ffffff;stroke-width:0.675158;stroke-linejoin:round"
         class="powerclip"
         d="M 2.1441317,-1.3665165 H 121.38189 V 83.112156 H 2.1441317 Z M 34.663692,32.099567 c -0.97797,-0.656212 -7.475354,-3.637087 -6.619599,-2.827938 l 7.609357,7.19493 c 0.855756,0.809149 0,0 0,0 L 77.726941,65.22293 c 0.972308,0.664552 -26.661777,-0.899817 -8.469221,2.095471 l 1.76622,-1.628181 c 0.86593,-0.798253 0,0 12.35001,-0.906365 z" /></clipPath></defs><sodipodi:namedview
     id="namedview142768"
     pagecolor="#ffffff"
     bordercolor="#666666"
     borderopacity="1.0"
     inkscape:pageshadow="2"
     inkscape:pageopacity="0.0"
     inkscape:pagecheckerboard="0"
     showgrid="false"
     inkscape:zoom="3.0341954"
     inkscape:cx="113.86874"
     inkscape:cy="57.840705"
     inkscape:window-width="1296"
     inkscape:window-height="961"
     inkscape:window-x="0"
     inkscape:window-y="25"
     inkscape:window-maximized="0"
     inkscape:current-layer="Layer_1" /><g
     id="g33045"
     clip-path="url(#clipPath33059)"
     inkscape:path-effect="#path-effect33067"><g
       id="g142765"
       style="fill:#102ff5;fill-opacity:1"
       transform="matrix(0.88897914,0,0,0.88897914,7.1441317,3.6334835)"><path
         d="m 95.73,10.81 c 10.53,7.09 19.6,17.37 26.48,29.86 l 0.67,1.22 -0.67,1.21 C 115.33,55.59 106.25,65.87 95.73,72.96 85.46,79.88 73.8,83.78 61.44,83.78 49.08,83.78 37.42,79.88 27.16,72.97 16.62,65.87 7.55,55.59 0.67,43.1 L 0,41.89 0.67,40.67 C 7.55,28.18 16.62,17.9 27.15,10.81 37.42,3.9 49.08,0 61.44,0 73.8,0 85.45,3.9 95.73,10.81 Z M 109,41.89 C 103.5,32.23 96.39,24.29 88.21,18.78 80.16,13.36 71.06,10.3 61.44,10.3 c -9.61,0 -18.71,3.06 -26.76,8.48 -8.18,5.51 -15.29,13.45 -20.8,23.11 5.5,9.66 12.62,17.6 20.8,23.1 8.05,5.42 17.15,8.48 26.76,8.48 9.62,0 18.71,-3.06 26.77,-8.48 8.18,-5.5 15.29,-13.44 20.79,-23.1 z"
         id="path142763"
         style="fill:#102ff5;fill-opacity:1"
         sodipodi:nodetypes="cccccscccccscccscccscc"
         inkscape:original-d="m 95.73,10.81 c 10.53,7.09 19.6,17.37 26.48,29.86 l 0.67,1.22 -0.67,1.21 C 115.33,55.59 106.25,65.87 95.73,72.96 85.46,79.88 73.8,83.78 61.44,83.78 49.08,83.78 37.42,79.88 27.16,72.97 16.62,65.87 7.55,55.59 0.67,43.1 L 0,41.89 0.67,40.67 C 7.55,28.18 16.62,17.9 27.15,10.81 37.42,3.9 49.08,0 61.44,0 73.8,0 85.45,3.9 95.73,10.81 Z M 109,41.89 C 103.5,32.23 96.39,24.29 88.21,18.78 80.16,13.36 71.06,10.3 61.44,10.3 c -9.61,0 -18.71,3.06 -26.76,8.48 -8.18,5.51 -15.29,13.45 -20.8,23.11 5.5,9.66 12.62,17.6 20.8,23.1 8.05,5.42 17.15,8.48 26.76,8.48 9.62,0 18.71,-3.06 26.77,-8.48 8.18,-5.5 15.29,-13.44 20.79,-23.1 z" /></g><path
       style="fill:#102ff5;fill-opacity:1;stroke-width:0.6;stroke-linejoin:round"
       id="path18929-9"
       clip-path="url(#clipath_lpe_path-effect19039-8)"
       transform="matrix(0.699741,0,0,0.699741,-71.8926,-32.552185)"
       sodipodi:type="arc"
       sodipodi:ry="34.605549"
       sodipodi:rx="33.287243"
       sodipodi:cy="105.13496"
       sodipodi:cx="194.77982"
       inkscape:path-effect="#path-effect19039-8"
       d="m 228.06706,105.13496 a 33.287243,34.605549 0 0 1 -33.28724,34.60555 33.287243,34.605549 0 0 1 -33.28725,-34.60555 33.287243,34.605549 0 0 1 33.28725,-34.605552 33.287243,34.605549 0 0 1 33.28724,34.605552 z" /></g><path
     style="fill:#102ff5;fill-opacity:1;stroke-width:0.675157;stroke-linejoin:round"
     id="rect28834"
     width="127.00079"
     height="14.063366"
     x="11.303044"
     y="-7.3058057"
     ry="2.1258566"
     transform="rotate(34.625302)"
     sodipodi:type="rect"
     clip-path="url(#clipPath33055)"
     inkscape:path-effect="#path-effect33063"
     d="M 13.428901,-7.3058057 H 136.17798 c 1.17773,0 2.12586,0.9481321 2.12586,2.1258567 v 9.8116526 c 0,1.1777246 -0.94813,2.1258567 -2.12586,2.1258567 H 13.428901 c -1.177725,0 -2.125857,-0.9481321 -2.125857,-2.1258567 V -5.179949 c 0,-1.1777246 0.948132,-2.1258567 2.125857,-2.1258567 z" /></svg>
