<?xml version="1.0" encoding="UTF-8" standalone="no"?>
<!-- Created with Inkscape (http://www.inkscape.org/) -->

<svg
   width="87mm"
   height="13mm"
   viewBox="0 0 87 13"
   version="1.1"
   id="svg5964"
   inkscape:version="1.1.2 (b8e25be8, 2022-02-05)"
   sodipodi:docname="logo-typeface.svg"
   xmlns:inkscape="http://www.inkscape.org/namespaces/inkscape"
   xmlns:sodipodi="http://sodipodi.sourceforge.net/DTD/sodipodi-0.dtd"
   xmlns:xlink="http://www.w3.org/1999/xlink"
   xmlns="http://www.w3.org/2000/svg"
   xmlns:svg="http://www.w3.org/2000/svg">
  <sodipodi:namedview
     id="namedview5966"
     pagecolor="#ffffff"
     bordercolor="#666666"
     borderopacity="1.0"
     inkscape:pageshadow="2"
     inkscape:pageopacity="0.0"
     inkscape:pagecheckerboard="0"
     inkscape:document-units="mm"
     showgrid="false"
     inkscape:zoom="2.6547418"
     inkscape:cx="161.40929"
     inkscape:cy="94.171117"
     inkscape:window-width="1312"
     inkscape:window-height="960"
     inkscape:window-x="0"
     inkscape:window-y="25"
     inkscape:window-maximized="0"
     inkscape:current-layer="layer1" />
  <defs
     id="defs5961">
    <linearGradient
       id="b">
      <stop
         offset="0"
         stop-color="#3771c8"
         id="stop7083" />
      <stop
         stop-color="#3771c8"
         offset=".128"
         id="stop7085" />
      <stop
         offset="1"
         stop-color="#60f"
         stop-opacity="0"
         id="stop7087" />
    </linearGradient>
    <linearGradient
       id="a">
      <stop
         offset="0"
         stop-color="#fd5"
         id="stop7090" />
      <stop
         offset=".1"
         stop-color="#fd5"
         id="stop7092" />
      <stop
         offset=".5"
         stop-color="#ff543e"
         id="stop7094" />
      <stop
         offset="1"
         stop-color="#c837ab"
         id="stop7096" />
    </linearGradient>
    <radialGradient
       id="c"
       cx="158.429"
       cy="578.08801"
       r="65"
       xlink:href="#a"
       gradientUnits="userSpaceOnUse"
       gradientTransform="matrix(0,-1.98198,1.8439,0,-1031.402,454.004)"
       fx="158.429"
       fy="578.08801" />
    <radialGradient
       id="d"
       cx="147.694"
       cy="473.45499"
       r="65"
       xlink:href="#b"
       gradientUnits="userSpaceOnUse"
       gradientTransform="matrix(0.17394,0.86872,-3.5818,0.71718,1648.348,-458.493)"
       fx="147.694"
       fy="473.45499" />
  </defs>
  <g
     inkscape:label="Layer 1"
     inkscape:groupmode="layer"
     id="layer1">
    <path
       style="fill:#ffffff;fill-opacity:1;stroke-width:0.0326455;stroke-linecap:butt;stroke-linejoin:round"
       d="m 48.160402,12.534363 c -1.036055,-0.200619 -1.601666,-0.592469 -1.877131,-1.300462 l -0.09812,-0.252206 0.0082,-5.3138632 0.0082,-5.31387711 0.07919,-0.0111628 c 0.125301,-0.0177104 0.519981,0.0887421 0.77065,0.20784903 0.276815,0.13152527 0.63996,0.45238028 0.70993,0.62726538 0.0764,0.1909115 0.08778,0.4150133 0.122732,2.4151044 0.01792,1.0273535 0.04086,1.8892707 0.05086,1.9153577 0.01393,0.036242 0.07814,0.00651 0.272009,-0.1253842 0.783281,-0.5333464 1.851831,-0.5737338 2.961181,-0.1119107 0.323188,0.1345447 0.630071,0.358264 0.95097,0.6932552 0.431903,0.4508876 0.699857,0.92953 0.788353,1.4082335 0.0222,0.1201522 0.09126,0.5130831 0.09237,0.7723692 0.0013,0.2790079 -0.0688,0.6629404 -0.09237,0.8319378 -0.103646,0.7452047 -0.622068,1.7801428 -1.203671,2.4029158 -0.543287,0.581754 -1.227363,0.958114 -2.037264,1.120842 -0.341619,0.06864 -1.224037,0.08841 -1.506317,0.03375 z m 1.195266,-1.326053 c 0.252291,-0.04729 0.669968,-0.258184 0.870996,-0.439795 0.353699,-0.319536 0.658225,-0.861133 0.813418,-1.446617 C 51.15651,8.8826318 51.164871,8.1663301 51.058473,7.7444108 50.957764,7.3449765 50.836806,7.1083243 50.626449,6.8990957 50.282451,6.5569893 49.88174,6.4258875 49.254036,6.4500653 c -0.34989,0.013445 -0.454156,0.031156 -0.731292,0.1240257 -0.17778,0.059578 -0.390785,0.1534554 -0.473369,0.2086509 l -0.150138,0.1003384 -0.0084,1.9650448 -0.0084,1.9650509 0.285904,0.156344 c 0.445213,0.243454 0.791215,0.313029 1.187357,0.23879 z m 9.811745,1.349661 c -0.01193,-0.01193 -0.02176,-0.202884 -0.02176,-0.42425 v -0.402494 l -0.26653,0.197617 c -0.306319,0.227115 -0.764237,0.459319 -1.071939,0.543557 -0.266575,0.07297 -0.949442,0.08035 -1.191558,0.01289 -0.636522,-0.177411 -1.106007,-0.66375 -1.326976,-1.374588 -0.107199,-0.344873 -0.10807,-0.976776 -0.0018,-1.3485681 0.322884,-1.1302855 1.3628,-1.913296 3.328215,-2.5060296 0.293277,-0.088442 0.539989,-0.160814 0.54825,-0.160814 0.05918,0 -0.02405,-0.9795364 -0.103671,-1.2204935 C 58.99292,5.6729597 58.821342,5.481966 58.609111,5.373283 58.387965,5.2600318 57.974339,5.2318424 57.756175,5.3151462 57.425394,5.4414724 57.359732,5.5677396 57.271783,6.2465012 57.245032,6.4529807 57.19948,6.6999147 57.17056,6.7952503 56.9826,7.4149119 56.204215,7.5673472 55.749129,7.0736294 55.534811,6.8411231 55.475887,6.6763416 55.476753,6.3117893 c 0.0013,-0.5314151 0.158194,-0.9091205 0.521711,-1.255628 0.770395,-0.7343465 2.297588,-1.0312719 3.505109,-0.6814707 0.707921,0.2050769 1.154353,0.5971167 1.365669,1.1992422 0.07435,0.2118786 0.08359,0.3007288 0.107186,1.0316634 0.01418,0.4398939 0.02675,1.9640407 0.02792,3.3869788 l 0.0021,2.587166 H 60.09781 c -0.499756,0 -0.918426,-0.0098 -0.93039,-0.02176 z m -0.92529,-1.532619 c 0.180987,-0.06386 0.485327,-0.23816 0.734732,-0.420793 l 0.206633,-0.151315 -0.01077,-1.1213175 c -0.0059,-0.6167403 -0.0219,-1.1324423 -0.03546,-1.1460189 -0.03189,-0.031837 -0.843156,0.3787535 -1.162126,0.5881504 -0.349473,0.2294278 -0.691898,0.5659488 -0.824293,0.8100946 -0.102887,0.1897409 -0.106433,0.3281601 -0.110175,0.4982014 -0.0034,0.154629 0.0141,0.321467 0.08014,0.457029 0.097,0.199153 0.309903,0.391453 0.531998,0.478277 0.18297,0.07152 0.405864,0.07242 0.589322,0.0077 z M 2.2065411,12.514141 C 1.7641485,12.46331 1.2384909,12.248946 0.86889478,11.968641 0.68266302,11.827399 0.51811028,11.615209 0.37983225,11.337977 L 0.27458211,11.127007 0.24341818,8.1959281 c -0.0171586,-1.6121019 -0.020219,-4.0397047 -0.006878,-5.394683 l 0.0243187,-2.46360818 h 0.10508611 c 0.15877732,0 0.5794814,0.11596636 0.78398871,0.21610753 0.2562901,0.12548232 0.5502165,0.40191222 0.6549083,0.61592535 l 0.08664,0.1770827 0.031133,1.8540852 c 0.017128,1.0197467 0.041431,1.9600531 0.054007,2.089552 L 1.99949,5.5258515 2.2708413,5.3491052 c 0.4549714,-0.2963448 0.8388216,-0.406937 1.4156852,-0.407878 0.4596997,-8.921e-4 0.7947382,0.047785 1.1531212,0.167029 0.6131873,0.2040087 1.149661,0.5698584 1.518024,1.0351975 0.52597,0.6644181 0.6272523,1.4309506 0.6430168,2.1923513 0.013342,0.6446503 -0.1449837,1.2256615 -0.4671089,1.87712 -0.3414666,0.690583 -0.8857025,1.334521 -1.4392026,1.702792 -0.3518348,0.234106 -0.9021556,0.480337 -1.2177737,0.544845 -0.2969477,0.06069 -1.3219447,0.09358 -1.6700983,0.05358 z M 3.5924503,11.143025 C 4.1111438,10.98282 4.6542001,10.437761 4.921893,9.8086775 5.1205488,9.3418299 5.1657112,9.0925502 5.1650265,8.4663851 5.1640819,7.8275034 5.1304021,7.6449595 4.9371783,7.2405774 4.7404903,6.828942 4.345654,6.538458 3.8503903,6.4410179 3.5568045,6.3832615 2.9743551,6.4168872 2.6850875,6.5083083 2.5593947,6.548047 2.3427057,6.6377372 2.2035603,6.7076766 l -0.2530034,0.1271672 0.00388,1.9012335 c 0.0022,1.0456782 0.013184,1.9446237 0.024539,1.9976507 0.01716,0.08002 0.065314,0.120086 0.2832084,0.235625 0.1444064,0.07657 0.3426997,0.160767 0.4406638,0.187099 0.2618513,0.07038 0.6366108,0.06471 0.8896205,-0.01344 z m 6.5353417,0.400216 c -0.03041,-1.255529 0.01277,-6.6307419 0.0539,-6.7082821 0.01656,-0.031246 0.07005,-0.067938 0.118914,-0.081614 0.137272,-0.038444 1.315645,-0.022456 1.419543,0.019212 0.119177,0.047835 0.149232,0.1276928 0.178854,0.4751865 l 0.02479,0.2907773 0.310133,-0.2591179 c 0.685031,-0.5723593 0.962452,-0.709516 1.521046,-0.7520269 0.315142,-0.023968 0.538482,0.020774 0.806614,0.1614977 0.412662,0.2166292 0.609575,0.5197067 0.610123,0.939078 8.2e-4,0.5004035 -0.284731,0.8172328 -0.89624,0.9950003 -0.376046,0.1093187 -0.868499,0.00481 -1.247812,-0.2649007 -0.190707,-0.1355879 -0.287156,-0.1398418 -0.44824,-0.019743 -0.115112,0.085839 -0.409433,0.4310237 -0.589712,0.6916554 l -0.07904,0.1142634 -0.01877,2.2035702 c -0.01032,1.2119728 -0.02729,2.4276108 -0.03768,2.7014248 l -0.01892,0.497856 h -0.841601 -0.841603 z m 8.684843,0.971229 C 18.053619,12.377195 17.490124,11.839353 17.273486,11.045389 17.185916,10.7244 17.193644,10.097011 17.289375,9.7577369 17.61457,8.6051677 18.705613,7.7952483 20.713429,7.2159121 L 21.188082,7.0789576 21.16874,6.6545575 C 21.129855,5.801921 21.00246,5.5329456 20.540421,5.3280911 20.348962,5.2432034 19.960227,5.2268847 19.76409,5.2954936 19.453627,5.4041215 19.353561,5.5899101 19.28547,6.1840674 19.20786,6.8612812 19.078243,7.125398 18.748046,7.2791658 c -0.43831,0.2040997 -0.932436,0.00621 -1.165135,-0.4663693 -0.0981,-0.1992822 -0.1053,-0.2366522 -0.101937,-0.5291195 0.0087,-0.7568364 0.375161,-1.2812695 1.167804,-1.6713561 0.560809,-0.2759954 1.079469,-0.3899755 1.773384,-0.3897382 0.8757,8.93e-4 1.59513,0.2289323 2.012323,0.6395114 0.203792,0.2005707 0.322944,0.3911178 0.434532,0.6949192 0.112793,0.3071242 0.134005,0.9722661 0.136171,4.2723229 l 0.0018,2.7177458 h -0.929393 -0.929419 l -0.0091,-0.407993 -0.0091,-0.407994 -0.256655,0.192265 c -0.310271,0.232441 -0.703252,0.431948 -1.03324,0.524563 -0.277333,0.07785 -0.783496,0.110619 -1.027312,0.06654 z m 1.623349,-1.59184 c 0.148215,-0.07345 0.376676,-0.211073 0.507717,-0.305809 l 0.238246,-0.172227 -0.0098,-1.1169995 c -0.0054,-0.6143605 -0.02167,-1.1289473 -0.03627,-1.143522 -0.03377,-0.033709 -0.879448,0.3925084 -1.181334,0.5953847 -0.663123,0.4456224 -0.960978,0.8865462 -0.922508,1.3656378 0.02731,0.340292 0.227719,0.601064 0.467319,0.792473 0.113292,0.0905 0.269264,0.130232 0.41424,0.132735 0.180906,0.003 0.294116,-0.03457 0.522326,-0.147673 z m 6.21616,0.933634 c -0.03147,-1.010503 -0.02434,-5.5785539 0.0099,-6.3731046 0.01811,-0.4197597 0.04343,-0.6957461 0.06588,-0.718204 0.0247,-0.024688 0.272618,-0.036502 0.768389,-0.036502 0.911194,0 0.854083,-0.033318 0.88902,0.5183391 l 0.02444,0.3858497 0.212195,-0.1509696 c 0.445237,-0.3167473 0.789595,-0.5391641 0.95848,-0.6190499 0.275251,-0.1302178 0.726259,-0.2482235 1.031208,-0.2698273 0.327548,-0.023177 0.667385,0.053952 0.996243,0.226162 0.114496,0.059959 0.334847,0.2052421 0.474654,0.3408861 0.13978,0.1356029 0.257725,0.3133173 0.355017,0.4640116 0.09558,0.1480392 0.158204,0.2690914 0.199793,0.4177424 0.0892,0.3188567 0.07878,0.481742 0.09866,0.9883726 0.03522,0.8972859 0.04122,3.6655549 0.01032,4.7581029 l -0.02145,0.759007 h -0.827257 -0.827245 v -0.328691 c 0,-0.83544 -0.07005,-4.2907415 -0.09825,-4.8456317 C 30.956656,7.0680941 30.958288,6.869786 30.955825,6.7286027 30.95112,6.4632966 30.932008,6.3997365 30.757309,6.2112717 30.601128,6.042782 30.320575,6.0440664 30.091016,6.034986 29.900973,6.0275775 29.706694,6.0675334 29.529613,6.1369162 29.17653,6.2752713 28.830696,6.5178953 28.570169,6.7482773 l -0.166052,0.1468398 -0.0226,2.7286898 c -0.01243,1.5007771 -0.03138,2.7724761 -0.04208,2.8259811 l -0.01945,0.09729 h -0.823188 -0.823187 z m 11.79619,0.657528 C 38.049476,12.444212 37.489736,12.15745 37.155918,11.851611 36.715235,11.44787 36.43039,11.023841 36.177913,10.395721 35.907372,9.7226726 35.914224,9.2913589 35.885658,8.7275515 c -0.01766,-0.348675 0.0065,-0.7913821 0.07555,-1.0446584 0.326403,-1.1987636 1.174901,-2.2754478 2.174207,-2.7589038 0.484905,-0.2345877 0.810318,-0.316503 1.328178,-0.3343054 0.502779,-0.01728 0.812369,0.039696 1.198993,0.2206057 0.114876,0.053742 0.226889,0.097732 0.248912,0.097732 0.05133,0 0.08321,-1.2207699 0.08321,-3.1876198 V 0.30624182 l 0.0791,-0.0198328 c 0.134452,-0.0337488 0.576314,0.0786605 0.859157,0.21856735 0.290924,0.14390552 0.609064,0.41970669 0.710214,0.61570913 0.04883,0.094589 0.06313,0.2406638 0.08475,0.8651149 0.03221,0.9290354 0.03728,6.6309126 0.0079,8.8915396 l -0.02163,1.670819 -0.867923,-0.0087 -0.867935,-0.0086 -0.0095,-0.269324 c -0.0053,-0.148133 -0.02347,-0.269327 -0.04059,-0.269327 -0.01713,0 -0.174451,0.06431 -0.349622,0.14295 -0.78599,0.352745 -1.525474,0.484214 -2.130335,0.378726 z m 1.712192,-1.485646 c 0.220668,-0.05749 0.579999,-0.238299 0.730182,-0.367427 l 0.103152,-0.0887 -0.03272,-1.8715126 C 40.933921,7.1424286 40.920195,6.8130317 40.879198,6.7337716 40.8202,6.6196984 40.552545,6.4022584 40.336106,6.2925802 39.868914,6.05583 39.148962,6.0562174 38.680791,6.2934712 c -0.349622,0.1771618 -0.64491,0.537364 -0.811459,0.9897953 -0.15975,0.4339901 -0.137443,1.5560165 0.04358,2.1916064 0.118369,0.4156267 0.265662,0.7994161 0.548775,1.0925731 0.221651,0.22952 0.582769,0.390039 0.839886,0.459197 0.23244,0.06252 0.622062,0.0632 0.858961,0.0018 z m 33.887843,1.488735 C 73.373659,12.434296 72.616533,11.975817 72.12816,11.354065 71.816798,10.957682 71.517194,10.37098 71.420385,9.9680908 71.333335,9.6057664 71.279521,8.873206 71.305289,8.401102 c 0.09065,-1.6607949 0.996733,-3.0683226 2.257644,-3.5070731 0.377968,-0.1315173 0.709166,-0.1583281 1.0694,-0.1560605 0.274327,0.0018 0.558395,0.041498 0.812815,0.1290714 0.41361,0.1423858 0.773338,0.3687111 1.102921,0.693898 0.661324,0.6525104 0.928406,1.3158513 0.995691,2.4728929 l 0.02323,0.3999179 h -2.322467 c -2.316679,0 -2.322462,8.92e-4 -2.322462,0.066657 0,0.1094409 0.09579,0.5506413 0.183973,0.8474106 0.244527,0.8228448 0.81529,1.4508828 1.451961,1.5976628 0.752242,0.173419 1.71255,-0.304521 2.151521,-1.0707872 l 0.1137,-0.1984753 0.449501,-8.93e-4 0.449496,-8.92e-4 -0.02089,0.089773 c -0.07095,0.3044135 -0.417906,1.0230785 -0.657996,1.3629485 -0.432762,0.612624 -1.220634,1.180388 -1.852353,1.334805 -0.129124,0.03155 -0.398879,0.07625 -0.601031,0.08487 -0.18063,0.0077 -0.541569,-0.01475 -0.541569,-0.02983 z m 2.007705,-5.3365529 c 0,-0.1185913 -0.142726,-0.4854612 -0.258618,-0.6647604 C 75.467059,6.0043738 74.773283,5.715863 74.244246,5.8696699 73.930898,5.9607546 73.702275,6.0951762 73.500417,6.3070168 73.29861,6.5187834 73.135016,6.8230072 73.09884,7.0537896 l -0.02163,0.1380798 0.681463,0.00951 c 2.030901,0.028403 2.29742,0.02594 2.29742,-0.021074 z M 65.718568,12.466138 c -0.283564,-0.05145 -0.527899,-0.129408 -0.745679,-0.237935 -0.188944,-0.09416 -0.631617,-0.433516 -0.804067,-0.616404 -0.175648,-0.1863 -0.420143,-0.533001 -0.420143,-0.595803 0,-0.06267 0.753742,-0.688804 0.829206,-0.688804 0.0271,0 0.14082,0.121191 0.252696,0.26933 0.288885,0.382514 0.602906,0.682959 0.830727,0.794818 0.245322,0.120456 0.665069,0.149302 0.923493,0.06345 0.358772,-0.119155 0.59167,-0.411747 0.59167,-0.743321 0,-0.215943 -0.06451,-0.352798 -0.267806,-0.568129 C 66.68099,9.90219 66.452394,9.7431521 65.82035,9.3861829 64.671285,8.7372106 64.162326,8.243689 63.962804,7.5849555 63.881291,7.315852 63.860016,6.6477186 63.923499,6.350665 c 0.112424,-0.526097 0.420738,-0.9676368 0.891455,-1.2766541 0.775278,-0.5089704 2.001349,-0.544262 2.68573,-0.077289 0.386531,0.2637343 0.921718,0.8373029 1.035607,1.1098633 l 0.05124,0.1226381 -0.162865,0.1497552 C 68.232274,6.555879 67.86737,6.834116 67.827749,6.834116 c -0.0153,0 -0.145225,-0.1449978 -0.288739,-0.3222136 C 67.228768,6.1287979 66.959223,5.8807857 66.735755,5.7727754 66.410633,5.6156387 65.98984,5.6065743 65.66727,5.749769 65.388365,5.8735714 65.1832,6.2082983 65.236051,6.453268 c 0.08445,0.3914672 0.360387,0.6091165 1.651423,1.302548 0.797327,0.4282585 0.992523,0.5589367 1.301018,0.8709836 0.375513,0.3798639 0.517957,0.7141963 0.592157,1.3899054 0.05901,0.537264 -0.05266,1.079661 -0.294669,1.431426 -0.291708,0.423965 -1.007318,0.874211 -1.619639,1.019035 -0.130578,0.03091 -0.398807,0.04296 -0.598959,0.04215 -0.183499,-8.93e-4 -0.548814,-0.01673 -0.548814,-0.04315 z m 16.850935,-0.01921 C 81.590986,12.283371 80.659091,11.347944 80.251266,10.11992 80.062879,9.5526393 80.027758,9.3290252 80.027461,8.6948909 80.026569,8.0696058 80.066846,7.8040955 80.234819,7.307128 80.45153,6.6659917 80.759469,6.1748568 81.260725,5.6709203 81.812271,5.1164216 82.32189,4.815029 82.991656,4.6472391 c 0.253155,-0.063433 0.552803,-0.06091 0.830271,-0.059689 0.171691,8.92e-4 0.3446,0.010172 0.513421,0.041448 0.110291,0.020424 0.322844,0.094929 0.322844,0.094929 0.16159,0.068178 0.324446,0.1313941 0.361887,0.1404795 l 0.06806,0.016549 0.02172,-1.6241037 c 0.01189,-0.8932573 0.02172,-1.9017741 0.02172,-2.2411513 0,-0.38316472 0.01346,-0.6422577 0.03563,-0.68357622 0.03183,-0.0594584 0.05525,-0.0641638 0.220362,-0.0441408 0.412304,0.0499875 0.834436,0.24092206 1.130179,0.51122093 0.297832,0.27220109 0.314656,0.33195579 0.346133,1.22969119 0.03317,0.9471062 0.03838,5.9312591 0.0088,8.5377793 l -0.02172,1.915146 H 85.9791 85.107245 l -0.0037,-0.265819 c -0.0015,-0.146205 -0.0078,-0.270169 -0.01309,-0.275473 -0.0053,-0.0054 -0.141546,0.04976 -0.302749,0.122352 -0.428533,0.192989 -0.808948,0.316524 -1.141893,0.370784 -0.315036,0.05135 -0.812257,0.0575 -1.076665,0.01331 z m 1.601168,-1.437183 c 0.218503,-0.0402 0.589975,-0.202001 0.807787,-0.351862 l 0.145643,-0.100207 -0.01227,-1.6251078 C 85.10522,8.0387573 85.090633,7.171519 85.07985,7.0053649 L 85.060218,6.7032835 84.877751,6.5406525 C 84.777379,6.4511796 84.586722,6.3143392 84.419503,6.2414024 84.22866,6.1581666 84.121692,6.1038442 83.813387,6.0904758 c -0.415889,-0.018051 -0.658,0.02616 -0.962319,0.175647 -0.292678,0.1437633 -0.572393,0.413067 -0.698104,0.672142 -0.329166,0.6783861 -0.324533,1.7770005 0.01174,2.7842836 0.187383,0.5612656 0.425535,0.8571366 0.880406,1.0937936 0.396702,0.206383 0.737108,0.264871 1.125635,0.193402 z"
       id="path49724"
       sodipodi:nodetypes="cscccssssscsssacssccsssssssscccsssscsssscsssssssssssssscssssscssssasasssscsscssscsscssssasssssssssssscssssssssssscsssssssscsscccssssscsssssssscssscccccsssssscssssaasssssscssssasasscccssssaascsscccssssasssssscssssscccsssssscssssssasssssssassscssssscccsssassssssscsssssssssssssssssscsssssssssssasssscsssaasscssssssscccsssssssscsscsassssss" />
  </g>
</svg>
