<?xml version="1.0" encoding="UTF-8" standalone="no"?>
<svg
   shape-rendering="geometricPrecision"
   text-rendering="geometricPrecision"
   image-rendering="optimizeQuality"
   fill-rule="evenodd"
   clip-rule="evenodd"
   viewBox="0 0 306.14343 267.68921"
   version="1.1"
   id="svg75226"
   sodipodi:docname="wallet.svg"
   inkscape:version="1.1.2 (b8e25be8, 2022-02-05)"
   width="306.14343"
   height="267.68921"
   xmlns:inkscape="http://www.inkscape.org/namespaces/inkscape"
   xmlns:sodipodi="http://sodipodi.sourceforge.net/DTD/sodipodi-0.dtd"
   xmlns="http://www.w3.org/2000/svg"
   xmlns:svg="http://www.w3.org/2000/svg">
  <defs
     id="defs75230" />
  <sodipodi:namedview
     id="namedview75228"
     pagecolor="#ffffff"
     bordercolor="#666666"
     borderopacity="1.0"
     inkscape:pageshadow="2"
     inkscape:pageopacity="0.0"
     inkscape:pagecheckerboard="0"
     showgrid="false"
     inkscape:zoom="1.5513077"
     inkscape:cx="259.45852"
     inkscape:cy="194.99677"
     inkscape:window-width="1296"
     inkscape:window-height="959"
     inkscape:window-x="0"
     inkscape:window-y="25"
     inkscape:window-maximized="0"
     inkscape:current-layer="svg75226"
     fit-margin-top="0"
     fit-margin-left="0"
     fit-margin-right="0"
     fit-margin-bottom="0" />
  <path
     style="fill:#ffffff;stroke-width:0.488733"
     d="M 20.524387,267.16624 C 11.610735,265.47947 3.850303,258.07204 0.896442,248.43325 0.039884,245.63409 0,241.61811 0,160.21752 0,77.876021 0.02638,74.841161 0.923065,72.245921 c 2.543416,-7.40146 7.150464,-13.17537 12.77784,-16.00965 6.551847,-3.30044 -2.789138,-3.0946 132.184795,-2.94182 l 121.93789,0.1326 3.5804,1.32815 c 6.49475,2.40724 11.72135,7.03029 14.73458,13.03191 2.6896,5.35942 2.63644,4.71661 2.81909,32.680659 l 0.1661,26.02489 h -27.05924 c -23.33715,0 -27.42517,0.0993 -29.71424,0.78015 -8.40659,2.4704 -14.66956,8.8519 -16.8318,17.15348 -1.06257,4.07379 -1.04596,28.53721 0.0175,32.6299 2.16152,8.30597 8.79041,14.97334 17.09042,17.19408 1.89594,0.50777 8.46403,0.65362 29.47353,0.65712 l 27.02967,0.005 -0.1661,25.78059 -0.16609,25.78057 -1.32815,3.63787 c -3.28716,9.00722 -11.05127,15.66792 -19.932,17.10132 -4.14653,0.67031 -243.508726,0.62111 -247.052596,-0.0703 z M 234.09932,187.39135 c -4.76976,-1.50746 -8.82659,-5.03175 -10.90817,-9.47206 -1.30486,-2.78588 -1.31154,-2.84228 -1.46757,-16.11226 -0.16609,-15.20213 0.0703,-16.68103 3.30044,-21.21869 1.0725,-1.50412 3.0149,-3.40901 4.31318,-4.24247 4.87405,-3.1278 3.8583,-3.03151 36.52974,-3.33302 21.06458,-0.19943 30.39958,-0.0993 31.814,0.2987 2.82569,0.76344 5.8449,3.10452 7.14854,5.54672 1.09235,2.04538 1.11229,2.40724 1.26173,20.6552 0.16609,20.58843 0.0993,21.4398 -2.74266,24.72696 -3.4446,4.02434 -1.73323,3.84539 -36.50214,3.82052 -23.41973,-0.0175 -31.25791,-0.1661 -32.74507,-0.64395 z m 17.21428,-17.17871 c 3.94826,-1.96569 6.09159,-5.34985 6.06936,-9.57643 -0.0264,-6.03077 -4.2126,-10.19357 -10.23609,-10.19357 -3.64948,0 -6.47576,1.42444 -8.57657,4.32584 -1.41451,1.95234 -1.54067,2.43386 -1.54067,5.94382 0,3.44987 0.1326,4.02433 1.46757,5.93889 1.7233,2.48692 5.84859,4.80692 8.54144,4.80692 0.97286,0 2.89534,-0.55785 4.27101,-1.24512 z M 54.979757,46.706421 c 0.33207,-0.34175 7.70068,-2.30103 27.85783,-7.39383 9.0046,-2.27115 24.179843,-6.14972 33.722343,-8.61013 9.54251,-2.46047 22.84798,-5.87318 29.56779,-7.58349 44.51024,-11.329849 67.27722,-17.1528694 80.15206,-20.4988074 9.28123,-2.41391601 11.19806,-2.76585201 14.01409,-2.57661701 3.948,0.298698 6.84299,1.79297501 9.45553,4.98157001 3.03151,3.696646 3.1676,4.734268 3.1676,24.0439944 v 17.27209 h -95.22863 c -52.37564,0 -96.965973,0.1326 -99.089643,0.33209 -2.12179,0.16609 -3.75172,0.19943 -3.6173,0.0703 z"
     id="path80352"
     sodipodi:nodetypes="csscsccssccscscsscccsscccscssscscccccscssssssscsssscsscsccc" />
</svg>
