<?xml version="1.0" encoding="UTF-8" standalone="no"?>
<svg
   version="1.1"
   id="Layer_1"
   x="0px"
   y="0px"
   width="122.88px"
   height="122.878px"
   viewBox="0 0 122.88 122.878"
   enable-background="new 0 0 122.88 122.878"
   xml:space="preserve"
   sodipodi:docname="settings-blue-mobile-footer.svg"
   inkscape:version="1.1.2 (b8e25be8, 2022-02-05)"
   xmlns:inkscape="http://www.inkscape.org/namespaces/inkscape"
   xmlns:sodipodi="http://sodipodi.sourceforge.net/DTD/sodipodi-0.dtd"
   xmlns="http://www.w3.org/2000/svg"
   xmlns:svg="http://www.w3.org/2000/svg"><defs
     id="defs36466" /><sodipodi:namedview
     id="namedview36464"
     pagecolor="#ffffff"
     bordercolor="#666666"
     borderopacity="1.0"
     inkscape:pageshadow="2"
     inkscape:pageopacity="0.0"
     inkscape:pagecheckerboard="0"
     showgrid="false"
     inkscape:zoom="3.0314622"
     inkscape:cx="110.34279"
     inkscape:cy="61.521467"
     inkscape:window-width="1296"
     inkscape:window-height="959"
     inkscape:window-x="0"
     inkscape:window-y="25"
     inkscape:window-maximized="0"
     inkscape:current-layer="Layer_1" /><g
     id="g36461"
     style="fill:#ffffff"
     transform="matrix(0.73154607,0,0,0.73154607,16.493674,16.493407)"><path
       fill-rule="evenodd"
       clip-rule="evenodd"
       d="m 101.589,14.7 8.818,8.819 c 2.321,2.321 2.321,6.118 0,8.439 l -7.101,7.101 c 1.959,3.658 3.454,7.601 4.405,11.752 h 9.199 c 3.283,0 5.969,2.686 5.969,5.968 V 69.25 c 0,3.283 -2.686,5.969 -5.969,5.969 h -10.039 c -1.231,4.063 -2.992,7.896 -5.204,11.418 l 6.512,6.51 c 2.321,2.323 2.321,6.12 0,8.44 l -8.818,8.819 c -2.321,2.32 -6.119,2.32 -8.439,0 l -7.102,-7.102 c -3.657,1.96 -7.601,3.456 -11.753,4.406 v 9.199 c 0,3.282 -2.685,5.968 -5.968,5.968 h -12.47 c -3.283,0 -5.969,-2.686 -5.969,-5.968 V 106.87 c -4.063,-1.232 -7.896,-2.993 -11.417,-5.205 l -6.511,6.512 c -2.323,2.321 -6.12,2.321 -8.441,0 l -8.818,-8.818 c -2.321,-2.321 -2.321,-6.118 0,-8.439 l 7.102,-7.102 c -1.96,-3.657 -3.456,-7.6 -4.405,-11.751 H 5.968 C 2.686,72.067 0,69.382 0,66.099 V 53.628 C 0,50.345 2.686,47.66 5.968,47.66 H 16.007 C 17.239,43.597 19,39.764 21.211,36.242 L 14.7,29.732 c -2.321,-2.322 -2.321,-6.12 0,-8.44 l 8.819,-8.819 c 2.321,-2.321 6.118,-2.321 8.439,0 l 7.101,7.101 c 3.658,-1.96 7.601,-3.456 11.753,-4.406 V 5.969 C 50.812,2.686 53.498,0 56.78,0 h 12.471 c 3.282,0 5.968,2.686 5.968,5.969 v 10.036 c 4.064,1.231 7.898,2.992 11.422,5.204 L 93.148,14.7 c 2.323,-2.321 6.12,-2.321 8.441,0 z M 61.44,36.92 c 13.54,0 24.519,10.98 24.519,24.519 0,13.538 -10.979,24.519 -24.519,24.519 -13.539,0 -24.519,-10.98 -24.519,-24.519 0,-13.539 10.98,-24.519 24.519,-24.519 z"
       id="path36459"
       style="fill:#ffffff" /></g></svg>
