<?xml version="1.0" encoding="UTF-8" standalone="no"?>
<!-- Created with Inkscape (http://www.inkscape.org/) -->

<svg
   width="87mm"
   height="66mm"
   viewBox="0 0 87 66"
   version="1.1"
   id="svg5964"
   inkscape:version="1.1.2 (b8e25be8, 2022-02-05)"
   sodipodi:docname="splash-logo.svg"
   xmlns:inkscape="http://www.inkscape.org/namespaces/inkscape"
   xmlns:sodipodi="http://sodipodi.sourceforge.net/DTD/sodipodi-0.dtd"
   xmlns="http://www.w3.org/2000/svg"
   xmlns:svg="http://www.w3.org/2000/svg">
  <sodipodi:namedview
     id="namedview5966"
     pagecolor="#ffffff"
     bordercolor="#666666"
     borderopacity="1.0"
     inkscape:pageshadow="2"
     inkscape:pageopacity="0.0"
     inkscape:pagecheckerboard="0"
     inkscape:document-units="mm"
     showgrid="false"
     inkscape:zoom="1.3273709"
     inkscape:cx="324.32533"
     inkscape:cy="201.90287"
     inkscape:window-width="1312"
     inkscape:window-height="960"
     inkscape:window-x="0"
     inkscape:window-y="25"
     inkscape:window-maximized="0"
     inkscape:current-layer="layer1" />
  <defs
     id="defs5961" />
  <g
     inkscape:label="Layer 1"
     inkscape:groupmode="layer"
     id="layer1">
    <path
       style="fill:#ffffff;stroke-width:0.0325332;stroke-linecap:butt;stroke-linejoin:round"
       d="m 48.28644,65.028464 c -1.032487,-0.199926 -1.59615,-0.590427 -1.870668,-1.295983 l -0.09779,-0.251337 0.0083,-5.295572 0.0083,-5.295584 0.07891,-0.01112 c 0.124868,-0.01765 0.518192,0.08844 0.767995,0.207134 0.275861,0.131071 0.637758,0.450822 0.707486,0.625105 0.07613,0.190255 0.08747,0.413585 0.122309,2.40679 0.01787,1.023817 0.04072,1.882765 0.05068,1.908763 0.01387,0.03612 0.07787,0.0065 0.271072,-0.124951 0.780585,-0.53151 1.845457,-0.571758 2.950988,-0.111526 0.322074,0.134083 0.627901,0.35703 0.947695,0.690868 0.430417,0.449337 0.697447,0.926332 0.78564,1.403388 0.02212,0.119736 0.09096,0.511315 0.09206,0.769709 0.0012,0.278046 -0.06857,0.660658 -0.09206,0.829074 -0.103292,0.742638 -0.619926,1.774015 -1.199528,2.394644 -0.541418,0.579752 -1.223137,0.954815 -2.030252,1.116982 -0.340443,0.0684 -1.219823,0.08811 -1.50113,0.03363 z m 1.19115,-1.321487 c 0.251424,-0.04711 0.667663,-0.257293 0.868,-0.438281 0.352481,-0.318436 0.655959,-0.858167 0.810618,-1.441636 0.116026,-0.437754 0.12436,-1.151591 0.01834,-1.572058 -0.100358,-0.398059 -0.220904,-0.633895 -0.430537,-0.842405 -0.342814,-0.340928 -0.742145,-0.471579 -1.367688,-0.447485 -0.348686,0.0134 -0.452592,0.03105 -0.728775,0.123599 -0.177168,0.05937 -0.38944,0.152928 -0.471738,0.207932 l -0.149622,0.1 -0.0084,1.958279 -0.0084,1.958288 0.284919,0.155805 c 0.44368,0.242615 0.788491,0.311951 1.18327,0.237967 z m 9.777969,1.345016 c -0.01189,-0.01189 -0.02168,-0.202187 -0.02168,-0.422789 v -0.40111 l -0.265614,0.196939 c -0.305264,0.226332 -0.761605,0.457736 -1.068248,0.541684 -0.265656,0.07272 -0.946173,0.08007 -1.187457,0.01284 -0.634331,-0.176799 -1.102198,-0.661465 -1.322406,-1.369856 -0.106831,-0.343686 -0.1077,-0.973413 -0.0017,-1.343925 0.321772,-1.126396 1.35811,-1.90671 3.316758,-2.497405 0.292267,-0.08815 0.538129,-0.160258 0.546362,-0.160258 0.05898,0 -0.02396,-0.976166 -0.103313,-1.216294 -0.06648,-0.201134 -0.237469,-0.391471 -0.448971,-0.499778 -0.220383,-0.112863 -0.632586,-0.140955 -0.849998,-0.05793 -0.329643,0.125893 -0.395079,0.251725 -0.482726,0.92815 -0.02667,0.205768 -0.07206,0.451853 -0.100876,0.546859 -0.187314,0.617528 -0.96302,0.769439 -1.416538,0.27742 -0.213581,-0.231705 -0.2723,-0.39592 -0.271438,-0.759217 0.0012,-0.529586 0.157649,-0.905992 0.519915,-1.251305 0.767742,-0.731819 2.289676,-1.02772 3.493042,-0.679125 0.705484,0.204373 1.150379,0.595062 1.360966,1.195114 0.0741,0.21115 0.08329,0.299694 0.106819,1.028112 0.01413,0.43838 0.02667,1.957278 0.02783,3.37532 l 0.0021,2.578259 h -0.905503 c -0.498036,0 -0.915263,-0.0097 -0.927187,-0.02169 z M 58.333455,63.52465 c 0.180364,-0.06364 0.483656,-0.237339 0.732203,-0.419344 l 0.205922,-0.150795 -0.01074,-1.117458 c -0.0059,-0.614616 -0.02182,-1.128543 -0.03536,-1.142072 -0.03179,-0.03173 -0.840253,0.377447 -1.158127,0.586124 -0.348269,0.228638 -0.689515,0.564001 -0.821454,0.807307 -0.102536,0.189088 -0.106068,0.32703 -0.109795,0.496485 -0.0034,0.154097 0.01405,0.320361 0.07987,0.455457 0.09666,0.198468 0.308838,0.390106 0.530167,0.47663 0.182339,0.07127 0.404467,0.07216 0.587292,0.0077 z M 2.4907841,65.008314 C 2.0499144,64.957664 1.526066,64.744031 1.1577425,64.464691 0.97215154,64.323935 0.80816534,64.112476 0.67036337,63.836198 L 0.56547584,63.625954 0.53441817,60.704967 c -0.0170983,-1.606553 -0.0201424,-4.025798 -0.006828,-5.376114 L 0.55183,52.873728 h 0.10472438 c 0.15823181,0 0.57748612,0.115567 0.78128952,0.215363 0.2554084,0.12505 0.5483234,0.400529 0.6526541,0.613805 l 0.086342,0.176474 0.031023,1.847702 c 0.017068,1.016235 0.041286,1.953304 0.053822,2.082358 l 0.022785,0.23465 0.2704177,-0.176136 c 0.4534049,-0.295327 0.835934,-0.405537 1.4108116,-0.406473 0.4581174,-8.48e-4 0.7920029,0.04762 1.1491513,0.166452 0.6110756,0.203307 1.1457028,0.567896 1.5127969,1.031634 0.524157,0.662132 0.6250898,1.426026 0.6408007,2.184805 0.013299,0.64243 -0.1444854,1.221441 -0.4655018,1.870658 -0.3402911,0.688205 -0.8826519,1.329926 -1.4342463,1.69693 -0.3506237,0.233298 -0.8990504,0.478683 -1.2135822,0.542969 -0.2959254,0.06047 -1.3173936,0.09326 -1.6643483,0.05339 z m 1.3811383,-1.366396 c 0.5169079,-0.159653 1.0580943,-0.702838 1.3248654,-1.329755 0.1979723,-0.46524 0.2429779,-0.713661 0.2422969,-1.33767 -9.184e-4,-0.636685 -0.034506,-0.8186 -0.2270638,-1.221589 -0.1960112,-0.410218 -0.5894885,-0.699703 -1.0830466,-0.796806 -0.2925753,-0.05756 -0.8730195,-0.02405 -1.1612912,0.06705 -0.1252603,0.0396 -0.3412033,0.128987 -0.4798695,0.198684 l -0.2521327,0.12673 0.00388,1.894688 c 0.00219,1.042079 0.013136,1.93793 0.024458,1.990775 0.017103,0.07974 0.065088,0.119673 0.2822331,0.234814 0.1439092,0.0763 0.3415201,0.160213 0.4391472,0.186456 0.2609498,0.07013 0.6344189,0.06449 0.886558,-0.0134 z m 6.5128396,0.398837 c -0.0303,-1.251205 0.01273,-6.607914 0.05371,-6.685188 0.0165,-0.03114 0.06981,-0.0677 0.118505,-0.08134 0.136799,-0.03831 1.311116,-0.02237 1.414656,0.01916 0.118765,0.04767 0.148718,0.127253 0.178238,0.47355 l 0.02471,0.289778 0.309065,-0.258226 c 0.682673,-0.570388 0.959138,-0.707073 1.515809,-0.749438 0.314058,-0.02388 0.536628,0.0207 0.803837,0.160942 0.411242,0.215884 0.607476,0.517917 0.608025,0.935845 8.19e-4,0.49868 -0.283753,0.81442 -0.893156,0.991576 -0.374753,0.108939 -0.86551,0.0049 -1.243516,-0.26399 -0.19005,-0.135122 -0.286168,-0.139362 -0.446696,-0.01966 -0.114717,0.08554 -0.408026,0.429541 -0.587685,0.689275 l -0.07877,0.113871 -0.0187,2.195983 c -0.01026,1.207802 -0.02719,2.419255 -0.03754,2.692127 l -0.01886,0.496137 h -0.838706 -0.838706 z m 8.654945,0.967885 c -0.756403,-0.1368 -1.317958,-0.672791 -1.533851,-1.464023 -0.08728,-0.319883 -0.07958,-0.945113 0.01584,-1.283219 0.324077,-1.148602 1.411363,-1.955733 3.412268,-2.533074 l 0.473017,-0.136483 -0.01928,-0.42294 c -0.03874,-0.849702 -0.165704,-1.11775 -0.626152,-1.3219 -0.190802,-0.08461 -0.578197,-0.100856 -0.773659,-0.03247 -0.309395,0.108253 -0.409117,0.293403 -0.476973,0.885513 -0.07735,0.674882 -0.206513,0.93809 -0.535573,1.091328 -0.436802,0.203398 -0.929226,0.0062 -1.161123,-0.464763 -0.09777,-0.198601 -0.104941,-0.235842 -0.101592,-0.527302 0.0087,-0.75423 0.373869,-1.276859 1.163784,-1.665602 0.558879,-0.275046 1.075754,-0.388633 1.767279,-0.388396 0.872685,8.47e-4 1.589638,0.228144 2.005395,0.637311 0.203091,0.199879 0.321833,0.389771 0.433036,0.692525 0.112405,0.306068 0.133546,0.96892 0.135703,4.257616 l 0.0018,2.70839 H 22.293319 21.3671 l -0.0091,-0.406589 -0.0091,-0.406589 -0.255772,0.191604 c -0.309203,0.231642 -0.700831,0.43046 -1.029683,0.522758 -0.276378,0.07759 -0.780799,0.110237 -1.023776,0.0663 z m 1.617761,-1.586357 c 0.147704,-0.07321 0.37538,-0.210347 0.505968,-0.304758 l 0.237425,-0.171633 -0.0097,-1.113155 c -0.0053,-0.612246 -0.0216,-1.125061 -0.03614,-1.139587 -0.03366,-0.03359 -0.876422,0.391159 -1.177266,0.593335 -0.660843,0.44409 -0.957672,0.883496 -0.919334,1.360938 0.02722,0.339121 0.226936,0.598996 0.465711,0.789746 0.112901,0.09019 0.268336,0.129783 0.412814,0.132278 0.180283,0.003 0.293103,-0.03445 0.520527,-0.147164 z m 6.194758,0.930418 c -0.03137,-1.007023 -0.02425,-5.55935 0.01,-6.351165 0.01806,-0.418314 0.04329,-0.693351 0.06565,-0.715731 0.02461,-0.02461 0.271678,-0.03638 0.765742,-0.03638 0.908059,0 0.851144,-0.0332 0.88596,0.516557 l 0.02435,0.384522 0.211465,-0.15045 c 0.443704,-0.315659 0.786878,-0.53731 0.955181,-0.61692 0.274302,-0.129771 0.723756,-0.247368 1.027657,-0.268899 0.326419,-0.02311 0.665086,0.05376 0.992813,0.225384 0.114102,0.05976 0.333693,0.204535 0.473021,0.339711 0.139297,0.135136 0.256837,0.312241 0.353794,0.462417 0.09525,0.147529 0.157659,0.268164 0.199105,0.416302 0.08889,0.317758 0.0785,0.480085 0.09833,0.984971 0.0351,0.894197 0.04107,3.652936 0.01026,4.741723 l -0.02137,0.756395 h -0.824407 -0.824398 v -0.32756 c 0,-0.832565 -0.06981,-4.275971 -0.09792,-4.828952 -0.01544,-0.303613 -0.0138,-0.501239 -0.01624,-0.641936 -0.0046,-0.264393 -0.02373,-0.327734 -0.197834,-0.515551 -0.155643,-0.167908 -0.43523,-0.166629 -0.663999,-0.175678 -0.189391,-0.0075 -0.383001,0.03242 -0.559472,0.101582 -0.351867,0.137879 -0.69651,0.379668 -0.95614,0.609257 l -0.165481,0.146335 -0.02251,2.719296 c -0.01239,1.495611 -0.03126,2.762931 -0.04193,2.816253 l -0.01939,0.09696 H 27.6941 26.873748 Z m 11.755583,0.655264 c -0.397486,-0.06933 -0.955298,-0.355115 -1.287966,-0.659901 -0.439166,-0.402351 -0.723031,-0.82492 -0.974639,-1.450877 -0.26961,-0.670732 -0.262782,-1.100561 -0.291248,-1.662428 -0.0176,-0.347474 0.0065,-0.788659 0.07528,-1.041061 0.325279,-1.194638 1.170856,-2.267614 2.166722,-2.749408 0.483236,-0.23378 0.807527,-0.315412 1.323605,-0.333156 0.50105,-0.01722 0.809573,0.03956 1.194865,0.219848 0.114482,0.05356 0.22611,0.09739 0.248056,0.09739 0.05115,0 0.08292,-1.216568 0.08292,-3.176646 v -1.409289 l 0.07883,-0.01976 c 0.13399,-0.03363 0.57433,0.07838 0.8562,0.217816 0.289922,0.14341 0.606968,0.418262 0.707769,0.61359 0.04865,0.09426 0.06291,0.239835 0.08446,0.862135 0.03208,0.925837 0.03715,6.608087 0.008,8.860931 l -0.02157,1.665066 -0.864937,-0.0086 -0.864946,-0.0086 -0.0094,-0.268396 c -0.0051,-0.147624 -0.02338,-0.268402 -0.04046,-0.268402 -0.01707,0 -0.17385,0.0641 -0.348417,0.142457 -0.783286,0.351534 -1.520223,0.48255 -2.123001,0.377423 z m 1.706296,-1.480532 c 0.21991,-0.05729 0.578002,-0.237477 0.72767,-0.36616 l 0.102795,-0.0884 -0.03261,-1.865072 c -0.02712,-1.552712 -0.04082,-1.880974 -0.08165,-1.959962 -0.05879,-0.113682 -0.32553,-0.330373 -0.541225,-0.439673 -0.465582,-0.235936 -1.183055,-0.23555 -1.649617,8.47e-4 -0.348416,0.17655 -0.642688,0.535513 -0.808665,0.986386 -0.159199,0.432497 -0.136969,1.55066 0.04342,2.184062 0.117962,0.414196 0.264747,0.796665 0.546887,1.088813 0.220887,0.228727 0.580762,0.388696 0.836993,0.457616 0.23164,0.06231 0.619921,0.06299 0.856005,0.0017 z m 33.771181,1.483612 c -0.672386,-0.0823 -1.426905,-0.539203 -1.913599,-1.158815 -0.310288,-0.395018 -0.60886,-0.979699 -0.705337,-1.381203 -0.08675,-0.361076 -0.140378,-1.091114 -0.1147,-1.561594 0.09033,-1.655075 0.993303,-3.057759 2.249872,-3.495002 0.376667,-0.131062 0.706726,-0.15778 1.065719,-0.155521 0.273382,0.0017 0.556472,0.04136 0.810017,0.128628 0.412185,0.141894 0.770676,0.367441 1.099124,0.691508 0.659048,0.650265 0.925211,1.311322 0.992262,2.46438 l 0.02315,0.398541 h -2.314472 c -2.308703,0 -2.314468,8.48e-4 -2.314468,0.06644 0,0.109063 0.09546,0.548745 0.183341,0.844492 0.243683,0.820016 0.812483,1.445889 1.446963,1.592164 0.749653,0.172823 1.706654,-0.303473 2.144116,-1.067101 l 0.113307,-0.197793 0.447952,-8.47e-4 0.447951,-8.47e-4 -0.02084,0.08947 c -0.0707,0.303365 -0.416467,1.019556 -0.655731,1.358257 -0.431273,0.610515 -1.216432,1.176324 -1.845977,1.330211 -0.12868,0.03144 -0.397505,0.07599 -0.598962,0.08458 -0.180007,0.0077 -0.539705,-0.01469 -0.539705,-0.02972 z m 2.000795,-5.318183 c 0,-0.118183 -0.142233,-0.48379 -0.257729,-0.66247 -0.329258,-0.509436 -1.020647,-0.796953 -1.547862,-0.643677 -0.312269,0.09076 -0.540105,0.22473 -0.741268,0.435842 -0.201113,0.211039 -0.364144,0.514214 -0.400196,0.744201 l -0.02156,0.137604 0.679118,0.0095 c 2.023909,0.02831 2.28951,0.02585 2.28951,-0.02099 z m -10.30192,5.267615 c -0.282587,-0.05128 -0.526082,-0.128963 -0.743111,-0.237117 -0.188293,-0.09383 -0.629443,-0.432023 -0.801299,-0.614282 -0.175043,-0.185659 -0.418696,-0.531166 -0.418696,-0.593752 0,-0.06246 0.751147,-0.686431 0.826351,-0.686431 0.02702,0 0.140335,0.120772 0.251827,0.268401 0.28789,0.381198 0.60083,0.680608 0.827866,0.792082 0.244479,0.120042 0.66278,0.148787 0.920314,0.06324 0.357538,-0.118746 0.589633,-0.41033 0.589633,-0.740763 0,-0.2152 -0.06429,-0.351584 -0.266884,-0.566174 -0.22689,-0.240321 -0.4547,-0.398811 -1.084569,-0.754553 -1.145108,-0.646738 -1.652315,-1.13856 -1.851151,-1.795025 -0.08123,-0.268178 -0.102431,-0.934011 -0.03916,-1.23004 0.112038,-0.524287 0.41929,-0.964308 0.888387,-1.272261 0.772609,-0.507218 1.994459,-0.542389 2.676484,-0.07704 0.3852,0.262826 0.918544,0.834421 1.032042,1.106043 l 0.05107,0.122215 -0.162305,0.149239 c -0.191727,0.176293 -0.555376,0.45357 -0.594859,0.45357 -0.01525,0 -0.144725,-0.144496 -0.287746,-0.321102 -0.309175,-0.381786 -0.577792,-0.628945 -0.80049,-0.736583 -0.324003,-0.156597 -0.743348,-0.16563 -1.064808,-0.02293 -0.277943,0.123376 -0.482402,0.456951 -0.429734,0.701077 0.08416,0.390119 0.359148,0.607019 1.645739,1.298063 0.794582,0.426784 0.989107,0.557014 1.296539,0.867986 0.374219,0.378557 0.516173,0.711737 0.590119,1.385121 0.05879,0.535414 -0.05247,1.075944 -0.293655,1.426497 -0.290705,0.422506 -1.00385,0.871203 -1.614065,1.015529 -0.130127,0.0308 -0.397432,0.04282 -0.596896,0.04201 -0.182867,-8.47e-4 -0.546925,-0.01667 -0.546925,-0.043 z m 16.792924,-0.01915 c -0.975147,-0.162997 -1.903835,-1.095204 -2.310252,-2.319 -0.187738,-0.565328 -0.222743,-0.788173 -0.223039,-1.420123 -7.06e-4,-0.623134 0.03924,-0.88773 0.206649,-1.382987 0.215961,-0.638931 0.522843,-1.128372 1.02237,-1.630575 0.549645,-0.552589 1.05751,-0.852944 1.724977,-1.020157 0.252283,-0.0632 0.550893,-0.0607 0.82741,-0.05949 0.171094,8.47e-4 0.343411,0.01016 0.511654,0.04131 0.10991,0.02036 0.321727,0.0946 0.321727,0.0946 0.161036,0.06793 0.323336,0.130944 0.360642,0.139996 l 0.06783,0.0165 0.0216,-1.618514 c 0.01186,-0.890181 0.02166,-1.895225 0.02166,-2.233435 0,-0.381846 0.01341,-0.640047 0.0355,-0.681221 0.0317,-0.05925 0.05506,-0.06394 0.219609,-0.04399 0.410885,0.04982 0.831562,0.240094 1.126289,0.509461 0.29681,0.271266 0.313574,0.330814 0.344943,1.225458 0.03311,0.943845 0.03826,5.910841 0.0088,8.508389 l -0.0216,1.908553 h -0.868871 -0.86886 l -0.0035,-0.264906 c -0.0015,-0.145699 -0.0078,-0.269238 -0.01306,-0.274525 -0.005,-0.0053 -0.141061,0.04959 -0.301709,0.121931 -0.427056,0.192326 -0.806163,0.315435 -1.137963,0.369507 -0.313948,0.05118 -0.80946,0.0573 -1.072959,0.01327 z m 1.595662,-1.432237 c 0.217745,-0.04006 0.587944,-0.201306 0.804998,-0.350652 l 0.145148,-0.09986 -0.01221,-1.619515 c -0.007,-0.890731 -0.02111,-1.754985 -0.03183,-1.920565 l -0.01955,-0.301043 -0.181846,-0.162071 c -0.100027,-0.08915 -0.29002,-0.225533 -0.45666,-0.298222 -0.19019,-0.08295 -0.296789,-0.137084 -0.604032,-0.150407 -0.414456,-0.01799 -0.655736,0.02607 -0.959004,0.175042 -0.291679,0.143271 -0.570425,0.411646 -0.695703,0.669829 -0.328038,0.676051 -0.323413,1.770885 0.01172,2.774699 0.186737,0.559334 0.424078,0.854186 0.877379,1.090027 0.395341,0.205674 0.734574,0.26396 1.121756,0.192738 z"
       id="path49724"
       sodipodi:nodetypes="cscccssssscsssacssccsssssssscccsssscsssscsssssssssssssscssssscssssasasssscsscssscsscssssasssssssssssscssssssssssscsssssssscsscccssssscsssssssscssscccccsssssscssssaasssssscssssasasscccssssaascsscccssssasssssscssssscccsssssscssssssasssssssassscssssscccsssassssssscsssssssssssssssssscsssssssssssasssscsssaasscssssssscccsssssssscsscsassssss" />
    <path
       d="m 43.753221,43.146505 c -2.56181,-0.1342 -5.26506,-1.0264 -7.43517,-2.4512 -3.49198,-2.29409 -5.70553,-5.82099 -6.16882,-9.82864 -0.0698,-0.59803 -0.0788,-2.36931 -0.0788,-15.38376 V 0.77728777 h 0.23769 c 0.61728,0.001 1.79412,0.11013997 2.26995,0.20456997 2.80262,0.56312996 4.90828,2.31694996 5.45528,4.54615006 0.0752,0.3079697 0.0859,1.2453091 0.11014,10.1943672 l 0.0264,9.85463 0.29722,1.44808 c 0.19562,0.95794 0.28156,1.47227 0.25023,1.51927 -0.0246,0.0385 -0.8411,0.59446 -1.81336,1.23457 -0.97226,0.64011 -2.55643,1.6822 -3.52018,2.31694 -0.98076,0.64504 -1.72562,1.16788 -1.69249,1.18533 0.0331,0.0161 0.18353,0.0457 0.33572,0.0632 1.82366,0.20993 8.40698,1.04745 8.43338,1.07342 0.0193,0.0193 0.62088,1.57028 1.33753,3.44676 1.62626,4.25563 1.52151,3.98663 1.55642,3.98483 0.0175,0 0.89885,-1.5806 1.95838,-3.51303 1.05956,-1.93197 1.94631,-3.52331 1.96869,-3.53719 0.0228,-0.0138 2.03181,-0.047 4.46424,-0.0735 2.43065,-0.0264 4.42932,-0.056 4.44141,-0.068 0.0102,-0.0102 -0.51747,-0.47942 -1.17504,-1.04075 -0.65757,-0.56134 -2.09984,-1.79366 -3.20505,-2.73816 l -2.01075,-1.71712 1.31827,-3.74892 c 0.72561,-2.06134 1.3147,-3.761 1.30978,-3.77846 -0.0102,-0.0264 -1.97586,0.88989 -7.61155,3.54434 l -0.27797,0.13117 -2.83262,-1.77666 0.0138,-3.7507 c 0.009,-2.06314 0.026,-3.7628 0.0421,-3.77668 0.0367,-0.0385 0.93196,-0.17144 1.54567,-0.23276 0.75874,-0.0735 2.20817,-0.0613 3.0439,0.0264 1.91675,0.20099 3.61284,0.70457 5.36129,1.59447 2.22786,1.13161 4.00944,2.69967 5.36621,4.72296 1.17325,1.74845 1.8344,3.46199 2.16296,5.61645 0.11547,0.75693 0.11724,2.64549 10e-4,3.4011 -0.35676,2.36887 -1.24487,4.48482 -2.67505,6.36623 -0.45658,0.6034 -1.76278,1.93063 -2.37291,2.41321 -1.94808,1.5421 -4.29099,2.5877 -6.79504,3.0336 -1.06313,0.1889 -2.42527,0.2623 -3.64552,0.1992 z"
       style="fill:#ffffff;fill-opacity:1;fill-rule:nonzero;stroke:none;stroke-width:0.447632;stroke-linecap:butt;stroke-linejoin:round"
       id="path48515"
       inkscape:export-filename="/Users/livesigned/Documents/Lach/brandbased/brandbased-poster.png"
       inkscape:export-xdpi="65.450974"
       inkscape:export-ydpi="65.450974" />
  </g>
</svg>
