<?xml version="1.0" encoding="UTF-8" standalone="no"?>
<!-- Generator: Adobe Illustrator 26.0.3, SVG Export Plug-In . SVG Version: 6.00 Build 0)  -->

<svg
   version="1.1"
   id="svg5964"
   x="0px"
   y="0px"
   viewBox="0 0 223.5 183.7"
   style="enable-background:new 0 0 223.5 183.7;"
   xml:space="preserve"
   sodipodi:docname="splash-logo-white.svg"
   inkscape:version="1.1.2 (b8e25be8, 2022-02-05)"
   xmlns:inkscape="http://www.inkscape.org/namespaces/inkscape"
   xmlns:sodipodi="http://sodipodi.sourceforge.net/DTD/sodipodi-0.dtd"
   xmlns="http://www.w3.org/2000/svg"
   xmlns:svg="http://www.w3.org/2000/svg"><defs
   id="defs29513"><clipPath
     clipPathUnits="userSpaceOnUse"
     id="clipPath40878"><path
       id="lpe_path-effect40882"
       style="opacity:0.723562;fill:#ffff00;stroke-width:0.755906;stroke-linejoin:round"
       class="powerclip"
       d="m 1129.7502,69.99137 h 142.5788 v 158.26838 h -142.5788 z m 93.721,98.27001 v 4.14353 h 46.7089 v -4.14353 z" /></clipPath><inkscape:path-effect
     effect="powerclip"
     id="path-effect40882"
     is_visible="true"
     lpeversion="1"
     inverse="true"
     flatten="false"
     hide_clip="false"
     message="Use fill-rule evenodd on &lt;b&gt;fill and stroke&lt;/b&gt; dialog if no flatten result after convert clip to paths." /></defs>
<style
   type="text/css"
   id="style29496">
	.st0{fill:#102FF5;stroke:#000000;stroke-width:4.184143e-02;stroke-miterlimit:1.7861;}
	.st1{fill:#102FF5;}
</style>
<sodipodi:namedview
   bordercolor="#666666"
   borderopacity="1.0"
   id="namedview5966"
   inkscape:current-layer="g5989"
   inkscape:cx="139.11811"
   inkscape:cy="94.026046"
   inkscape:document-units="mm"
   inkscape:pagecheckerboard="0"
   inkscape:pageopacity="0.0"
   inkscape:pageshadow="2"
   inkscape:window-height="959"
   inkscape:window-maximized="0"
   inkscape:window-width="2248"
   inkscape:window-x="0"
   inkscape:window-y="25"
   inkscape:zoom="2.4727191"
   pagecolor="#ffffff"
   showgrid="false">
	</sodipodi:namedview>
<g
   id="layer1"
   inkscape:groupmode="layer"
   inkscape:label="Layer 1">
	<g
   id="g5989"
   transform="matrix(0.21003765,0,0,0.21003765,47.240296,51.631912)">
		
		
		
		
		
		
		
		
		
		<path
   id="path2523-4-0"
   style="fill:#ffffff;fill-opacity:1;stroke:#000000;stroke-width:0.00876552;stroke-miterlimit:1.7861"
   class="st0"
   d="M 223.76953 148.66016 L 223.43555 148.68164 C 221.69676 148.78639 220.27166 149.41488 219.28711 150.44141 C 218.90999 150.83944 218.6168 151.23761 218.44922 151.59375 L 218.34375 151.82422 L 218.34375 156.34766 L 218.34375 160.87305 L 217.7793 160.49609 C 216.52236 159.65812 215.1394 159.15479 213.48438 158.94531 C 212.89781 158.86153 211.17889 158.86153 210.61328 158.94531 C 208.64407 159.19669 207.03268 159.86732 205.48242 161.01953 C 203.19896 162.73738 201.64766 165.33557 201.08203 168.45703 C 200.78865 170.00729 200.76722 172.10316 201.06055 173.69531 C 201.5843 176.75393 203.19803 179.53905 205.29297 181.06836 C 206.90597 182.24152 208.47715 182.93327 210.25781 183.22656 C 210.86544 183.35224 212.71015 183.39433 213.44336 183.31055 C 217.77988 182.87061 221.12994 180.79598 222.70117 177.54883 C 223.183 176.56421 223.43508 175.70636 223.64453 174.5332 L 223.72852 173.9668 L 223.75 161.3125 L 223.76953 148.66016 z M 0.068359375 148.86914 L 0.08984375 161.46094 L 0.109375 174.05078 L 0.19335938 174.6582 C 0.63331894 177.31879 1.7224512 179.28729 3.6289062 180.90039 C 5.4514743 182.4297 8.2165604 183.43627 10.960938 183.54102 C 13.768152 183.66671 15.821792 183.12218 18.021484 181.63477 C 19.173694 180.88059 19.761483 180.2932 20.515625 179.30859 C 22.547756 176.58517 23.38453 172.91987 22.839844 169.16992 C 22.295155 165.18954 20.074013 161.94246 16.701172 160.22461 C 14.522426 159.11429 11.569877 158.82127 8.9511719 159.4707 C 7.819907 159.76399 6.792802 160.22415 5.8710938 160.89453 C 5.7034312 161.02022 5.5561012 161.10352 5.5351562 161.10352 C 5.5142155 161.10352 5.515625 159.07252 5.515625 156.55859 L 5.515625 152.01172 L 5.3261719 151.67578 C 4.4672019 150.12552 2.5823729 149.01632 0.52929688 148.89062 L 0.068359375 148.86914 z M 105.81055 148.89062 L 105.47656 148.91211 C 103.73778 149.01686 102.31276 149.64536 101.32812 150.67188 C 100.95109 151.06991 100.65781 151.46807 100.49023 151.82422 L 100.38477 152.05273 L 100.38477 156.57812 L 100.38477 161.10352 L 99.820312 160.72656 C 98.563288 159.88859 97.180386 159.38527 95.525391 159.17578 C 94.938821 159.092 93.219935 159.092 92.654297 159.17578 C 90.685005 159.42717 89.073595 160.09778 87.523438 161.25 C 85.239961 162.96785 83.688678 165.56604 83.123047 168.6875 C 82.829673 170.23776 82.80823 172.33363 83.101562 173.92578 C 83.625314 176.98439 85.239128 179.76953 87.333984 181.29883 C 88.947092 182.472 90.518163 183.16373 92.298828 183.45703 C 92.906366 183.5827 94.749214 183.6248 95.482422 183.54102 C 99.818956 183.10108 103.17095 181.02646 104.74219 177.7793 C 105.22392 176.79467 105.47609 175.93684 105.68555 174.76367 L 105.76953 174.19727 L 105.79102 161.54297 L 105.81055 148.89062 z M 109.7168 148.89062 L 109.73828 161.54297 L 109.75977 174.19727 L 109.84375 174.76367 C 110.05321 175.93684 110.30329 176.79467 110.78516 177.7793 C 112.35637 181.02646 115.70836 183.10108 120.04492 183.54102 C 120.77811 183.6248 122.62295 183.5827 123.23047 183.45703 C 125.01116 183.16373 126.5822 182.472 128.19531 181.29883 C 130.29019 179.76953 131.90205 176.98439 132.42578 173.92578 C 132.71911 172.33363 132.69962 170.23776 132.40625 168.6875 C 131.84062 165.56604 130.28934 162.96785 128.00586 161.25 C 126.45558 160.09778 124.84232 159.42717 122.87305 159.17578 C 122.30741 159.092 120.59048 159.092 120.00391 159.17578 C 118.34889 159.38527 116.96592 159.88859 115.70898 160.72656 L 115.14258 161.10352 L 115.14258 156.57812 L 115.14258 152.05469 L 115.03906 151.82422 C 114.87148 151.46807 114.57828 151.06992 114.20117 150.67188 C 113.21662 149.64536 111.79152 149.01686 110.05273 148.91211 L 109.7168 148.89062 z M 36.435547 160.41211 C 34.612877 160.41211 33.503233 160.60091 32.330078 161.1875 C 31.534044 161.56459 30.674667 162.17158 30.171875 162.69531 C 30.067146 162.77909 29.9833 162.88477 29.941406 162.88477 C 29.920465 162.88477 29.921875 162.42447 29.921875 161.83789 L 29.921875 160.78906 L 27.427734 160.78906 L 24.935547 160.78906 L 24.935547 172.12305 L 24.935547 183.47852 L 27.427734 183.47852 L 29.921875 183.47852 L 29.921875 178.51367 C 29.921875 175.79025 29.941939 173.21337 29.962891 172.77344 C 30.088565 170.6366 30.737874 168.85585 31.869141 167.49414 C 32.330043 166.9285 32.958352 166.42415 33.544922 166.13086 C 34.278218 165.77472 35.010837 165.65039 36.351562 165.65039 L 37.085938 165.65039 L 37.085938 163.03125 L 37.085938 160.41211 L 36.435547 160.41211 z M 47.962891 160.43945 C 47.428677 160.43945 46.900344 160.46521 46.554688 160.51758 C 44.334052 160.83182 42.512629 161.77362 40.941406 163.38672 C 39.391131 164.99983 38.258518 167.38877 37.902344 169.83984 C 37.190092 174.70011 38.802736 179.28845 42.091797 181.86523 C 43.306847 182.82891 44.984546 183.49842 46.597656 183.66602 C 46.828059 183.68696 47.099812 183.72852 47.183594 183.72852 C 47.518828 183.77041 49.110281 183.70737 49.529297 183.64453 C 50.995792 183.43504 52.337482 182.84915 53.46875 181.99023 L 53.636719 181.86523 L 53.636719 182.64062 L 53.636719 183.43555 L 56.128906 183.41406 L 58.621094 183.39453 L 58.642578 172.06055 L 58.664062 160.72656 L 56.150391 160.72656 L 53.634766 160.72656 L 53.636719 160.76953 L 53.636719 161.54297 L 53.636719 162.31836 L 53.53125 162.23438 C 52.064858 161.1869 50.97552 160.74803 49.404297 160.51758 C 49.037701 160.46521 48.497104 160.43945 47.962891 160.43945 z M 73.447266 160.44727 C 73.079671 160.42632 72.704598 160.42889 72.322266 160.45508 C 70.604427 160.58078 69.390293 161.04165 68.154297 161.98438 C 68.007577 162.11007 67.882275 162.19336 67.861328 162.19336 C 67.840381 162.19336 67.839844 161.85898 67.839844 161.46094 L 67.839844 160.76953 L 65.326172 160.76953 L 62.8125 160.76953 L 62.8125 172.10156 C 62.8125 178.32353 62.832561 183.43608 62.853516 183.45703 C 62.874456 183.47797 64.00542 183.47852 65.367188 183.47852 L 67.839844 183.47852 L 67.839844 176.79492 C 67.839844 172.47936 67.859912 169.96482 67.880859 169.73438 C 68.153247 167.57659 69.536885 165.96337 71.443359 165.52344 C 71.946036 165.41869 73.013707 165.41869 73.474609 165.52344 C 74.186862 165.71198 74.710079 166.00502 75.212891 166.50781 C 75.925248 167.22008 76.345679 168.05924 76.576172 169.23242 C 76.639013 169.56761 76.658747 170.25815 76.679688 176.54297 L 76.701172 183.47852 L 79.173828 183.47852 L 81.644531 183.47852 L 81.625 176.22852 L 81.603516 168.95898 L 81.519531 168.35156 C 81.330932 167.1784 81.058021 166.25718 80.576172 165.31445 C 79.612481 163.40806 78.418278 162.15135 76.595703 161.27148 C 75.590098 160.78441 74.55005 160.51012 73.447266 160.44727 z M 144.81836 160.46289 C 143.68614 160.51297 142.54044 160.74791 141.58203 161.125 C 139.38234 162.00488 137.559 163.74332 136.42773 166.00586 C 135.77834 167.30472 135.40086 168.47797 135.19141 169.98633 C 135.10762 170.57291 135.10742 170.80323 135.10742 172.12305 C 135.10742 173.73615 135.12858 174.13508 135.42188 175.37109 C 136.11317 178.4716 137.95802 181.13208 140.36719 182.55664 C 141.3937 183.16417 142.71269 183.60282 143.92773 183.72852 C 144.15814 183.77041 144.42988 183.79297 144.51367 183.79297 C 144.8488 183.83486 146.4409 183.77131 146.88086 183.6875 C 147.46744 183.58275 148.2423 183.39416 148.70312 183.22656 C 149.41547 182.95422 150.29604 182.45077 150.79883 182.05273 L 150.9668 181.92773 L 150.98828 182.70312 L 151.00781 183.47852 L 153.50195 183.49805 L 155.99414 183.51953 L 155.99414 172.16602 L 155.99414 160.76953 L 153.48047 160.76953 L 150.92383 160.76953 L 150.92383 161.54297 C 150.92383 162.2762 150.92558 162.31872 150.8418 162.25586 C 149.24964 161.10365 147.92969 160.6003 145.93945 160.47461 C 145.57286 160.44842 145.19577 160.4462 144.81836 160.46289 z M 167.68164 160.4668 C 165.94636 160.48296 164.18843 160.81568 162.9707 161.41797 C 161.04342 162.36069 159.84967 163.9324 159.47266 166.02734 C 159.36792 166.67678 159.36792 168.10145 159.47266 168.70898 C 159.78685 170.36399 160.62354 171.53633 162.17383 172.5 C 163.09553 173.08658 164.60567 173.6105 166.67969 174.11328 C 169.48691 174.78366 170.40768 175.07799 171.07812 175.45508 C 171.72755 175.85312 171.9375 176.18704 171.9375 176.85742 C 171.9375 177.4021 171.83274 177.65364 171.47656 178.00977 C 170.80619 178.65921 169.69464 178.97461 168.06055 178.97461 C 166.53124 178.97461 165.69501 178.70091 164.91992 177.92578 C 164.64753 177.65344 164.54117 177.50759 164.39453 177.19336 C 164.185 176.73247 164.01738 176.10344 163.93359 175.41211 L 163.89258 174.88867 L 161.35742 174.88867 L 158.82227 174.88867 L 158.82227 175.09766 C 158.82227 175.62139 158.96895 176.9214 159.05273 177.36133 C 159.2203 178.09456 159.36765 178.4715 159.76562 179.26758 C 160.18462 180.10555 160.54092 180.6073 161.14844 181.21484 C 162.63579 182.70225 164.52162 183.54104 166.97266 183.77148 C 167.58016 183.83432 169.31873 183.79277 169.94727 183.70898 C 172.23075 183.41569 173.99006 182.59716 175.20508 181.27734 C 176.42014 179.97848 176.9652 178.34547 176.90234 176.27148 C 176.79761 174.86788 176.52442 173.92568 175.875 173.00391 C 175.58175 172.58492 174.84892 171.85082 174.36719 171.51562 C 173.42443 170.84524 171.9586 170.23843 170.26172 169.86133 C 168.35536 169.40045 166.76189 169.0236 166.38477 168.87695 C 165.84007 168.70935 165.14968 168.35153 164.81445 168.12109 C 164.62595 167.97444 164.52129 167.87072 164.4375 167.70312 C 164.33266 167.47268 164.24858 167.38934 164.26953 167.0332 C 164.29051 166.63516 164.37379 166.50886 164.47852 166.32031 C 164.62515 166.04796 164.81427 165.85847 165.19141 165.66992 C 166.30171 165.10428 168.85844 165.08421 169.96875 165.62891 C 170.30389 165.7965 170.57536 166.02774 170.84766 166.42578 C 171.12005 166.80287 171.22427 167.1366 171.28711 167.74414 C 171.329 167.99552 171.35015 168.26919 171.37109 168.33203 L 171.41406 168.47852 L 173.92773 168.47852 C 176.27404 168.47852 176.44141 168.47831 176.44141 168.39453 C 176.44141 168.18504 176.25228 166.67611 176.18945 166.38281 C 175.8961 164.9373 174.95318 163.34472 173.88477 162.46484 C 172.942 161.66877 171.81041 161.08234 170.6582 160.78906 C 169.75477 160.56124 168.72281 160.4571 167.68164 160.4668 z M 188.7168 160.47461 C 187.79498 160.47461 187.22982 160.5174 186.51758 160.66406 C 182.20198 161.54393 179.1429 165.08382 178.38867 170.04883 C 178.28394 170.65636 178.2832 170.88756 178.2832 172.14453 C 178.2832 173.3596 178.30493 173.61068 178.38867 174.19727 C 178.80767 176.89973 179.83381 179.05808 181.50977 180.79688 C 183.22761 182.57758 185.30253 183.5611 187.81641 183.8125 C 188.34015 183.85439 189.89032 183.83432 190.41406 183.77148 C 192.42525 183.49914 194.05818 182.78733 195.41992 181.57227 C 196.88643 180.25246 197.87043 178.72152 198.6875 176.45898 C 198.87601 175.93525 199.04492 175.47603 199.04492 175.45508 C 199.04492 175.41319 198.39442 175.41211 196.4043 175.41211 L 193.76562 175.41211 L 193.51367 175.89453 C 193.1576 176.60681 192.88461 176.983 192.42383 177.46484 C 191.48107 178.44946 190.64467 178.80629 189.19922 178.86914 C 188.10987 178.91103 187.37611 178.78531 186.58008 178.4082 C 185.55353 177.92637 184.65158 177.00538 184.08594 175.91602 C 183.87638 175.49702 183.58398 174.7214 183.58398 174.5957 L 183.58398 174.51172 L 191.37695 174.40625 L 199.16992 174.40625 L 199.14844 172.5625 C 199.12744 171.17985 199.10785 170.5724 199.04492 170.19531 C 198.83546 168.62411 198.45857 167.45121 197.83008 166.15234 C 197.0969 164.64399 196.06944 163.38804 194.8125 162.44531 C 192.969 161.06265 191.14689 160.47461 188.7168 160.47461 z M 212.51758 164.16211 C 213.00728 164.16735 213.49507 164.20473 213.79883 164.26758 C 214.97199 164.51897 215.89396 165.042 216.71094 165.92188 C 218.1146 167.45118 218.76384 170.00809 218.38672 172.54297 C 218.13535 174.15607 217.50654 175.51679 216.54297 176.48047 C 215.62115 177.40224 214.61611 177.88514 213.27539 178.05273 C 212.91922 178.11558 211.76722 178.09408 211.36914 178.03125 C 210.1122 177.8427 209.1268 177.33974 208.20508 176.41797 C 207.13666 175.34955 206.50839 173.88279 206.29883 172.12305 C 206.23601 171.51551 206.27755 170.11303 206.36133 169.56836 C 206.67561 167.9762 207.28294 166.73907 208.26758 165.77539 C 209.12645 164.93741 210.00759 164.47653 211.22266 164.24609 C 211.53688 164.18324 212.02787 164.15687 212.51758 164.16211 z M 94.558594 164.39258 C 95.048288 164.39781 95.536031 164.4352 95.839844 164.49805 C 97.013001 164.74944 97.934877 165.27247 98.751953 166.15234 C 100.1555 167.68165 100.80474 170.23857 100.42773 172.77344 C 100.17628 174.38654 99.547677 175.74727 98.583984 176.71094 C 97.662285 177.63271 96.657131 178.11561 95.316406 178.2832 C 94.960233 178.34604 93.808218 178.32455 93.410156 178.26172 C 92.153215 178.07317 91.167794 177.5702 90.246094 176.64844 C 89.177674 175.58002 88.549293 174.11326 88.339844 172.35352 C 88.276994 171.74598 88.318579 170.34351 88.402344 169.79883 C 88.71664 168.20667 89.323933 166.96953 90.308594 166.00586 C 91.167446 165.16789 92.048638 164.707 93.263672 164.47656 C 93.577911 164.41371 94.068899 164.38734 94.558594 164.39258 z M 120.9707 164.39258 C 121.46041 164.38734 121.9514 164.41371 122.26562 164.47656 C 123.48068 164.707 124.36182 165.16789 125.2207 166.00586 C 126.20536 166.96953 126.81268 168.20667 127.12695 169.79883 C 127.21074 170.34351 127.25229 171.74598 127.18945 172.35352 C 126.97988 174.11326 126.35163 175.58002 125.2832 176.64844 C 124.36148 177.5702 123.37608 178.07317 122.11914 178.26172 C 121.72108 178.32455 120.56906 178.34604 120.21289 178.2832 C 118.87217 178.11561 117.86713 177.63271 116.94531 176.71094 C 115.98173 175.74727 115.35293 174.38654 115.10156 172.77344 C 114.72445 170.23857 115.37368 167.68165 116.77734 166.15234 C 117.59432 165.27247 118.5163 164.74944 119.68945 164.49805 C 119.99322 164.4352 120.481 164.39781 120.9707 164.39258 z M 11.429688 164.46094 C 11.87224 164.46094 12.312888 164.48669 12.595703 164.53906 C 13.76886 164.74855 14.689961 165.21031 15.548828 166.02734 C 16.093517 166.55108 16.471509 167.05423 16.806641 167.72461 C 17.414164 168.96063 17.707701 170.44671 17.582031 171.95508 C 17.435309 173.98717 16.784822 175.53831 15.548828 176.73242 C 14.64797 177.59136 13.747911 178.05169 12.595703 178.24023 C 11.757678 178.36594 10.773772 178.34586 10.019531 178.19922 C 8.385472 177.86403 7.0031685 176.77433 6.2070312 175.20312 C 4.9500924 172.71014 5.1174889 169.08553 6.5839844 166.92773 C 7.4848485 165.58697 8.7206718 164.79046 10.25 164.53906 C 10.543289 164.48669 10.987135 164.46094 11.429688 164.46094 z M 48.306641 165.35352 C 49.093189 165.35842 49.859849 165.50828 50.472656 165.77539 C 51.08018 166.04773 51.87611 166.71775 52.378906 167.36719 C 53.028325 168.22612 53.467637 169.44191 53.65625 170.76172 C 53.74003 171.2226 53.761182 171.53737 53.740234 172.3125 C 53.719296 173.40186 53.636213 173.90421 53.384766 174.74219 C 52.798189 176.75333 51.436692 178.19873 49.71875 178.63867 C 49.341732 178.72245 49.152242 178.76367 48.460938 178.76367 C 47.62301 178.78461 47.329839 178.74235 46.785156 178.5957 C 44.313171 177.92532 42.701172 175.30771 42.701172 172.06055 C 42.701172 168.45726 44.670321 165.75457 47.519531 165.39844 C 47.781375 165.36701 48.044458 165.35188 48.306641 165.35352 z M 188.26953 165.38672 C 188.7003 165.35562 189.14529 165.37137 189.5957 165.43945 C 191.16693 165.66991 192.31931 166.53017 193.19922 168.01758 C 193.3668 168.31087 193.76616 169.23315 193.78711 169.33789 C 193.78711 169.35883 191.50306 169.35742 188.7168 169.35742 L 183.64648 169.35742 L 183.75195 169.04297 C 184.02427 168.30974 184.52651 167.45236 185.0293 166.88672 C 185.81492 166.00684 186.97722 165.48001 188.26953 165.38672 z M 145.37305 165.41992 C 146.96522 165.35708 148.159 165.79628 149.18555 166.84375 C 150.25397 167.91216 150.88258 169.50483 151.0293 171.45312 C 151.17591 172.96149 150.86141 174.70042 150.25391 175.89453 C 149.47881 177.44479 148.18105 178.45031 146.63086 178.72266 C 146.14902 178.80644 145.0999 178.80644 144.57617 178.72266 C 143.54963 178.55506 142.52369 177.98943 141.76953 177.19336 C 139.88414 175.16126 139.4453 171.32781 140.74414 168.5625 C 141.12126 167.76642 141.60148 167.11607 142.20898 166.61328 C 143.1726 165.8172 144.07421 165.46182 145.37305 165.41992 z "
   transform="matrix(4.7610512,0,0,4.7610512,-224.91347,-245.82218)" />
	</g>
	
		<path
   id="path48515"
   inkscape:export-filename="/Users/livesigned/Documents/Lach/brandbased/brandbased-poster.png"
   inkscape:export-xdpi="65.450974"
   inkscape:export-ydpi="65.450974"
   class="st1"
   d="   M106.5,120.1c-7.3-0.4-14.9-2.9-21.1-6.9c-9.9-6.5-16.2-16.5-17.5-27.9c-0.2-1.7-0.2-6.7-0.2-43.6V0h0.7c1.7,0,5.1,0.3,6.4,0.6   c7.9,1.6,13.9,6.6,15.5,12.9c0.2,0.9,0.2,3.5,0.3,28.9l0.1,27.9l0.8,4.1c0.6,2.7,0.8,4.2,0.7,4.3c-0.1,0.1-2.4,1.7-5.1,3.5   c-2.8,1.8-7.2,4.8-10,6.6c-2.8,1.8-4.9,3.3-4.8,3.4c0.1,0,0.5,0.1,1,0.2c5.2,0.6,23.8,3,23.9,3c0.1,0.1,1.8,4.5,3.8,9.8   c4.6,12.1,4.3,11.3,4.4,11.3c0,0,2.5-4.5,5.6-10c3-5.5,5.5-10,5.6-10c0.1,0,5.8-0.1,12.7-0.2c6.9-0.1,12.6-0.2,12.6-0.2   c0,0-1.5-1.4-3.3-3c-1.9-1.6-6-5.1-9.1-7.8l-5.7-4.9l3.7-10.6c2.1-5.8,3.7-10.7,3.7-10.7c0-0.1-5.6,2.5-21.6,10l-0.8,0.4l-8-5   l0-10.6c0-5.8,0.1-10.7,0.1-10.7c0.1-0.1,2.6-0.5,4.4-0.7c2.2-0.2,6.3-0.2,8.6,0.1c5.4,0.6,10.2,2,15.2,4.5   c6.3,3.2,11.4,7.7,15.2,13.4c3.3,5,5.2,9.8,6.1,15.9c0.3,2.1,0.3,7.5,0,9.6c-1,6.7-3.5,12.7-7.6,18c-1.3,1.7-5,5.5-6.7,6.8   c-5.5,4.4-12.2,7.3-19.3,8.6C113.8,120.1,109.9,120.3,106.5,120.1L106.5,120.1z"
   style="fill:#ffffff" />
</g>
</svg>
