<?xml version="1.0" encoding="UTF-8" standalone="no"?>
<svg
   version="1.1"
   id="Layer_1"
   x="0px"
   y="0px"
   viewBox="0 0 122.23 122.88"
   style="enable-background:new 0 0 122.23 122.88"
   xml:space="preserve"
   sodipodi:docname="theme-design.svg"
   inkscape:version="1.1.2 (b8e25be8, 2022-02-05)"
   xmlns:inkscape="http://www.inkscape.org/namespaces/inkscape"
   xmlns:sodipodi="http://sodipodi.sourceforge.net/DTD/sodipodi-0.dtd"
   xmlns="http://www.w3.org/2000/svg"
   xmlns:svg="http://www.w3.org/2000/svg"><defs
     id="defs156818" /><sodipodi:namedview
     id="namedview156816"
     pagecolor="#ffffff"
     bordercolor="#666666"
     borderopacity="1.0"
     inkscape:pageshadow="2"
     inkscape:pageopacity="0.0"
     inkscape:pagecheckerboard="0"
     showgrid="false"
     inkscape:zoom="6.0628257"
     inkscape:cx="61.192589"
     inkscape:cy="61.522468"
     inkscape:window-width="1296"
     inkscape:window-height="958"
     inkscape:window-x="0"
     inkscape:window-y="25"
     inkscape:window-maximized="0"
     inkscape:current-layer="Layer_1" /><style
     type="text/css"
     id="style156809">.st0{fill-rule:evenodd;clip-rule:evenodd;}</style><g
     id="g156813"
     style="fill:#ffffff"><path
       class="st0"
       d="M122.23,12.35v10.54c0,1.29-1.21,2.35-2.69,2.35H77.85c-2.84,5.92-8.89,10.01-15.9,10.01 c-7,0-13.05-4.09-15.89-10.01H2.69C1.22,25.24,0,24.18,0,22.89V12.35C0,11.06,1.21,10,2.69,10h43.37c2.84-5.92,8.89-10,15.89-10 c7,0,13.05,4.09,15.89,10h41.69C121.02,10,122.23,11.06,122.23,12.35L122.23,12.35L122.23,12.35z M49.57,112.88 c-2.84,5.92-8.89,10-15.9,10c-7,0-13.05-4.08-15.89-10l-15.09,0c-1.48,0-2.69-1.06-2.69-2.35V99.99c0-1.29,1.21-2.35,2.69-2.35 l15.09,0c2.84-5.92,8.89-10.01,15.89-10.01c7,0,13.05,4.09,15.89,10.01h69.97c1.48,0,2.69,1.06,2.69,2.35v10.54 c0,1.29-1.22,2.35-2.69,2.35L49.57,112.88L49.57,112.88z M104.12,69.73c-2.84,5.92-8.89,10.01-15.89,10.01 c-7,0-13.05-4.09-15.9-10.01H2.69C1.22,69.73,0,68.67,0,67.38V56.85c0-1.29,1.21-2.35,2.69-2.35h69.64c2.84-5.92,8.89-10,15.89-10 c7,0,13.05,4.09,15.89,10h15.42c1.48,0,2.69,1.06,2.69,2.35v10.53c0,1.29-1.21,2.35-2.69,2.35H104.12L104.12,69.73z"
       id="path156811"
       style="fill:#ffffff" /></g></svg>
