<?xml version="1.0" encoding="UTF-8" standalone="no"?>
<svg
   viewBox="0 0 333333 333333"
   shape-rendering="geometricPrecision"
   text-rendering="geometricPrecision"
   image-rendering="optimizeQuality"
   fill-rule="evenodd"
   clip-rule="evenodd"
   version="1.1"
   id="svg116072"
   sodipodi:docname="youtube-color-icon.svg"
   xmlns:inkscape="http://www.inkscape.org/namespaces/inkscape"
   xmlns:sodipodi="http://sodipodi.sourceforge.net/DTD/sodipodi-0.dtd"
   xmlns="http://www.w3.org/2000/svg"
   xmlns:svg="http://www.w3.org/2000/svg">
  <defs
     id="defs116076" />
  <sodipodi:namedview
     id="namedview116074"
     pagecolor="#ffffff"
     bordercolor="#666666"
     borderopacity="1.0"
     inkscape:pageshadow="2"
     inkscape:pageopacity="0.0"
     inkscape:pagecheckerboard="0"
     showgrid="false" />
  <path
     d="m 295.93731,345.52641 c 0,0 -2.9286,-20.67836 -11.94208,-29.75844 C 272.57335,303.82589 259.78438,303.74939 253.93799,303.05639 211.98997,300 148.9856,300 148.9856,300 h -0.1098 c 0,0 -62.975574,0 -104.94699,3.05639 -5.869788,0.7137 -18.640763,0.7632 -30.05724,12.71158 -9.0197817,9.08008 -11.886276,29.75844 -11.886276,29.75844 0,0 -2.985294,24.26575 -2.985294,48.5828 v 22.73846 c 0,24.26575 2.983494,48.581 2.983494,48.581 0,0 2.9285942,20.67836 11.886276,29.77374 11.416477,11.94208 26.420347,11.55418 33.118134,12.82857 24.016452,2.2923 102.018396,2.9835 102.018396,2.9835 0,0 63.05837,-0.1116 105.00729,-3.1113 5.86979,-0.69299 18.63536,-0.76319 30.05724,-12.71157 9.01888,-9.08008 11.94208,-29.78094 11.94208,-29.78094 0,0 2.98709,-24.26575 2.98709,-48.581 v -22.73666 c -0.0603,-24.26575 -3.04559,-48.581 -3.04559,-48.581 l -0.0162,0.0162 -0.002,-0.002 z m -178.02595,98.9071 V 360.12078 L 198.9526,402.418 Z"
     fill="#ff0000"
     id="path116070"
     style="stroke-width:0.000899998" />
</svg>
