<?xml version="1.0" encoding="UTF-8" standalone="no"?>
<svg
   width="139.42621"
   height="51.662472"
   viewBox="0 0 139.42621 51.662472"
   fill="none"
   version="1.1"
   id="svg6619"
   sodipodi:docname="MECCA.svg"
   inkscape:version="1.1.2 (b8e25be8, 2022-02-05)"
   xmlns:inkscape="http://www.inkscape.org/namespaces/inkscape"
   xmlns:sodipodi="http://sodipodi.sourceforge.net/DTD/sodipodi-0.dtd"
   xmlns="http://www.w3.org/2000/svg"
   xmlns:svg="http://www.w3.org/2000/svg">
  <defs
     id="defs6623" />
  <sodipodi:namedview
     id="namedview6621"
     pagecolor="#ffffff"
     bordercolor="#666666"
     borderopacity="1.0"
     inkscape:pageshadow="2"
     inkscape:pageopacity="0.0"
     inkscape:pagecheckerboard="0"
     showgrid="false"
     fit-margin-top="0"
     fit-margin-left="0"
     fit-margin-right="0"
     fit-margin-bottom="0"
     inkscape:zoom="2.3854167"
     inkscape:cx="83.633188"
     inkscape:cy="-10.899563"
     inkscape:window-width="1296"
     inkscape:window-height="958"
     inkscape:window-x="0"
     inkscape:window-y="25"
     inkscape:window-maximized="0"
     inkscape:current-layer="svg6619" />
  <rect
     style="fill:#ce2b24;fill-opacity:1;stroke-width:0.763371;stroke-linejoin:round"
     id="rect8588"
     width="139.42621"
     height="51.662472"
     x="0"
     y="0" />
  <path
     d="m 123.03078,32.707619 h -8.468 l -1.635,3.9049 h -4.3595 l 9.5175,-20.96345 h 1.426 l 9.517,20.95725 h -4.36 z m -1.678,-3.9831 -2.555,-5.74503 -2.557,5.74503 z m -101.422908,2.6835 6.9181,-6.7931 v 11.9914 h 3.9831 v -20.9635 h -1.4246 l -9.4766,9.6437 -9.475,-9.6437 H 9.0287723 v 20.9635 h 3.9830797 v -11.9914 z m 63.8949,-5.2842 c 0.0053,2.9342 1.1733,5.7468 3.2482,7.8216 2.0748,2.0748 4.8873,3.2428 7.8216,3.2482 5.198298,0 9.937398,-3.8566 10.816798,-9.0143 l -4.3174,0.0422 c -1.1324,3.3114 -3.858098,4.7797 -6.499398,4.7797 -3.905,0 -6.8728,-2.935 -6.8728,-6.8728 0,-3.93773 2.9678,-6.87272 6.8728,-6.87272 2.6413,0 5.366998,1.46828 6.499398,4.7797 l 4.3174,0.04222 c -0.8794,-5.15462 -5.6232,-9.0143 -10.816798,-9.0143 -2.9326,0.0054 -5.7438,1.17208 -7.8183,3.24489 -2.0746,2.07281 -3.2437,4.88294 -3.2515,7.81561 z m -27.0444,0 c 0.0054,2.9342 1.1734,5.7468 3.2482,7.8216 2.0749,2.0748 4.8874,3.2428 7.8217,3.2482 5.1998,0 9.9374,-3.8566 10.8168,-9.0143 l -4.3174,0.0422 c -1.1324,3.3114 -3.8581,4.7797 -6.4994,4.7797 -3.905,0 -6.8728,-2.935 -6.8728,-6.8728 0,-3.93773 2.9772,-6.87272 6.8728,-6.87272 2.6413,0 5.367,1.46828 6.4994,4.7797 l 4.3174,0.04222 c -0.8794,-5.15462 -5.6232,-9.0143 -10.8168,-9.0143 -2.9318,0.0066 -5.7418,1.17386 -7.8153,3.24654 -2.0736,2.07268 -3.242,4.8821 -3.2499,7.81396 z m -14.6327,1.929 h 8.6378 v -3.8565 h -8.6378 v -4.69694 h 9.0596 v -3.85656 h -13.038 v 20.9635 h 13.7112 v -3.8144 h -9.7281 z"
     fill="#000000"
     id="path6617"
     style="fill:#ffffff" />
</svg>
