<?xml version="1.0" encoding="UTF-8" standalone="no"?>
<!-- Created with Inkscape (http://www.inkscape.org/) -->

<svg
   width="22.544264mm"
   height="22.544264mm"
   viewBox="0 0 22.544264 22.544264"
   version="1.1"
   id="svg5964"
   inkscape:version="1.1.2 (b8e25be8, 2022-02-05)"
   sodipodi:docname="BB-Favicon.svg"
   xmlns:inkscape="http://www.inkscape.org/namespaces/inkscape"
   xmlns:sodipodi="http://sodipodi.sourceforge.net/DTD/sodipodi-0.dtd"
   xmlns:xlink="http://www.w3.org/1999/xlink"
   xmlns="http://www.w3.org/2000/svg"
   xmlns:svg="http://www.w3.org/2000/svg">
  <sodipodi:namedview
     id="namedview5966"
     pagecolor="#ffffff"
     bordercolor="#666666"
     borderopacity="1.0"
     inkscape:pageshadow="2"
     inkscape:pageopacity="0.0"
     inkscape:pagecheckerboard="0"
     inkscape:document-units="mm"
     showgrid="false"
     inkscape:zoom="3.7543719"
     inkscape:cx="-14.250053"
     inkscape:cy="81.638156"
     inkscape:window-width="1312"
     inkscape:window-height="961"
     inkscape:window-x="185"
     inkscape:window-y="25"
     inkscape:window-maximized="0"
     inkscape:current-layer="layer1"
     fit-margin-top="0"
     fit-margin-left="0"
     fit-margin-right="0"
     fit-margin-bottom="0" />
  <defs
     id="defs5961">
    <linearGradient
       id="b">
      <stop
         offset="0"
         stop-color="#3771c8"
         id="stop7083" />
      <stop
         stop-color="#3771c8"
         offset=".128"
         id="stop7085" />
      <stop
         offset="1"
         stop-color="#60f"
         stop-opacity="0"
         id="stop7087" />
    </linearGradient>
    <linearGradient
       id="a">
      <stop
         offset="0"
         stop-color="#fd5"
         id="stop7090" />
      <stop
         offset=".1"
         stop-color="#fd5"
         id="stop7092" />
      <stop
         offset=".5"
         stop-color="#ff543e"
         id="stop7094" />
      <stop
         offset="1"
         stop-color="#c837ab"
         id="stop7096" />
    </linearGradient>
    <radialGradient
       id="c"
       cx="158.429"
       cy="578.08801"
       r="65"
       xlink:href="#a"
       gradientUnits="userSpaceOnUse"
       gradientTransform="matrix(0,-1.98198,1.8439,0,-1031.402,454.004)"
       fx="158.429"
       fy="578.08801" />
    <radialGradient
       id="d"
       cx="147.694"
       cy="473.45499"
       r="65"
       xlink:href="#b"
       gradientUnits="userSpaceOnUse"
       gradientTransform="matrix(0.17394,0.86872,-3.5818,0.71718,1648.348,-458.493)"
       fx="147.694"
       fy="473.45499" />
  </defs>
  <g
     inkscape:label="Layer 1"
     inkscape:groupmode="layer"
     id="layer1"
     transform="translate(-29.105513,-13.389945)">
    <rect
       style="opacity:0;fill:#000000;stroke:none;stroke-width:0.312709;stroke-linejoin:round"
       id="rect5943"
       width="22.544264"
       height="22.544264"
       x="29.105513"
       y="13.389945" />
    <path
       d="m 40.515569,35.578715 c -1.318222,-0.06905 -2.709223,-0.528151 -3.82589,-1.261305 -1.796856,-1.180462 -2.935875,-2.995287 -3.174268,-5.05749 -0.03592,-0.307726 -0.04055,-1.219167 -0.04055,-7.915969 v -7.567019 h 0.122308 c 0.317631,5.08e-4 0.923193,0.05667 1.16804,0.105265 1.442134,0.289768 2.525636,1.192225 2.807105,2.339297 0.03869,0.158471 0.04419,0.640794 0.05667,5.245681 l 0.01358,5.070863 0.152939,0.745134 c 0.10066,0.492923 0.144881,0.757581 0.12876,0.781765 -0.01266,0.01981 -0.432801,0.305889 -0.933094,0.635269 -0.500292,0.329379 -1.315454,0.865604 -1.811368,1.19222 -0.504665,0.331916 -0.887946,0.600951 -0.870898,0.609931 0.01703,0.0083 0.09443,0.02352 0.17275,0.03252 0.938395,0.108022 4.325951,0.538982 4.339535,0.552346 0.0099,0.0099 0.319485,0.808013 0.688249,1.773587 0.836819,2.189806 0.782918,2.051387 0.800881,2.05046 0.009,0 0.462519,-0.813324 1.007718,-1.807687 0.545214,-0.994128 1.001506,-1.812978 1.013021,-1.82012 0.01173,-0.0071 1.045502,-0.02419 2.297149,-0.03782 1.250731,-0.01358 2.279181,-0.02881 2.285402,-0.03499 0.0052,-0.0052 -0.266274,-0.246693 -0.604637,-0.535535 -0.338363,-0.288847 -1.080507,-0.922958 -1.649212,-1.408966 l -1.034664,-0.883573 0.678338,-1.929068 c 0.373374,-1.060698 0.6765,-1.935285 0.673969,-1.94427 -0.0052,-0.01358 -1.016712,0.457908 -3.91665,1.8238 l -0.143034,0.0675 -1.457572,-0.914211 0.0071,-1.929984 c 0.0047,-1.061623 0.01338,-1.936212 0.02166,-1.943353 0.01889,-0.01981 0.479556,-0.08822 0.795351,-0.119771 0.390422,-0.03782 1.13625,-0.03154 1.566289,0.01358 0.986296,0.103423 1.859047,0.362549 2.758741,0.820461 1.146382,0.582289 2.063124,1.38916 2.761272,2.430277 0.603715,0.899695 0.943921,1.781425 1.112986,2.890038 0.05941,0.389491 0.06033,1.361281 5.09e-4,1.750093 -0.183578,1.218941 -0.640569,2.307738 -1.376491,3.275848 -0.234941,0.31049 -0.907069,0.993438 -1.221021,1.241758 -1.002417,0.793513 -2.208,1.331544 -3.496501,1.560989 -0.547051,0.0972 -1.247963,0.134972 -1.875862,0.102502 z"
       style="fill:#102ff5;fill-opacity:1;fill-rule:nonzero;stroke:none;stroke-width:0.230337;stroke-linecap:butt;stroke-linejoin:round"
       id="path48515"
       inkscape:export-filename="/Users/livesigned/Documents/Lach/brandbased/brandbased-poster.png"
       inkscape:export-xdpi="65.450974"
       inkscape:export-ydpi="65.450974" />
  </g>
</svg>
