<?xml version="1.0" encoding="UTF-8" standalone="no"?>
<!-- Created with Inkscape (http://www.inkscape.org/) -->

<svg
   width="226.74821mm"
   height="230.42662mm"
   viewBox="0 0 226.74821 230.42662"
   version="1.1"
   id="svg11251"
   inkscape:version="1.1.2 (b8e25be8, 2022-02-05)"
   sodipodi:docname="BB-Product-Image-Placeholder.svg"
   xmlns:inkscape="http://www.inkscape.org/namespaces/inkscape"
   xmlns:sodipodi="http://sodipodi.sourceforge.net/DTD/sodipodi-0.dtd"
   xmlns="http://www.w3.org/2000/svg"
   xmlns:svg="http://www.w3.org/2000/svg">
  <sodipodi:namedview
     id="namedview11253"
     pagecolor="#ffffff"
     bordercolor="#666666"
     borderopacity="1.0"
     inkscape:pageshadow="2"
     inkscape:pageopacity="0.0"
     inkscape:pagecheckerboard="0"
     inkscape:document-units="mm"
     showgrid="false"
     fit-margin-top="0"
     fit-margin-left="0"
     fit-margin-right="0"
     fit-margin-bottom="0"
     inkscape:zoom="0.4692965"
     inkscape:cx="399.5342"
     inkscape:cy="575.32925"
     inkscape:window-width="1312"
     inkscape:window-height="958"
     inkscape:window-x="0"
     inkscape:window-y="25"
     inkscape:window-maximized="0"
     inkscape:current-layer="layer1" />
  <defs
     id="defs11248" />
  <g
     inkscape:label="Layer 1"
     inkscape:groupmode="layer"
     id="layer1"
     transform="translate(-240.7664,296.73652)">
    <rect
       style="fill:#f9f9f9;stroke-width:0.2;stroke-linejoin:round"
       id="rect15273"
       width="232.41745"
       height="236.40402"
       x="240.36774"
       y="-297.53384" />
    <path
       style="fill:#666666;stroke-width:0.183537"
       d="m 287.00286,-101.83076 c -0.10184,-0.12618 -0.64079,-1.13792 -1.19752,-2.24832 -0.61356,-1.22372 -1.33275,-2.35116 -1.82593,-2.86243 -0.55168,-0.57192 -1.02678,-1.35264 -1.47561,-2.42486 -2.27852,-5.44304 -5.95488,-18.74122 -7.74766,-28.02479 -0.56703,-2.9363 -1.37828,-9.2091 -1.37828,-10.65727 0,-2.03885 0.88506,-3.80993 3.55827,-7.12049 l 1.23922,-1.53466 -0.42571,-0.45329 c -0.41586,-0.44281 -0.42425,-0.52389 -0.36298,-3.50704 0.0734,-3.56994 0.18048,-3.89272 1.75982,-5.30038 2.17233,-1.93615 10.39562,-6.08538 14.68815,-7.41123 3.27331,-1.011 4.25041,-0.88217 6.15187,0.81109 0.69607,0.61988 1.68087,1.48217 2.18842,1.91624 0.66334,0.56726 0.95626,0.96724 1.04163,1.42241 l 0.11881,0.63322 2.59498,0.002 c 2.98193,0.002 4.56234,0.21325 5.77701,0.77373 3.02632,1.3964 12.50991,13.69072 21.13419,27.3979 2.72211,4.32644 4.20734,7.3411 4.34233,8.81386 0.0749,0.81646 0.35689,1.63041 1.10248,3.18146 0.55107,1.14636 0.9767,2.26136 0.94584,2.47775 -0.0394,0.27634 -0.82106,0.9003 -2.62561,2.09591 -1.41326,0.93637 -2.77259,1.75491 -3.02077,1.81901 -0.38113,0.0984 -0.6006,-0.0478 -1.41283,-0.94159 -0.52891,-0.58199 -1.23436,-1.45425 -1.56769,-1.93837 -0.33334,-0.48411 -0.95257,-1.09965 -1.37605,-1.36784 -0.84295,-0.53384 -2.43303,-2.17732 -3.37317,-3.48643 -0.32937,-0.45864 -0.61903,-0.81339 -0.64368,-0.78832 -0.0246,0.0251 0.1523,0.62373 0.39323,1.33034 0.24093,0.70663 0.4402,1.59307 0.4428,1.96989 0.003,0.37682 0.41768,1.78701 0.92242,3.13372 0.50474,1.34674 0.91769,2.65405 0.91769,2.90515 0,0.65969 -0.56191,1.16827 -2.06825,1.87198 -0.72995,0.341 -5.70456,2.66368 -11.05469,5.16148 -5.35011,2.49783 -11.04896,5.16044 -12.66408,5.91694 -3.89666,1.82515 -3.73498,1.86158 -5.45479,-1.22886 -0.70218,-1.26182 -1.55012,-2.5833 -1.88424,-2.9366 -0.33414,-0.35332 -0.86912,-1.16693 -1.18882,-1.80806 -0.31972,-0.64112 -0.60887,-1.13669 -0.64257,-1.10124 -0.0337,0.0355 0.0512,0.64261 0.18882,1.34923 0.13752,0.7066 0.25311,2.28741 0.25682,3.51289 0.005,1.48702 0.12883,2.82153 0.37381,4.01214 0.44918,2.18304 0.45465,2.52648 0.0458,2.89032 -0.38903,0.3462 -5.43586,1.97335 -6.1209,1.97335 -0.26808,0 -0.57076,-0.10322 -0.67267,-0.22942 z m 3.87661,-1.55239 c 1.19691,-0.3721 2.21357,-0.77387 2.25921,-0.89283 0.085,-0.22138 -0.57076,-3.89174 -0.72234,-4.04332 -0.0804,-0.0804 -6.3792,1.90441 -6.54797,2.06322 -0.045,0.0424 0.32644,0.90675 0.82543,1.92089 1.05675,2.14779 0.64243,2.05355 4.18567,0.95204 z m -3.55309,-4.3566 c 1.06011,-0.34777 2.66116,-0.85167 3.55788,-1.1198 l 1.63039,-0.48748 -0.0961,-2.138 c -0.14656,-3.26426 -1.36633,-7.77974 -3.15372,-11.67488 -0.74292,-1.61903 -2.56253,-5.58664 -4.04353,-8.81689 -1.48102,-3.23027 -3.02184,-6.43222 -3.42404,-7.11546 -1.04064,-1.76777 -3.31008,-4.53468 -5.34138,-6.51221 -1.71586,-1.67046 -2.16039,-1.96386 -2.16039,-1.42588 0,0.71923 0.97804,7.35791 1.4753,10.01379 1.62642,8.68711 5.58883,22.91014 7.67856,27.56221 0.54851,1.22105 1.38163,2.3469 1.73671,2.3469 0.11701,0 1.08013,-0.28454 2.14024,-0.6323 z m 19.85971,-3.88675 c 19.76863,-9.20302 19.78475,-9.21082 19.78475,-9.56287 0,-0.15678 -0.34021,-1.2196 -0.75602,-2.36182 l -0.75604,-2.07677 -1.03346,0.51985 c -0.5684,0.28594 -5.99258,2.83439 -12.05374,5.6633 -17.28584,8.06765 -16.14168,7.49092 -15.8277,7.97839 0.14627,0.22709 0.58202,0.99105 0.96832,1.69767 0.74123,1.35586 1.15545,1.92713 1.39727,1.92713 0.0806,0 3.80505,-1.70318 8.27662,-3.78488 z m -9.69207,-1.83338 c 0.76756,-0.36453 1.39558,-0.70072 1.39558,-0.74711 0,-0.0464 -0.31363,-0.47084 -0.69694,-0.9432 -1.54697,-1.90635 -2.90654,-3.62437 -3.03568,-3.83597 -0.0752,-0.12326 0.092,-0.94918 0.3716,-1.83541 0.44088,-1.39746 0.50885,-1.91572 0.51226,-3.9055 0.003,-1.58397 -0.10712,-2.8235 -0.35472,-4.00385 -0.31085,-1.4818 -0.32308,-1.73193 -0.0919,-1.87698 0.25293,-0.15861 6.44525,-3.07859 12.98726,-6.12412 1.64609,-0.76632 3.1436,-1.3933 3.32778,-1.3933 0.18418,0 0.56747,0.30971 0.85175,0.68826 2.01794,2.68695 4.21085,4.59344 6.57605,5.71715 l 1.54305,0.7331 0.28082,1.24861 c 0.15444,0.68674 0.42593,2.01304 0.60331,2.94734 0.37036,1.95087 0.21754,1.89554 2.32294,0.84079 l 1.24608,-0.62425 -0.11914,-0.68233 c -0.22863,-1.30924 -3.9471,-10.01573 -7.7774,-18.21017 -4.14619,-8.87025 -5.15911,-12.46296 -5.20906,-18.47596 l -0.0216,-2.59995 -0.50774,-0.29992 c -0.94284,-0.55694 -2.86921,-0.82571 -5.94195,-0.82904 l -2.9523,-0.003 -1.9419,2.61542 c -1.06804,1.43847 -2.5138,3.23484 -3.21283,3.99194 -0.7468,0.80878 -1.23628,1.49006 -1.18684,1.65183 0.0463,0.15143 1.32583,2.94289 2.84346,6.20325 2.69381,5.78724 2.95358,6.55336 2.11261,6.23066 -0.13671,-0.0525 -1.47124,-2.72703 -2.96559,-5.94346 -1.49436,-3.21645 -2.74872,-5.88038 -2.78746,-5.91988 -0.0388,-0.0395 -0.42412,0.21801 -0.85643,0.57224 -1.18381,0.97004 -2.11203,1.40308 -3.29433,1.53683 -0.58743,0.0664 -1.06807,0.18246 -1.06807,0.25775 0,0.0753 0.29879,0.78732 0.66395,1.58225 3.49461,7.60741 4.65865,10.24187 4.65865,10.54347 0,0.19838 -0.12586,0.35404 -0.28627,0.35404 -0.30057,0 -1.59345,-2.59449 -4.49387,-9.01816 l -1.54434,-3.4203 -5.09084,-0.0122 -5.09085,-0.0123 -1.21651,1.41357 c -1.62321,1.88616 -3.27764,4.41548 -3.56912,5.45654 l -0.23654,0.84484 0.7155,0.5762 c 1.45463,1.17142 4.00602,3.76318 5.37151,5.45649 1.67817,2.08109 2.80589,3.96222 4.13907,6.90447 0.54345,1.19936 1.72565,3.79118 2.6271,5.75962 0.90145,1.96844 2.16831,4.73527 2.81525,6.14851 1.96738,4.29786 4.95184,10.25335 5.35757,10.69107 0.21054,0.22713 0.4837,0.41296 0.60705,0.41296 0.12334,0 0.85228,-0.29825 1.61984,-0.66276 z m 5.74547,-2.71588 c 1.79679,-0.84879 6.56796,-3.08303 10.60256,-4.96496 4.03462,-1.88195 7.35436,-3.44041 7.3772,-3.46325 0.0229,-0.0227 -0.20806,-1.32159 -0.51312,-2.88608 l -0.55468,-2.84457 -1.49992,-0.77328 c -2.57369,-1.32682 -4.70008,-3.17125 -6.45756,-5.60123 l -0.36915,-0.51043 -6.88058,3.19189 c -8.65056,4.01301 -8.6501,4.01278 -8.55229,4.26767 0.0447,0.11656 0.2226,1.11083 0.39529,2.20947 0.37898,2.41123 0.28683,4.47404 -0.29976,6.71061 l -0.41144,1.56866 1.81974,2.31518 c 1.00084,1.27335 1.87757,2.31708 1.94827,2.31939 0.0706,0.003 1.59865,-0.69028 3.39544,-1.53907 z m 32.8105,-8.37832 c 1.2651,-0.82223 2.3002,-1.53974 2.3002,-1.59448 0,-0.24805 -1.75933,-3.71559 -1.88566,-3.71652 -0.0781,-5.4e-4 -1.37893,0.82617 -2.89064,1.83721 l -2.74859,1.83827 1.23711,1.65163 c 0.6922,0.92412 1.33632,1.61357 1.46227,1.56522 0.12382,-0.0475 1.26021,-0.75911 2.52531,-1.58133 z m -2.0452,-4.84286 c 1.1936,-0.78532 2.21907,-1.55526 2.27882,-1.71097 0.17544,-0.45717 -0.27534,-1.82845 -1.21802,-3.70536 -2.55957,-5.09619 -12.10781,-19.18899 -17.29057,-25.52009 -2.15854,-2.63681 -4.26659,-5.01107 -4.52361,-5.09485 -0.66055,-0.21535 0.23112,7.36908 1.26206,10.73498 0.45462,1.48422 1.84408,4.77947 3.65822,8.6758 0.72852,1.56465 2.13239,4.63987 3.11972,6.83381 0.98733,2.19391 2.0357,4.34131 2.32973,4.77198 2.00251,2.93293 3.61509,5.01529 4.84419,6.25535 l 1.42186,1.43455 0.9737,-0.62368 c 0.53552,-0.34302 1.95028,-1.26622 3.1439,-2.05152 z m -46.28866,-27.93369 c 1.09292,-0.10322 1.20583,-0.15123 1.1208,-0.47635 -0.17172,-0.65666 0.37231,-0.74021 0.8758,-0.1345 0.42735,0.51415 0.51864,0.54376 1.33063,0.43165 0.47949,-0.0661 0.87181,-0.18264 0.87181,-0.25875 0,-0.076 -0.35101,-0.30273 -0.78004,-0.5036 -0.73635,-0.34478 -1.22765,-0.4718 -4.81786,-1.24562 -3.30795,-0.71299 -5.9262,-1.85219 -7.14933,-3.1107 -0.75728,-0.77918 -0.83526,-0.8189 -0.84201,-0.4289 -0.005,0.2364 -0.032,1.4821 -0.0621,2.76824 -0.068,2.90658 -0.10816,2.85475 2.27834,2.93866 3.54693,0.12472 5.99234,0.13148 7.17404,0.0199 z m 5.53875,-3.5093 c 0.73226,-2.26267 1.09353,-3.89835 0.861,-3.89835 -0.25523,0 -6.97269,3.33942 -6.97269,3.46631 0,0.19923 4.62207,2.42976 5.32258,2.56861 0.0505,0.0103 0.40557,-0.95145 0.78911,-2.13657 z m 1.308,1.56191 c 0.64316,-0.55602 0.67474,-0.62996 0.46532,-1.08952 -0.40783,-0.89492 0.29484,-1.53412 0.7505,-0.68272 l 0.20568,0.38432 0.46545,-0.43022 c 1.22615,-1.13327 5.92697,-7.32585 5.92697,-7.8078 0,-0.4774 -0.35252,-0.93447 -1.05301,-1.36525 -0.37984,-0.23358 -1.2047,-0.90171 -1.83308,-1.48471 -0.62836,-0.58301 -1.21605,-1.05999 -1.306,-1.05999 -0.0933,0 -0.0997,0.33461 -0.0148,0.78002 0.35572,1.86358 -0.4976,4.68866 -2.68079,8.87544 -1.39907,2.68302 -2.10021,4.47693 -1.7498,4.47693 0.0735,0 0.44394,-0.26843 0.8234,-0.5965 z m -8.70446,-1.56917 c -0.93082,-0.63095 -2.24722,-1.97453 -2.58689,-2.64037 -0.43836,-0.85925 -0.46943,-2.13397 -0.0559,-2.29268 0.37269,-0.14302 0.61744,0.23866 0.62105,0.96846 0.003,0.64617 0.73958,1.82368 1.57448,2.51772 l 0.56223,0.46734 4.28073,-2.10066 4.28072,-2.10067 -0.12471,-1.21723 c -0.13382,-1.30618 -0.28243,-1.6914 -0.97252,-2.52077 -0.27915,-0.33546 -0.37769,-0.59532 -0.26754,-0.70547 0.34246,-0.34245 0.85003,-0.032 1.39922,0.85563 0.51104,0.82602 0.56544,1.07189 0.64952,2.93548 l 0.0918,2.03391 0.57509,-1.28477 c 1.29204,-2.88639 1.76747,-5.23829 1.2899,-6.3812 -0.26067,-0.62391 -0.34962,-0.685 -0.99757,-0.685 -1.89173,0 -10.06929,3.59256 -14.52074,6.37928 -1.82641,1.14336 -2.58976,1.81392 -2.58976,2.27494 0,0.5262 1.00539,1.52166 2.15641,2.13515 1.18759,0.63298 4.15636,1.68687 4.72624,1.67778 0.33237,-0.006 0.32369,-0.0354 -0.0917,-0.31687 z m 93.20894,51.34496 c -2.45767,-1.61994 -4.57174,-3.08109 -4.69793,-3.24698 -0.53614,-0.70486 -0.27809,-1.52865 1.33063,-4.24781 0.85805,-1.45031 1.56008,-2.67605 1.56008,-2.72387 0,-0.0478 -0.24777,-0.31838 -0.55061,-0.60127 -0.32816,-0.30657 -0.55061,-0.69998 -0.55061,-0.9738 0,-0.25269 0.45426,-2.1345 1.00946,-4.18182 0.68494,-2.52569 1.00945,-4.06791 1.00945,-4.79725 0,-1.3547 0.45146,-3.58606 1.0045,-4.96486 0.71298,-1.77758 1.58422,-3.05839 3.21687,-4.72912 1.35854,-1.39024 1.81031,-1.72001 3.4972,-2.55285 1.39863,-0.69052 2.75069,-1.59076 4.86374,-3.23846 1.60965,-1.25512 3.1296,-2.33524 3.37766,-2.40025 0.29442,-0.0771 0.68987,0.0128 1.13894,0.25859 l 0.68788,0.37679 0.30737,-0.48501 c 0.95714,-1.51023 3.46109,-4.59342 3.8055,-4.68579 1.01071,-0.27107 1.39941,-0.0785 5.73842,2.8429 2.41408,1.62539 4.49248,3.08652 4.61865,3.24699 0.49378,0.62791 0.24937,1.34832 -1.33969,3.94923 l -1.56911,2.56825 0.55966,0.57743 c 0.35385,0.36509 0.55967,0.76692 0.55967,1.09273 0,0.28344 -0.45427,1.96912 -1.00947,3.746 -0.78931,2.52616 -1.00976,3.49253 -1.01085,4.43145 -0.002,1.56955 -0.28815,3.28867 -0.80414,4.82798 l -0.41606,1.24117 0.61078,0.46589 c 0.71958,0.54883 0.77772,1.05238 0.24261,2.10125 -0.9356,1.83393 -2.00619,2.439 -2.95549,1.67033 l -0.42773,-0.34636 -1.1708,1.07279 c -0.73241,0.67114 -1.86323,1.42852 -3.02009,2.02275 -1.77729,0.91294 -2.90276,1.7259 -6.10513,4.40989 -1.70203,1.42652 -2.17734,1.60775 -3.04277,1.16021 -0.61064,-0.31576 -0.61183,-0.31552 -0.98335,0.19863 -1.71684,2.37598 -3.29536,4.43996 -3.54117,4.63021 -0.75598,0.58515 -1.34242,0.3172 -5.94407,-2.71596 z m 6.32931,0.88059 c 1.69772,-2.261 5.06706,-7.00086 5.01417,-7.05373 -0.0276,-0.0277 -0.77251,-0.25949 -1.65545,-0.51535 -3.37208,-0.9772 -6.17319,-2.95562 -8.00803,-5.65608 -0.25235,-0.37143 -0.51579,-0.67588 -0.58538,-0.67657 -0.32863,-0.003 -5.3697,8.69754 -5.238,9.04071 0.14204,0.37018 8.92369,6.18677 9.34618,6.19053 0.07,5.5e-4 0.57698,-0.59765 1.12651,-1.32951 z m 6.55807,-4.77198 c 2.46858,-2.04635 3.02278,-2.55185 2.68057,-2.44505 -0.1849,0.0577 -0.94672,0.10494 -1.69293,0.10494 h -1.35674 l -0.9409,1.33065 c -1.13585,1.60635 -1.21343,1.78071 -0.88489,1.98874 0.48836,0.30922 0.81784,0.16223 2.19489,-0.97928 z m 2.41819,-3.3403 c 4.73825,-0.84482 8.02748,-3.38569 10.1392,-7.83236 2.9944,-6.30539 0.0567,-14.24502 -6.40367,-17.30695 -0.71587,-0.33928 -1.75582,-0.75407 -2.31102,-0.92178 -1.39053,-0.42 -3.86169,-0.55671 -5.48327,-0.30332 -1.62943,0.2546 -4.08622,1.2402 -5.52219,2.21534 -2.45971,1.67035 -4.58681,4.718 -5.33517,7.64404 -0.43912,1.71699 -0.47855,4.59611 -0.0858,6.26217 1.27067,5.38923 5.96017,9.59202 11.50624,10.31206 1.66798,0.21656 1.92096,0.21155 3.49559,-0.0691 z m -3.43922,-1.86918 c -4.47848,-0.68926 -8.23257,-3.99717 -9.56616,-8.42916 -0.22797,-0.75765 -0.32592,-1.67819 -0.32106,-3.01741 0.0119,-3.3025 1.15626,-5.91701 3.56611,-8.14808 2.15331,-1.99362 4.20788,-2.85443 7.14702,-2.99453 2.26865,-0.10816 3.79946,0.18699 5.55202,1.07036 3.99192,2.01219 6.37793,5.83625 6.37793,10.22197 0,1.8473 -0.35218,3.32528 -1.22996,5.16171 -1.21612,2.54431 -4.10245,4.91837 -7.02343,5.77694 -1.04244,0.30638 -3.54529,0.50552 -4.50247,0.3582 z m 3.67807,-1.07945 c 3.80047,-0.96606 6.8355,-3.85765 7.89545,-7.52227 0.38116,-1.31787 0.42413,-3.64175 0.0933,-5.04729 -0.77121,-3.27665 -3.3542,-6.22186 -6.56449,-7.48506 -4.45262,-1.75205 -9.64573,-0.10506 -12.33187,3.91108 -2.18219,3.26264 -2.43766,7.01744 -0.71769,10.5484 0.7943,1.63064 3.09579,3.91959 4.75389,4.728 2.26186,1.10277 4.72275,1.41333 6.87141,0.86714 z m -3.21923,-1.34906 c 0,-1.02074 0.28041,-1.69829 0.64498,-1.55839 0.22603,0.0867 0.27772,0.33795 0.2353,1.14361 -0.048,0.91136 -0.10276,1.03932 -0.46734,1.0911 -0.36925,0.0524 -0.41294,-0.0192 -0.41294,-0.67632 z m 4.8174,-0.43768 c -0.72527,-0.90886 -0.91828,-1.97302 -0.35786,-1.97302 0.3078,0 1.13923,1.72051 0.96651,2.00001 -0.1644,0.26598 -0.38261,0.25629 -0.60865,-0.027 z m -9.14936,-0.57941 c -0.12886,-0.33576 0.77072,-1.76068 1.11152,-1.76068 0.4823,0 0.45994,0.30692 -0.085,1.16614 -0.5552,0.8755 -0.85266,1.04777 -1.02656,0.59454 z m 12.16562,-2.87355 c -0.85188,-0.53488 -1.03244,-0.94047 -0.46749,-1.05015 0.42934,-0.0834 1.81868,1.01103 1.69444,1.33473 -0.14273,0.37196 -0.20389,0.35778 -1.22695,-0.28458 z m -15.32751,-0.5812 c -0.1181,-0.1181 -0.21474,-0.27943 -0.21474,-0.35847 0,-0.22027 1.82511,-1.09562 2.0258,-0.97159 0.38161,0.23586 0.13757,0.60107 -0.70985,1.06228 -0.67683,0.36839 -0.93727,0.43171 -1.10121,0.26778 z m 7.67738,-3.62853 c -0.39217,-0.39217 -0.46895,-0.93237 -0.20388,-1.43447 0.11436,-0.21654 -0.0742,-0.94136 -0.62984,-2.41982 -0.75433,-2.00762 -0.80751,-2.56206 -0.22428,-2.33825 0.13829,0.0531 0.60844,1.0075 1.04476,2.12093 0.64745,1.65222 0.87346,2.04455 1.22919,2.13383 0.23975,0.0602 0.43589,0.19041 0.43589,0.28944 0,0.273 1.2606,0.21784 4.47955,-0.19598 2.99771,-0.38538 3.41257,-0.3762 3.41257,0.0753 0,0.37587 -0.12399,0.40303 -3.95754,0.86683 -3.09457,0.37442 -3.52006,0.46706 -3.87993,0.8449 -0.49692,0.52172 -1.21785,0.54593 -1.70649,0.0573 z m 7.98388,0 c -0.23229,-0.37586 0.14352,-0.5506 1.1842,-0.5506 0.74929,0 1.1004,0.0773 1.16951,0.25736 0.0543,0.14155 0.0494,0.30672 -0.0115,0.36706 -0.18547,0.18548 -2.22216,0.12129 -2.34276,-0.0738 z m -16.19719,-0.86693 c -0.44215,-0.0549 -0.5965,-0.16599 -0.5965,-0.42945 0,-0.29968 0.13151,-0.35544 0.83798,-0.35544 0.9948,0 1.57661,0.26253 1.42978,0.64516 -0.10276,0.26788 -0.42297,0.29465 -1.67126,0.13973 z m 15.48804,-3.26374 c -0.0706,-0.18397 0.12901,-0.42477 0.59698,-0.72019 0.90021,-0.56828 1.36566,-0.65073 1.44692,-0.25635 0.0419,0.2034 -0.2093,0.46692 -0.74362,0.78004 -0.93099,0.54561 -1.15342,0.57921 -1.30028,0.1965 z m -13.92326,-0.96929 c -0.67422,-0.49113 -0.92768,-1.14032 -0.4452,-1.14032 0.3906,0 1.77114,1.07385 1.77114,1.3777 0,0.41761 -0.56581,0.31631 -1.32594,-0.23738 z m 11.46463,-1.90375 c -0.15471,-0.15472 -0.11998,-0.37993 0.13593,-0.88156 0.45889,-0.89951 0.86683,-1.23584 1.15246,-0.95019 0.1653,0.16529 0.13582,0.36414 -0.12604,0.85038 -0.47925,0.88993 -0.89921,1.24451 -1.16235,0.98137 z m -8.12628,-0.75075 c -0.41732,-0.67612 -0.63955,-1.38815 -0.4823,-1.54541 0.22865,-0.22865 0.67395,0.14076 1.04394,0.866 0.61933,1.21401 0.13214,1.8034 -0.56164,0.67941 z m 4.12752,-0.51861 c -0.0671,-0.10862 -0.0654,-0.65022 0.003,-1.20366 0.10035,-0.80352 0.18749,-0.99453 0.43237,-0.94814 0.56112,0.1062 0.51043,2.34922 -0.053,2.34922 -0.14354,0 -0.31591,-0.0889 -0.383,-0.19742 z m 12.71036,16.01328 c 0.68128,-0.8949 0.76768,-1.49337 0.26125,-1.80965 -0.30512,-0.19055 -0.43624,-0.0746 -1.17487,1.03848 -0.6222,0.93765 -0.7788,1.30562 -0.62228,1.46215 0.36948,0.36946 0.91565,0.12375 1.5359,-0.69098 z m -26.33595,-0.78011 0.8653,-1.3622 -0.60985,-1.61733 -0.60986,-1.61732 -0.60149,2.16794 c -0.91279,3.28995 -0.91256,3.28857 -0.57957,3.62156 0.1613,0.1613 0.37807,0.26544 0.48172,0.23142 0.10367,-0.034 0.57782,-0.67484 1.05375,-1.42407 z m 28.32631,-13.73968 0.84744,-2.63177 -0.39358,-0.38748 -0.39357,-0.38749 -0.3416,0.41562 c -0.18788,0.22859 -0.64436,0.95702 -1.01441,1.61872 l -0.6728,1.20312 0.37664,0.9508 c 0.20715,0.52292 0.43079,1.18176 0.49701,1.46405 0.0661,0.2823 0.14896,0.4847 0.1839,0.44975 0.0348,-0.0349 0.44487,-1.24783 0.91097,-2.69532 z m -1.1603,-3.26911 c 0.65463,-1.08516 1.83623,-3.02907 2.62577,-4.3198 1.23409,-2.01747 1.39876,-2.38187 1.17345,-2.59682 -0.45823,-0.43717 -8.77556,-5.97688 -8.9737,-5.97688 -0.3066,0 -0.68679,0.45519 -3.57655,4.28217 -2.79502,3.70156 -2.92072,3.96508 -1.89537,3.9742 0.70596,0.007 3.30853,1.12017 4.69449,2.00922 1.46625,0.94056 3.53699,2.93527 4.18373,4.03013 0.18546,0.31394 0.39137,0.57082 0.45758,0.57082 0.0661,0 0.65598,-0.88786 1.3106,-1.97304 z m -11.56978,-6.30025 c 0.87797,-1.25023 0.91382,-1.34466 0.59797,-1.57562 -0.18478,-0.1351 -0.45057,-0.24565 -0.59062,-0.24565 -0.22352,0 -1.87188,1.25066 -3.66034,2.77717 l -0.58969,0.50334 1.65435,-0.0646 1.65437,-0.0646 z m 22.59543,-12.82586 c -0.39892,-0.24321 -0.64708,-0.58138 -0.77402,-1.05465 -0.10276,-0.38315 -0.8824,-4.61974 -1.73255,-9.41467 -1.54979,-8.74097 -1.61184,-9.36042 -0.93763,-9.36042 0.32242,0 0.32255,0.0274 -0.007,-1.4683 -0.34998,-1.59118 -0.33893,-1.95528 0.0719,-2.36603 0.29978,-0.29977 0.32387,-0.46873 0.17665,-1.23887 -0.0938,-0.49047 -0.61469,-3.36178 -1.15759,-6.38071 -1.03304,-5.74438 -1.0562,-6.27761 -0.28163,-6.48018 0.20067,-0.0525 0.36486,-0.12954 0.36486,-0.17126 0,-0.0416 -0.29776,-1.78715 -0.66168,-3.87877 -0.8428,-4.84404 -0.81321,-6.10767 0.19211,-8.19779 0.44142,-0.91773 1.08375,-1.83618 1.8588,-2.65778 1.33367,-1.41374 2.06475,-1.82306 2.72166,-1.52375 0.48033,0.21884 1.88371,2.80181 2.46593,4.53857 0.37602,1.12167 0.49841,1.69679 1.51477,7.11767 0.49923,2.66271 0.61932,3.06655 0.88688,2.98163 0.78518,-0.2492 0.91354,0.15452 2.0426,6.42401 1.36244,7.56545 1.23292,7.00723 1.6513,7.11664 0.43104,0.11275 0.60774,0.55374 0.91529,2.28475 0.18543,1.04353 0.30446,1.33065 0.55166,1.33065 0.50413,0 0.64619,0.34252 0.98956,2.38599 0.17809,1.05992 0.89395,5.08159 1.59079,8.93704 0.69686,3.85545 1.26702,7.25605 1.26702,7.55687 0,0.58412 -0.71465,1.58903 -1.24695,1.75338 -0.57168,0.17651 -11.12238,2.12539 -11.50254,2.1247 -0.20541,-3.8e-4 -0.63769,-0.1618 -0.96062,-0.35872 z m 3.96505,-1.02508 c 6.08903,-1.13906 8.2051,-1.60511 8.50617,-1.87341 0.17666,-0.15741 0.3212,-0.51157 0.3212,-0.787 0,-0.39326 -2.61026,-15.23309 -3.03545,-17.25715 l -0.0988,-0.47054 -1.96597,0.40464 c -1.08128,0.22256 -3.92752,0.76385 -6.32498,1.20289 -3.97685,0.72828 -4.35916,0.83061 -4.36063,1.16713 -0.003,0.86693 3.01042,17.29219 3.24216,17.66728 0.32596,0.52761 0.63186,0.52316 3.71633,-0.0539 z m 0.99504,-20.37343 3.82231,-0.70321 -0.12004,-0.65349 c -0.38761,-2.11021 -0.49078,-2.41154 -0.79632,-2.32566 -0.16743,0.0471 -2.61702,0.51485 -5.44351,1.0395 -2.82648,0.52465 -5.17606,0.98747 -5.2213,1.02848 -0.0889,0.0805 0.31035,2.59119 0.44713,2.8125 0.0457,0.0737 0.84932,-0.008 1.78614,-0.18042 0.9368,-0.17297 3.42332,-0.63093 5.52559,-1.0177 z m -0.49855,-3.93008 c 1.22239,-0.22691 2.32006,-0.47282 2.43925,-0.5465 0.16055,-0.0992 -0.0737,-1.76984 -0.90412,-6.44754 -0.61646,-3.47246 -1.13598,-6.32705 -1.15448,-6.34348 -0.0798,-0.0707 -9.0389,1.63316 -9.15051,1.74043 -0.0679,0.0653 -0.0448,0.57297 0.0512,1.12818 0.57292,3.30901 2.02552,11.32022 2.08409,11.49386 0.0491,0.1456 0.70855,0.0859 2.24078,-0.20306 1.19416,-0.22514 3.17133,-0.59499 4.39373,-0.82189 z m -5.87971,-1.0865 c -0.19769,-0.31989 -1.58623,-8.66297 -1.47242,-8.84712 0.0641,-0.10368 0.2466,-0.16333 0.40557,-0.1325 0.2258,0.0439 0.46173,1.01555 1.07839,4.44182 0.43416,2.41219 0.74578,4.45633 0.69249,4.54256 -0.12652,0.20473 -0.57642,0.20169 -0.70403,-0.005 z m 1.62094,-12.31916 c 1.70657,-0.30054 3.14035,-0.58396 3.18623,-0.62983 0.0458,-0.0458 -0.2666,-2.00835 -0.6944,-4.36105 -0.70173,-3.85924 -1.67885,-7.40968 -2.17607,-7.90691 -0.079,-0.079 -0.27643,0.33363 -0.43877,0.91693 -0.59455,2.13621 -2.38313,4.26199 -3.94338,4.68679 -0.51822,0.14109 -0.78003,0.31441 -0.78003,0.51634 0,0.28736 0.99441,6.03237 1.19702,6.91553 0.052,0.22713 0.1964,0.41199 0.32066,0.41081 0.12425,-0.002 1.6222,-0.24806 3.32874,-0.54861 z m -3.63646,-8.423 c 1.346,-0.8208 2.71903,-3.15873 2.93519,-4.99796 0.14598,-1.24206 -0.0567,-1.4453 -0.85521,-0.85736 -1.35583,0.99842 -3.00047,3.72683 -3.22239,5.34589 -0.10402,0.75894 -0.0778,0.85683 0.22869,0.85622 0.19038,-3.6e-4 0.60154,-0.15642 0.91372,-0.34679 z m -135.23765,1.53738 c -1.12925,-0.41473 -1.92834,-1.15649 -2.51873,-2.33798 -0.6385,-1.27773 -0.71254,-2.29654 -0.27421,-3.77258 0.31929,-1.07518 1.03918,-1.99531 4.11604,-5.2609 2.99187,-3.17541 4.65787,-5.18918 6.28401,-7.59572 1.22461,-1.81231 1.41839,-2.2032 1.32881,-2.68068 -0.16226,-0.86486 0.5687,-1.83889 1.38947,-1.85148 0.54424,-0.009 0.69089,-0.11781 1.10648,-0.82591 l 0.47908,-0.81631 -0.34755,-0.78909 c -0.45512,-1.03326 -0.32038,-1.58567 0.73632,-3.01877 0.69265,-0.93939 0.83759,-1.26933 0.79868,-1.81823 -0.0518,-0.73012 0.40242,-1.77797 1.16163,-2.68027 0.35938,-0.42708 0.44178,-0.68149 0.35739,-1.1034 -0.11309,-0.56558 0.41469,-2.0351 0.93906,-2.61451 0.20667,-0.22838 0.2233,-0.43734 0.0769,-0.96743 -0.24435,-0.88494 0.0436,-1.96383 0.73429,-2.75037 0.43662,-0.49728 0.60345,-1.00358 1.01229,-3.07186 0.67923,-3.43624 0.95529,-4.33813 1.42955,-4.67031 1.1769,-0.82434 4.92615,0.33289 6.27603,1.93714 0.26674,0.31699 0.60675,0.8678 0.75557,1.224 l 0.27061,0.64763 2.42979,-0.1069 c 5.42103,-0.23839 8.77587,-1.66938 9.981,-4.25734 0.49246,-1.05749 0.54785,-2.20706 0.22466,-4.66313 -0.17764,-1.35004 -0.16586,-1.68079 0.0807,-2.26513 0.56192,-1.33163 2.18443,-1.79607 3.70426,-1.06033 0.94062,0.45535 4.10712,3.09268 6.05908,5.04652 1.61321,1.61476 3.75899,4.37469 4.84153,6.22718 0.51497,0.88122 1.26279,1.69686 2.88228,3.14363 1.20279,1.07449 2.34141,2.19647 2.53027,2.49325 0.50642,0.79586 0.33789,2.21539 -0.44657,3.76087 -1.09214,2.1517 -2.75273,3.67949 -9.20406,8.46806 -3.22851,2.39639 -9.68193,7.20113 -14.34093,10.6772 -13.42718,10.018 -15.5801,11.48979 -20.26501,13.85358 -3.25033,1.63999 -6.61593,2.86511 -9.64589,3.51123 -1.54988,0.33048 -4.02717,0.32462 -4.94287,-0.0117 z m 6.05441,-1.2036 c 3.83821,-0.98534 7.5951,-2.62245 11.93225,-5.19958 2.72669,-1.6202 5.12327,-3.32943 14.86261,-10.59991 4.64391,-3.4667 9.83777,-7.33257 11.54194,-8.59083 11.10038,-8.19587 11.93317,-8.91749 13.18976,-11.42925 1.07992,-2.15859 0.94588,-2.54601 -1.69417,-4.89742 -1.67234,-1.48948 -1.75109,-1.53575 -2.17526,-1.27837 -1.75427,1.06443 -12.25156,9.67253 -15.70468,12.87831 -2.30719,2.14195 -10.01045,9.98987 -10.52053,10.71813 -0.39644,0.56597 -5.52681,5.19594 -7.59496,6.85413 -4.66481,3.74017 -9.14752,6.68014 -13.69763,8.98357 -4.46717,2.26144 -5.61374,2.48289 -7.22868,1.3961 l -0.9335,-0.6282 0.27249,0.52694 c 0.42437,0.82066 1.58544,1.57214 2.93417,1.8991 0.69167,0.16766 2.75366,-0.10322 4.81619,-0.63272 z m -4.15026,-1.64606 c 1.67658,-0.5648 6.20621,-2.86802 8.73764,-4.44291 4.87318,-3.03176 9.72534,-6.79014 13.68284,-10.59849 1.3916,-1.33916 2.49937,-2.46565 2.4617,-2.50332 -0.30046,-0.30046 -2.94806,-0.99007 -4.44128,-1.15681 -2.24677,-0.25089 -4.30216,-0.67662 -5.4563,-1.13015 l -0.86783,-0.34105 -0.78399,1.1202 c -0.43119,0.6161 -0.90671,1.28909 -1.05669,1.49552 -0.16784,0.23102 -0.19945,0.39974 -0.0822,0.43882 0.65747,0.21916 2.56719,1.51967 2.88317,1.96345 0.50194,0.70492 0.50611,1.97241 0.009,2.64324 -0.51896,0.6999 -1.57061,1.24861 -2.88246,1.50404 -2.07602,0.40419 -3.18651,0.9047 -6.3835,2.87714 -4.91684,3.03355 -6.82056,3.91688 -8.44147,3.91688 -0.57453,0 -0.74116,0.0882 -0.95404,0.50472 -0.36247,0.70939 -0.53463,1.6214 -0.39127,2.07306 0.13469,0.42438 2.18031,2.01067 2.59289,2.01067 0.14349,0 0.76184,-0.16875 1.3741,-0.37501 z m -0.0914,-5.77971 c 0.93979,-0.4122 3.73753,-2.03025 6.45248,-3.73173 2.23298,-1.39944 3.18598,-1.82415 4.99981,-2.22817 2.12539,-0.47341 2.70835,-0.77685 3.04625,-1.58554 0.39905,-0.95506 -0.0455,-1.59901 -1.72837,-2.50425 l -1.3291,-0.7149 -1.08963,1.00879 c -1.30703,1.21009 -2.52023,1.6877 -3.93071,1.54743 l -0.93848,-0.0934 -0.8596,1.12557 c -0.47276,0.61908 -1.83553,2.19175 -3.02837,3.49482 -1.19283,1.30309 -2.57301,2.81635 -3.06711,3.36286 l -0.89834,0.99363 0.71481,-0.13112 c 0.39314,-0.0721 1.13851,-0.31695 1.65636,-0.54408 z m 8.28403,-9.4423 c 1.65155,-0.74965 4.18416,-3.71891 6.49983,-7.62048 1.32861,-2.23856 4.30065,-7.81941 5.3758,-10.09458 0.61129,-1.29356 0.96298,-1.73042 2.95533,-3.67076 1.8015,-1.75448 2.35679,-2.41816 2.73012,-3.26303 0.25776,-0.5833 0.46866,-1.11065 0.46866,-1.17188 0,-0.0612 -1.02049,-0.072 -2.26774,-0.0239 -1.84394,0.0709 -2.42428,0.16313 -3.1053,0.49281 -1.26659,0.61313 -1.39802,0.86435 -0.62188,1.18865 0.75035,0.3135 1.11595,0.8874 0.96033,1.50741 -0.15539,0.6191 -0.74608,0.9444 -2.11222,1.16323 -0.65001,0.10413 -1.30003,0.30753 -1.44452,0.452 -0.22788,0.22789 -0.16471,0.32751 0.47682,0.75205 0.90433,0.59848 1.28282,1.38002 0.98494,2.03382 -0.32841,0.72079 -0.95291,0.90968 -1.9191,0.58045 -0.81184,-0.27661 -0.82222,-0.2749 -1.02479,0.1697 -0.28826,0.6327 -0.26343,0.76787 0.25425,1.3831 0.63465,0.75424 0.74809,1.33778 0.37173,1.91219 -0.2697,0.41162 -0.41274,0.46458 -1.07558,0.39832 -0.42048,-0.0421 -0.86984,-0.11172 -0.99856,-0.15491 -0.12876,-0.0431 -0.36477,0.13178 -0.52449,0.38876 -0.27632,0.44457 -0.26276,0.51082 0.27995,1.36658 0.65121,1.02684 0.69076,1.30812 0.26858,1.91083 -0.27014,0.38566 -0.40317,0.42041 -1.26868,0.33107 -0.93183,-0.0962 -0.97487,-0.0805 -1.18706,0.43177 -0.18941,0.45729 -0.16601,0.62341 0.16745,1.18858 0.81294,1.37783 0.29353,2.40772 -1.13321,2.24691 -0.75793,-0.0854 -0.81383,-0.0581 -1.17858,0.57562 l -0.38291,0.66534 0.43993,0.51144 c 0.54701,0.63593 0.56228,1.34657 0.041,1.90157 -0.46287,0.49269 -0.83546,0.5274 -1.71527,0.15978 l -0.63426,-0.26501 -0.82815,1.2802 c -0.45549,0.7041 -0.82815,1.36021 -0.82815,1.45799 0,0.29841 1.14689,0.19069 1.97587,-0.18559 z m 1.41958,-3.4071 c 0,-0.18947 -0.28703,-0.53792 -0.63784,-0.77432 -0.60183,-0.40557 -0.65118,-0.4116 -0.87429,-0.10655 -0.32539,0.445 -0.22149,0.65259 0.5136,1.02614 0.73436,0.3732 0.99853,0.33475 0.99853,-0.14532 z m 21.32878,-4.99343 5.39827,-5.46024 -0.0202,-1.69513 c -0.0184,-1.53119 0.20723,-3.99486 0.47462,-5.18455 0.0564,-0.25072 -0.65642,0.60991 -1.58392,1.91254 -3.02423,4.24734 -7.72479,10.05462 -10.82848,13.37803 -0.73001,0.78169 -1.29577,1.44851 -1.25726,1.48183 0.0385,0.0332 0.50267,0.20192 1.03145,0.37468 0.52877,0.17275 1.00856,0.39035 1.06617,0.48358 0.0576,0.0932 0.15345,0.16951 0.21294,0.16951 0.0596,0 2.53741,-2.45712 5.50647,-5.46025 z m -7.2131,2.32514 c 2.7634,-3.11624 4.05252,-4.63456 5.93438,-6.98947 3.13135,-3.91849 6.93774,-9.10852 6.78918,-9.25708 -0.0399,-0.04 -0.59406,0.13912 -1.23125,0.39803 -2.77183,1.12631 -7.18371,1.91463 -10.71519,1.91463 h -1.73182 l -0.57353,0.65321 c -0.31543,0.35925 -1.03685,1.57749 -1.60317,2.70716 -1.39444,2.78169 -4.65106,8.81782 -5.36047,9.93552 -0.42945,0.67665 -0.51753,0.94406 -0.3467,1.05253 0.58647,0.37239 2.66689,0.92992 4.30059,1.15253 3.00802,0.40982 2.68649,0.52087 4.53798,-1.56706 z m -11.87825,-1.01944 c 0.0634,-0.16513 0.0174,-0.43355 -0.10207,-0.59648 -0.1195,-0.16295 -0.38516,-0.64923 -0.5903,-1.08062 -0.41097,-0.86418 -0.71908,-0.87219 -0.71908,-0.0186 0,0.58408 0.23284,1.14567 0.69441,1.67482 0.34994,0.4012 0.56871,0.40759 0.71709,0.0209 z m -0.0503,-3.48852 c 0.0637,-0.16588 0.0744,-0.34283 0.024,-0.39323 -0.11716,-0.11717 -0.65113,0.32053 -0.65113,0.53373 0,0.28504 0.5074,0.17135 0.62706,-0.1405 z m 2.30954,-0.39021 c 0,-0.30369 -1.71293,-2.9629 -1.85285,-2.87642 -0.54875,0.33914 0.1077,2.30721 0.97127,2.91211 0.33882,0.2373 0.88158,0.21535 0.88158,-0.0357 z m -0.44797,-3.87905 c -0.22524,-0.36445 -0.46972,-0.20986 -0.46972,0.29702 0,0.45901 0.0233,0.47482 0.29701,0.20114 0.16335,-0.16335 0.24108,-0.38754 0.17271,-0.49816 z m 2.46687,-0.0517 c 0,-0.11972 -0.31626,-0.59461 -0.70282,-1.05535 -0.38655,-0.46076 -0.85032,-1.06487 -1.03057,-1.34247 -0.42155,-0.6492 -0.59441,-0.63684 -0.74602,0.0533 -0.14092,0.64167 0.1909,1.26883 1.08454,2.04987 0.58437,0.51072 1.39487,0.6819 1.39487,0.29458 z m 24.40609,-2.45433 c 2.21839,-1.84171 8.15018,-6.58149 10.43782,-8.34033 l 0.59679,-0.45884 -1.22493,-1.83539 c -1.44029,-2.15802 -2.74062,-3.80663 -4.27119,-5.41507 -0.9799,-1.0298 -1.14228,-1.13458 -1.41162,-0.91103 -0.63731,0.52892 -3.16835,4.60477 -4.52573,7.28799 -2.09775,4.14677 -2.89801,7.11669 -2.89968,10.76111 -6.8e-4,1.51723 0.021,1.61123 0.31604,1.37653 0.17423,-0.13853 1.51634,-1.24779 2.9825,-2.46497 z m -25.07917,-0.70966 c 0.0581,-0.15158 -0.0877,-0.38476 -0.34745,-0.55485 -0.4865,-0.31877 -0.58061,-0.12559 -0.22009,0.45171 0.26935,0.43128 0.43038,0.46055 0.56754,0.1031 z m 2.83617,-0.70212 c -0.0386,-0.12619 -0.74361,-0.68369 -1.56696,-1.23888 -2.27988,-1.53737 -2.31741,-1.62189 -0.8229,-1.85236 1.99304,-0.30735 4.10171,-0.70828 4.26897,-0.81164 0.32022,-0.19791 0.19007,-0.46107 -0.32557,-0.65815 -0.35731,-0.13657 -0.82632,-0.13243 -1.60593,0.0142 -2.83332,0.53294 -3.63767,1.10962 -3.54171,2.5393 0.0526,0.78438 0.0944,0.83599 1.23486,1.52439 1.18473,0.71518 2.51294,0.98716 2.35924,0.48313 z m 11.7722,-2.62311 c 2.09955,-0.39915 4.20527,-1.07984 6.04369,-1.95359 l 1.53345,-0.72884 0.78748,-1.68331 c 1.14514,-2.44787 2.88865,-5.46426 4.33449,-7.49898 0.69482,-0.9778 1.26332,-1.86036 1.26332,-1.96122 0,-0.20548 -2.25172,-2.08099 -3.42186,-2.8502 -1.01474,-0.66703 -2.14765,-0.62081 -2.69099,0.10977 -0.35367,0.47559 -0.35875,0.58114 -0.12961,2.69678 0.13116,1.211 0.18695,2.57764 0.12399,3.03699 -0.22547,1.64504 -1.53919,3.45484 -3.24195,4.46617 -0.96536,0.57338 -3.21253,1.26862 -4.86374,1.50482 -0.80758,0.1155 -1.73121,0.24931 -2.05256,0.29731 -0.48229,0.0721 -0.62274,0.20637 -0.80487,0.76956 -0.41845,1.29401 -0.94563,2.15394 -1.97907,3.2283 l -1.03671,1.07775 2.29422,-0.10861 c 1.26182,-0.0598 2.99014,-0.24099 3.84072,-0.40269 z m -12.62498,-2.69329 c 0.63302,-0.14683 1.07388,-0.42401 1.71852,-1.08053 0.86357,-0.87945 1.69915,-1.273 3.25733,-1.53414 0.78634,-0.13178 0.78102,-0.12109 0.41317,-0.83248 -0.57684,-1.11544 -3.02108,-2.38637 -4.58954,-2.38637 -0.73195,0 -0.8566,0.0591 -1.01773,0.48297 -0.23406,0.61564 -0.48304,1.71702 -0.89941,3.97889 -0.30254,1.6435 -0.30539,1.79044 -0.0326,1.68483 0.16435,-0.0637 0.68199,-0.20455 1.15028,-0.31317 z m 90.71284,21.25626 c -3.51915,-0.93007 -5.34512,-1.92667 -7.33092,-4.00115 -2.12904,-2.2241 -3.41727,-5.12117 -4.03413,-9.07224 -0.47122,-3.0182 -0.97239,-3.92182 -2.17522,-3.92182 -0.38969,0 -0.57763,0.25665 -1.37771,1.88126 -1.66311,3.37701 -3.46633,5.29057 -5.5759,5.91704 -3.05941,0.90854 -7.10983,-0.45696 -9.88097,-3.33111 -2.13943,-2.21898 -2.79288,-4.18056 -3.10839,-9.33094 -0.11436,-1.86573 -0.30632,-3.45219 -0.47765,-3.94606 -0.15758,-0.45425 -0.32846,-1.09696 -0.37974,-1.42823 -0.12992,-0.83937 0.11091,-2.87794 0.38418,-3.25163 0.15886,-0.21725 0.96711,-0.44259 2.69446,-0.75122 6.3144,-1.12819 12.25621,-1.72536 17.17617,-1.72625 6.04683,-0.002 8.03269,0.64181 12.69099,4.10863 2.5826,1.92204 4.44416,3.75151 4.44416,4.36757 0,1.11393 -1.53256,2.12299 -2.93811,1.93446 -1.06843,-0.14331 -1.83265,-0.78358 -3.91629,-3.28117 -2.24283,-2.68842 -2.96638,-3.32944 -4.34139,-3.84624 -1.6675,-0.62674 -3.31879,-0.44936 -5.5979,0.60131 -2.13647,0.98489 -3.26232,1.24902 -6.01511,1.41105 l -2.00596,0.11813 1.36287,0.7742 c 0.7496,0.42581 2.55433,1.61624 4.01054,2.64541 3.73901,2.64252 4.2297,2.86964 6.68548,3.0944 1.11041,0.10161 2.63836,0.18525 3.39546,0.1858 2.01164,0.002 5.98003,0.63349 8.66808,1.38056 2.37655,0.66049 5.71041,1.86149 9.85258,3.54935 1.25268,0.51045 2.33875,0.8903 2.41348,0.84411 0.12503,-0.0774 3.02962,-0.77752 11.05759,-2.66576 5.84605,-1.37504 6.81817,-1.42948 7.74121,-0.43351 0.79109,0.85362 1.13354,4.68279 0.5448,6.09186 -0.37233,0.89112 -0.96906,1.51079 -1.45483,1.51079 -0.73947,0 -0.83063,-0.31623 -0.83063,-2.88154 0,-1.88018 -0.0549,-2.44105 -0.23853,-2.44105 -0.13119,0 -0.72998,0.40712 -1.33064,0.90471 -2.963,2.4545 -2.37242,2.25395 -10.86847,3.69065 -2.95429,0.49957 -5.65274,1.02586 -5.99659,1.16953 -0.78459,0.32782 -0.99659,0.66041 -1.94091,3.04492 -1.66081,4.19379 -2.91534,6.0282 -4.73017,6.91665 -0.91496,0.44793 -1.29473,0.51958 -2.97594,0.56154 -1.55953,0.039 -2.24626,-0.0362 -3.59995,-0.39401 z m 5.5062,-0.73666 c 1.92291,-0.57871 2.82284,-1.75579 4.72745,-6.18332 0.71193,-1.65498 1.46305,-3.19183 1.66915,-3.41525 0.2061,-0.22342 0.7142,-0.51927 1.1291,-0.65743 0.73946,-0.24625 0.75874,-0.27454 0.97523,-1.42917 0.12147,-0.64786 0.22472,-1.30615 0.22943,-1.46281 0.007,-0.20264 -1.11749,-0.72931 -3.89161,-1.82412 -8.29505,-3.27368 -11.26162,-3.98741 -17.94079,-4.31641 -4.48501,-0.2209 -5.08213,-0.42049 -8.52299,-2.84902 -2.72697,-1.92464 -5.0628,-3.37725 -6.62418,-4.11944 -2.61491,-1.24296 -8.35606,-3.03276 -9.72818,-3.03276 h -0.76827 l -0.1798,1.32829 c -0.15877,1.17294 -0.13682,1.42511 0.18768,2.15654 0.28356,0.63917 0.40053,1.45698 0.51226,3.58137 0.25453,4.84011 0.68319,6.77198 1.91402,8.62631 0.77957,1.17448 1.82585,2.13434 3.27643,3.00577 3.30136,1.98337 6.39651,2.05999 8.72473,0.21601 0.9087,-0.71971 2.37628,-2.86131 3.33066,-4.86033 0.84121,-1.76195 1.2069,-2.06208 2.26962,-1.86271 0.73115,0.13717 1.88731,1.05173 2.1272,1.68272 0.0851,0.22367 0.33374,1.42635 0.55266,2.67265 0.94576,5.38429 2.61244,8.48505 5.64401,10.50045 2.99234,1.98931 7.78757,3.02472 10.38619,2.24266 z m -4.59664,-0.55155 c -1.91178,-0.36258 -2.92415,-0.73866 -4.5663,-1.69631 -3.8935,-2.27056 -5.78864,-5.83341 -5.84168,-10.98233 -0.0219,-2.13675 0.0177,-2.46505 0.38034,-3.14293 0.94522,-1.76701 2.3938,-2.26917 5.56005,-1.92737 4.34997,0.46959 9.87381,2.55176 11.90014,4.48566 1.1275,1.07605 1.40223,1.83367 1.37677,3.79655 -0.0381,2.94045 -1.18595,6.49275 -2.62902,8.1363 -1.16251,1.32401 -3.52853,1.83335 -6.1803,1.33043 z m 3.81759,-0.86994 c 2.12619,-0.637 3.83133,-4.00518 4.13786,-8.1736 0.10092,-1.37219 0.0688,-1.58928 -0.36775,-2.47776 -0.73597,-1.49832 -2.92457,-2.85079 -6.56221,-4.05522 -3.03084,-1.00355 -4.62776,-1.31271 -6.80991,-1.31838 -2.13109,-0.006 -2.51682,0.13934 -3.35203,1.25904 -0.33596,0.45041 -0.37816,0.76825 -0.37599,2.83351 0.003,2.66328 0.28187,3.97193 1.28468,6.02349 1.4038,2.8719 4.36016,5.07024 7.84573,5.83409 1.44907,0.31757 3.28055,0.3502 4.19962,0.0749 z m -28.9313,-8.43495 c -2.04162,-0.41263 -4.75347,-2.13015 -6.03825,-3.82425 -1.48191,-1.95406 -2.1656,-5.39108 -1.77291,-8.91276 0.38398,-3.44348 1.2625,-4.67736 3.33031,-4.67736 3.21419,0 10.44683,3.81213 12.00125,6.32557 0.47335,0.76538 0.56254,1.11047 0.61654,2.38573 0.0981,2.31303 -0.84335,4.78236 -2.67709,7.02257 -1.18522,1.44795 -3.33562,2.1098 -5.45985,1.6805 z m 3.35953,-1.18869 c 1.38084,-0.68811 2.56582,-2.25278 3.40591,-4.49723 1.28593,-3.43567 0.67022,-5.12451 -2.69247,-7.38516 -3.07297,-2.06586 -7.70409,-3.84807 -9.08695,-3.49692 -1.19457,0.30331 -1.77875,1.73057 -1.98238,4.84329 -0.23746,3.63048 0.72917,6.73722 2.62085,8.42326 2.6009,2.31812 5.65105,3.15126 7.73504,2.11276 z m 42.06417,-0.7474 c 2.67505,-0.45843 5.19411,-0.98216 5.5979,-1.16382 0.40378,-0.18168 1.42925,-0.91523 2.27885,-1.63013 1.81903,-1.53065 2.6165,-1.80606 3.19079,-1.10201 0.32434,0.39762 0.34911,0.64441 0.26062,2.59596 -0.0542,1.19348 -0.0257,2.15657 0.0638,2.15657 0.0889,0 0.29736,-0.26266 0.46336,-0.58371 0.24386,-0.47154 0.28673,-0.97893 0.22313,-2.64027 -0.0886,-2.31447 -0.32424,-2.90481 -1.23981,-3.1059 -0.67282,-0.14777 -0.99085,-0.0842 -9.27852,1.85714 -8.18433,1.91706 -7.80036,1.79683 -7.80036,2.44245 0,0.28091 -0.0537,0.90331 -0.11957,1.38311 l -0.11957,0.87238 0.80784,-0.12413 c 0.44429,-0.0682 2.99651,-0.49919 5.67159,-0.95764 z m -19.5715,-11.27024 c 0.26596,-0.20921 0.48359,-0.48045 0.48359,-0.60276 0,-0.52163 -3.11089,-3.18455 -5.73479,-4.90897 -3.56898,-2.34552 -5.3158,-2.81476 -10.41651,-2.79817 -1.96845,0.007 -4.65269,0.11033 -5.96498,0.23098 -2.47218,0.22726 -8.84968,1.05195 -9.61038,1.24274 -0.31772,0.0797 0.39316,0.37383 2.66129,1.10114 l 3.0948,0.99241 3.21192,-0.0829 c 3.57829,-0.0925 4.11997,-0.20576 6.79088,-1.41966 1.69788,-0.77167 1.79414,-0.79256 3.67075,-0.79646 1.75745,-0.003 2.01345,0.0411 2.90729,0.50866 1.32376,0.69242 2.30826,1.63557 4.26297,4.08408 0.90665,1.13568 1.91489,2.23552 2.24049,2.44409 0.76824,0.49203 1.7808,0.49412 2.40268,0.005 z"
       id="path13196"
       sodipodi:nodetypes="csscssscsssssccccsscssssssssssssssssssssccscsccscsssssscssssssssssssscsssssscsssscsssscscssscssscsccsscscscscssssscccsscsssssssccsssscsscsssscscssssscssssssscssscscssscscssssccsssssssscsscssssscsscccsscscccssscscssssssccsssssssssssssccssssscssscscssscsssssssscsscscsssscsssssssssscssssssssssssssssssssssscssssssscssccssssssssssscsssssssssscsscccsssssssssssssssssssssssccssccsssssscccssssscccsscsscsssssscsssscssscccccssscssscssssssssssssssssscccssscsscsccscssssscssssssccssscssssccsssssssscssssssssssssscscsscscsccccsccssscssssssssssssssscsscsssssccsscssssscsscscsssssscccsssccsscccscsccsscssscsssccccscsccssscscsccssccssccssssscccccsssssccccscscccsssccccssccccsccsccsscssccsccsccsscsscsscsccscscscsccssssscsssscssssccccssssssssscsscssssssssssccssssssccssscssssssssssssssccssssscssssscsscscssscssssccssscsscssscscssccssssscssssssssssssscsssssssccscsscscsccscssccc" />
    <path
       d="m 359.55386,-149.17841 c -0.1753,-0.0344 -1.03586,-0.17725 -1.91234,-0.31757 -4.93155,-0.78949 -10.37262,-3.52651 -14.30389,-7.19526 -2.51043,-2.34282 -5.10377,-6.3764 -6.18759,-9.62393 -1.34362,-4.02602 -1.2559,-1.96378 -1.33482,-31.38088 -0.0574,-21.39219 -0.0175,-26.91553 0.19619,-27.17303 0.21879,-0.26362 0.62138,-0.30043 2.18422,-0.19971 5.82761,0.37558 10.46308,3.42171 11.80156,7.75519 0.40314,1.30522 0.41989,2.02734 0.41989,18.11355 v 16.75413 l 0.55546,2.87424 c 0.3055,1.58083 0.50378,3.00891 0.44062,3.17353 -0.0632,0.16461 -2.84985,2.19826 -6.19261,4.51924 l -6.07776,4.21994 1.12186,0.16605 c 0.61703,0.0913 4.12094,0.5852 7.78645,1.09751 3.66551,0.5123 6.74053,1.01128 6.83336,1.10885 0.14879,0.15638 2.63932,6.77386 4.52505,12.02335 0.36733,1.02257 0.71741,1.85691 0.77796,1.85409 0.0606,-0.003 0.88761,-1.46099 1.83794,-3.24036 0.95033,-1.77938 2.55254,-4.77388 3.56049,-6.65442 l 1.83264,-3.41918 4.30139,-0.13936 c 2.36576,-0.0766 5.9508,-0.13963 7.96674,-0.13992 2.01593,-2.1e-4 3.66533,-0.0795 3.66533,-0.1758 0,-0.0964 -2.27091,-2.1456 -5.04647,-4.55384 -4.88847,-4.24151 -6.21515,-5.425 -6.21515,-5.54434 0,-0.0315 1.05341,-3.10158 2.34092,-6.82269 1.28751,-3.72112 2.3068,-6.79978 2.26509,-6.8415 -0.0417,-0.0417 -1.64493,0.67616 -3.56271,1.59526 -8.70513,4.17201 -10.3002,4.91886 -10.50515,4.91878 -0.12034,-4e-5 -1.36337,-0.70117 -2.76227,-1.55804 l -2.54348,-1.55798 v -6.9792 -6.9792 l 0.63745,-0.19219 c 0.3506,-0.1057 2.13295,-0.24441 3.96079,-0.30823 2.58729,-0.0904 3.8086,-0.0349 5.51442,0.25032 10.69522,1.78837 18.81743,9.35112 21.38116,19.90841 0.29663,1.2215 0.37598,2.41137 0.36613,5.4904 -0.0113,3.54917 -0.0665,4.1305 -0.56775,5.98556 -1.22267,4.52483 -3.20852,7.92586 -6.62817,11.35163 -5.28433,5.29377 -11.90732,7.99048 -19.45819,7.92284 -1.46082,-0.0131 -2.79945,-0.0519 -2.97476,-0.0862 z m 9.60224,-1.66974 c 4.76858,-1.26884 8.50934,-3.38947 11.85022,-6.71785 5.32398,-5.30408 7.46749,-10.72859 7.16854,-18.14115 -0.15353,-3.80706 -0.74659,-6.22936 -2.27215,-9.28044 -4.32766,-8.65526 -12.94755,-14.00884 -22.6205,-14.04897 -1.40783,-0.005 -3.10949,0.0588 -3.78148,0.14356 l -1.22177,0.15417 v 6.29857 6.29856 l 2.20526,1.32235 2.20526,1.32234 6.13471,-2.93893 c 3.37411,-1.61641 6.78083,-3.24533 7.57052,-3.61979 1.39943,-0.66362 1.85769,-0.70069 1.85769,-0.15023 0,0.14844 -1.10464,3.45183 -2.45476,7.34088 -1.35012,3.88905 -2.42581,7.19753 -2.39044,7.35217 0.0354,0.15464 0.99169,1.07668 2.12512,2.04896 5.62379,4.82421 9.92116,8.57814 9.92913,8.67351 0.0499,0.59786 -0.53642,0.65432 -8.81897,0.84918 -4.66567,0.10977 -8.50094,0.20266 -8.52283,0.20641 -0.16702,0.0287 -7.07841,13.12978 -7.07841,13.41771 0,0.4723 5.76094,0.0953 8.11486,-0.53101 z m -9.87418,0.13474 c -0.0599,-0.20452 -1.23455,-3.39628 -2.6102,-7.09282 l -2.50117,-6.72096 -0.97368,-0.12279 c -0.53553,-0.0675 -4.07502,-0.5553 -7.86553,-1.08395 -3.79052,-0.52864 -6.93733,-0.91569 -6.99292,-0.8601 -0.23371,0.23371 1.17146,3.24839 2.35721,5.05724 2.59582,3.95987 6.87381,7.47792 11.4213,9.39245 1.55141,0.65315 5.73366,1.77833 6.6649,1.79311 0.48212,0.008 0.58638,-0.0679 0.50009,-0.36218 z m -17.20843,-20.25942 c 1.95949,-1.35516 4.6384,-3.20752 5.95314,-4.11636 1.31474,-0.90883 2.39045,-1.77361 2.39045,-1.92171 0,-0.1481 -0.19125,-1.19869 -0.42498,-2.33466 -0.40292,-1.95825 -0.4253,-2.90995 -0.43152,-18.35009 -0.003,-8.95658 -0.0963,-16.97528 -0.20592,-17.81932 -0.256,-1.97065 -1.00222,-3.43254 -2.53402,-4.96434 -1.93962,-1.93963 -5.1094,-3.27789 -8.36056,-3.52978 l -1.65154,-0.12796 0.066,26.64542 c 0.0616,24.9007 0.0911,26.74015 0.44996,28.09218 0.35739,1.34632 0.41191,1.42746 0.78522,1.16866 0.22063,-0.15295 2.00437,-1.38688 3.96387,-2.74204 z"
       style="fill:#666666;stroke-width:0.0562195"
       id="path15572" />
  </g>
</svg>
