<?xml version="1.0" encoding="UTF-8" standalone="no"?>
<!-- Created with Inkscape (http://www.inkscape.org/) -->

<svg
   width="34.819111mm"
   height="32.491844mm"
   viewBox="0 0 34.819111 32.491844"
   version="1.1"
   id="svg6631"
   sodipodi:docname="jordan.svg"
   inkscape:version="1.1.2 (b8e25be8, 2022-02-05)"
   xmlns:inkscape="http://www.inkscape.org/namespaces/inkscape"
   xmlns:sodipodi="http://sodipodi.sourceforge.net/DTD/sodipodi-0.dtd"
   xmlns="http://www.w3.org/2000/svg"
   xmlns:svg="http://www.w3.org/2000/svg">
  <sodipodi:namedview
     id="namedview6633"
     pagecolor="#ffffff"
     bordercolor="#666666"
     borderopacity="1.0"
     inkscape:pageshadow="2"
     inkscape:pageopacity="0.0"
     inkscape:pagecheckerboard="0"
     inkscape:document-units="mm"
     showgrid="false"
     inkscape:zoom="0.66368547"
     inkscape:cx="91.157639"
     inkscape:cy="94.171115"
     inkscape:window-width="1312"
     inkscape:window-height="959"
     inkscape:window-x="0"
     inkscape:window-y="25"
     inkscape:window-maximized="0"
     inkscape:current-layer="layer1"
     fit-margin-top="0"
     fit-margin-left="0"
     fit-margin-right="0"
     fit-margin-bottom="0" />
  <defs
     id="defs6628" />
  <g
     inkscape:label="Layer 1"
     inkscape:groupmode="layer"
     id="layer1"
     transform="translate(-203.92172,-124.0816)">
    <path
       d="m 206.55242,154.27439 a 0.02206994,0.03023278 69.2 0 0 0.0177,-0.0272 c -0.0391,-0.1929 0.0243,-0.23189 0.15482,-0.34193 q 0.11464,-0.0965 0.21436,-0.0153 a 0.03446538,0.02690718 54.5 0 0 0.0267,0.009 c 0.0614,-0.0135 0.071,-0.0668 0.0449,-0.11922 q -0.0983,-0.19742 -0.0862,-0.41991 7.4e-4,-0.0153 -0.005,-0.0284 c -0.0752,-0.15365 -0.15112,-0.35221 -0.0176,-0.46135 0.16802,-0.13792 0.25092,0.36129 0.26061,0.44806 q 0.0153,0.12812 0.115,0.21887 a 0.04595383,0.04474451 67.6 0 0 0.0267,0.0124 c 0.27512,0.0218 0.22371,-0.46648 0.49732,-0.45259 0.0866,0.005 0.16835,0.10545 0.23492,0.16175 a 0.01874432,0.01451174 41.3 0 0 0.023,0.002 q 0.10036,-0.10731 0.22402,-0.18561 a 0.02841882,0.02781418 55.1 0 0 0.006,-0.0411 q -0.11464,-0.14689 0.0247,-0.25758 0.25427,-0.20228 0.4677,-0.44774 c 0.20439,-0.23492 0.48795,-0.51699 0.73858,-0.74284 q 1.64013,-1.47808 3.68871,-2.32216 0.0563,-0.0233 0.0951,-0.0713 c 0.27751,-0.34254 0.61038,-0.53965 1.04998,-0.56868 a 0.0565353,0.05683763 14.1 0 0 0.0448,-0.027 c 0.57714,-0.93327 1.43213,-1.75804 2.29134,-2.36601 0.11997,-0.085 0.17808,-0.25576 0.27028,-0.34072 0.16751,-0.1545 0.36914,-0.1109 0.53271,-0.23431 0.17353,-0.13065 0.36946,-0.25697 0.38728,-0.4686 0.0475,-0.55779 -0.18803,-1.54249 0.66966,-1.62713 a 0.0402096,0.02811648 8.2 0 0 0.027,-0.0135 q 0.16513,-0.24398 0.35978,-0.4647 a 0.03627935,0.01753501 63.2 0 0 -7.3e-4,-0.0316 q -0.17626,-0.45469 -0.24822,-0.93752 a 0.04625617,0.03446538 23.6 0 0 -0.0135,-0.0234 c -0.1811,-0.16959 -0.31655,-0.36219 -0.27059,-0.61855 a 0.03960495,0.02690718 38.1 0 0 -0.009,-0.0275 q -0.29356,-0.37157 -0.52031,-0.78727 a 0.03265142,0.01088381 65 0 0 -0.0183,-0.0196 l -0.27391,-0.0345 a 0.02720951,0.03234908 13.9 0 0 -0.0306,0.0224 q -0.13083,0.38156 -0.52849,0.45896 a 0.0628842,0.06983774 8.5 0 0 -0.0468,0.0387 q -0.18232,0.40419 -0.39969,0.78968 c -0.35402,0.62733 -0.9112,1.0521 -1.51013,1.41913 q -0.058,0.0353 -0.10124,0.088 c -0.33708,0.40724 -0.8193,1.19993 -0.68325,1.74745 0.0402,0.16142 -0.10222,0.25335 0.025,0.41056 0.053,0.0652 0.0791,0.0965 0.16599,0.11649 0.14536,0.0339 0.32078,0.0583 0.28057,0.23673 q -0.029,0.12879 -0.17172,0.14655 -0.4526,0.0563 -0.73074,-0.26997 c -0.16446,-0.1929 -0.341,-0.004 -0.43987,0.13909 -0.15179,0.21798 -0.30294,0.44474 -0.59015,0.41633 a 0.03053512,0.03386072 77.6 0 1 -0.0238,-0.0135 c -0.11091,-0.16327 0.17626,-0.38275 0.12158,-0.47708 a 0.01813966,0.01995363 67 0 0 -0.023,-0.009 q -0.43143,0.14148 -0.86285,0.27755 -0.0774,0.0245 -0.18775,0.002 c -0.18773,-0.0372 -0.23036,-0.17108 -0.0334,-0.25151 q 0.22462,-0.0919 0.43626,-0.21195 c 0.0913,-0.0517 0.0829,-0.14721 -0.0449,-0.10271 -0.42416,0.14722 -0.78604,0.1315 -1.22019,0.0486 -0.1212,-0.023 -0.19167,-0.0251 -0.2337,-0.13336 q -0.0353,-0.0909 0.0453,-0.0952 0.49007,-0.0245 0.96894,-0.1266 c 0.28782,-0.0614 0.5817,-0.24246 0.83746,-0.38607 0.11388,-0.0639 0.15179,-0.17445 0.24127,-0.26153 q 0.31713,-0.30927 0.6122,-0.64001 0.0694,-0.0778 0.11339,-0.17505 c 0.12507,-0.27664 0.25306,-0.57956 0.37911,-0.82747 q 0.59589,-1.17094 1.48535,-2.14199 0.01,-0.01 0.0135,-0.0256 0.14147,-0.6216 0.58532,-1.07025 c 0.10247,-0.10395 0.15955,-0.29173 0.21464,-0.39393 q 0.44353,-0.82385 0.73346,-1.25466 0.23642,-0.35159 0.67176,-0.43052 c 0.17445,-0.0314 0.40603,-0.28902 0.51576,-0.42326 q 0.0587,-0.0713 0.0736,-0.13792 0.0367,-0.16362 0.12423,-0.30533 a 0.0205583,0.01602337 37.3 0 0 -0.005,-0.0234 c -0.24035,-0.21102 -0.52184,-0.45863 -0.66575,-0.76158 -0.25121,-0.52877 -0.049,-1.18994 0.32775,-1.60778 0.23035,-0.25607 0.53661,-0.47405 0.86496,-0.55265 0.35551,-0.0852 0.77274,-0.0202 1.07569,0.20195 0.15178,0.11153 0.25393,0.27544 0.45287,0.37823 0.0648,0.0336 0.0879,0.0666 0.11376,0.12946 a 0.03083746,0.03023278 86.2 0 0 0.0202,0.0181 q 0.1511,0.0402 0.299,0.0816 c 0.19166,0.0541 0.15144,0.18199 0.15178,0.33892 a 0.04323289,0.04232589 26.4 0 0 0.01,0.0267 c 0.0961,0.1181 0.1811,0.21375 0.18835,0.35857 a 0.01632571,0.01179078 84.6 0 0 0.0135,0.0153 c 0.005,-7.3e-4 0.0135,-0.009 0.0153,-0.0135 0.13793,-0.32983 0.35433,-0.52574 0.60921,-0.73706 a 0.08102386,0.08011686 78.7 0 0 0.0261,-0.0397 c 0.15872,-0.54995 0.31444,-1.09807 0.51245,-1.63319 q 0.023,-0.0622 0.0168,-0.13066 c -0.0238,-0.2606 -0.0183,-0.4638 0.0955,-0.6996 q 0.12369,-0.25516 0.24549,-0.51154 a 0.03265142,0.03174442 45.4 0 0 -2.8e-4,-0.0275 q -0.04,-0.0843 -0.0197,-0.16107 0.21706,-0.81781 0.3513,-1.22957 0.029,-0.0889 0.13571,-0.113 a 0.02509322,0.02358158 0.2 0 0 0.0184,-0.0173 q 0.18383,-0.69384 0.32984,-1.39587 c 0.0442,-0.2122 0.0377,-0.36701 -0.0353,-0.55656 -0.0526,-0.13573 -0.0532,-0.27905 -0.11698,-0.39575 q -0.1841,-0.33741 -0.34253,-0.68689 c -0.0928,-0.20527 -0.13066,-0.42235 -0.18382,-0.64244 q -0.049,-0.20137 -0.0574,-0.32865 c -0.0686,-0.99828 0.65543,-1.86505 1.65071,-1.98447 0.92451,-0.11128 1.79372,0.50912 2.01563,1.4019 0.30564,1.23048 -0.6334,2.31522 -1.86356,2.31614 q -0.11699,2.7e-4 -0.12507,0.11736 a 0.04383754,0.03869796 31.4 0 0 0.009,0.0272 c 0.15838,0.21195 0.12491,0.48163 0.0483,0.68902 q -0.0395,0.10643 -0.0497,0.21283 l -0.14841,1.51286 a 0.03779097,0.04534918 27.2 0 0 0.006,0.0284 q 0.0662,0.0985 0.0591,0.19862 -0.0522,0.70956 -0.16931,1.17969 -0.046,0.18352 -0.23941,0.30958 a 0.03476769,0.03476769 0 0 0 -0.0153,0.023 c -0.11525,0.61012 -0.21375,1.12436 -0.4538,1.66069 q -0.0353,0.0787 -0.0414,0.1621 c -0.0208,0.28358 -0.0415,0.52815 -0.14486,0.78544 q -0.0294,0.0724 -0.0295,0.14334 -0.002,0.468 -0.0153,0.58137 c -0.0535,0.46348 -0.22798,0.89792 -0.40152,1.32148 q -0.0793,0.19348 -0.1016,0.33014 c -0.0811,0.49853 0.0635,1.05181 0.19712,1.51769 0.1457,0.50851 0.52815,0.86043 0.5853,1.41095 0.12913,1.2462 0.12367,2.44131 -0.20286,3.66512 a 0.07195403,0.08646576 37.1 0 0 0.002,0.0511 l 0.26241,0.62068 a 0.04655849,0.03779097 87.4 0 0 0.0203,0.0227 c 0.44686,0.21465 1.17123,0.65665 0.72469,1.26432 a 0.01783734,0.01813966 30.3 0 0 0.006,0.0269 q 0.65877,0.30444 1.30575,0.64091 c 0.83594,0.43506 1.58359,1.05423 2.21727,1.73054 a 0.04595383,0.04413986 72 0 0 0.0253,0.0135 c 0.21496,0.0351 0.43687,0.071 0.62461,0.18928 q 2.57673,1.62106 4.85932,3.63366 c 0.21344,0.18806 0.41569,0.32531 0.64727,0.4671 q 0.0536,0.0325 0.0318,0.0867 l -0.10012,0.24913 a 0.02630253,0.03083746 27.9 0 0 0.006,0.0341 l 0.25213,0.18652 a 0.0598609,0.07497731 52.1 0 0 0.0731,7.4e-4 q 0.055,-0.0294 0.11611,-0.0349 a 0.03930262,0.00846519 46.3 0 1 0.027,0.0181 c 0.20497,0.19771 0.47646,0.35494 0.70139,0.0596 q 0.0769,-0.10086 0.17507,-0.049 a 0.0456515,0.04534918 34.8 0 0 0.055,-0.01 c 0.14383,-0.15871 0.30565,-0.31111 0.5073,-0.37339 0.0635,-0.0196 0.47647,-0.12846 0.38002,0.077 a 0.03386072,0.0402096 88.6 0 1 -0.0211,0.0187 c -0.30385,0.11127 -0.43626,0.16142 -0.61524,0.39242 q -0.18078,0.2331 -0.33375,0.48554 -0.0124,0.0191 0.01,0.0168 c 0.27269,-0.0303 0.48402,-0.0248 0.81234,0.002 0.29903,0.025 0.56508,0.0168 0.84381,-0.01 0.17838,-0.0177 0.30082,-0.076 0.46497,-0.18685 0.40542,-0.27452 0.85047,-0.53936 1.25497,-0.0475 q 0.0407,0.0495 0.01,0.10619 -0.055,0.10123 -0.16329,0.20618 c -0.22463,0.21769 -0.45259,0.43264 -0.67842,0.6491 q -0.62672,0.60103 -1.37922,1.03094 c -0.42658,0.24368 -0.79996,0.52997 -1.15548,0.858 q -0.0852,0.0787 -0.35919,0.25305 -0.15871,0.10123 -0.25304,-0.0414 c -0.17867,-0.27087 -0.35312,-0.56202 -0.43595,-0.87855 a 0.04716314,0.04746548 12.1 0 0 -0.0153,-0.0245 c -0.22494,-0.18563 -0.50095,-0.46981 -0.62734,-0.7516 a 0.05200038,0.05562833 3.4 0 0 -0.0187,-0.0227 q -0.30145,-0.20981 -0.53544,-0.49038 c -0.14366,-0.17262 -0.30897,-0.29175 -0.4804,-0.42446 a 0.03507002,0.03567468 60.6 0 0 -0.027,-0.006 q -0.33255,0.0466 -0.59892,-0.15872 -0.60132,-0.46287 -1.21081,-0.91575 -0.0526,-0.0391 -0.12244,-0.0547 -0.33105,-0.074 -0.55388,-0.24849 -0.96139,-0.75251 -1.94879,-1.47115 c -0.13995,-0.10196 -0.30143,-0.2198 -0.45954,-0.29083 q -0.3105,-0.13945 -0.59833,-0.31987 -0.0694,-0.0437 -0.14788,-0.0591 c -0.348,-0.068 -0.6881,-0.17776 -1.03819,-0.22764 q -0.62734,-0.0896 -1.20205,-0.32501 c -0.33137,-0.13539 -0.67663,-0.30808 -1.00526,-0.43839 q -0.62038,-0.24548 -1.23562,-0.50336 c -0.3135,-0.13117 -0.77366,-0.21678 -1.06359,-0.32078 q -0.37065,-0.13268 -0.71409,-0.32773 c -0.16379,-0.0932 -0.31383,-0.0781 -0.47799,0.004 q -1.1331,0.5587 -2.13079,1.13616 c -0.69293,0.40117 -1.44151,0.73828 -2.16981,1.07053 q -0.2198,0.10036 -0.44623,0.18262 -0.0877,0.0318 -0.15906,0.088 -1.24348,0.9759 -2.7297,1.75865 c -0.20468,0.10768 -0.40815,0.18411 -0.57139,0.30443 -0.4535,0.33377 -1.19151,0.84803 -1.72753,1.32027 -0.1699,0.14958 -0.2618,0.0778 -0.44653,0.0177 a 0.02872114,0.02841882 34.3 0 0 -0.0264,0.005 c -0.15061,0.12158 -0.39788,0.34133 -0.60105,0.31775 a 0.03960495,0.03748866 28.5 0 0 -0.0269,0.006 c -0.17897,0.13386 -0.33647,0.15026 -0.42749,0.38576 a 0.03265142,0.0335584 1 0 1 -0.0195,0.0195 c -0.0812,0.0294 -0.14909,0.0493 -0.20679,0.1176 q -0.12343,0.14638 -0.24278,0.38153 -0.11524,0.22706 -0.39089,0.25819 a 0.05411668,0.04958177 20 0 0 -0.0269,0.0124 q -0.12509,0.10458 -0.22251,0.29992 -0.0294,0.0591 -0.11462,0.0782 a 0.02962813,0.02872114 4.6 0 0 -0.0206,0.0168 q -0.20498,0.48705 -0.71682,0.48675 c -0.13724,-3e-4 -0.30595,-0.069 -0.42567,-0.0751 -0.27693,-0.0135 -0.45319,0.0801 -0.70502,0.21161 -0.29538,0.1545 -0.66724,0.12182 -0.94842,-0.0307 -0.23972,-0.12998 -0.45741,-0.40028 -0.6249,-0.63276 -0.3111,-0.43172 -0.17231,-0.59076 0.20316,-0.87221 0.143,-0.10693 0.26363,-0.14757 0.43445,-0.15602 0.16481,-0.009 0.30354,-0.0656 0.47314,-0.0705 q 0.0953,-0.002 0.16716,-0.0272 0.30839,-0.10433 0.61344,-0.21496 0.0649,-0.0237 0.182,-0.0153 0.0124,7.3e-4 0.0294,-0.006 z"
       fill="#cc0202"
       id="path10974-1"
       style="stroke-width:0.0302328" />
  </g>
</svg>
