<?xml version="1.0" encoding="UTF-8" standalone="no"?>
<!-- Created with Inkscape (http://www.inkscape.org/) -->

<svg
   width="36.035545mm"
   height="17.834938mm"
   viewBox="0 0 36.035545 17.834938"
   version="1.1"
   id="svg6631"
   sodipodi:docname="nike-sb.svg"
   inkscape:version="1.1.2 (b8e25be8, 2022-02-05)"
   xmlns:inkscape="http://www.inkscape.org/namespaces/inkscape"
   xmlns:sodipodi="http://sodipodi.sourceforge.net/DTD/sodipodi-0.dtd"
   xmlns="http://www.w3.org/2000/svg"
   xmlns:svg="http://www.w3.org/2000/svg">
  <sodipodi:namedview
     id="namedview6633"
     pagecolor="#ffffff"
     bordercolor="#666666"
     borderopacity="1.0"
     inkscape:pageshadow="2"
     inkscape:pageopacity="0.0"
     inkscape:pagecheckerboard="0"
     inkscape:document-units="mm"
     showgrid="false"
     inkscape:zoom="0.66368547"
     inkscape:cx="-44.448766"
     inkscape:cy="116.77218"
     inkscape:window-width="1312"
     inkscape:window-height="959"
     inkscape:window-x="0"
     inkscape:window-y="25"
     inkscape:window-maximized="0"
     inkscape:current-layer="layer1"
     fit-margin-top="0"
     fit-margin-left="0"
     fit-margin-right="0"
     fit-margin-bottom="0" />
  <defs
     id="defs6628" />
  <g
     inkscape:label="Layer 1"
     inkscape:groupmode="layer"
     id="layer1"
     transform="translate(-280.53037,-134.52489)">
    <path
       style="fill:#000000;stroke-width:0.0270552"
       d="m 283.69377,152.35394 c -0.45192,-0.0225 -0.79437,-0.10715 -1.18347,-0.29263 -0.92458,-0.44072 -1.62018,-1.26947 -1.86063,-2.21679 -0.12228,-0.48177 -0.15445,-1.2277 -0.0784,-1.81904 0.21634,-1.68305 1.17744,-3.37998 3.30025,-5.8269 0.59437,-0.68511 1.84243,-2.01484 1.89109,-2.01484 0.008,0 -0.0446,0.1187 -0.11728,0.26379 -0.32923,0.6568 -0.55127,1.33444 -0.68218,2.08187 -0.065,0.37126 -0.0891,1.0654 -0.0491,1.41501 0.0359,0.31396 0.14216,0.74662 0.24241,0.98742 0.27701,0.66541 1.00511,1.26762 1.76594,1.46062 0.34093,0.0865 0.85531,0.12739 1.20988,0.0962 0.67234,-0.0591 1.729,-0.24226 2.90699,-0.50373 0.94135,-0.20896 5.0469,-1.23357 6.60148,-1.6475 0.47617,-0.12679 1.69975,-0.44491 2.71905,-0.70692 1.0193,-0.262 2.00547,-0.51667 2.19147,-0.56593 l 0.33819,-0.0895 -1.7632,-0.003 -1.7632,-0.003 -0.0146,-0.0744 c -0.008,-0.0409 -0.0831,-0.77447 -0.16677,-1.63008 -0.0837,-0.85562 -0.15805,-1.57394 -0.16531,-1.59626 -0.007,-0.0223 -0.0554,0.069 -0.10706,0.20292 -0.0923,0.23935 -0.48428,1.23576 -0.96863,2.46202 l -0.24578,0.62227 -1.03486,0.007 c -0.74456,0.005 -1.03487,-8.8e-4 -1.03487,-0.023 0,-0.0164 0.10285,-0.28146 0.22855,-0.58876 0.12571,-0.30732 0.38886,-0.95443 0.58479,-1.43804 0.19592,-0.48362 0.46529,-1.14714 0.59861,-1.47451 0.13332,-0.32737 0.36253,-0.8935 0.50936,-1.25807 0.14684,-0.36456 0.4633,-1.14376 0.70322,-1.73153 0.23993,-0.58778 0.51064,-1.25435 0.60158,-1.48127 l 0.16536,-0.4126 h 0.87054 c 0.4788,0 0.94538,-0.008 1.03685,-0.0174 0.11194,-0.0117 0.1663,-0.008 0.1663,0.0118 0,0.0255 -0.23439,0.60696 -0.77496,1.92239 -0.0816,0.19868 -0.14435,0.36532 -0.13936,0.37031 0.005,0.005 0.35256,-0.35236 0.77237,-0.79411 0.41982,-0.44176 0.91873,-0.96512 1.10872,-1.16303 l 0.3454,-0.35983 1.12021,0.008 1.12021,0.008 -0.49794,0.5421 c -1.07932,1.17504 -2.60236,2.83176 -2.92796,3.18496 -0.18872,0.20471 -0.34313,0.38517 -0.34313,0.40102 0,0.0158 0.049,0.451 0.1089,0.96702 0.13952,1.20201 0.35104,3.05917 0.35104,3.0822 0,0.0651 0.0799,-0.10994 0.29352,-0.64242 0.13428,-0.3348 0.36535,-0.90702 0.51352,-1.27159 0.29566,-0.72754 0.96402,-2.37664 1.31583,-3.24663 0.40754,-1.00784 1.14589,-2.82551 1.18967,-2.92873 l 0.043,-0.10146 h 2.0378 c 1.12079,0 2.04431,0.006 2.05228,0.0145 0.008,0.008 -0.12013,0.34887 -0.28467,0.75756 l -0.29918,0.74305 h -1.00641 -1.00642 l -0.0706,0.16909 c -0.47731,1.14336 -0.66599,1.60268 -0.66599,1.62129 0,0.0123 0.4383,0.0223 0.97399,0.0223 0.5357,0 0.97417,0.009 0.97439,0.0202 2.7e-4,0.0112 -0.12968,0.34596 -0.28865,0.74402 l -0.28904,0.72373 h -1.00377 -1.00377 l -0.30593,0.79136 c -0.16826,0.43525 -0.3412,0.88572 -0.38432,1.00104 l -0.0784,0.20968 h 1.23033 c 0.67669,0 1.23034,0.0102 1.23034,0.0226 0,0.0124 -0.0612,0.17846 -0.13603,0.369 -0.0748,0.19055 -0.13206,0.35042 -0.12721,0.35528 0.0326,0.0326 4.63427,-1.288 6.79708,-1.95067 2.22702,-0.68234 2.64064,-0.80604 3.03754,-0.90837 0.31214,-0.0805 0.49317,-0.10013 0.49317,-0.0536 0,0.0708 -0.63253,0.36797 -2.3944,1.12471 -0.68449,0.29401 -1.8898,0.81169 -2.67846,1.15042 -2.88287,1.2382 -5.62364,2.43831 -8.1842,3.58367 -0.4241,0.1897 -1.06936,0.47832 -1.43394,0.64137 -4.36778,1.95349 -8.58414,3.7906 -10.99795,4.79194 -0.80105,0.33231 -3.15383,1.20844 -3.84183,1.43064 -0.54652,0.17648 -1.19409,0.32344 -1.77213,0.40214 -0.32599,0.0444 -1.13905,0.0691 -1.5692,0.0477 z m 18.96098,-0.59094 c -0.61766,-0.0591 -1.0345,-0.26882 -1.19742,-0.60257 -0.16255,-0.33296 -0.12637,-0.57347 0.21451,-1.42581 l 0.25443,-0.63619 0.7995,-0.007 c 0.43972,-0.004 0.79949,0.002 0.79949,0.0136 0,0.0198 -0.093,0.26497 -0.30917,0.81453 -0.12366,0.31445 -0.12554,0.46773 -0.007,0.55613 0.0615,0.0457 0.12458,0.0587 0.32263,0.0665 0.27125,0.0106 0.41258,-0.0193 0.56806,-0.12026 0.0826,-0.0536 0.13092,-0.1268 0.2621,-0.39691 0.30901,-0.63627 0.31987,-0.79766 0.0684,-1.01838 -0.0542,-0.0476 -0.35004,-0.25508 -0.65747,-0.46114 -0.8397,-0.56282 -0.98813,-0.7423 -0.9858,-1.19193 8.8e-4,-0.27654 0.0661,-0.48744 0.31496,-1.0281 0.19991,-0.43419 0.33212,-0.63606 0.58357,-0.89103 0.31533,-0.31974 0.65763,-0.50684 1.12456,-0.61466 0.18342,-0.0424 0.33202,-0.0499 0.97399,-0.0494 0.75482,5.7e-4 0.75831,6.5e-4 0.96773,0.0744 0.11559,0.0406 0.25662,0.10313 0.31339,0.13896 0.24896,0.15717 0.43689,0.47686 0.43689,0.74324 0,0.18603 -0.0815,0.47326 -0.26199,0.92319 l -0.15737,0.3923 -0.79136,0.007 c -0.67936,0.006 -0.79137,8.9e-4 -0.79137,-0.0324 0,-0.0217 0.0609,-0.19184 0.13528,-0.378 0.16691,-0.41763 0.17586,-0.53332 0.0473,-0.61168 -0.12275,-0.0748 -0.4791,-0.0755 -0.65229,-8.9e-4 -0.1518,0.0651 -0.31715,0.23217 -0.39686,0.40106 -0.0903,0.19124 -0.16157,0.41085 -0.16157,0.49755 0,0.11977 0.15038,0.26179 0.64595,0.61009 1.11447,0.78328 1.25914,0.96127 1.19034,1.46437 -0.0292,0.21295 -0.2384,0.85807 -0.38769,1.19506 -0.30413,0.68654 -0.71806,1.1525 -1.20463,1.35605 -0.45757,0.19141 -1.33634,0.28212 -2.0614,0.21278 z m 3.38664,-0.15179 c 0,-0.004 0.32005,-0.80863 0.71122,-1.78774 0.39116,-0.9791 0.99078,-2.48301 1.33247,-3.342 l 0.62125,-1.56182 1.36628,-2.7e-4 c 1.47899,-2.8e-4 1.58222,0.008 1.88941,0.1482 0.20121,0.0919 0.34464,0.23265 0.44054,0.43239 0.0667,0.13882 0.0779,0.19499 0.078,0.3878 3e-5,0.26238 -0.0493,0.47386 -0.24208,1.03946 -0.17201,0.5045 -0.29424,0.74719 -0.47058,0.93434 -0.16899,0.17937 -0.30213,0.26704 -0.52319,0.3445 l -0.16719,0.0586 0.14013,0.0922 c 0.18826,0.12382 0.2427,0.23259 0.22275,0.44509 -0.0321,0.34217 -0.22858,0.89262 -0.5704,1.59809 -0.15472,0.31938 -0.23227,0.4458 -0.35425,0.57755 -0.26842,0.28992 -0.57393,0.46622 -0.99465,0.57394 -0.20899,0.0535 -0.29763,0.0564 -1.84959,0.0616 -0.89654,0.004 -1.63008,0.002 -1.63008,-0.002 z m 2.90286,-1.22824 c 0.36014,-0.0521 0.48207,-0.164 0.69201,-0.63517 0.21502,-0.48257 0.2278,-0.69392 0.0479,-0.79207 -0.0683,-0.0372 -0.17289,-0.0481 -0.53142,-0.0552 l -0.44641,-0.009 -0.29084,0.7264 c -0.15996,0.39951 -0.29085,0.74126 -0.29085,0.75942 0,0.0413 0.54664,0.0448 0.81961,0.005 z m 1.22069,-2.80015 c 0.19137,-0.0499 0.28848,-0.1157 0.39154,-0.26547 0.10815,-0.1572 0.32779,-0.69991 0.34621,-0.8555 0.0135,-0.11434 0.007,-0.13778 -0.0625,-0.21438 -0.0623,-0.0689 -0.11001,-0.0912 -0.24002,-0.11217 -0.24409,-0.0393 -0.78913,-0.0343 -0.80609,0.007 -0.31008,0.76241 -0.58726,1.45436 -0.58726,1.46604 0,0.0358 0.80476,0.0141 0.9581,-0.0259 z m -24.33374,-4.62023 c -2e-5,-0.0118 0.14476,-0.377 0.32177,-0.81166 0.17701,-0.43465 0.49483,-1.21641 0.70626,-1.73722 0.21142,-0.52081 0.52797,-1.3 0.70344,-1.73154 0.17546,-0.43153 0.49208,-1.21072 0.7036,-1.73153 0.21151,-0.52081 0.5164,-1.26957 0.67753,-1.66389 l 0.29296,-0.71697 1.13799,-0.007 1.13798,-0.007 v 1.68222 c 0,0.92523 0.008,1.67411 0.018,1.66419 0.01,-0.01 0.13598,-0.30719 0.28013,-0.6606 0.42578,-1.0438 0.99076,-2.41835 1.05091,-2.55672 l 0.0559,-0.1285 h 1.02663 1.02663 l -0.44063,1.08897 c -0.24236,0.59893 -0.79071,1.95339 -1.21857,3.00989 -1.16502,2.87676 -1.35253,3.34062 -1.54765,3.82831 -0.0982,0.24554 -0.18782,0.45859 -0.19912,0.47347 -0.0133,0.0174 -0.396,0.0244 -1.07802,0.0197 l -1.05748,-0.007 v -1.88513 c 0,-1.22586 -0.009,-1.87589 -0.0264,-1.85873 -0.0145,0.0145 -0.15305,0.34264 -0.30784,0.72914 -0.44205,1.1038 -1.11642,2.7727 -1.1792,2.91825 l -0.057,0.13226 -1.01386,-0.0105 c -0.55762,-0.005 -1.01389,-0.0202 -1.01393,-0.0319 z m 6.73667,-0.007 c 10e-6,-0.0156 0.18946,-0.49647 0.42102,-1.06868 0.23154,-0.57221 0.56146,-1.38736 0.73315,-1.81145 0.17169,-0.4241 0.4501,-1.11197 0.61868,-1.52862 0.16859,-0.41665 0.48451,-1.19584 0.70204,-1.73154 0.21754,-0.53569 0.51185,-1.26314 0.65404,-1.61655 l 0.25851,-0.64256 h 1.05172 1.05173 l -0.0233,0.0608 c -0.0128,0.0335 -0.13275,0.32872 -0.26658,0.65609 -0.13383,0.32736 -0.42274,1.03959 -0.64202,1.58272 -0.21928,0.54314 -0.50551,1.24928 -0.63607,1.5692 -0.13055,0.31993 -0.39222,0.9652 -0.58147,1.43394 -0.18925,0.46872 -0.5021,1.24183 -0.69524,1.718 -0.19314,0.47617 -0.39793,0.98143 -0.45508,1.12279 l -0.10392,0.25703 -1.04363,0.0135 c -0.71703,0.009 -1.04362,0.004 -1.04361,-0.0148 z"
       id="path12538-9" />
  </g>
</svg>
