<?xml version="1.0" encoding="UTF-8" standalone="no"?>
<svg
   version="1.1"
   id="Layer_1"
   x="0px"
   y="0px"
   width="122.88px"
   height="122.88px"
   viewBox="0 0 122.88 122.88"
   enable-background="new 0 0 122.88 122.88"
   xml:space="preserve"
   sodipodi:docname="not-verified.svg"
   inkscape:version="1.1.2 (b8e25be8, 2022-02-05)"
   xmlns:inkscape="http://www.inkscape.org/namespaces/inkscape"
   xmlns:sodipodi="http://sodipodi.sourceforge.net/DTD/sodipodi-0.dtd"
   xmlns="http://www.w3.org/2000/svg"
   xmlns:svg="http://www.w3.org/2000/svg"><defs
     id="defs8993" /><sodipodi:namedview
     id="namedview8991"
     pagecolor="#ffffff"
     bordercolor="#666666"
     borderopacity="1.0"
     inkscape:pageshadow="2"
     inkscape:pageopacity="0.0"
     inkscape:pagecheckerboard="0"
     showgrid="false"
     inkscape:zoom="6.0628257"
     inkscape:cx="64.90373"
     inkscape:cy="58.141207"
     inkscape:window-width="1296"
     inkscape:window-height="959"
     inkscape:window-x="0"
     inkscape:window-y="25"
     inkscape:window-maximized="0"
     inkscape:current-layer="g8988" /><g
     id="g8988"
     style="fill:#ff0000"><path
       fill="#6BBE66"
       d="m 61.44,0 c 16.96,0 32.328,6.883 43.453,17.987 11.104,11.125 17.986,26.493 17.986,43.453 0,16.961 -6.883,32.329 -17.986,43.454 C 93.769,115.998 78.4,122.88 61.44,122.88 44.479,122.88 29.111,115.998 17.986,104.894 6.882,93.769 0,78.4 0,61.439 0,44.48 6.882,29.112 17.986,17.987 29.112,6.883 44.479,0 61.44,0 Z M 96.899,25.981 C 87.826,16.907 75.29,11.296 61.44,11.296 c -13.851,0 -26.387,5.611 -35.46,14.685 -9.073,9.073 -14.684,21.609 -14.684,35.458 0,13.851 5.611,26.387 14.684,35.46 9.073,9.073 21.609,14.685 35.46,14.685 13.85,0 26.386,-5.611 35.459,-14.685 9.073,-9.074 14.684,-21.609 14.684,-35.46 0,-13.849 -5.61,-26.385 -14.684,-35.458 z"
       id="path8986"
       style="fill:#ff0000"
       sodipodi:nodetypes="scscscscscscsssssc" /><rect
       style="fill:#ff0000;fill-opacity:1;stroke-width:0.466671;stroke-linejoin:round"
       id="rect10725"
       width="82.967896"
       height="14.551556"
       x="20.203459"
       y="54.301388"
       ry="7.2757778" /></g></svg>
