<?xml version="1.0" encoding="UTF-8" standalone="no"?>
<svg
   version="1.1"
   id="Layer_1"
   x="0px"
   y="0px"
   viewBox="0 0 122.89763 138.43311"
   xml:space="preserve"
   sodipodi:docname="bb-banned-url.svg"
   width="122.89763"
   height="138.43311"
   inkscape:version="1.1.2 (b8e25be8, 2022-02-05)"
   xmlns:inkscape="http://www.inkscape.org/namespaces/inkscape"
   xmlns:sodipodi="http://sodipodi.sourceforge.net/DTD/sodipodi-0.dtd"
   xmlns:xlink="http://www.w3.org/1999/xlink"
   xmlns="http://www.w3.org/2000/svg"
   xmlns:svg="http://www.w3.org/2000/svg"><defs
     id="defs38146"><linearGradient
       id="b"><stop
         offset="0"
         stop-color="#3771c8"
         id="stop7083" /><stop
         stop-color="#3771c8"
         offset=".128"
         id="stop7085" /><stop
         offset="1"
         stop-color="#60f"
         stop-opacity="0"
         id="stop7087" /></linearGradient><linearGradient
       id="a"><stop
         offset="0"
         stop-color="#fd5"
         id="stop7090" /><stop
         offset=".1"
         stop-color="#fd5"
         id="stop7092" /><stop
         offset=".5"
         stop-color="#ff543e"
         id="stop7094" /><stop
         offset="1"
         stop-color="#c837ab"
         id="stop7096" /></linearGradient><radialGradient
       id="c"
       cx="158.429"
       cy="578.08801"
       r="65"
       xlink:href="#a"
       gradientUnits="userSpaceOnUse"
       gradientTransform="matrix(0,-1.98198,1.8439,0,-1031.402,454.004)"
       fx="158.429"
       fy="578.08801" /><radialGradient
       id="d"
       cx="147.694"
       cy="473.45499"
       r="65"
       xlink:href="#b"
       gradientUnits="userSpaceOnUse"
       gradientTransform="matrix(0.17394,0.86872,-3.5818,0.71718,1648.348,-458.493)"
       fx="147.694"
       fy="473.45499" /></defs><sodipodi:namedview
     id="namedview38144"
     pagecolor="#ffffff"
     bordercolor="#666666"
     borderopacity="1.0"
     inkscape:pageshadow="2"
     inkscape:pageopacity="0.0"
     inkscape:pagecheckerboard="0"
     showgrid="false"
     fit-margin-top="0"
     fit-margin-left="0"
     fit-margin-right="0"
     fit-margin-bottom="0"
     inkscape:zoom="3.0314128"
     inkscape:cx="33.152858"
     inkscape:cy="68.614871"
     inkscape:window-width="1296"
     inkscape:window-height="958"
     inkscape:window-x="0"
     inkscape:window-y="25"
     inkscape:window-maximized="0"
     inkscape:current-layer="Layer_1" /><style
     type="text/css"
     id="style38137">.st0{fill:#D8453E;}</style><g
     id="g38141"
     transform="matrix(0.95684775,-0.10342883,0.10342883,0.95684775,-3.6998787,24.244488)"><path
       class="st0"
       d="m 61.44,0 c 8.31,0 16.24,1.66 23.49,4.66 7.53,3.12 14.3,7.68 19.96,13.34 5.66,5.66 10.22,12.42 13.34,19.96 3,7.25 4.66,15.18 4.66,23.49 0,8.31 -1.66,16.24 -4.66,23.49 -3.12,7.53 -7.68,14.3 -13.34,19.96 -5.66,5.66 -12.42,10.22 -19.96,13.34 -7.25,3 -15.18,4.66 -23.49,4.66 -8.31,0 -16.24,-1.66 -23.49,-4.66 C 30.42,115.12 23.65,110.56 17.99,104.9 12.34,99.23 7.78,92.46 4.66,84.93 1.66,77.68 0,69.75 0,61.44 0,53.13 1.66,45.2 4.66,37.95 7.78,30.42 12.34,23.65 18,18 23.66,12.34 30.42,7.78 37.96,4.66 45.2,1.66 53.13,0 61.44,0 Z m -12.31,16.62 38.18,83.42 c 0.93,-0.63 1.84,-1.28 2.72,-1.97 1.46,-1.14 2.89,-2.41 4.26,-3.78 4.29,-4.29 7.75,-9.41 10.09,-15.08 2.26,-5.47 3.51,-11.47 3.51,-17.78 0,-6.31 -1.25,-12.31 -3.51,-17.78 C 102.03,37.98 98.58,32.86 94.29,28.57 90,24.28 84.88,20.82 79.21,18.48 73.74,16.22 67.74,14.97 61.43,14.97 c -2.54,0 -5.01,0.2 -7.38,0.58 -1.65,0.27 -3.3,0.63 -4.92,1.07 z M 73.75,106.26 35.57,22.83 c -0.93,0.63 -1.84,1.28 -2.72,1.97 -1.46,1.14 -2.89,2.41 -4.26,3.78 -4.29,4.29 -7.75,9.41 -10.09,15.08 -2.26,5.47 -3.51,11.47 -3.51,17.78 0,6.31 1.25,12.31 3.51,17.78 2.35,5.67 5.8,10.79 10.09,15.08 4.29,4.29 9.41,7.75 15.08,10.09 5.47,2.26 11.47,3.51 17.78,3.51 2.54,0 5.01,-0.2 7.38,-0.58 1.65,-0.26 3.3,-0.62 4.92,-1.06 z"
       id="path38139" /></g><path
     d="M 59.479807,115.55249 C 52.650312,115.19474 45.443764,112.81623 39.658508,109.01788 30.349286,102.90209 24.448219,93.499792 23.213139,82.815857 23.027064,81.221579 23.003063,76.49955 23.003063,41.804531 V 2.6010541 h 0.633663 c 1.645594,0.0026 4.78292,0.2936213 6.051421,0.5453599 7.471463,1.50124 13.084914,6.1767219 14.543144,12.119511 0.200479,0.821013 0.228997,3.319851 0.293621,27.177005 l 0.07035,26.271304 0.792353,3.860413 c 0.521506,2.553757 0.750607,3.924903 0.667083,4.050198 -0.06557,0.102635 -2.242276,1.584763 -4.834202,3.291224 -2.591933,1.706459 -6.815153,4.484551 -9.384397,6.176695 -2.614594,1.719596 -4.600302,3.11343 -4.51198,3.159954 0.08826,0.04289 0.489271,0.121837 0.894989,0.168475 4.861667,0.55965 22.412036,2.792383 22.482415,2.861618 0.05141,0.05141 1.655191,4.186186 3.565702,9.188659 4.335416,11.34504 4.056168,10.6279 4.149237,10.6231 0.04663,0 2.396233,-4.21369 5.220819,-9.36534 2.824659,-5.150403 5.188635,-9.39273 5.248296,-9.429731 0.06079,-0.03673 5.416571,-0.125282 11.901144,-0.195942 6.479838,-0.07035 11.808056,-0.149282 11.84029,-0.181277 0.02726,-0.02726 -1.379523,-1.278075 -3.132518,-2.774522 C 87.741488,88.651289 83.89656,85.36607 80.95019,82.848142 l -5.36042,-4.57764 3.514358,-9.994191 c 1.934387,-5.495295 3.504834,-10.026389 3.49172,-10.072938 -0.02727,-0.07038 -5.267415,2.372347 -20.291514,9.448803 l -0.741042,0.349683 -7.551428,-4.736371 0.03674,-9.998931 c 0.02394,-5.500094 0.06932,-10.031191 0.112231,-10.068194 0.09784,-0.102633 2.484503,-0.45704 4.120584,-0.620511 2.022708,-0.195949 5.886724,-0.163431 8.11468,0.07038 5.109838,0.535815 9.631422,1.878304 14.292581,4.250674 5.939211,3.016741 10.688712,7.197007 14.305703,12.590865 3.127741,4.661168 4.890291,9.229266 5.766197,14.972806 0.30784,2.017891 0.31256,7.052569 0.003,9.066938 -0.951084,6.31514 -3.318685,11.956006 -7.131389,16.971635 -1.217178,1.60859 -4.699365,5.14685 -6.325902,6.43334 -5.193352,4.11106 -11.439279,6.89852 -18.114787,8.08724 -2.834182,0.50358 -6.465496,0.69925 -9.718538,0.53104 z"
     style="fill:#102ff5;fill-opacity:1;fill-rule:nonzero;stroke:none;stroke-width:1.19334;stroke-linecap:butt;stroke-linejoin:round"
     id="path48515"
     inkscape:export-filename="/Users/livesigned/Documents/Lach/brandbased/brandbased-poster.png"
     inkscape:export-xdpi="65.450974"
     inkscape:export-ydpi="65.450974" /><path
     style="fill:#d8453e;fill-opacity:1;stroke:none;stroke-width:0.962421px;stroke-linecap:butt;stroke-linejoin:miter;stroke-opacity:1"
     d="M 45.029038,35.065839 90.189519,110.93717 77.857991,118.29125 32.696476,42.410359 45.029038,35.065839"
     id="path40268" /><rect
     style="fill:#102ff5;fill-opacity:1;stroke:none;stroke-width:0.565964;stroke-linejoin:round"
     id="rect43707"
     width="19.764538"
     height="52.556892"
     x="25.442377"
     y="20.842838" /></svg>
