<?xml version="1.0" encoding="UTF-8"?><svg id="a" xmlns="http://www.w3.org/2000/svg" width="46.87" height="58.35" viewBox="0 0 46.87 58.35">
<title>Collingwood_Football_Club-logo - brandlogos.net</title><path d="M46.52,27.85c-.22-.25-.5-.4-.84-.44.28-.55.51-1.22.64-2.04.04-.26.01-.5-.09-.74-.1-.24-.25-.43-.46-.58-.07-.05-.14-.09-.22-.13.1-.39.16-.81.19-1.25.02-.26-.04-.5-.16-.73-.12-.23-.3-.41-.52-.53-.01,0-.03-.01-.04-.02.08-.39.12-.79.11-1.19,0-.33-.11-.61-.32-.87-.21-.25-.47-.41-.8-.47-.01-.22-.04-.44-.07-.65-.04-.26-.15-.48-.32-.67-.17-.19-.38-.33-.63-.4-.07-.02-.14-.04-.22-.05-.03-.43-.11-.84-.25-1.24-.17-.5-.51-.8-1.03-.9v-.68c-.78-.7-7.66-6.6-18.03-6.6S6.27,13.5,5.43,14.26v.67c-.25.04-.48.14-.68.3-.2.17-.34.37-.42.61-.14.4-.22.82-.25,1.24-.07,0-.15.02-.22.05-.25.07-.46.21-.63.4-.17.19-.28.42-.32.67-.04.22-.06.43-.07.65-.32.06-.59.21-.8.47-.21.25-.31.54-.32.86,0,.4.03.8.11,1.19-.01,0-.03.01-.04.02-.22.13-.4.31-.52.53-.12.23-.18.47-.16.73.02.42.09.84.19,1.25-.08.03-.15.08-.22.13-.21.15-.36.35-.46.58-.1.24-.13.49-.09.74.13.81.36,1.48.64,2.04-.21.03-.4.1-.58.21-.18.12-.32.26-.42.45-.11.18-.17.38-.18.59-.02.21.01.41.09.61.19.5.44.97.73,1.41-.15.09-.28.2-.39.34s-.19.29-.24.46c-.05.17-.07.34-.05.51.02.17.06.34.14.5.34.66.71,1.2,1.1,1.65-.12.09-.21.2-.3.32-.14.22-.22.45-.22.71,0,.26.05.5.19.72.44.75.9,1.34,1.38,1.81-.1.1-.19.22-.25.35-.11.23-.16.48-.13.74.03.26.12.49.28.69.72.92,1.45,1.58,2.18,2.04-.23.19-.39.43-.46.73-.06.25-.05.5.03.75.08.25.22.45.42.62.79.66,1.55,1.12,2.27,1.44-.18.14-.31.31-.4.52-.09.21-.13.42-.11.65s.09.43.21.62c.12.19.28.34.48.45,1.19.68,2.28,1.04,3.26,1.19-.24.3-.34.64-.29,1.02.03.26.13.49.29.69.16.2.37.35.61.43,1.2.42,2.27.59,3.2.59.75,0,1.42-.11,2.01-.28.11.15.23.27.36.34h0c2.11,1.09,4.36,1.59,7.09,1.59,2.72,0,4.97-.51,7.08-1.59.13-.07.24-.18.35-.32.64.18,1.29.27,1.95.27.93,0,2-.17,3.2-.59.24-.09.45-.23.61-.43.16-.2.26-.43.29-.69.05-.38-.05-.72-.29-1.02.98-.15,2.07-.51,3.26-1.19.2-.11.35-.26.48-.45s.19-.4.21-.62c.02-.23-.02-.44-.11-.65-.09-.21-.22-.38-.4-.52.72-.32,1.48-.78,2.27-1.44.2-.17.34-.37.42-.62s.09-.49.03-.75c-.07-.29-.22-.53-.46-.73.72-.46,1.46-1.12,2.18-2.04.16-.2.25-.44.28-.69.03-.26-.02-.5-.13-.74-.06-.13-.15-.25-.25-.35.48-.47.95-1.07,1.38-1.81.13-.22.19-.46.19-.72,0-.26-.08-.5-.22-.71-.08-.12-.18-.23-.3-.32.39-.45.76-.99,1.1-1.65.08-.16.13-.32.14-.5.02-.17,0-.35-.05-.51-.05-.17-.13-.32-.24-.46-.11-.14-.24-.25-.39-.34.29-.45.53-.92.73-1.41.1-.24.12-.49.08-.74-.05-.25-.15-.48-.33-.67" style="fill:#fff; fill-rule:evenodd;"/><path d="M15.57,45.69s-.02.07-.03.11c0-.04.02-.07.03-.11M31.39,45.8s-.02-.07-.03-.1c0,.03.02.07.03.1M31.09,50.65h0s0,0,0,0" style="fill:#fff; fill-rule:evenodd;"/><path d="M46.28,28.06c-.29-.32-.64-.42-1.05-.31-.05.01-.1.03-.15.05.41-.62.76-1.42.93-2.49.02-.14.02-.27-.01-.4-.03-.13-.09-.26-.17-.37-.08-.11-.18-.2-.29-.28-.12-.07-.24-.12-.38-.14.13-.43.23-.92.26-1.48.01-.25-.05-.47-.2-.67-.15-.2-.34-.33-.58-.4.11-.4.17-.86.17-1.39,0-.43-.2-.74-.58-.93-.17-.08-.34-.11-.52-.1,0-.29-.02-.59-.07-.9-.05-.28-.18-.5-.41-.67-.23-.17-.48-.23-.76-.19.01-.46-.07-.95-.24-1.46-.12-.36-.36-.58-.72-.68v14.75c0,6.61-5.34,11.9-10.22,15.35.08.26.15.55.2.88.13.78.13,1.48.14,1.51,0,.03,0,.74-.14,1.52-.09.58-.23,1.04-.4,1.38.59.16,1.18.23,1.79.23.9,0,1.92-.16,3.08-.57.41-.14.64-.43.69-.86.05-.43-.1-.76-.46-1-.15-.1-.31-.16-.49-.22,1.16-.02,2.53-.35,4.08-1.23.37-.21.55-.54.52-.97-.03-.43-.24-.73-.63-.9-.15-.06-.3-.1-.45-.12.91-.28,1.91-.8,2.96-1.68.33-.28.44-.62.34-1.04-.1-.42-.36-.68-.78-.77-.02,0-.03,0-.05,0,.85-.45,1.75-1.15,2.61-2.26.24-.31.29-.74.12-1.09-.1-.21-.25-.36-.46-.47.56-.49,1.1-1.14,1.61-2,.22-.37.21-.74-.03-1.1-.13-.2-.31-.34-.54-.41.47-.48.92-1.09,1.32-1.88.18-.35.15-.78-.09-1.09-.17-.22-.39-.36-.67-.4.34-.45.66-1.01.93-1.69.16-.4.09-.76-.19-1.08M15.32,47.76s0-.74.13-1.52c.05-.34.12-.63.21-.89-4.88-3.45-10.22-8.73-10.22-15.34v-14.77c-.4.08-.66.31-.79.69-.17.51-.25,1-.24,1.46-.15-.02-.3,0-.44.03-.41.12-.65.4-.72.82-.05.31-.08.61-.07.9-.18-.01-.36.02-.52.1-.39.19-.58.5-.58.93,0,.53.06.99.17,1.39-.24.06-.43.19-.58.4-.15.2-.21.43-.2.67.03.56.13,1.05.26,1.48-.13.02-.26.07-.38.14s-.21.17-.29.28c-.08.11-.13.23-.17.37-.03.13-.04.27-.01.4.17,1.06.52,1.87.93,2.49-.05-.02-.1-.04-.15-.05-.41-.11-.77-.01-1.05.31s-.35.68-.19,1.08c.27.68.59,1.24.93,1.69-.28.04-.5.18-.67.4-.26.35-.29.71-.09,1.09.4.79.85,1.4,1.32,1.88-.15.05-.28.13-.39.24-.11.11-.2.24-.25.38-.06.15-.08.3-.06.45.01.16.06.3.14.44.5.86,1.05,1.51,1.61,2-.21.11-.36.26-.46.47-.19.39-.15.75.12,1.09.79,1.01,1.66,1.76,2.61,2.26-.02,0-.03,0-.05,0-.42.09-.68.35-.78.77-.1.42.01.77.34,1.04.96.8,1.94,1.36,2.95,1.68-.15.02-.3.06-.44.12-.4.17-.61.47-.63.9-.03.43.15.75.52.96,1.55.88,2.91,1.21,4.07,1.23-.18.06-.33.12-.49.22-.36.24-.51.57-.46,1,.05.43.28.71.69.86,1.16.41,2.19.57,3.08.57.69,0,1.3-.1,1.85-.25-.17-.34-.3-.79-.39-1.36-.08-.5-.12-1.01-.14-1.51" style="fill-rule:evenodd;"/><path d="M15.66,45.36c-.45-.32-.9-.64-1.34-.98-1.44-.24-2.68.53-3.89,1.01-1.76.7-2.54.61-2.82.72,3.96,2.26,6.41.44,7.28-.12.21-.14.44-.25.68-.34.03-.1.05-.2.08-.29M15.45,49.28c-.08-.5-.12-1.01-.14-1.51,0-.02,0-.27.03-.63-.5.32-.97.68-1.45.98-1.6,1.01-2.39,1.06-2.64,1.22,1.79.63,3.18.6,4.26.31-.03-.12-.05-.25-.07-.37M36.43,45.39c-1.18-.47-2.39-1.22-3.8-1.02-.45.35-.91.68-1.36,1,.03.1.06.2.09.31.19.07.39.17.61.31.87.57,3.32,2.39,7.28.12-.28-.12-1.06-.02-2.82-.72M32.97,48.12c-.46-.29-.9-.63-1.38-.94.02.33.03.56.03.58,0,.03,0,.74-.14,1.52-.02.14-.05.27-.07.39,1.07.27,2.45.28,4.2-.33-.25-.16-1.04-.21-2.64-1.22M42.6,18.43c-.09.09-.16.42-.7,1.01-.13.14-.27.28-.4.42v1.42c.36-.26,1.41-.97,1.1-2.85M42.01,23.19c.44-.23,1.77-.82,1.76-3-.11.09-.26.44-.96,1-.46.37-1.05.7-1.3,1.31v1.11c.08-.11.23-.28.51-.42M44.38,22.59c-.15.1-.35.51-1.26,1.15-.56.39-1.24.72-1.62,1.35v1.33c.15-.13.31-.23.48-.3.56-.24,2.23-.86,2.39-3.53M44.98,25.15c-.17.09-.45.53-1.53,1.14-.66.37-1.45.66-1.95,1.31v1.39c.13-.08.27-.14.42-.18.65-.21,2.58-.71,3.06-3.65M45.51,28.76c-.2.06-.59.45-1.86.84-.7.21-1.51.33-2.15.78-.01.51-.06,1.01-.14,1.52.04,0,.07-.01.11-.02.72-.07,2.86-.14,4.05-3.12M41.12,33.05c-.16.63-.36,1.24-.6,1.83.01,0,.03,0,.04,0,.81,0,3.18.14,4.81-3.03-.23.04-.7.44-2.15.73-.68.14-1.42.2-2.1.46M39.88,36.28c-.34.65-.72,1.28-1.14,1.88.21-.04.42-.05.63-.04.86.05,3.37.34,5.28-2.93-.25.03-.77.42-2.32.65-.79.11-1.66.12-2.44.44M37.99,39.18c-.5.63-1.03,1.24-1.58,1.83.33-.05.65-.05.98.02.91.17,3.57.84,6.08-2.39-.27,0-.89.34-2.58.36-.93.01-1.95-.12-2.89.18M38.77,42.37c-1.05-.21-2.17-.63-3.31-.41-.54.51-1.09,1-1.66,1.48.25.02.58.08.94.23.9.38,3.47,1.65,6.75-1.11-.27-.06-.98.16-2.73-.2M5.38,21.29s.04.03.06.05v-1.4c-.15-.17-.32-.33-.47-.5-.53-.59-.61-.92-.7-1.01-.32,1.9.76,2.6,1.11,2.86M4.86,23.19c.43.23.57.53.57.53v-1.02c-.2-.74-.86-1.1-1.37-1.51-.7-.57-.85-.91-.96-1-.01,2.18,1.32,2.77,1.76,3M4.88,26.11c.21.09.39.21.55.37v-1.27c-.37-.71-1.1-1.06-1.69-1.47-.91-.64-1.11-1.05-1.26-1.15.16,2.67,1.84,3.28,2.39,3.53M4.95,28.81c.2.06.35.14.48.22v-1.34c-.49-.72-1.32-1.02-2.01-1.4-1.08-.61-1.36-1.04-1.53-1.14.48,2.95,2.41,3.44,3.06,3.65M5.41,31.87c.06,0,.12.02.17.03-.08-.49-.12-.98-.14-1.48-.65-.49-1.49-.61-2.22-.83-1.27-.38-1.66-.78-1.86-.84,1.18,2.97,3.32,3.05,4.05,3.12M6.31,34.88s.07,0,.11,0c-.24-.59-.44-1.19-.59-1.81-.69-.3-1.47-.35-2.17-.49-1.45-.29-1.92-.69-2.15-.73,1.62,3.17,4,3.03,4.81,3.03M7.5,38.12c.24-.01.48,0,.71.05-.41-.6-.79-1.22-1.13-1.86-.8-.35-1.71-.35-2.53-.47-1.55-.23-2.08-.62-2.32-.65,1.91,3.26,4.42,2.97,5.28,2.93M9.49,41.03c.45-.09.81-.06,1.06,0-.55-.58-1.08-1.18-1.57-1.81-.97-.34-2.02-.2-2.98-.21-1.7-.02-2.32-.37-2.58-.36,2.51,3.23,5.16,2.56,6.08,2.39M12.13,43.67c.32-.14.66-.22,1.01-.24-.56-.47-1.1-.95-1.63-1.45-1.17-.27-2.32.17-3.4.39-1.74.35-2.45.14-2.73.2,3.28,2.75,5.85,1.48,6.75,1.11" style="fill:#ab9767; fill-rule:evenodd;"/><path d="M27.6,43.14c.83-.51,1.64-1.05,2.42-1.62V13.15c-1.42-.45-2.88-.75-4.37-.91v30.54c.67.08,1.32.2,1.94.36M9.28,17.29v12.47c0,2.66,1.09,5.27,3.24,7.79V15.04c-1.78,1.01-2.91,1.96-3.24,2.26M34.41,37.55c2.15-2.52,3.24-5.13,3.24-7.79v-12.47c-.34-.3-1.47-1.24-3.24-2.24v22.5ZM21.28,42.79V12.24c-1.49.15-2.94.45-4.37.9v28.38c.79.57,1.6,1.11,2.43,1.62.64-.16,1.29-.28,1.94-.36" style="fill-rule:evenodd;"/><path d="M23.47,8.07c-10.24,0-16.86,5.72-17.68,6.47v15.45c0,6.46,5.22,11.64,10,15.02.16-.38.36-.63.6-.76.81-.42,1.65-.75,2.53-1-1.08-.67-2.12-1.4-3.13-2.19-4.53-3.57-6.82-7.37-6.82-11.31v-12.61l.05-.05c.59-.54,6.05-5.29,14.45-5.29s13.85,4.75,14.45,5.29l.05.05v12.61c0,3.93-2.29,7.74-6.81,11.31-1,.79-2.04,1.52-3.12,2.19.87.25,1.71.58,2.52,1,.24.13.44.39.6.77,4.78-3.38,10-8.55,10-15.03v-15.45c-.77-.69-7.51-6.47-17.68-6.47" style="fill-rule:evenodd;"/><path d="M43.34,46.24c-.11-.75-.43-1.51-.72-2.15l-.03-.06-.26-.4c-.34-.53-.73-1.12-1.35-1.42l-.51-.97s-.02-.03-.03-.05c-.67-.83-1.43-1.6-2.18-2.33,0,0-.21-.21-.3-.3-.08-.47-.37-.82-.63-1.12-.17-.2-.33-.38-.43-.6-.03-.06-.07-.1-.13-.13-.5-.27-1.06-1.07-1.35-1.71,0-.01-.27-.45-.49-.83.15.07.31.14.45.21l.33.16c1.31.54,2.43,1.14,3.73,1.82l.39.21.36.23c.22.15.43.29.75.37.26.08.74,0,.91-.43l.02-.07c.08-.57-.32-1.16-.64-1.64l-.1-.15-.38-.55c-.77-1.11-1.56-2.25-2.65-3.17-.21-.21-.42-.42-.63-.64-.01-.01-.03-.02-.04-.03-1.73-1.25-2.96-2.8-4.25-4.45-1.1-1.39-2.23-2.83-3.69-4.05l-.02-.02c-1.79-1.23-3.37-2.9-4.9-4.53l-1.86-1.93c-.83-.72-1.58-1.34-2.42-1.8l-.61-.58c-1.03-.96-2.01-1.88-2.01-3.09,0-.24.04-.5.12-.76,0,0,.03-.1.03-.1.37-1.15.76-2.34,1.81-3.08.02-.02.05-.04.06-.06l1.08-1.35c1.32-.97,3.08-2.15,5.14-2.66,0,0,.01,0,.02-.01l.24-.26c.05-.17-.04-.31-.08-.38l-.02-.03s-.05-.08-.09-.11c-.7-.51-1.55-.64-2.29-.73-1.48-.18-2.96-.19-4.44,0-1.02-.31-4.25-1.11-6.72.16-.88.47-1.19,1.3-1.44,1.98-.13.35-.25.68-.43.88-1.98,1.87-2.81,4.02-3.68,6.29l-.39,1.01-.16.35c-.49,1.09-1.15,2.58-1.91,3.53-.02.02-.08.13-.09.16-.12.27-.42,1.09-.46,1.45-.09.79.06,1.57.31,2.1.28.6.78,1.1,1.04,1.49.73,1.15,1.35,1.93,2.02,3.1,1.3,2.27,2.58,4.58,4.36,6.71l.02.02c1.59,1.58,3.5,2.62,5.68,3.11.88.93,1.49,2.36,2.16,3.4,0,0,.73,1.24.76,1.29.08.14.07.29.07.44,0,.2.06.42-.02.69-.08.28-.15.56-.15.87v.02c0,.11.01.22.01.32,0,.67.25,1.28-.04,2.04-.15.37-.31.74-.48,1.1.59-.13,1.19-.23,1.79-.29l.51-.99c.24-.47.58-.86.89-1.2.37-.42.7-.78.74-1.21.03-.69.1-1.56.36-2.35.12-.08.25-.17.38-.34.1-.13.13-.27.13-.41,0-.15-.04-.3-.07-.44-.04-.15-.05-.24-.05-.29s.02-.06.04-.08c.42-.13.91-.08,1.25.14.2.21.32.46.45.73.12.25.25.5.43.74.09.34.12.72.14,1.12.05.74.11,1.5.59,2.12.05.14.07.28.07.43,0,.47-.21.96-.39,1.37l-.1.24s0,0,0,0c-.07.18-.17.38-.27.59.52.09,1.02.2,1.5.35.32-.56.62-1.13.9-1.73.15-.39.19-.79.22-1.19.09.15.19.31.28.47.33.56.67,1.13,1.13,1.66.42.71.95,1.77,1.2,2.59.01.04.03.08.07.12.44.46,1.13.67,1.93.61,1.26-.18,1.52.05,1.7.2.09.08.2.18.38.21l2.89.04c.87-.05,1.77-.09,2.68,0l1.5.34c.11.02.2,0,.28-.07.08-.07.11-.16.1-.27" style="fill:#fff; fill-rule:evenodd;"/><path d="M42.33,44.2c-.42-.6-.83-1.48-1.59-1.78l-.55-1.04c-.76-.95-1.64-1.79-2.51-2.66-.06-.73-.74-1.1-1.06-1.74-.57-.32-1.17-1.17-1.48-1.85-.25-.44-.6-1.02-.86-1.45.49,0,1.09.36,1.55.57,1.45.6,2.66,1.25,4.14,2.04.43.24.62.47,1.05.58.15.04.45,0,.54-.24.07-.5-.4-1.12-.69-1.57-.91-1.29-1.74-2.62-2.98-3.66l-.65-.65c-3.28-2.37-4.86-5.92-7.96-8.51-2.53-1.73-4.56-4.26-6.8-6.49-.77-.66-1.54-1.31-2.39-1.78-1.35-1.34-3.28-2.66-2.6-4.78.39-1.19.79-2.52,1.96-3.34l1.1-1.38c1.62-1.2,3.31-2.24,5.24-2.73.14-.07.04-.16,0-.24-.62-.45-1.37-.58-2.14-.67-1.48-.18-2.96-.18-4.44,0-2-.61-4.64-.86-6.55.12-1.22.65-1.2,2.14-1.78,2.79-2.24,2.11-2.99,4.6-4.02,7.2-.49,1.08-1.26,2.88-2.14,3.97-.36.86-.83,1.87-.05,3.51.23.49.53.77.78,1.13,2.66,3.68,3.8,6.76,6.47,9.97,1.61,1.6,3.52,2.6,5.63,3.06,1.71,1.38,1.92,3.21,3.08,4.81.42.73-.13,1.43-.12,2.17.05.93.26,1.68-.05,2.48-.12.31-.25.62-.39.92.35-.07.69-.12,1.04-.17.2-.39.4-.78.6-1.17.53-1.07,1.53-1.67,1.6-2.3.04-.87.13-1.73.4-2.51.14-.09.26-.16.4-.34.27-.36-.38-1.06.18-1.32.51-.17,1.13-.11,1.56.18.47.47.56,1.1.98,1.59.29,1.06-.01,2.37.74,3.25.28.82-.2,1.7-.43,2.27-.07.16-.15.34-.24.53.3.06.59.13.88.2.33-.57.64-1.15.92-1.78.23-.6.18-1.31.28-1.96.68.91,1.1,1.98,1.9,2.87.45.77.98,1.83,1.23,2.66.45.47,1.13.55,1.68.51,1.87-.27,1.82.35,2.15.41,1.81.27,3.62-.17,5.57.04l1.52.35c-.1-.72-.42-1.47-.7-2.08M17.62,1.67c.2-.21.51-.24.77-.21v.15c-.12.16-.4.38-.67.24-.05-.05-.12-.1-.09-.18M17.5,4.86c.66-1.44.79-1.22,1.78-1.1.43-.06.68-.34.92-.64l-.06-.09c-.56.13-1.11.56-1.71.31-.24-.18-.29-.47-.21-.73.52-.63,1.71-.08,2.33-.57.2-.25-.31-.35-.44-.44-.11-.06-.34.02-.34-.18.23-.18.58-.09.85-.11.44,0,1.04-.23,1.05.14,0,.65-1.1.87-.98,1.32.16.3.46.16.7.06.6-.26,1.09-.78,1.71-.98.13-.03.21.04.21.15v.09c-1.69.88-3.25,2.1-4.84,3.25-.29.17-.57.34-.92.24-.25-.15-.04-.47-.06-.7M11.16,6.05c.3.44-1.03.67-.12.86.17.69-1.06.88-1.53,1.38.02.08-.02.23.15.18.43-.04,1.06-.77,1.16-.4.09.5-.48.55-.77.73-.35.17-.77.37-.95.77-.07.2.24.13.34.09.37-.11.87-.73,1.01-.52.06.19-.08.38-.21.52-.5.38-1.32.31-1.56,1.01-.02.18.3.28.49.18.32-.15.74-.81.92-.55.08.23-.11.46-.31.58-.87.78-1.79,1.45-2.85,1.78-.13-.18-.02-.43.03-.61.77-2.3,1.79-4.51,3.12-6.58.28-.33.9-.56,1.19-.15-.02.44-.64.34-.71.74.18.14.39,0,.58,0M16.21,2.22c-.25.03-.77-.37-.98.06-.09.25.09.7-.28.77-.21.02-.51,0-.52-.21-.05-.3-.07-.64.12-.89.19-.41.72-.68,1.3-.58.25.05.5.23.63.55.05.19-.1.26-.28.31M20.34,15.66l-.09-.34c.9.48,1.76,1.14,2.51,1.93.8.72,1.72,1.92,1.71,2.05-.14.12-.76-.56-1.26-.55-.31.07.09.52-.15.61-.33.12-1.92-.62-2.51-1.44.08-.04.27-.03.24-.15.08-.13-.62-.37-.52-.61,0,0,.16.14.28.09.29-.28-.53-.57-.06-.8.02-.28-.29-.48-.4-.67.07-.04.17-.06.24-.13M28.71,28.74c-.31-.26-.6-.6-.98-.7-.16.02-.14.14-.14.21.19.28.91.38.69.71-.5.31-.93-.26-1.38-.46-1.37-1.06-2.69-2.3-3.98-3.46-.33-.32-.59-.74-.49-.83.07-.1.58.21.75.3.17.08.17-.11.17-.11-1.15-1.26-3.34-2.14-3.22-4.1.03-.16.16-.31.31-.4.45-.34,4.1.78,5.63,1.68,1.65.89,3.12,2.37,4.19,3.95.02.08.04.15.03.25-.1.16-.33,0-.55-.15-.27-.18-.51-.43-.8-.55l-.09.09c.62.81,1.94,1.32,1.93,2.47l-.19.02c-.55-.36-1.08-.85-1.65-1.05-.15.07,0,.18.06.25.57.4,1.17.81,1.72,1.29.12.17.15.41.09.61h-.18c-.46-.33-.84-.62-1.44-.86-.12.24.15.36.43.55.42.24,1.38.51.98,1.01-.75.59-1.38-.31-1.9-.7M37.04,39.24c-.54-.12-.9-.7-1.35-1.04-.24-.28-.42-.57-.64-.86-.13-.06-.21,0-.21.15-.23.79,1.29,2.2,1.84,3.34.11.3.31.64.18.95-.3.18-1.21-.03-1.44-.12-.53-.32-.84-1.66-1.53-2.51-.14-.07-.13-.27-.31-.24-.22.2.02.43.03.64.19.48.62.9.58,1.44l-.28-.03c-.58-.8-1.09-1.65-1.75-2.39-.28.21,0,.49,0,.74.24.61.68,1.13.77,1.81,0,.21-.28.11-.4.09-1.1-1.03-1.44-2.48-2.36-3.64-.14,0-.18.12-.25.21.18,1.03.9,1.85.8,3-.05.03-.08.12-.15.09-.69-1-1.77-2.12-1.07-3.43.35-1.12-.56-2.17-.03-3.25.34-.36.85-.31,1.32-.24.24-.32.12-.81.58-1.01.4-.27,1.02-.15,1.41.06,1.51,1.87,2.76,3.84,4.23,5.73,0,.18.25.39.03.52" style="fill-rule:evenodd;"/><path d="M31.48,46.25c-.18-1.08-.49-1.75-.93-1.99-2.11-1.09-4.36-1.59-7.09-1.59-2.72,0-4.97.51-7.08,1.59-.44.24-.75.91-.93,1.99-.08.5-.12,1.01-.14,1.52,0,.03,0,.73.14,1.51.18,1.08.49,1.75.93,1.99h0c2.11,1.09,4.36,1.59,7.09,1.59,2.72,0,4.97-.51,7.08-1.59.44-.24.75-.91.93-1.99.13-.78.13-1.48.14-1.52,0-.03,0-.73-.14-1.51" style="fill:#fff; fill-rule:evenodd;"/><path d="M24.62,46.31c-.19,0-.3.07-.3.33v.74c0,.27.11.33.3.33.17,0,.3-.08.3-.33v-.74c0-.27-.11-.33-.3-.33M22.36,46.31h-.11c-.13,0-.27.09-.27.35v.42c0,.26.14.35.27.35h.11c.13,0,.27-.09.27-.35v-.42c0-.26-.14-.35-.27-.35M22.36,47.96h-.11c-.13,0-.27.09-.27.35v.55c0,.26.14.35.27.35h.11c.13,0,.27-.09.27-.35v-.55c0-.26-.14-.35-.27-.35" style="fill-rule:evenodd;"/><path d="M30.41,44.52c-2.06-1.06-4.27-1.56-6.94-1.56-2.68,0-4.88.5-6.95,1.56-.72.39-.89,2.47-.9,3.24,0,.76.18,2.84.9,3.24,2.06,1.06,4.27,1.56,6.94,1.56,2.68,0,4.88-.5,6.95-1.56.72-.39.89-2.47.9-3.24,0-.76-.18-2.84-.9-3.24M29.74,50.36l-.02.02c-1.86.96-3.84,1.4-6.25,1.4-2.41,0-4.4-.44-6.25-1.39l-.03-.02c-.36-.3-.57-1.7-.58-2.6.01-.89.22-2.29.57-2.6l.03-.02c1.86-.95,3.84-1.4,6.25-1.4,2.41,0,4.4.44,6.25,1.39l.03.02c.37.3.57,1.7.58,2.6-.01.89-.22,2.29-.58,2.6" style="fill-rule:evenodd;"/><path d="M29.46,45.43c-1.77-.91-3.68-1.33-5.99-1.33-2.31,0-4.21.42-5.98,1.33-.2.19-.45,1.26-.46,2.34.01,1.05.26,2.15.46,2.33,1.77.91,3.67,1.33,5.99,1.33h0c2.31,0,4.21-.42,5.98-1.33.2-.19.45-1.26.46-2.34-.01-1.05-.26-2.15-.46-2.33h0ZM20.92,49.7h-1.83v-.54h.63v-2.68l-.63.19v-.58l.8-.28h.45v3.34h.58v.54h0ZM23.24,47.07c0,.24-.06.56-.38.61.34.07.38.46.38.67v.57c0,.54-.29.82-.85.82h-.17c-.57,0-.85-.28-.85-.82v-.57c0-.21.04-.6.38-.67-.32-.05-.38-.37-.38-.61v-.48c0-.54.29-.82.85-.82h.17c.57,0,.85.28.85.82v.48ZM25.54,48.95c0,.58-.31.8-.9.8h-.01c-.59,0-.9-.22-.9-.8v-.37h.62v.3c0,.27.09.33.28.33s.28-.07.28-.33v-.8c-.09.09-.19.17-.45.17-.44,0-.77-.22-.77-.8v-.88c0-.58.33-.8.91-.8h.01c.59,0,.91.22.91.8v2.37ZM27.84,47.03c0,.49-.32.7-.69,1.05-.32.31-.53.52-.53.73v.35h1.22v.53h-1.84v-.9c0-.49.4-.81.79-1.18.29-.28.43-.4.43-.6v-.38c0-.27-.13-.33-.3-.33s-.29.07-.29.33v.57h-.61v-.63c0-.58.32-.8.91-.8h.01c.59,0,.91.22.91.8v.45Z" style="fill-rule:evenodd;"/><path d="M4.16,50.06l-1.78-1.49c-.06-.05-.06-.1-.01-.16l.02-.03c.05-.06.1-.06.16-.01l1.78,1.49s.05.11.01.16l-.02.03c-.05.06-.1.06-.16.01" style="fill:#ab9767; fill-rule:evenodd;"/><path d="M40.72,50.08l1.21,1.94c.32.51.11.92-.4,1.24l-.86.54-2.1-3.36.86-.54c.51-.32.97-.33,1.29.18M39.72,50.4l-.28.18,1.49,2.38.28-.18c.18-.11.26-.26.11-.5l-1.1-1.76c-.15-.24-.32-.23-.5-.11M36.33,51.54l.04-.02c.54-.25,1-.21,1.26.34l1.01,2.15c.25.54,0,.93-.55,1.18l-.04.02c-.54.25-1,.21-1.26-.34l-1.01-2.15c-.26-.55,0-.93.55-1.18M37.82,54.67c.19-.09.29-.23.17-.48l-.92-1.97c-.12-.26-.29-.27-.48-.17-.19.09-.29.23-.17.48l.92,1.97c.12.26.29.27.48.17M33.11,52.82h.04c.57-.2,1.02-.1,1.21.47l.75,2.26c.19.57-.11.92-.68,1.11h-.04c-.57.2-1.02.1-1.21-.47l-.75-2.26c-.19-.57.11-.92.68-1.11M34.22,56.11c.2-.07.32-.19.23-.46l-.68-2.06c-.09-.27-.25-.3-.46-.23-.2.07-.32.19-.23.46l.68,2.06c.09.27.25.3.46.23M31.17,57.52l-.61.11-1-2.57v2.76s-.62.12-.62.12l-1.35-3.78.63-.12.85,2.72-.03-2.88.58-.11,1.03,2.69-.2-2.84.6-.11.12,4.01ZM26.57,57.43c.04.61-.35.86-.94.9h-.05c-.6.04-1.01-.16-1.04-.78l-.14-2.37c-.03-.59.35-.86.94-.89h.05c.6-.04,1.01.19,1.04.77l.03.56-.66.04-.03-.46c-.02-.28-.17-.35-.38-.34-.21.01-.36.1-.34.38l.13,2.17c.02.28.17.35.38.34.21-.01.36-.1.34-.38l-.03-.59-.38.02-.03-.55,1.04-.06.07,1.24h0ZM20.58,58.25l.2-3.96.66.03.71,2.49.12-2.45.6.03-.2,3.96-.62-.03-.74-2.61-.13,2.57-.6-.03ZM18.01,57.93l.57-3.92.65.09-.57,3.92-.65-.09ZM16.34,57.64l-1.62-.38.91-3.85.64.15-.77,3.28.99.23-.14.57ZM13.07,56.79l-1.58-.55,1.3-3.74.62.22-1.11,3.19.96.33-.19.56ZM10.5,51.47l.04.02c.54.26.8.64.54,1.19l-1.03,2.14c-.26.54-.72.58-1.26.33l-.04-.02c-.54-.26-.8-.64-.54-1.19l1.03-2.14c.26-.55.72-.58,1.26-.33M9.02,54.61c.19.09.36.08.48-.17l.94-1.96c.12-.26.02-.39-.17-.48-.19-.09-.36-.08-.48.17l-.94,1.96c-.12.26-.02.39.17.48M6.64,53.06c-.33.52-.78.49-1.29.17h0c-.51-.33-.72-.73-.39-1.25l1.28-2c.32-.5.78-.49,1.29-.17h0c.51.33.71.75.39,1.25l-.39.61-.55-.35.33-.52c.15-.23.08-.38-.1-.49-.18-.11-.34-.11-.49.12l-1.17,1.83c-.15.23-.08.38.1.49.18.11.34.11.49-.12l.39-.61.55.35-.44.69h0Z" style="fill-rule:evenodd;"/><path d="M44.55,48.66l-1.79,1.48c-.06.05-.11.04-.16-.02l-.02-.02c-.05-.06-.04-.11.02-.16l1.79-1.48c.06-.05.11-.04.16.02l.02.02c.05.06.04.11-.02.16" style="fill:#ab9767; fill-rule:evenodd;"/></svg>