<?xml version="1.0" encoding="UTF-8" standalone="no"?>
<svg
   width="2442.7644"
   height="570.25464"
   viewBox="0 0 188.343 43.968001"
   version="1.1"
   id="svg20713"
   sodipodi:docname="yves-saint-laurent copy.svg"
   inkscape:version="1.1.2 (b8e25be8, 2022-02-05)"
   xmlns:inkscape="http://www.inkscape.org/namespaces/inkscape"
   xmlns:sodipodi="http://sodipodi.sourceforge.net/DTD/sodipodi-0.dtd"
   xmlns="http://www.w3.org/2000/svg"
   xmlns:svg="http://www.w3.org/2000/svg">
  <defs
     id="defs20717" />
  <sodipodi:namedview
     id="namedview20715"
     pagecolor="#ffffff"
     bordercolor="#666666"
     borderopacity="1.0"
     inkscape:pageshadow="2"
     inkscape:pageopacity="0.0"
     inkscape:pagecheckerboard="0"
     showgrid="false"
     fit-margin-top="0"
     fit-margin-left="0"
     fit-margin-right="0"
     fit-margin-bottom="0"
     inkscape:zoom="0.149"
     inkscape:cx="2218.1208"
     inkscape:cy="285.2349"
     inkscape:window-width="1296"
     inkscape:window-height="961"
     inkscape:window-x="0"
     inkscape:window-y="25"
     inkscape:window-maximized="0"
     inkscape:current-layer="g20711" />
  <g
     fill-rule="evenodd"
     clip-rule="evenodd"
     id="g20711"
     transform="translate(-2.186,-74.491)">
    <path
       d="m 154.15,99.995 v -7.379 h 6.836 V 91.14 h -6.836 v -7.405 c 2.148,-0.258 4.557,-0.258 7.094,0 l 0.156,-1.347 h -9.684 v 17.997 l -5.49,-6.447 v -1.191 c 2.537,-0.803 3.885,-2.692 3.885,-5.645 0,-2.952 -3.082,-4.713 -5.645,-4.713 h -6.162 v 19.343 h 2.951 V 83.605 c 2.693,0 5.49,0.932 5.49,3.91 0,2.951 -1.477,4.428 -3.756,5.101 l 0.131,1.191 8.596,10.071 3.496,0.674 -2.41,-2.821 h 8.598 l 1.605,-3.496 c -2.95,1.76 -6.032,2.304 -8.855,1.76 z M 135.482,82.388 h -1.477 v 11.031 c 0,4.014 0,7.25 -3.496,7.25 -3.236,0 -3.883,-1.89 -3.883,-6.991 v -11.29 h -2.305 v 11.833 c 0,5.23 0.828,8.441 6.188,8.441 5.102,0 4.973,-6.032 4.973,-8.725 z m -61.885,19.343 h 2.28 V 82.388 h -2.28 z m 44.303,-19.343 -0.959,1.788 -9.27,17.556 h 2.824 l 3.754,-7.794 h 4.582 l 1.736,7.794 h 2.822 L 118.418,82.389 H 117.9 Z m -0.959,9.4 h -1.604 l 1.604,-3.522 0.416,-0.906 1.189,4.428 z"
       id="path20707" />
    <path
       d="m 105.006,106.494 6.785,-31.278 h -2.824 l -1.475,7.172 H 93.355 V 97.174 L 80.849,82.388 h -1.735 v 19.343 h 1.735 v -14.76 l 12.505,14.76 h 1.993 v -17.71 c 1.346,-0.415 2.434,-0.415 3.625,0.258 v 17.453 h 2.252 V 84.279 c 1.09,-0.881 3.781,-0.933 5.775,0.414 l -4.609,23.434 14.551,-0.311 1.348,-0.026 0.543,-2.641 -1.891,0.181 z M 67.437,82.388 66.478,84.2 59.513,97.561 c -0.286,-1.062 -0.674,-1.994 -1.346,-2.666 -2.693,-3.626 -9.141,-8.209 -9.528,-12.896 -0.286,-3.366 2.277,-5.774 5.644,-6.033 2.407,-0.155 5.775,1.865 6.706,3.755 l 2.149,-1.346 c -1.761,-3.082 -6.448,-3.884 -9.141,-3.884 -2.278,0 -4.556,1.45 -6.137,3.106 -1.242,1.27 -2.07,2.668 -2.174,3.599 v 1.477 c -4.299,-1.605 -9.27,-0.415 -9.01,5.489 0.285,3.496 6.317,5.645 7.12,7.664 0.803,1.89 1.346,4.427 -2.409,4.558 -3.107,0.284 -4.298,-1.865 -4.298,-2.149 -1.346,1.76 -8.051,2.562 -8.726,1.76 v -7.534 h 6.836 v -1.476 h -6.836 v -7.25 c 2.149,-0.258 4.559,-0.258 7.121,0 l 0.13,-1.476 H 25.93 v 0.129 H 25.127 L 18.291,96.242 15.857,82.388 H 15.054 L 20.44,75.139 H 17.878 L 8.892,88.448 H 8.09 L 4.723,75.139 H 2.445 L 5.397,91.14 2.186,107.375 h 2.537 l 3.884,-16.106 5.127,-6.861 3.082,17.323 h 0.932 L 25.93,85.21 v 16.521 h 9.684 l 0.803,-1.347 c 1.216,1.216 2.952,1.347 4.557,1.347 h 1.477 v 3.624 c 1.346,1.19 3.289,2.174 5.41,2.641 3.626,0.855 7.77,0.26 10.307,-3.029 0.672,-0.958 1.061,-2.02 1.346,-3.235 h 0.544 l 3.754,-7.794 h 4.557 l 1.734,7.794 h 2.823 L 67.954,82.389 h -0.517 z m -16.392,24.857 c -1.32,-0.052 -2.355,-0.231 -3.186,-0.569 -2.252,-0.881 -3.185,-2.744 -4.738,-5.075 4.558,-0.544 5.102,-3.365 3.626,-6.705 -1.217,-2.435 -8.053,-6.06 -8.053,-8.468 0,-4.04 5.361,-4.04 7.12,-0.544 l 0.259,-0.932 c 0.415,1.165 1.036,2.201 1.786,3.159 2.461,3.209 6.292,5.618 8.158,8.932 2.693,4.973 -0.414,10.202 -4.972,10.202 z M 66.478,91.788 h -1.605 l 1.605,-3.522 0.415,-0.906 1.216,4.428 z m 112.893,-9.4 h -1.994 V 97.174 L 164.871,82.388 h -1.736 v 19.343 h 1.736 v -14.76 l 12.506,14.76 h 1.994 v -17.71 c 1.346,-0.415 2.434,-0.415 3.623,0.258 v 17.453 h 2.305 V 84.279 c 1.191,-0.933 2.668,-0.802 5.23,0.129 v -2.02 z m -98.989,31.279 c -0.465,0 -0.958,0.155 -1.45,0.467 -0.492,0.311 -0.88,0.724 -1.164,1.269 a 3.063,3.063 0 0 0 -0.441,1.604 c 0,0.235 0.052,0.493 0.155,0.727 0.104,0.232 0.286,0.414 0.518,0.518 0.233,0.13 0.492,0.207 0.803,0.207 0.44,0 0.88,-0.129 1.294,-0.362 0.311,-0.182 0.622,-0.466 0.959,-0.854 L 80.9,117.11 a 2.103,2.103 0 0 1 -0.726,0.492 c -0.233,0.103 -0.465,0.182 -0.673,0.182 -0.259,0 -0.466,-0.104 -0.647,-0.312 -0.182,-0.18 -0.259,-0.439 -0.259,-0.776 0,-0.414 0.077,-0.854 0.259,-1.32 0.181,-0.439 0.415,-0.829 0.75,-1.14 0.26,-0.207 0.518,-0.336 0.803,-0.336 0.104,0 0.18,0.025 0.259,0.077 0.052,0.052 0.077,0.078 0.077,0.156 0,0.076 -0.077,0.155 -0.208,0.231 -0.155,0.131 -0.258,0.312 -0.258,0.467 0,0.156 0.051,0.26 0.155,0.363 a 0.524,0.524 0 0 0 0.389,0.155 0.587,0.587 0 0 0 0.465,-0.234 0.757,0.757 0 0 0 0.233,-0.569 0.786,0.786 0 0 0 -0.285,-0.621 c -0.205,-0.18 -0.49,-0.258 -0.852,-0.258 z m 5.334,0.183 a 1.882,1.882 0 0 0 -0.751,-0.183 2.26,2.26 0 0 0 -0.829,0.155 1.646,1.646 0 0 0 -0.311,0.13 3.1,3.1 0 0 0 -0.983,0.751 c -0.284,0.285 -0.519,0.647 -0.726,1.061 -0.182,0.389 -0.258,0.829 -0.258,1.295 0,0.389 0.103,0.726 0.361,0.984 0.259,0.285 0.596,0.414 1.061,0.414 0.286,0 0.571,-0.052 0.855,-0.155 a 3.378,3.378 0 0 0 1.813,-1.606 c 0.31,-0.517 0.466,-1.061 0.466,-1.604 0,-0.26 -0.053,-0.52 -0.182,-0.727 a 1.214,1.214 0 0 0 -0.516,-0.515 z m -0.751,2.017 c -0.129,0.52 -0.31,0.984 -0.518,1.398 a 5.057,5.057 0 0 1 -0.312,0.544 1.217,1.217 0 0 1 -0.232,0.26 0.55,0.55 0 0 1 -0.337,0.129 0.454,0.454 0 0 1 -0.336,-0.155 c -0.104,-0.104 -0.129,-0.233 -0.129,-0.389 0,-0.621 0.129,-1.319 0.44,-2.098 0.208,-0.568 0.415,-0.984 0.595,-1.242 0.053,-0.104 0.13,-0.156 0.182,-0.233 a 0.652,0.652 0 0 1 0.44,-0.155 0.36,0.36 0 0 1 0.285,0.155 c 0.104,0.104 0.129,0.233 0.129,0.415 0,0.413 -0.052,0.88 -0.207,1.371 z m 3.495,1.838 c -0.051,0.053 -0.103,0.079 -0.155,0.079 -0.025,0 -0.077,0 -0.104,-0.052 -0.026,-0.027 -0.026,-0.052 -0.026,-0.104 0,-0.078 0.053,-0.284 0.13,-0.623 l 1.553,-5.229 0.104,-0.414 h -0.284 l -1.682,0.31 -0.079,0.184 c 0.208,0 0.337,0.024 0.44,0.076 0.078,0.053 0.103,0.13 0.103,0.208 0,0.077 -0.051,0.232 -0.103,0.491 l -1.372,4.635 c -0.078,0.26 -0.104,0.467 -0.104,0.596 0,0.155 0.052,0.285 0.181,0.414 0.13,0.13 0.311,0.182 0.545,0.182 0.232,0 0.44,-0.077 0.673,-0.232 0.284,-0.208 0.595,-0.57 0.931,-1.088 l -0.207,-0.078 c -0.181,0.31 -0.361,0.543 -0.544,0.645 z m 22.864,-3.855 a 1.875,1.875 0 0 0 -0.752,-0.183 c -0.283,0 -0.57,0.052 -0.828,0.155 a 1.702,1.702 0 0 0 -0.311,0.13 c -0.389,0.182 -0.697,0.44 -0.984,0.751 -0.283,0.285 -0.518,0.647 -0.725,1.061 -0.182,0.389 -0.26,0.829 -0.26,1.295 0,0.389 0.104,0.726 0.363,0.984 0.26,0.285 0.596,0.414 1.062,0.414 0.283,0 0.568,-0.052 0.854,-0.155 a 3.378,3.378 0 0 0 1.812,-1.606 3.097,3.097 0 0 0 0.467,-1.604 c 0,-0.26 -0.051,-0.52 -0.182,-0.727 a 1.22,1.22 0 0 0 -0.516,-0.515 z m -0.752,2.017 a 6.75,6.75 0 0 1 -0.518,1.398 5.062,5.062 0 0 1 -0.311,0.544 c -0.078,0.104 -0.154,0.207 -0.232,0.26 a 0.55,0.55 0 0 1 -0.338,0.129 0.458,0.458 0 0 1 -0.336,-0.155 c -0.102,-0.104 -0.129,-0.233 -0.129,-0.389 0,-0.621 0.129,-1.319 0.439,-2.098 0.207,-0.568 0.414,-0.984 0.596,-1.242 0.053,-0.104 0.131,-0.156 0.182,-0.233 a 0.648,0.648 0 0 1 0.439,-0.155 0.36,0.36 0 0 1 0.285,0.155 c 0.104,0.104 0.131,0.233 0.131,0.415 a 4.45,4.45 0 0 1 -0.208,1.371 z m -3.91,-4.505 a 0.646,0.646 0 0 0 -0.516,0.233 c -0.156,0.129 -0.207,0.311 -0.207,0.518 0,0.206 0.051,0.362 0.207,0.518 0.127,0.13 0.309,0.207 0.516,0.207 0.207,0 0.363,-0.077 0.52,-0.207 0.129,-0.155 0.207,-0.312 0.207,-0.518 0,-0.207 -0.053,-0.389 -0.207,-0.518 a 0.66,0.66 0 0 0 -0.52,-0.233 z m 10.488,5.879 c -0.105,0.18 -0.232,0.31 -0.338,0.413 -0.051,0.026 -0.076,0.026 -0.102,0.026 -0.027,0 -0.055,0 -0.078,-0.026 a 0.186,0.186 0 0 1 -0.053,-0.104 c 0,-0.052 0.025,-0.181 0.076,-0.362 l 0.648,-2.149 c 0.078,-0.259 0.131,-0.492 0.131,-0.674 a 0.757,0.757 0 0 0 -0.182,-0.491 c -0.129,-0.129 -0.285,-0.207 -0.467,-0.207 -0.182,0 -0.389,0.078 -0.621,0.183 -0.207,0.128 -0.467,0.36 -0.777,0.697 -0.207,0.207 -0.518,0.648 -0.934,1.269 l 0.625,-2.148 h -0.312 l -1.682,0.311 -0.053,0.181 c 0.154,0 0.285,0 0.336,0.026 0.053,0.025 0.104,0.052 0.129,0.104 0.027,0.025 0.027,0.076 0.027,0.129 0,0.129 -0.027,0.362 -0.131,0.674 l -0.932,3.236 h 1.27 l 0.414,-1.503 c 0.441,-0.88 0.881,-1.526 1.346,-1.968 0.182,-0.181 0.338,-0.258 0.467,-0.258 a 0.2,0.2 0 0 1 0.104,0.052 c 0.025,0.025 0.025,0.052 0.025,0.076 0,0.079 0,0.182 -0.053,0.312 l -0.621,2.149 c -0.076,0.284 -0.129,0.492 -0.129,0.621 a 0.52,0.52 0 0 0 0.182,0.415 c 0.104,0.104 0.283,0.155 0.492,0.155 0.543,0 1.035,-0.415 1.527,-1.243 l -0.182,-0.104 c -0.073,0.077 -0.101,0.155 -0.152,0.208 z m -10.177,-3.574 h -0.311 l -1.682,0.285 -0.078,0.206 c 0.078,-0.024 0.129,-0.024 0.182,-0.024 0.104,0 0.207,0.024 0.26,0.103 0.076,0.053 0.104,0.104 0.104,0.182 0,0.129 -0.027,0.285 -0.104,0.519 l -0.699,2.408 c 0,0.025 0,0.025 -0.027,0.052 -0.025,0.154 -0.051,0.309 -0.051,0.413 0,0.104 0.025,0.207 0.051,0.311 0.051,0.053 0.078,0.104 0.131,0.155 0.129,0.13 0.311,0.182 0.516,0.182 0.57,0 1.115,-0.44 1.605,-1.32 l -0.154,-0.104 c -0.207,0.337 -0.389,0.544 -0.545,0.672 a 0.23,0.23 0 0 1 -0.18,0.079 c -0.025,0 -0.051,-0.026 -0.078,-0.052 -0.051,-0.027 -0.051,-0.052 -0.051,-0.104 0,-0.052 0.025,-0.182 0.078,-0.388 z m -5.852,0.259 c -0.18,-0.181 -0.439,-0.259 -0.801,-0.259 -0.492,0 -0.959,0.155 -1.451,0.467 a 3.224,3.224 0 0 0 -1.164,1.269 3.087,3.087 0 0 0 -0.467,1.604 c 0,0.235 0.078,0.493 0.182,0.727 0.104,0.232 0.285,0.414 0.518,0.518 0.232,0.13 0.492,0.207 0.777,0.207 0.465,0 0.879,-0.129 1.32,-0.362 0.311,-0.182 0.621,-0.466 0.906,-0.854 l -0.129,-0.131 a 1.809,1.809 0 0 1 -0.699,0.492 c -0.234,0.103 -0.467,0.182 -0.674,0.182 -0.26,0 -0.467,-0.104 -0.648,-0.312 -0.18,-0.18 -0.258,-0.439 -0.258,-0.776 0,-0.414 0.078,-0.854 0.258,-1.32 0.182,-0.439 0.416,-0.829 0.752,-1.14 0.26,-0.207 0.518,-0.336 0.803,-0.336 0.104,0 0.18,0.025 0.26,0.077 0.051,0.052 0.076,0.078 0.076,0.156 0,0.076 -0.076,0.155 -0.207,0.231 a 0.583,0.583 0 0 0 -0.258,0.467 c 0,0.156 0.051,0.26 0.154,0.363 0.103,0.103 0.234,0.155 0.363,0.155 a 0.629,0.629 0 0 0 0.465,-0.234 c 0.156,-0.155 0.209,-0.336 0.209,-0.569 0,-0.259 -0.08,-0.467 -0.287,-0.622 z m -5.047,-0.259 c -0.362,0 -0.751,0.078 -1.14,0.233 -0.155,0.077 -0.337,0.155 -0.493,0.258 a 3.808,3.808 0 0 0 -1.319,1.321 4.106,4.106 0 0 0 -0.389,0.958 3.202,3.202 0 0 0 -0.079,0.699 c 0,0.181 0.027,0.336 0.079,0.492 0.052,0.155 0.128,0.284 0.232,0.414 0.208,0.285 0.596,0.414 1.166,0.414 0.285,0 0.544,-0.052 0.803,-0.129 0.155,-0.053 0.286,-0.104 0.414,-0.155 0.364,-0.208 0.726,-0.544 1.114,-1.011 l -0.155,-0.129 c -0.311,0.284 -0.595,0.492 -0.828,0.596 -0.183,0.076 -0.363,0.155 -0.544,0.155 -0.052,0.025 -0.104,0.025 -0.155,0.025 -0.234,0 -0.441,-0.077 -0.57,-0.232 a 0.82,0.82 0 0 1 -0.233,-0.596 c 0,-0.156 0.024,-0.337 0.052,-0.544 0.362,-0.025 0.672,-0.078 0.906,-0.13 0.025,0 0.052,-0.025 0.078,-0.025 0.362,-0.103 0.699,-0.233 0.983,-0.439 0.286,-0.183 0.543,-0.44 0.726,-0.751 0.155,-0.234 0.207,-0.467 0.207,-0.699 0,-0.208 -0.052,-0.389 -0.207,-0.519 -0.132,-0.128 -0.363,-0.206 -0.648,-0.206 z m -0.441,1.346 a 1.849,1.849 0 0 1 -0.388,0.623 c -0.104,0.103 -0.207,0.18 -0.311,0.259 a 0.451,0.451 0 0 1 -0.182,0.104 c -0.156,0.076 -0.388,0.129 -0.672,0.182 0.232,-0.777 0.517,-1.373 0.854,-1.787 0.025,-0.027 0.052,-0.027 0.052,-0.052 0.207,-0.233 0.389,-0.337 0.543,-0.337 0.078,0 0.155,0.025 0.208,0.077 0.052,0.053 0.078,0.129 0.078,0.233 -0.001,0.206 -0.078,0.439 -0.182,0.698 z m -4.298,2.692 a 0.278,0.278 0 0 1 -0.183,0.079 c -0.025,0 -0.077,0 -0.103,-0.052 -0.026,-0.027 -0.026,-0.052 -0.026,-0.104 0,-0.078 0.052,-0.284 0.129,-0.623 l 1.581,-5.358 0.078,-0.285 h -0.286 l -1.682,0.31 -0.053,0.184 c 0.182,0 0.31,0.024 0.414,0.076 0.08,0.053 0.104,0.13 0.104,0.208 0,0.077 -0.024,0.232 -0.104,0.491 l -1.347,4.61 -0.024,0.024 c -0.078,0.26 -0.104,0.467 -0.104,0.596 0,0.13 0.025,0.233 0.128,0.337 0,0.026 0.027,0.052 0.052,0.077 0.13,0.13 0.311,0.182 0.544,0.182 0.233,0 0.466,-0.077 0.673,-0.232 0.311,-0.208 0.621,-0.57 0.931,-1.088 l -0.206,-0.078 c -0.179,0.311 -0.36,0.544 -0.516,0.646 z m 12.532,-3.312 h 0.646 l 0.104,-0.363 0.078,-0.207 h -0.646 l 0.387,-1.373 h -0.258 c -0.414,0.467 -0.752,0.804 -1.062,1.011 a 4.23,4.23 0 0 1 -1.088,0.569 l -0.076,0.363 h 0.672 l -0.803,2.718 c -0.076,0.286 -0.129,0.544 -0.129,0.726 a 0.55,0.55 0 0 0 0.207,0.439 c 0.104,0.13 0.285,0.182 0.518,0.182 0.26,0 0.545,-0.104 0.828,-0.284 0.26,-0.182 0.52,-0.468 0.752,-0.88 l -0.182,-0.104 c -0.205,0.284 -0.389,0.492 -0.543,0.596 -0.053,0.052 -0.104,0.077 -0.156,0.077 -0.051,0 -0.076,-0.025 -0.102,-0.052 -0.027,-0.025 -0.053,-0.052 -0.053,-0.104 0,-0.103 0.025,-0.232 0.078,-0.412 z"
       id="path20709" />
  </g>
</svg>
